<svg width="324" height="324" viewBox="0 0 324 324" fill="none" xmlns="http://www.w3.org/2000/svg">
<g style="mix-blend-mode:color-burn">
<path d="M141.775 321.83V321.904L151.132 322.749L151.142 322.643C161.304 323.275 171.446 323.167 183.971 321.496L183.988 321.588L193.253 320.087V320.011C204.015 317.956 214.537 314.854 224.645 310.761L224.676 310.829L233.219 307.084V307.002C243.051 302.353 252.368 296.756 261.018 290.301L261.066 290.357L268.307 284.624V284.525C276.538 277.605 284.017 269.898 290.62 261.528L290.683 261.57L296.124 254.239V254.105C302.192 245.392 307.322 236.105 311.431 226.403L311.505 226.429L314.778 217.999V217.769C318.262 207.883 320.694 197.678 322.033 187.323L322.11 187.329L322.993 178.375V177.168C323.168 174.224 323.256 171.276 323.256 168.33V154.667V154.651C323.256 147.683 322.763 140.718 321.78 133.81V133.271L320.211 124.405L320.136 124.417C316.946 109.115 312.626 98.6943 306.621 86.16L298.078 89.9065V103.57C301.744 111.227 304.864 118.169 307.47 126.471L279.998 130.924V144.587C281.064 150.605 281.846 156.513 282.2 162.445C281.633 171.443 279.874 180.717 276.451 190.707L255.934 183.41C255.934 183.41 247.127 180.278 247.125 180.278L226.51 172.948L197.088 162.485L188.279 159.353C182.118 175.221 169.808 181.275 158.638 180.202C148.386 179.218 139.092 172.229 136.39 161.312C136.82 159.347 137.433 157.313 138.245 155.22V141.557L116.197 133.716C119.723 129.553 123.688 126.237 128.216 122.652V108.989L122.224 102.061L115.904 94.7537C120.535 92.114 124.548 90.4188 128.637 88.6257V74.9626L121.17 59.3643C144.837 51.3109 170.412 50.5264 194.522 57.0587C192.981 61.0274 191.661 64.4236 191.661 64.4236L180.667 92.7344C176.643 91.6016 172.521 90.8351 168.363 90.4349C163.935 90.0106 159.466 90.0026 155.022 90.4188L154.993 90.2547L153.723 83.08C162.524 82.3095 168.528 82.9599 174.706 83.5183L175.589 74.5643V60.9013C167.489 60.1708 160.708 59.5224 149.779 60.7852L149.754 60.6391L140.489 62.1401V75.8032L142.057 84.669L150.971 135.032L152.539 143.898C165.362 141.821 173.108 141.543 185.186 155.508L192.427 149.774L209.202 136.487C216.143 145.988 217.967 153.825 219.675 163.479L250.471 158.488C250.599 159.547 250.703 160.563 250.789 161.544C250.634 163.469 250.442 165.318 250.258 167.178V180.841L259.615 181.685C260.06 177.162 260.495 173.096 260.495 168.3V154.637C260.495 151.661 260.326 148.403 259.887 144.581V143.298L258.318 134.432L258.165 134.456C257.923 133.397 257.664 132.345 257.383 131.294L273.458 124.247L282.001 120.501V106.838L278.086 98.6623L278.004 98.6983C274.324 91.6877 269.957 85.0233 264.965 78.7991V78.655L258.973 71.7265L258.902 71.7825C253.439 65.9106 247.405 60.545 240.886 55.7599V55.6498L233.226 50.4423L227.784 57.7732L209.607 82.2594V95.9225L217.268 101.13L235.357 76.7618C246.163 84.7291 255.436 94.1973 262.959 105.293C254.564 108.973 241.01 114.915 241.01 114.915V128.578C242.407 131.494 243.624 134.052 244.714 136.633L227.202 139.471C226.039 134.878 224.354 130.427 222.185 126.201L240.788 111.467V97.8037L234.796 90.8751C234.796 90.8751 234.792 90.8791 234.784 90.8851C234.779 90.8872 234.775 90.8912 234.771 90.8952C233.75 91.7037 203.377 115.76 203.377 115.76L186.196 129.367C180.397 124.219 172.983 121.055 165.184 120.307C163.565 120.151 161.93 120.101 160.29 120.157L158.991 112.822C169.758 112.307 177.322 114.615 186.267 117.795L197.201 89.6403L208.135 61.4857L211.408 53.0561V39.395L202.599 36.2629L202.568 36.345C194.75 33.8674 186.7 32.1062 178.538 31.0835V30.9955L169.181 30.1509L169.172 30.2369C160.947 29.7806 152.692 30.0728 144.527 31.1075L144.513 31.0215L135.248 32.5225V32.6125C127.185 34.2096 119.297 36.5331 111.694 39.5531L111.657 39.4731L103.113 43.2196V43.3176C95.7662 46.854 88.783 51.0507 82.2641 55.8459L82.2055 55.7779L74.9651 61.5117V61.6298C68.8373 66.8572 63.2345 72.6311 58.2402 78.8712L58.167 78.8212L52.7252 86.152V99.8151L60.386 105.023L85.9742 122.416L91.4161 115.085V101.422L73.5053 89.2481C83.1111 79.3875 94.3001 71.3322 107.068 65.1481L111.035 73.4356C108.028 75.1507 105.119 77.018 102.316 79.0313L102.218 78.9172L94.9777 84.651V98.3141L100.97 105.243L108.896 114.407C105.422 118.574 102.494 123.147 100.185 128.016L100.022 127.958L96.7491 136.387V136.98C94.9024 143.162 94.1955 148.597 94.1955 153.877V167.54C94.1955 172.833 94.9045 177.971 95.8917 183.545L105.157 182.044V168.381C104.726 165.937 104.318 163.561 104.023 161.162C104.368 158.694 104.927 156.08 105.759 153.254L125.562 160.297V168.054V168.29C125.562 174.605 127.365 180.863 130.839 186.318V186.881L136.831 193.809L137.08 193.613C143.833 199.607 152.995 203.15 162.973 202.805L164.276 210.166C161.298 210.308 158.567 210.234 155.982 209.986C149.22 209.338 143.473 207.492 137.002 205.193L126.123 233.209C116.766 229.335 111.471 225.574 105.999 221.856L100.558 229.187L87.913 246.224C68.4065 231.839 58.2716 216.412 49.8098 198.745L41.2664 202.491V216.154C45.903 225.843 49.9729 233.808 58.3008 244.193V244.337L64.2927 251.265L64.3638 251.209C69.8265 257.079 75.8602 262.447 82.3791 267.23V267.34L90.0399 272.548C90.0399 272.548 90.0567 272.526 90.0859 272.483C90.6172 271.767 95.4818 265.217 95.4818 265.215L108.306 247.937C112.916 250.765 117.759 253.219 122.793 255.278V255.438L131.602 258.57L142.599 230.254C150.787 232.557 159.332 233.408 168.242 232.571L168.271 232.739L177.536 231.238V217.575L174.526 200.574C182.647 197.59 189.438 191.862 193.531 184.467L214.436 191.902L237.452 200.088C235.578 202.935 233.719 205.391 231.851 207.907V221.57L239.514 226.777C244.216 220.443 248.194 215.154 252.525 205.445L273.282 212.828L282.091 215.96L285.364 207.53V207.25C287.907 199.845 289.72 192.224 290.779 184.495L290.871 184.503L291.753 175.551V173.838C291.839 171.999 291.881 170.16 291.881 168.32V154.657C291.881 153.699 291.868 152.74 291.845 151.782L312.45 148.441C313.084 152.848 313.506 157.239 313.719 161.604C310.503 227.151 261.1 284.101 191.682 297.476L186.453 267.934L177.189 269.435V283.099L180.052 299.269C168.992 300.558 157.718 300.698 146.432 299.615C136.85 298.695 127.258 296.894 117.782 294.164L120.704 286.643C128.522 289.119 136.571 290.882 144.736 291.904V291.992L154.093 292.837L157.05 262.827C162.461 263.067 167.853 262.891 173.499 262.239L173.52 262.353L182.785 260.852V260.702C188.143 259.579 193.391 258.032 198.481 256.075L198.544 256.209L207.087 252.462V252.296C211.943 249.889 216.582 247.101 220.957 243.959L221.056 244.073L227.562 251.596C220.56 255.965 214.403 258.736 207.702 261.674V275.337L211.617 283.513C221.771 279.062 230.111 275.159 241.01 267.144L241.068 267.212L248.309 261.478V261.36C258.207 252.917 263.867 245.844 270.551 236.838V223.175L262.888 217.967C256.837 226.119 251.921 232.457 242.219 240.772C242.219 240.772 228.296 224.676 228.296 224.674L222.304 217.747L202.292 194.61L195.051 200.344V214.007L207.378 228.258C188.315 239.304 169.089 241.327 148.566 239.476L145.629 269.281C132.671 267.622 124.222 264.73 115.139 261.5L104.232 289.585C47.7853 267.586 12.2629 216.61 9.54613 161.466C10.2007 148.259 12.7564 134.93 17.3722 121.816L37.9118 129.12L64.276 138.497C64.1066 139.435 63.9518 140.376 63.8096 141.319L63.6569 141.305L62.7743 150.258V163.922L62.8204 163.926V166.119L41.7997 169.525C41.4274 166.777 41.1744 164.222 41.0133 161.808C41.1953 158.854 41.4672 155.966 41.76 152.992V139.329L32.4051 138.485C31.8321 144.305 31.3866 149.566 31.3866 155.238V168.901C31.3866 173.502 31.6773 178.373 32.4323 184.031V184.709L34.0009 193.575L64.9494 188.56L65.1021 188.536C66.2482 193.553 67.8209 198.472 69.8014 203.246V203.642L73.7145 211.817L73.8546 211.755C76.3475 216.37 79.2316 220.775 82.4816 224.936V225.182L88.4735 232.111L95.7139 226.377L119.895 207.226V193.563L113.903 186.635L89.8412 205.691C80.0786 193.109 73.9926 178.667 72.6499 162.679C73.3882 153.621 75.5884 144.14 79.4156 134.286V120.623L49.9938 110.16L26.2313 101.71C73.9445 12.4091 205.387 -9.58944 281.915 78.8992L289.156 73.1654V59.5044C280.108 49.0454 272.186 40.7379 259.073 31.2576V31.1656L251.412 25.9581L251.368 26.0182C242.246 20.1923 232.521 15.265 222.352 11.3224V11.2424L213.543 8.11029L213.516 8.18033C203.12 4.8101 192.387 2.45854 181.493 1.16969V1.09564L172.136 0.25108L172.129 0.325128C161.173 -0.355323 150.168 0.0329361 139.294 1.4839L139.282 1.41185L130.017 2.91284V2.98889C119.255 5.04426 108.731 8.14431 98.6251 12.239L98.5938 12.171L90.0504 15.9155V15.9975C80.2166 20.6466 70.8994 26.2443 62.2515 32.6986L62.2034 32.6425L54.963 38.3763V38.4744C46.7312 45.395 39.2524 53.1041 32.6498 61.4717L32.5871 61.4296L27.1453 68.7605V68.8926C21.0781 77.6063 15.9479 86.8905 11.8404 96.5949L11.7672 96.5689L8.49416 104.999V105.229C5.00988 115.115 2.57758 125.32 1.23909 135.675L1.16171 135.669L0.279137 144.623V145.834C0.103459 148.772 0.015625 151.711 0.015625 154.651V168.298V168.314V168.33C0.015625 175.305 0.509195 182.274 1.49215 189.19V189.729L3.0607 198.595L3.13599 198.583C5.27131 208.831 8.48997 218.852 12.7355 228.476V228.662L16.6506 236.838L16.7196 236.808C21.5654 246.2 27.4004 255.102 34.1284 263.367V263.488L40.1203 270.416L40.181 270.368C47.413 278.249 55.467 285.412 64.2111 291.734V291.826L71.8719 297.034L71.9159 296.974C81.0406 302.802 90.7656 307.727 100.932 311.669V311.75L109.741 314.882L109.768 314.812C120.164 318.182 130.9 320.533 141.792 321.822L141.775 321.83Z" fill="white"/>
</g>
<path d="M321.704 139.286L321.779 139.273L320.21 130.008L320.135 130.021C316.946 114.03 312.625 103.14 306.62 90.0414L298.077 93.9565C303.5 105.796 307.729 116.004 310.868 131.591L279.997 136.82C283.46 157.261 283.927 176.496 276.45 199.294L255.931 191.669L247.122 188.396L226.507 180.735L197.085 169.801L188.276 166.528C173.54 206.185 123.65 187.191 138.242 147.936L109.021 137.075C114.149 126.101 120.329 120.425 128.213 113.9L122.222 106.66L108.299 89.8386C116.485 83.761 122.475 81.1655 128.634 78.3442L115.602 49.9012C142.333 38.8942 171.915 37.8401 199.281 46.8122L191.656 67.3309L180.662 96.9159C172.352 94.4731 163.633 93.6512 155.017 94.4982L154.988 94.3267L151.34 72.7979C161.469 71.6267 167.981 72.3754 174.699 73.0091L175.582 63.6522C167.484 62.8888 160.701 62.2112 149.772 63.5309L149.747 63.3782L140.482 64.9467L142.05 74.2116L150.964 126.842L152.532 136.107C165.355 133.936 173.101 133.645 185.179 148.239L192.419 142.247L209.195 128.362C216.134 138.29 217.96 146.48 219.668 156.569L250.464 151.353C251.635 161.482 250.882 168.032 250.251 174.712L259.608 175.594C260.359 167.618 261.084 160.998 259.729 149.784L259.882 149.759L258.313 140.494L258.161 140.519C256.987 135.153 255.369 129.895 253.321 124.796L273.453 115.573L281.996 111.658L278.081 103.115L278 103.152C274.3 95.7928 269.91 88.7971 264.891 82.2656L264.962 82.2071L258.97 74.9666L258.899 75.0252C253.421 68.8723 247.369 63.2506 240.829 58.2417L240.881 58.1664L233.221 52.7246L227.779 60.3854L209.602 85.9737L217.263 91.4155L235.352 65.9506C249.515 76.8635 261.047 90.4681 269.448 107.068L241.005 120.097C244.487 127.697 246.854 132.963 248.898 142.082L227.197 145.756C225.158 137.341 221.511 129.379 216.468 122.337L216.602 122.226L240.783 102.213L234.791 94.973L203.37 120.977L186.189 135.197C179.185 128.701 169.828 125.227 160.283 125.572L156.594 103.792C168.661 102.747 176.667 105.261 186.26 108.824L197.194 79.4025L208.128 49.9807L211.401 41.1717L202.592 37.8987L202.561 37.9844C194.741 35.3952 186.689 33.5527 178.52 32.484L178.528 32.392L169.171 31.5094L169.163 31.5994C160.938 31.1225 152.683 31.4279 144.518 32.5091L144.503 32.4192L135.239 33.9877L135.253 34.0777C127.187 35.7466 119.292 38.1768 111.683 41.3348L111.645 41.2512L103.102 45.1663L103.14 45.2478C95.7801 48.9475 88.7843 53.3395 82.2529 58.3588L82.1943 58.2877L74.9539 64.2796L75.0125 64.3507C68.8617 69.8281 63.24 75.8785 58.229 82.4204L58.1558 82.3681L52.714 90.0289L60.3748 95.4707L85.963 113.647L91.4049 105.986L65.9421 87.8999C77.0767 73.4525 90.7837 62.0397 107.059 53.8038L116.24 73.8436C111.359 76.3679 106.701 79.2917 102.307 82.5898L102.209 82.4706L94.9686 88.4624L100.96 95.7029L115.092 112.777C108.822 118.752 103.752 125.89 100.176 133.777L100.013 133.716L96.74 142.525L96.9011 142.586C93.0173 155.799 93.8832 165.725 95.8825 177.527L105.147 175.958C103.556 166.557 102.303 158.106 105.748 145.873L126.453 153.568C124.328 162.881 125.995 172.721 131.068 180.814L130.828 181.013L136.82 188.254L137.068 188.049C143.822 194.312 152.984 198.014 162.962 197.654L166.656 219.461C154.588 220.507 146.582 217.993 136.989 214.427L126.11 243.705C116.753 239.656 111.457 235.726 105.986 231.84L100.544 239.501L87.8997 257.305C68.3932 242.272 58.2583 226.152 49.7965 207.689L41.2531 211.604C45.9044 221.758 49.9847 230.098 58.3586 240.997L58.2875 241.055L64.2794 248.296L64.3505 248.237C69.8279 254.388 75.8804 260.01 82.4202 265.021L82.3679 265.096L90.0287 270.538L95.4705 262.877L108.295 244.822C112.921 247.787 117.782 250.36 122.837 252.516L122.782 252.66L131.591 255.933L142.588 226.342C150.776 228.749 159.321 229.638 168.23 228.764L168.26 228.94L177.525 227.371L172.283 196.425L172.231 196.117C181.358 193.3 189.048 186.936 193.52 178.497L214.425 186.267L243.703 197.146C239.654 206.503 235.764 211.746 231.84 217.27L239.501 222.711C244.203 216.092 248.18 210.565 252.512 200.419L273.269 208.132L282.078 211.405L285.351 202.596L285.265 202.565C287.854 194.745 289.697 186.693 290.765 178.524L290.857 178.533L291.74 169.178L291.648 169.17C292.125 160.946 291.82 152.691 290.738 144.525L312.434 140.85C323.412 220.549 270.422 295.013 191.667 310.87L186.438 279.999L177.173 281.568L182.402 312.439C159.654 315.57 135.937 313.616 113.022 305.897L120.687 285.269C128.506 287.859 136.56 289.701 144.727 290.77L144.719 290.862L154.076 291.744L157.033 260.384C162.443 260.635 167.835 260.451 173.482 259.769L173.503 259.888L182.768 258.32L182.743 258.167C188.109 256.994 193.367 255.375 198.464 253.325L198.528 253.466L207.072 249.55L207.007 249.41C211.888 246.888 216.546 243.962 220.94 240.666L221.038 240.785L234.994 257.648C224.646 265.556 216.653 269.35 207.685 273.459L211.6 282.003C221.753 277.351 230.094 273.271 240.992 264.897L241.051 264.968L248.291 258.976L248.233 258.905C258.167 250.059 263.835 242.657 270.533 233.227L262.872 227.785C256.822 236.304 251.905 242.927 242.203 251.617L228.281 234.794L222.289 227.555L202.276 203.376L195.036 209.368L214.95 233.43C193.382 249.45 171.798 252.453 148.548 250.262L145.612 281.409C132.654 279.675 124.204 276.653 115.121 273.277L104.215 302.626C29.7358 272.294 -8.31309 189.241 17.3568 113.03L37.8964 120.664L67.4625 131.652C65.7957 136.889 64.568 142.249 63.7942 147.689L63.6415 147.674L62.7589 157.031L62.9116 157.046C62.6565 162.534 62.8593 168.03 63.5181 173.486L41.7843 177.167C40.107 164.228 40.8264 155.373 41.7467 145.612L32.3897 144.729C31.3336 155.937 30.7124 165.167 32.5089 178.738L32.419 178.752L33.9876 188.017L64.9361 182.776L65.0888 182.751C66.262 188.118 67.8808 193.375 69.9283 198.474L69.7882 198.539L73.7012 207.082L73.8413 207.018C76.3656 211.899 79.2894 216.556 82.5875 220.951L82.4683 221.049L88.4602 228.289L95.7006 222.297L119.881 202.285L113.89 195.044L89.8279 214.959C72.097 191.081 66.4942 160.796 79.4023 126.064L49.9805 115.13L20.6319 104.223C62.7297 0.85161 202.142 -28.1917 281.902 68.1863L289.143 62.1945C280.087 51.2522 272.156 42.5625 259.016 32.643L259.06 32.5802L251.399 27.1384L251.355 27.2011C242.224 21.1068 232.489 15.9557 222.312 11.8315L222.339 11.7583L213.53 8.48521L213.503 8.55841C203.104 5.0344 192.367 2.5791 181.471 1.23014L181.477 1.15276L172.12 0.270193L172.114 0.347574C161.157 -0.363502 150.152 0.0422309 139.279 1.5585L139.267 1.4832L130.002 3.05175L130.014 3.12705C119.246 5.27491 108.72 8.51659 98.6097 12.7956L98.5784 12.7245L90.035 16.6375L90.0664 16.7086C80.2221 21.5711 70.8924 27.4249 62.2361 34.176L62.188 34.1174L54.9476 40.1093L54.9978 40.1699C46.7472 47.4145 39.2516 55.4832 32.6365 64.2461L32.5738 64.2022L27.132 71.863L27.1947 71.9069C21.1004 81.0401 15.9492 90.7755 11.825 100.95L11.7518 100.923L8.47876 109.732L8.55196 109.759C5.02795 120.158 2.57265 130.895 1.22369 141.791L1.14631 141.785L0.263743 151.142L0.341124 151.148C-0.372044 162.105 0.0336895 173.11 1.55205 183.983L1.47675 183.995L3.0453 193.26L3.1206 193.248C5.26846 204.016 8.51013 214.542 12.7891 224.65L12.7201 224.682L16.6352 233.225L16.7042 233.194C21.5646 243.036 27.4185 252.365 34.1716 261.024L34.111 261.074L40.1028 268.314L40.1614 268.264C47.4039 276.515 55.4746 284.01 64.2376 290.626L64.1937 290.688L71.8544 296.13L71.8984 296.067C81.0315 302.162 90.7649 307.313 100.942 311.437L100.914 311.51L109.723 314.783L109.751 314.71C120.149 318.234 130.886 320.689 141.783 322.038L141.776 322.116L151.133 322.998L151.144 322.887C161.306 323.548 171.447 323.435 183.972 321.687L183.989 321.785L193.254 320.217L193.241 320.141C204.008 317.994 214.534 314.752 224.646 310.471L224.677 310.542L233.221 306.629L233.189 306.558C243.033 301.697 252.361 295.841 261.019 289.09L261.068 289.149L268.308 283.157L268.258 283.096C276.508 275.854 284.004 267.783 290.619 259.02L290.682 259.064L296.124 251.403L296.061 251.359C302.157 242.226 307.308 232.491 311.431 222.316L311.504 222.343L314.777 213.534L314.704 213.507C318.228 203.109 320.683 192.374 322.032 181.477L322.109 181.484L322.992 172.127L322.914 172.121C323.628 161.164 323.222 150.157 321.704 139.283V139.286Z" fill="#FFCC01"/>
</svg>
