<svg xmlns="http://www.w3.org/2000/svg" width="427" height="480" fill="none"><style>.B{fill:#9bcb8b}.C{fill:#4cb691}.D{fill:#dae49d}.E{fill:#218366}.F{fill:#74a66f}</style><g class="E"><path d="m104 258 2 2c1 1 1 0 1-1l1-1 3-1v1h1l-1-2a37 37 0 0 0-1-1l1-2h-1c1-2 1-2 2-1h1l3-1h2c0-2-2-2-3-1h-6l-4 2c1 2 0 3-1 3v3zm3-2v-1h1v2l-1 1v-2zm-11-93 3-2 1 1 1 1v-1h1v1a2 2 0 0 0 1 0 4 4 0 0 0 2 0h-1a3 3 0 0 1-1 1h-2a1 1 0 0 0-1 0l-1 2h2l1-1v1l-1 1h2l-1-2h1l1-1h1l2 1 1 1 1 3 2 2v2l-6 5h-2l-2-1-2-3v-1l-1-1-2-5a11 11 0 0 1 0-3 11 11 0 0 1 0-1zm30-22 2 3c2 1 2 2 0 4a49 49 0 0 0 0-1l-4 3-1 1-3-1h-1l-3-2c-3-2-4-5-5-7 0-2-1-5 1-7l1-1 2-2h3l3 2v1l2 2 2 2 1 3zm36 15-1-1v-1l-1-2a77 77 0 0 0-2-6l-3-5h-2l-2 1-2 3-1 2 1 1 3 3 1 2 1-1v1l2 1h-1l1 1 1-1 1 1-1 1v1h3l1-1h1v-1 1zm-6-8-2 1 1 1-1 1-2-2v-3 2l1 1 3-1zm-33 41v1l-3 4-1 1v2l1 2a4 4 0 0 0 1 1 4 4 0 0 1 1 0 6 6 0 0 1 1 1c1 2 4 2 5 3l1 1 2 2h2l2-2-1-1 1-2v-8a39 39 0 0 1-1-1l-1-1-1-1-1 2v-2a82 82 0 0 1 0-1h-1a12 12 0 0 0-1-1v-1h-1a5 5 0 0 0-1-1 4 4 0 0 0-2 0l-1 1-1 1zm7 4 1 1h-2l1-1zm-1 4 1-1-1-1h2l1 1 1 1h-1v-1 1h-3zm-6-11 1 2-1 1-1 1-1 1-2 1-1 1v-2l2-1v-2h1l2-2zm-4-7c0 1 2 1 1 3l1 1v1h1l-1 2-1 1-1 1c0 2-1 2-2 3h-2l-1-1-1-2-1-2c-2 0-2-1-3-2l6-3c-1 0-3 0-3-2-1 2 1 1 1 2l-3 2h-1l-2-2 1-3v-1l3-3h3a57 57 0 0 1 3 4l1 1h1zm47-18 1 3 1 2-1 1-1 1 2 2 1 2v1h-3l-1-1v-1h1c0-2 0-3-2-3l-2 1h-1l-1-1-1-3v-1h1l3-3 1 1c0-1 1-2 2-1zm-32 8 3-1 3-3c0 3-3 5-6 4z"/><path d="M151 177a27 27 0 0 0-1-1c0-2-1-4-3-5l-1-2-1-1-3-1-3 2-2 1c-1-1-2 1-2 2l1 5 2 3 3 2 1 1 1 1h3v-1h1l1-1v-1c2 0 3-2 3-3v-1zm-4 0v-1l1 1v2l-1-2zm-11-47v-5l2-2h6a13 13 0 0 1 1 1l2 2c2 1 2 2 2 4l1 2 3 5c1 2 0 3-2 4l-3 1h-3a33 33 0 0 1-3-2l-4-6-1-3a26 26 0 0 0-1-1zm-5 19a2 2 0 0 1 0 1l-2 1-1 1a49 49 0 0 0-3 2v1l-1 1v1l1 1v1l2 2h1l1 2 1 1 2 4h3l1-2 2-2c1 0 2-1 1-2v-2l-1-3a5 5 0 0 1-1 0 4 4 0 0 1-1-1 29 29 0 0 0-1-1l-2-3-1-2-1-1zm1 13 1-2 1 1h-2l1 1h-1zm-1-1-1-3h1v-1h1l1 1-2 2a2 2 0 0 0 0 1zm-3-3 1-2-1-1v-1h2v2l2-1v2c-2-1-2-1-3 1h-1zm58-19v3a4 4 0 0 1 1 1l-2 2h-1c2 0 4 2 4 4l1 4 1 1v2l1 3-4 1h3l-1 1v1l-2 1 2-1 2 2v4l-1 1c1 2 2 3 1 5h-1l-1-2a4 4 0 0 0 0-1h-1v1c0-1-1-2-2-1l-1-1-2-3v-6l-1-2a14 14 0 0 0-1-4 13 13 0 0 0-2-3v-1l-1-2 1-1a10 10 0 0 1 1 0l1-1h1-2l-2-1a6 6 0 0 1-2-2l-1-2-2-3-1-6 1-5c1-1 3-2 5-1l2 2c2 0 3 1 4 3a6 6 0 0 1 0 1l1 2v1l1 3zm-75 125h13l3-1 1 1h8l6 1h1l2 1 2 1 4 1 2 1h2a1 1 0 0 1 1 0 4 4 0 0 0 2 2h2l1 1a7 7 0 0 0 2-1h3v1l4-1h8l3 1 2-1c2 0 3-2 4-1s2 0 2-1h2l3-2 2-3 3-4v-3h2l3-2-2 1 1-4 1-1-2-2a8 8 0 0 0 0-1 16 16 0 0 0-1 0l-1-3 3 3 2 2v-2h1l4 1h3a22 22 0 0 0 1-1l2-1a5 5 0 0 0 1-1l3-3h1l2-4 1-3v-5a10 10 0 0 1 0-1v-3a86 86 0 0 0 0-1 28 28 0 0 0 0-2v-1l-2-5-2-3-3-4-2-2c1-2 0-2-1-3l-3-2-1-2-1-2c-1-1-2-2-3-1v-1l1-1c-1-1-2-3-4-2l1-1-3 1h1c-3 1-7 2-9 5a3 3 0 0 1-1 0v1l-3 2-5 2-4 2a8 8 0 0 1 0-1 70 70 0 0 0 5-3c4-2 7-5 11-6l3-2c1 0 3-1 5-4l-3-2v-1l-2-2h-3v-1l1-2v-1c-1-1-2-2-4-1h-1l-3 1c-1-1-2 0-3 1v3l-2-1h1a82 82 0 0 1-1-1h-9a10 10 0 0 1-1 0h-1v1l-1-2-2 2h-1l-1 1-1 2h-7l-1 1c-2 0-3 0-4 2a64 64 0 0 0-3 3v1l3 1v-2l1-1 2-1 2 2c0 2-2 2-2 3h-1l-1 1h1l-2 1h-1v1l-3-1v-1h1l1 1-1-3v-1l-2 2a2 2 0 0 1 0 1l-2 1h-2l-1 1a4 4 0 0 0-1 0v1l-2 1v1h-1v-1l-1 1c-1 1-2 1-1 2-2 0-2 2-3 2-2 0-2 2-1 3 2 1 2 2 2 4l2 2 1 2 2 1h11l3-1h7l11 4 4 2 2 2 6 4c3 1 4 3 6 6l3 4 2 2v1l-1 2-1-2-2-2a85 85 0 0 0-7-9l-2-1h-2l-5-5-7-2-2-2-3-1-8-2-3 1h-1l-2 2a10 10 0 0 0-2 7l1 2v2l1 1c0 1 0 2 1 1l3-3c0 2-1 3-2 3a2 2 0 0 0-1 1v2h1l2-1 2 2-3 1-3 2v3l1 1 1 1h-2l1 7-4-1c0 1-2 1-1 3l-3 1-1-1h-3l2-2-3 1-1 1 2 1-1 1a1 1 0 0 0 0 1 3 3 0 0 0 1 0v-2h1v2l-1 3-1-1h-2l-2-2v-1h-1l-1-1a6 6 0 0 1-1 0v2-1h-1v-2c1-1 0-1-1-1l-1 1-1 1v-2a16 16 0 0 0 0-2h-2l-2 2-2-3a12 12 0 0 0-2-1l-1 1-1 2-1 1h-3l2 5h-1l-3 1-1 1h-2l2 1v1zm62-74v-1h-1v2h1a1 1 0 0 0-1 1v-1l-1-2h-1v1a332 332 0 0 0-2-2l2 1v-2l1-1 2 2v2zm14-2v1l1 1v2a5 5 0 0 0-1-2 5 5 0 0 0-1-1h1v-1zm16 13 2-1 1-1-1 3-2-1zm-37 27a30 30 0 0 0-1 2 41 41 0 0 0-1 2l-1 1h-1l3-4 1-2v1zm33 22v-1l-1-4 1 3 1 3a9 9 0 0 0 0 1v2-2l-1-2zm-32-10 3-3c3-3 3-3 4-2-2 0-2 2-3 3l-4 2zm-1-1c1-1 3-2 2-4h2l-4 4zm-3-4 3-4 1-2-1 2-3 5v-1zm-8 15h-1l4-1-3 1z"/></g><g class="B"><path d="m222 71-2-1h-1l-3 2-1 1-1 1-1 1c-1 1-2 2 0 3v-2c1 1 2 0 3-1 0-1 0-2 2-2l-1 1h2v2l1 1h1l-1-1 2-1h1l2-1-1-2-2-1zm1 3h-2l-1-1h1l2 1zm-58-54-2 1v2l-1-1a8 8 0 0 1 0 1 6 6 0 0 1 0 1l-1 1h1l1-1v-1a1 1 0 0 1 1 0h2l-1 1-1 1h1v1l-1-1h-2l-1 2v2l1 2 1 2 2 1 6-1 1-1v-2l-1-3-1-1v-1l-2-3a9 9 0 0 0-2-1 9 9 0 0 0-1-1zm-29 9 1 3c0 1 1 2 3 2l-1-1 3-1h1l1-1 1-2v-4c1-2-1-5-2-6-1-2-2-3-4-3h-4l-1 1v1a22 22 0 0 0-1 3l1 1v2l1 3 1 2zm-8 31 1-1h1l1-2-1-1-1 1v-1l1-1v-1h-1l1-1-1-1 1 1v-2l-1-4v-1h-7l-1 1 3 5a63 63 0 0 0 2 5l1 1 1 1v1zm0-10a81 81 0 0 0-1-1l-1-1 2 2 1 2h-2l1-1h-3l3-1zm40 0-1 1a3 3 0 0 0-1 1 4 4 0 0 0 0 1 5 5 0 0 0 0 1v2l2 1-2 1v2l1 1 1 1 1 1 2 2h3v1h2v-1l1-2v-6a5 5 0 0 1 0-1 4 4 0 0 1 0-1 3 3 0 0 0 0-1l-1-3-1-1-1 1h-5l-1-1zm0 7h1v1h-1v-1zm2 3v1a58 58 0 0 0 0-1h-1v1a6 6 0 0 1 0-1 3 3 0 0 1 0-1l1-2v1h1a2 2 0 0 0-1 2zm-3-11 1 1h3l2-1h1l-1-1h-2a4 4 0 0 0-1 0 7 7 0 0 0-1 1h-2zm-2-7c0 1-1 3 1 3v1a5 5 0 0 1 0 1l2 1 1-1h5v-2l-1-2v-2l-1-2-4 2h-1c1-1 2-2 1-3 2 0 0 2 1 2l3-1v-3l-3-1h-3l-2 1v6h1zm-36 23 2 2 1 2 1-1h1v3l1 1 1 1v-1l1-2v-1h-1v1c-1-1-2-2-1-3l1-1 1-1v-1l-2-1a1 1 0 0 1 0-1h-1l-3 1v1l-2 1zm22-17-3 1-3 1c2 1 5 0 6-2z"/><path d="M148 63h3l1 1 1-1h1v1l1-1v-1l1-1v-3l-1-2-1-3c0-2-1-3-2-3h-3l-1 1-3 1-1 3 1 1v1l2 5v1h1zm2-1-1-2h-1 1l1 2zm-26-32-2-1-2-1-2-1-3 4v2l1 2c-1 2 0 3 1 3l1 2 2 4c1 2 2 2 3 1l3-1 2-2a27 27 0 0 0-1-3l-2-6-1-2a17 17 0 0 1 0-1zm15 7 1 2v3l1 1v1l1 3 1 1h3l2-1 2 1 1-2-2-4v-1l-1-1v-4l-1-1-2-1-3 1h-1l-2 1v1zm8 6a188 188 0 0 1-1 0v1l-1-1 2-1v1zm-1-1a2 2 0 0 0 0-1h-2v-1h1l1 1v1zm0-3c-2-1-2 0-2 1a4 4 0 0 0-1 0v-1l-1-2h1a2 2 0 0 1 1 0v1h2v1zm-41 28 1 1 1 1v1l2-1h1v5l2 2 1 1 1 1 2 2 2-1-1 1v1l1-1h2l-1 1v2l2 1v1h2c0 1 0 3 2 3l1-1-1-1a3 3 0 0 1 0-1s1 0 0 0l1-2v-1l-2-3-1-1-2-2-1-2a11 11 0 0 1-2-2 11 11 0 0 1-1-3l-1-1v-1h-1l-1 1h-1l-1 1v-1l1-1 1-2-1-2-1-1-1-3-3-4-4-2c-1 0-3 1-3 3v6l1 1v1l1 1 2 2zm119 10-1 2h-1l-2 1-1 1-2-3-1 1h-5a10 10 0 0 0 0 2l1 2-2 1-1 1a12 12 0 0 0 1 1l1 1v1l-1-1-1 1v1l1 1 1 1h-1l-1-1v3l1 2-1 1v2l-3-1-1-1a2 2 0 0 1 1 0h1a1 1 0 0 0 0-1h-1v-1h-1l-3 1 1 1 2-1-2 2v1l-2 1h-2l-2 3-4-4-1 1v-3h-1l-1-1-3 1-2 1v-1l2-1v-2h-1a1 1 0 0 0-1 0h-3 2l1-1v-1l-1-1-1-1-1-2a8 8 0 0 0-5-2l-2 1h-1l-2 2-3 6v5l-3 6 1 5v1l-1 1v1a69 69 0 0 0 3 9v4h-1l-1-1v-2l-2-4-1-7 1-6v-2l1-3 3-10c0-2 1-3 3-5l2-1 1-1v-1l2-2 2-3v-3l-1-3-1-3c-1-1-2-2-3-1l-2 1-2-1-1 1v1-1l-2 1a10 10 0 0 0-1 0h-1a9 9 0 0 0-1 1l-1 1h-1a2 2 0 0 1-1 0h-2v1l1 2h1v-1 2h-1v1l-2 1 1-2-2 1v1l-3-1v-2l1-1h2l1 1c-1-1 0-2 1-2l-1-1a57 57 0 0 0-4 0l-3 2h-1c-1 0-3 3-2 4l-1 1h-3l-1 1h-2v1h-1a8 8 0 0 1 0 1l-2 3-1 1c0 2 0 2-2 2l1 1v1l-1-1h-2l-2 2-1 1-1 1-1 3h1l1 1h1l-1 1-1 1 1 2v4c3 0 5-1 5-2h3l9-4a56 56 0 0 0 5-3 6 6 0 0 1 0 1l-3 1c-1 1-2 3-4 3l-2 1h-1a2 2 0 0 1-1 0l1 1c-3-1-6 1-8 3v-1l-2 1h1a4 4 0 0 0 1 0c-2 1-2 3-1 4h1v4l1 2v3l1 2v2l2 5 1 2 2 4 1 1 1 1h1l1 1 1 1h1l3 3h2l4 1 4-1h2a6 6 0 0 0 1-1l1-1 1-1 2-3v-1l2 1-1-2v-1a525 525 0 0 0 0-3l1 2v2l1 2 1-1 3 1-1 2 2-1 1-2 2 2h7l3-2h1l2-1 2-2 2-1 1-2 1-3 1-1 2-2 2-2v-1l1-2a6 6 0 0 0 2-1v-1l1-1v-4l1-2c1-1 2-2 1-3l1-2v-2a287 287 0 0 0 3-5 9 9 0 0 1 2-2l2-3v-1l2-2 1-1 4-5 1-3v-2zm-80 6-1-2h3v-1l1 2h-2 1v1a7 7 0 0 1 0 1 1 1 0 0 0-1 0h1l-1-1h-1l1 1-1-1zm-6 10v-1a4 4 0 0 0 0 1v2-1l-1-1-1-1 2 1zm-1 17v1l-3-1h2-1l2-1v1zm36-12h5l-1 1a31 31 0 0 0-2-1h-2zm0 34v1a3 3 0 0 1 0 1l-1-2-2-2-1-2 2 2 1 1 1 1zm8-27-4 1-3 1 3-1 4-1zm0-1a860 860 0 0 0-5 0l1-1c1 2 2 1 4 1zm-1-4h-6v-1l1 1h5zm11 3 3-2v1l-3 1zm10 81-1 2c-1 2 0 2 1 2h1l2 3h-1l1 1 1-1 1-2h3l-1-1c2 1 2 2 2 3v1l2 2v2c2 0 3-2 1-3l-1-3c-1-1-2-2-1-3l-3-3h-1l-3-1-3 1zm3 3h2l-2 1-2-1h2zm92-38 2 2v1l-1 1 2-1-1 2v1a4 4 0 0 0 1 2 5 5 0 0 1-1-1 3 3 0 0 1-1 0v-2l-1-1-2-1h-1l1 2 1 1-2-1v2l2-1 1 1 1 1v2l-1 2-2 2-2 3h-2l-7-4v-5l3-3 1-2 5-2a12 12 0 0 1 2-1h2zm31 24-2 3c-2 1-3 2-5 1l1-1-3-3h-1l-1-1v-4l1-4c1-3 3-5 6-7 2-1 4-2 7-1h2l1 2 1 2v1l-1 4-1 1v2l-3 3-2 2zm-4 40v-1l1-1h2a82 82 0 0 0 5-5l5-4-1-3h-2l-3-2h-3l-1 1-2 4-2 1 1 1h1-2l1 2h-1v-1 4l-1-1h-1v1l1 2 1 2 1 1v-1zm6-8c-2 0-2 0-3-2v2l-1-1 1-2c1-2 2-2 4-2-1 2-1 2-2 1l-1 1 2 3zm-52-22h-1c-2 0-3 0-5-2h-3l-2 3v1a5 5 0 0 1-1 1 6 6 0 0 1 0 1c-2 2-1 4-2 6v1l-1 3-1 2 3 1 1-1 3 1 3-2h2l2-1a44 44 0 0 1 1-1l1-2v-1l-1-1h2v-1l1-1v-1h1v-2a4 4 0 0 0 0-2l-1-1-2-1zm-2 9v1a3 3 0 0 0-1 0v-2h1v1zm-4 0h1l1-1v4a8 8 0 0 1-1 1v-2l-1 1 1-1-1-2z"/><path d="M280 182a1 1 0 0 0 0 1l-1 1-2-1h-1a16 16 0 0 1-1-1l-3-2v-1h2l2 1 1 1h1l2 1zm6-6-2 2-1 1v1h-1a3 3 0 0 1 0 1h-2a6 6 0 0 1-1-1h-1l-1-1-4-2v-2h1l1-2 2-2c0-2 0-2 2-3l4 5c0-2-1-3 1-4-2-1-1 2-2 2l-3-3v-1l1-2 4-1 1 1 3 1 2 2-1 2-2 4-1 1v1zm32 43-2 2-3 2-1-2h-1l-2 3-1 1h-1l-1-1v-2l1-1 1-1v2c2-1 3-1 3-3l-2-2v-2l3-1v-1h1l1 1 3 2v1c1 0 2 1 1 2zm-18-30 3 2 3 2c-3 1-6-1-6-4zm-3 19 2-1 3-4 2-2 1-1v-3l-3-3-1-2-3-2-4 3-3 3-1 3a6 6 0 0 1-1 1v1l-1 1v2s-1 1 1 1v1l1-1v1l1 1h2c0 1 3 2 4 1zm0-4v1l-2 1 2-2zm44-25h2l3-1 3 1 2 5a4 4 0 0 1-1 1v2l-2 3c0 2-1 2-3 3l-2 2-4 3c-2 2-4 2-5 0 0-2-1-2-2-3s-2-2-1-3l2-3 4-7 3-2h1v-1zm-21 1h-1l-2-2v-1a49 49 0 0 0-3-2h-4l-1 1v1h-1l-1 2v1l-2 2-1 1-3 4c-1 1 0 2 1 2l2 1 2 1c1 2 2 2 4 1h2l2-3a5 5 0 0 1 0-1 4 4 0 0 1 1-1l1-1 1-3 3-2v-1zm-12 4 1 1-1 1v-1h-1l1-1zm0-1 3-1h1v1l-1 1-2-1a2 2 0 0 0-1 0zm2-4 2 1h1v-2a3 3 0 0 1 1 1l1 1-2 1 1 1-1 1a6 6 0 0 0-1 0c1-2 0-3-2-2v-2zm36 54h-1l-2 1a4 4 0 0 1-1 1l-2-1-1-1c1 2 0 4-2 5l-4 2v1h-1l-1 1-3 2-2-3h-1l1 2v1l-1-1-1-1-1-1 1 2-2 3h-2l-1 1v-1h-2c-1 1-2 3-5 3v-1c0-1 0-2 2-2v-1h1-2 1v-3l1-1 2-2c1-1 2-2 3-1 1 0 2-2 3-1l2-2a15 15 0 0 0 3-2 14 14 0 0 0 3-3l1-1 2-1h1v1l1 1 1 1v1-5l2-3 1-1 3-3 5-3h5c2 0 4 2 3 4l-1 3-2 5a7 7 0 0 1-1 1 61 61 0 0 0-1 1h-1l-4 2zm-148-40v3l2 8 1 2 2 3v1l1 5 1 3 1 7v1l-1 3v10a1 1 0 0 1 0 1l-1 2a5 5 0 0 0 0 1 8 8 0 0 0 0 2 5 5 0 0 0 0 1 7 7 0 0 0 1 2l1 2v2l1 3 2 3v6l1 3 1 1c0 2 3 3 2 5l2 1 1 2c1 1 1 2 3 2l3 2 5 2 3-1c-1 1 1 1 1 2l2 2a261 261 0 0 0-1-2h4l1 1 2-2 1-1 2-3h1l-2 4h-1l-1 3c1 1 1 1 2-1v2l1 4 1 2 1 2 1 1 1 1 4 3h1c2-1 3 0 4 1l3 1 6-2h1l2-1h1l1-1h2l1-1 4-3 3-3 4-4 1-3c2 1 2-1 2-2l2-3 2-2 1-2v-3h1l1 1c2-2 3-3 1-5h2l-2-2v1c-2-3-4-6-8-7l1-1a3 3 0 0 1-1-1h-1l-3-2-3-5-4-3a8 8 0 0 1 2-1 71 71 0 0 0 4 5l9 9 4 2c-1 2 2 4 5 4l1-3v-1c2 0 2-1 3-2l-1-2v-1h3l1-1v-4l-1-1-1-2-2-3h-3v-1l1-1-1-3v-2l-2-4a11 11 0 0 1 0-2h-1c1-1 2 0 1-1l-2-2v-1l-2-1h-2l-1-2c1-1 0-5-1-5l-1-1-3-3a66 66 0 0 0-5-2h-1v3h4l2 1c0 2-1 3-2 3h-4v-2l-1-1v2l-2-2v-1h-1v-3h1v2l2-2 2-1-3-1a2 2 0 0 1-1 0l-1-1-2-2v-1a9 9 0 0 0-1 0v-1a17 17 0 0 0-1 0l-2-2a34 34 0 0 0-1 0h1l-1-1v-1h-3l-2-2c-1-2-3-1-4 0l-3 3-2 3-1 1-1 2 1 5 1 4 1 1v1l2 3h1l1 7-1 13v4l-2 3-2 8c0 3-2 5-4 8l-3 4-2 2h-3l1-2 2-2a89 89 0 0 0 7-10v-4l3-6v-8l2-3v-4l-1-8-2-3v-1l-2-2a11 11 0 0 0-8 1l-1 1-3 1-1 1v2l3 2-3-2a2 2 0 0 0-1 0 2 2 0 0 0-1-1l-1 1v1l2 2-2 2-2-3-3-2-1 1h-2l-1 2-1-1-7 3 1-4c-2 0-2-2-4-1l-1-2v-1c-2-1-1-2-1-3l2 1-2-3-1-1v2h-2a3 3 0 0 0-1 1h3v1h-5v-1l1-1h-1l-1-1 3-3v-2l1-1h-3l1-1h2l1-2-1-1h-1v-1h2l1-1v-2l-3-2 2-2 1-2c1-1 0-2-1-2h-2l-2-1-1-2-4 3-1-1c0-2-1-2-2-3l-1-1v-2l-1 3zm93 42 1-1h-2a1 1 0 0 0 0 1 1 1 0 0 0-1 0l1-2 1-1-1-1 1-2h1l-1 2h2l1 1-2 2-1 1zm6 13-1 1-1 1-1 1a6 6 0 0 0 1-2v-1 1c1 0 1-2 2-1zm-9 21 1-1 1 2v1h1-3v-2zm-37-30-3-1a46 46 0 0 0-2 0l-2-1v-1l4 2h3v1zm-14 39h2l3-2v1l-2 2-3 1a9 9 0 0 0-1 0l-2 1 1-1 2-2zm1-35 4 3 4 3-4-3-4-3zm1-1c1 0 2 2 4 1l1 2-5-3zm2-4 6 2h2-2l-6-2zm-17-4v-1l2 3v1l-2-3z"/></g><g class="C"><path d="m102 199-1 2v4l1 1 1 1v1c0 2 1 2 3 1h-2v-3l-1-2h1l1-1h2v-1l-1 1v-5h-2l-2 1zm3 1v1l-1 1h-1l1-1 1-1zm-62 33-1 2h2l-1 1a7 7 0 0 1 1 0l1 1v1a3 3 0 0 0 1-1l-1-1v-3l1 1v1l1-1 1 1-2 1a2 2 0 0 0 0 1l1 1h1l1 1 2-1h2l1-1 1-5-1-1-1-1h-5l-3 1a8 8 0 0 0-2 2zm-2 27h3c1 1 2 0 3-1h-1v-5l-2-1v-1l-3-1h-6l-4 3-1 1v2l1 1 1 1 2 1h1l1 1h3l2-1zm24 16v-2l-1-1h-1v1h-1v-1l-1-1v1l-1-1-1 1 1-1h-2l-3-1h-1l-1 2-1 2v2l1 1h5l4-1 1-1h2zm-8-2h-2l2-1h2v2l-1-1-1 2v-2zm12-35v1a3 3 0 0 0 2 2h2l1 1 1-1v1h2l1 1 1-1 1-1 2-1 1-2h1l1-2-1-1h-2l-1-1-4-2a4 4 0 0 1-1 0 3 3 0 0 1-1 0 3 3 0 0 0-1 0h-3v1l-1 4h-1v1zm5 2 1-1v1h1a29 29 0 0 0-1 0h-1zm3-1 1 1h-1 1a5 5 0 0 1-1 0h-1v-2 1l1-1a2 2 0 0 0 0 1z"/><path d="M68 239v1l1-1v-2h1v-3h-1v1l-1 1a4 4 0 0 0 0 1 6 6 0 0 0 0 1v2-1zm-7 1h5l1-2v-2l1-2-1-2-1 1h-1l-2-1h-3l1 5c-1-1-1-2-2-1 0-2 1 0 1-1v-3h-2l-2 1v1l-1 3v1l2 1 3 1h1zm9 36h4v-3l2 1h2v-1l-1-2h-1l-1 1h1-3v-1l-1-1-2 1a1 1 0 0 1-1 0v1a235 235 0 0 0 0 3h1v1zm-8-23v5-5zm12 7 1-3h1l-1-1v-1h1v-1l-1-1h-1a2 2 0 0 0-1 0l-1-1h-5c-1-1-2 0-3 1l-1 2 1 1v3l2 2h6a17 17 0 0 0 2-1zm-1-2-1 1h-1v-1h2zm-35 13-1 1-1 1-1 2 2 3v1h12c2-1 3-2 2-3v-3l-1-2a24 24 0 0 0-3 0l-5-1-2 1h-2zm11-11h6a4 4 0 0 1 1 1h2l1-1c1-1 2-1 1-2l1-2v-2c1-1 0-1-1-1h-6l-2-1h-2l-1 1v1l-1 3v3h1zm8-5-1 1h1-1v-1h1zm-2 0a2 2 0 0 0 0 1l-1 1h-1v-1l2-1zm-2 0v2l-1 1v-1h-2v-1a2 2 0 0 1 1-1v1l1-2 1 1zm12 43 1-1h1l1-2v-1c1 2 2 2 4 1l2-1h3l2-1a1530 1530 0 0 0-1-3l1 2h1v-3 1l2 1 2-1v-1l1-1 4-1-1-1h-3 1l-2-1h-3l-2 1-2 1h-2l-2 1a10 10 0 0 1-3 0l-1 1h-1l-1 1a5 5 0 0 0 1 0v2h-1v-1l-1-1a4 4 0 0 0-3 0h-4l-4 2-2 2c-1 1 0 3 1 4l2 1 3 1a5 5 0 0 0 1-1h2l3-1zm43-98 1 1v1l1 2v1c-1-1-3 0-3 1l1 1-1 1-1 2v1a9 9 0 0 0 2 1h2v2l1 1 1-1h1v2h1l1-1h1l-1 1 1 1h4v1h1l-1 2v1h-1a2 2 0 0 1 0-1l1-1a2 2 0 0 0-1 0l-1 1h-1v3h1v-2c0 1 2 1 1 2l1 1v2l-1 2 3 2-5 2v1l-2-1-1 1v1l-1 2 1 3a128 128 0 0 0-2-1v-2h-1l-1 1a1 1 0 0 0 0 1l-1 2 1-2v-1h-2l-2 1a7 7 0 0 0-1 0 8 8 0 0 0-4 4v3l1 2 4 4 2 1 2 1 5 4 4 1h1l1 1 1 1a63 63 0 0 0 8 0h2l2 1h-1l-1 1h-1a698 698 0 0 1-4 0l-6-1-5-3h-3l-2-2-7-5-3-4-1-3v-1h-1l-1-3c-1 0-1-2-3-2l-1-1h-7c-1 0-2 1-1 2v2l-1 2v1h1-1v2a10 10 0 0 0 0 1v2l1 1v1a2 2 0 0 1-1 1v2l1-1h2-1a41 41 0 0 1 0-1l2 1-1 1h1v2l-1-1v1l1 1-1 2h-3v-2l1-1h1l-2-2v1a46 46 0 0 0-1 3v3l2 4 1 1-1 1v4h1v1a8 8 0 0 1 1 1l1 2 1 2 2 1 1 1h-1v4l1 1v1l2 2h1l1-2h1v1l1 1h3l2 1v-8h1l-1-9a50 50 0 0 0-1-4l1-1v3l1 5v2a2 2 0 0 1 0 1h1c-2 3-1 5 0 8l-1-1 1 2v-1c1 2 2 2 3 2v-1h1l2 1h8l2 1h4l2-1h4l1-1a29 29 0 0 0 2-1h1v-1h1l3-3 2-2 1-2v-4l1-2v-1l-1-1-1-1-2-3h-1l2-1-2-1h-3 3l2-1 2-2 1 1v-2l-1-2 2-1 1-3 1-3-1-3v-2l-1-3-1-2-1-1-2-3h-1l-1-3-1-2a4 4 0 0 0-1-1l-1-1a5 5 0 0 0 0-2 4 4 0 0 0-1 0 6 6 0 0 0-1-1 3 3 0 0 0-2-1l-1-1a13 13 0 0 0-1-1l-3-2-1-1h-2v-1l-3-4-2-2-2-2v-1l-1-2-1-2-3-4-2-2h-2zm-18 69h-2v-1l1-1h-2 2v1h2l-1 1h1-2 1zm6 9v-1l1 1h1-2l-1 1 1-1zm14 5 1 1-1 2v-3zm1-34v-2l2-3v1l-1 1v1l-1 2zm29 11 1-1v1h-2l-2 1-2 1v-1l2-1h3zm-21-16v4l-1 3 1-3v-4zm-1 0-1 4v-1l1-3zm-3 0-2 4v1h-1l1-1 1-4h1zm6-9-1-2v-1l1 3z"/></g><g class="D"><path d="M147 97c-1 1-2 2-3 1l-2 4-1 2v2c-1 2-1 3 1 3l-1-1c2 0 2-2 2-3-1-1 0-2 1-3v1h2l1 1 1 1 1-1h-1l1-3h1l1-1-2-2-2-1zm2 3-1 1h-2 1l2-1zM67 81l-1 2v1l1 1h-1v2a3 3 0 0 1 0 1 4 4 0 0 0 1 0 3 3 0 0 0 0-1v-2h1l1-1h1l-1 1v1h1v1h-2l-1 1v1l1 1 1 2 2 1 1 2h2l5-5v-3l-3-2v-1l-1-1-4-1a10 10 0 0 0-2-1h-2zm-22 24 2 2c2 2 2 2 4 1l-1-1 3-3 1-1v-3l-2-3c-1-3-3-4-6-5h-7l-1 2v3l1 2 1 1c-1 1 0 1 1 2l2 2 2 1zm9 33 1-1v-4l-1 1v-3l-1 1v-1l-1-1h1l-2-1-2-3-1-1h-2l-3 2-1 1v2l4 3a69 69 0 0 0 5 3h2v1l1 1zm-5-9-1-1h-2c1-1 2 0 3 1l2 2h-1l-1-1-1 2 1-3zm37-21-1 1a4 4 0 0 0 0 2 6 6 0 0 0 1 1 11 11 0 0 0 1 1v1h1l1 1-1 1h1l1 1v1h2l1 1h7l2-1-1-2-1-2v-1l-2-4a5 5 0 0 1-1-1 4 4 0 0 1-1-1 3 3 0 0 0 0-1l-2-2h-2v1l-4 2a33 33 0 0 1-1 0l-1 1zm3 6 1-1h1v2h-1v-1zm4 1v1h-1 1v1a7 7 0 0 1-1-1v-3l1 1v-1 2zm-8-8 1 1 1-1h1l1-1 1-2 1-1h-2l-1 1a5 5 0 0 0-1 1 7 7 0 0 0-1 1l-1 1zm-6-5 2 2 1 1h1a3 3 0 0 0 0 1l2-1 1-1h1l3-2v-2h-1l-2-1-1-2-2-2-3 5-1-4 2 2 1-3v-1l-1-1h-4l-2 2-1 1v2l3 3v1h1zm-21 40 3 1 2 1 1-1v-1h1l1 3 2 1 1-1-1-2v-1h-1v1l-3-2 1-2v-2h-2a1 1 0 0 1-1-1l-1 1-2 2v1l-1 2zm11-27-2 2-2 2c2 1 4-2 4-4z"/><path d="m74 131 3-2h2v-1l1-1h1v-2l-1-1v-1l-1-1-2-3-2-1c-1-2-3-2-4-2l-2 2-1 1c0 1-2 1-2 3v3h1l2 1 4 4h1v1zm2-3h-1l-1-1h-1 1l2 1zm-41-15-2-1h-3l-2 1-1 5 1 1v1l2 2 3 2 2 1 3 3c2 1 4 1 4-1l2-3v-3l-2-2-4-4-2-2h-1zm17-2 2 1 2 3h1v1l1 1 2 2h2l2-1 2-2 2-1v-2l-3-3h-1l-2-2-1-2h-1l-1-1h-2l-1 1a45 45 0 0 0-2 2h-1l-1 2v1zm11 2h-1v1l-1-1 1-1 1 1zm-1-1a2 2 0 0 0-1 0l-2 1v-2h3v1zm-2-2-2 1v1l-1-1v-1l-2-1 1-1a2 2 0 0 1 1 0l1 1 2-1v2zm-23 47h1l2 1a3 3 0 0 0 1 0l1-1 1-1 2 4 4 1v1h2l3 1 1-2v-1 3l1-1 1-1v1l2 2h2v1-1l2-1c1 2 2 3 4 3v-2l-2-1h1l-1-1v-1l-1-1-2-2-3-1h-3l-1-1a16 16 0 0 1-1-1 12 12 0 0 1-2-1 12 12 0 0 1-3-1l-1-1h-2l-1 1a7 7 0 0 0 0 1l-1 1v-1l1-1-1-2a5 5 0 0 0-2-2l-1-1-3-2-4-1h-5l-2 4 2 2 2 3a5 5 0 0 0 1 1l1 1h1l3 1zm115-54v1l-1 1-1 2c0 1 0 2-1 1l-3-1-1 2h-1l-2 1-1 1 1 2 2 2-2 1 1 2a16 16 0 0 0 1 1h1-1v2l1 1h2v1l-1-1h-1v1l1 1v1c1 1 1 2 3 2l-1 1v1h1l-3 1h-1a2 2 0 0 1 0-1h2a2 2 0 0 0-1 0 1 1 0 0 0 0-1l-2 1a91 91 0 0 0 0-1h-1l-1 3 2-1c-1 0 1 1-1 2l1 1-1 2c-2-1-2 1-3 1l1 4-6-2-1 1-1-2h-3l-2 2-1 3-1-1 1-2-1-2h-1a2 2 0 0 0 0 1h-1l-3 2 3-2v-1l-1-1h-1l-2-1-1-1a9 9 0 0 0-6 1l-2 2-1 3a25 25 0 0 0 1 10l1 2 2 7 3 4v2l1 2a75 75 0 0 0 7 7l2 1 1 2h-2l-2-1-4-3-4-6-3-6-1-2-1-4-2-10v-6l1-3v-2l1-3v-4l-1-2-1-1-2-2-3-2c-1-1-2-1-3 1l-2 2h-1a5 5 0 0 1-1 1v1l-2 1a20 20 0 0 0 0 1 3 3 0 0 0-1 0 5 5 0 0 0 0 1v1l-1 2-1 1h-1l-2 1h1c0 2 1 1 2 1v-1h1v2l-1 1h1l-1 2-1-1-1 1 1 1c-1 0-2 2-3 1l-2-2 1-2h3v-2h-2a53 53 0 0 0-3 2c-1 0-2 1-2 3-2 1-2 4-1 5v2h-2l-1 1v1l-2 2h1l-1 1v5l-1 2v2l1 1 1-1v2l-1-1-2 1-1 2v1l-1 1v2h-1l1 3h4v1h-1v1l2 2 1 1 1 2c3-1 5-3 4-4l2-2a3 3 0 0 0 1 0l6-9a61 61 0 0 0 3-4h1l-2 3-3 4-2 3a2 2 0 0 1-1 1h1c-3 1-5 4-6 7v-1l-1 2h1c-1 2 0 3 1 4l1-1h1c-1 1-1 2 1 2l1 2 1 1 3 2 1 2 2 2 4 3 2 1 4 3a17 17 0 0 0 1 0 26 26 0 0 0 3 1 9 9 0 0 0 1 0h1a9 9 0 0 1 1 0l5 1 2-1 3-2h1l3-3a5 5 0 0 0 1-1l1-1a17 17 0 0 0 1-1v-6l-1-1h3l-2-2-2-3 2 2 1 1 2 1v-1h4l-1 2 2-2v-2h3l4-2 2-2 2-2 1-1v-1l1-1c-1-2 1-2 1-4l1-2v-6l1-3v-4a5 5 0 0 0 0-1v-2a6 6 0 0 0 1-1v-1a7 7 0 0 0 0-2 3 3 0 0 0-2-2v-4l-1-4v-1l-1-2v-15l1-2 1-2v-9l-1-2zm-71 48-1-2v-1h2l-1-1 2 1-1 1 1 1 1 1a1 1 0 0 0-1 0v-1h-1v1h-1zm0 12v-1 2l1 1-1-1-1-1a37 37 0 0 0-1 0h2zm8 16 1 1-3 1 1-1 1-2v1zm27-30 2-1 3-2-1 1a35 35 0 0 0-2 1l-2 1zm18 32h1v1l-1-1h-1l-3-1-2-1 3 1h1l2 1zm-7-30-3 3-3 2 3-2 3-3zm-1-1-3 3h-1l1-1 3-2zm-2-2-5 2h-2l2-1 4-2h1v1zm12-4 1-3-1 3z"/></g><g class="E"><path d="m315 139-3-2h-4l-2 1-1 1h-2c-2 0-3 2-2 3l1-1h4v-1l3-1-1 1 2 2-1 1 1 2h1v-1l-1-1h3l1 1c1 1 1 0 2-1v-2l-1-2zm-1 3h-2l-1-2 1 1 2 1zm-40-83h-3v2l-1-1-1 1a5 5 0 0 1 0 1l-2 1h2l1-1h4v1h-2l-1 1h2l-2 2-1-2a3 3 0 0 0-1 0h-2v2l-1 1v5c0 2 1 2 2 2l7 1 1-1 1-1 1-4-1-1 1-1-2-5a11 11 0 0 0-1-2 11 11 0 0 0-1-1zm-35-3-1 4 3 3-1-1h6l2-2h1l2-4v-8l-4-5-2-1h-2l-1 1-1 1-2 3v1l-1 2v6h1zm-23 30h3l2-1v-2l-2 1 1-1 1-1 1-1h-1l1-1-1-1h2v-6l1-1-2-2-4-1h-1l-2 1v6l1 6 1 2v2h-1zm4-10 1-1c-2-1-2-1-1-2 1 0 2 1 1 3v2a1440 1440 0 0 1-2 0l1-1-2-1h2zm44 17h-1a4 4 0 0 0-2 1 6 6 0 0 0 0 1 9 9 0 0 0 0 1h-1v3l1 2-2-1v3l-1 1 2 2v1l2 3 2 2v1l3 1 1-2 1-2v-1l3-5a5 5 0 0 1 0-1v-1l1-1v-3l-1-2h-1l-5-2h-1l-1-1zm-2 7 1 1a40 40 0 0 1-1 0l-1 1v-1h1v-1zm1 4a5 5 0 0 0-1 1v-1 1h-1a7 7 0 0 1 0-1l1-1 2-1v1h1l-2 1z"/><path d="M264 92v-1 2l2 1h6l-1-1h-2a5 5 0 0 0-2-1 10 10 0 0 0-1 0h-2zm0-9v6l1 1h1l1 1h1l4 1c1 1 1 0 1-1v-6l1-3-6 1c1-1 2-1 2-3v2h4v-1l1-1-2-3-2-1-3-1-1 1-2 1-1 5v1zm-48 9 1 4v2h3l-1 3v2l1 1 1-1 1-1 1-1-1-1-1 1v-4h2l1-1 1-1-1-2a1 1 0 0 1 0-1h-2a335 335 0 0 0-3-1l-1 1h-2zm31-9h-7c1 2 4 2 7 0zm-10 15c0 2 2 3 4 2l1 1h2v1l1-1h1v-1l1-1a3 3 0 0 0 0-1v-1c1-1 2-2 1-3v-4c1-2 0-3-1-4s-2-2-3-1l-1 1-4-1c-2 1-3 1-3 3l1 1v2l-1 6 1 1zm3 0h-1v-3h1v3zm-15-46-1-2-2-2-2-1-4 2a4 4 0 0 0-1 1v1l-1 3v12c1 2 2 3 4 2h4l2-2 1-3 1-7-1-3a27 27 0 0 1 0-1zm13 14 1 3-1 3v1a4 4 0 0 1 0 1l-1 1v3l1 2 3 1h3l1 1h2v-7l1-2v-6l-1-1h-1a46 46 0 0 0-3 0l-1-1h-3l-1 1zm7 11h-1v-1l-1 1v-2h2v2zm-1-2a2 2 0 0 0 0-1l-2-1 1-1v-1 1a2 2 0 0 1 1 0l1 2-1 1zm1-3c-2-2-2-2-3 0l-1-2h2c-1-1-2-1-1-2h2v2l2 1-1 1zm-56 13v1l1 2 2 1h1c-2 1-2 3-2 5l2 3v3c0 2 1 2 2 3h3l-2 1h2l1 1h-1l-1 3 1 2 1 1h2c-1 2-1 4 1 5h1v-3a4 4 0 0 1-1-1h1v1l1-2 1-1v-4l-2-2-1-3v-3a13 13 0 0 1-1-6l-1-2v-1h-2a23 23 0 0 0-1 0h-1l1-1 2-2v-8l-2-5-3-4c-2-1-4 0-5 2l-1 2-1 4v4l2 4zm125 62-2 1h-5c1-1 0-4-1-4l-2 1-1-1c-1 1-2 0-3-1h-1a12 12 0 0 0-1 3v2h-2l-2 1 1 1v2h-2v3h1v1h-1v-1l-1-1-1 2v4h-2v2l-3-2-1-1h2v1h1v-1l-2-1 1-1-1-1-3 1 2 1c-1 0-1 2-2 1l-1 1-3 1c0-2-1-1-2-2l-3 3-2-6h-2l1-2-1-2h-1c0-1-2-2-3-1l-3 1v-2l3-1 1-1-1-1a2 2 0 0 0-1 0l-4-1h4l1-1-1-1v-3l-1-1a10 10 0 0 0-5-5h-3l-3 1a27 27 0 0 0-8 8l-1 2-4 6c-2 2-1 4-2 6v1h-2l-1 2a81 81 0 0 0-1 11v3l-1 2v-1l-1-1v-8l2-8 4-6v-3l2-3 8-9 5-4h4l1-1v-1l3-1 4-3 1-2v-9l-2-2h-3l-2-1h-1l-1 1v-1h-2a17 17 0 0 0-1 0h-2l-2 1h-2a2 2 0 0 1-1-1l-2-1v1c-1 1 1 2 1 3l1-1-1 2h-1l-1 1h-2l1-1-1-1-1 2-3-2v-4h2l2 1v2l3-2-1-1a55 55 0 0 0-4-2l-4 1h-1c-2-1-4 1-4 3h-2l-2-1h-5v2a30 30 0 0 1 0-1 11 11 0 0 1-1 0l-1 1-3 2-2 1-2 2-1 1h1l-1 1v-1l-2-1h-3l-2 1h-1a3 3 0 0 0 0 1c-2 0-2 1-2 2l-1 1h1l1 2h1l-1 1-2 1v3l-1 3c3 2 6 2 6 1h4v1l11-1a65 65 0 0 0 6 0v1h-3l-6 1-3-1h-1a3 3 0 0 1-1 0v1c-3-2-6-1-9 0v-1h-2v1h1v1c-2 0-3 2-3 3h2v1c-1 0-2 1-1 2l-1 3v5c-1 1-2 2-1 3v11l1 5v1a35 35 0 0 0 1 2v1l1 1 1 1v1l3 4 3 2 3 1 1 1 4 1a5 5 0 0 0 2 0h1a18 18 0 0 0 2-1l2-1 3-2 1-1c-1 2-1 2 1 2l1-3v-4h1v4a6 6 0 0 0-1 0l1 3h1l2 2-1 1h2l3-1 1 3 4 2 4 1h3l1-1h3l4-1 2-1 2-1 3-3h1l2-2 4-1v-1a6 6 0 0 0 1 0l1-2a6 6 0 0 0 2 0l1-1a7 7 0 0 0 1-1 5 5 0 0 0 1 0 4 4 0 0 0 0-3h1l1-1 1-2c1-1 3-1 3-3l1-1 1-2 1-1a324 324 0 0 0 5-4l3-2 3-2 1-1 3-1 2-1 6-4 2-2 1-2zm-90-29v-2h2l1 1 1-1v2h-2v3a1 1 0 0 0 0-1l-1-1v1l-1-2zm-11 9 1-1a5 5 0 0 0-1 1 5 5 0 0 0 0 2v-1l-1-2v-1l1 2zm-7 18-1 1-3-2 1 1 1-1h2a7 7 0 0 1 0 1zm44 2 2 1 3 2h-2a43 43 0 0 0-1-1 28 28 0 0 0-3-2 9 9 0 0 1 1 0zm-16 38h1v1h-1v-2l-2-3v-3l1 3 1 1v3zm21-27h-4l-4-1h4l4 1zm0-1-5-1v-1h2c0 2 2 1 3 2zm1-4a1683 1683 0 0 1-5-3l-2-1h1l1 1 5 2v1zm11 8 3-1h1l-4 1z"/></g><g class="F"><path d="m382 250-2-2-3-2h-4c-2-1-3-1-3 1h2l2 1h3-1l1 2-1 1-1 2h1v-1l3 1c0 1 0 2 1 1 1 0 2 0 2-2v-2zm-3 3-1-2v-1h1v3zm9-76-2-2-1 1v1l-1-2a8 8 0 0 1 0 1h-1a3 3 0 0 1-2 0 3 3 0 0 0 2 1h1a1 1 0 0 1 1 0l1 2h-2v-1a2 2 0 0 1-1 1l1 1h-1v-2h-1a2 2 0 0 0 0-1h-1l-1 1-1 1-2 2-1 2v1l5 4h2l1-1 2-2v-1h1l1-4v-2a9 9 0 0 0 0-1zm-24-18-2 2v4l1-1 3 2 1 1 2-1h1l2-2c3-1 3-3 4-5v-6l-1-1-2-1h-2l-2 1-1 1-1 1-2 3-1 2zm-29 11 1 1h4v-1h-1l1-1c0 1 0 1 0 0h2v-2 1h1l1-1 2-3 1-1-1-2-2-2-1-1h-2l-2 5a62 62 0 0 0-2 4v2l-1 1h-1zm8-5v-3 3l-1 2-1-1 1-1-1-1 2 1zm23 31h-1a3 3 0 0 0-2 0 4 4 0 0 0-1 0v1l-1 1h-1v2l-1-1v1h-1l-1 1v8h1l-1 1 2 2 1-1 1-1h1l4-3a5 5 0 0 1 1-1 4 4 0 0 1 1 0v-1l2-2v-1l-1-1-2-3-1-1v-1zm-5 4v1h-1l1-1zm-1 3a5 5 0 0 0-1 1l1-1h-2a6 6 0 0 1 1 0 2 2 0 0 1 1-1h2l-1 1h1a2 2 0 0 0-2 0zm7-8h-1v1l1 1v1h1l2 2h1l-1-1-1-1a4 4 0 0 0 0-1 8 8 0 0 0-1-1l-1-1zm3-6c0 1-2 1-1 2v1h-1v1a3 3 0 0 0-1 0l1 2 1 1 3 3h1l1-1v-2l2-1 1-2-4-2c1 0 2 0 3-2 0 2-2 1-1 2l2 1h1l1-1v-3l-1-1-1-1-2-1h-1a45 45 0 0 0-3 3l-1 1zm-37-15-2 3v2l1 1h1-1l-1 2-1 1v1h3v-2l-1 1c0-2 0-3 2-3l1 1h1l1-1v-2a1 1 0 0 1 1 0v-1h-1a338 338 0 0 0-2-2h-1l-1-1zm25 7-3-1-2-2c0 2 2 4 5 3z"/><path d="m344 188 2 3v1h1l1 1h2l1-1 1-1 3-1 1-3 1-4c0-1-1-2-2-1l-1-1-3-2-2 1-1 1-1 2-2 3-1 2zm2 1 1-2h1l-2 2zm10-39 1-2-1-2-1-2h-5a8 8 0 0 0-1 1l-2 2-1 2-1 2-2 4c-1 2 0 3 1 3l3 2h2a27 27 0 0 0 2-2l4-5 1-2v-1zm3 16v2l-2 2a28 28 0 0 0-1 1 4 4 0 0 1-1 1l-2 2 1 1c-1 1 0 2 1 2l1 2 1 1 2 1 2-4 1-1 1-1v-1l2-1v-1h1v-1l-1-1v-1a45 45 0 0 0-3-2l-1-1h-2zm0 10v-1h-1l1-1 1 1-1 1zm1-1a2 2 0 0 0 0-1l-1-2h2l-1 2v1zm2-2-2-2v-1h1v-1h1l1 1-1 1 1 1-1 1zm-46-16v3l1 2h1c-2 0-3 1-4 3v3l-1 1a6 6 0 0 1 0 1v3l2 1h-2 1v1l1 1-1-1-2 2v3l1 1c-1 1-2 2-1 4h1l1-2v-1 1h1l1-1h1l1-3v-2l1-3h-1l2-1v-1a11 11 0 0 1 0-2l2-2v-4a9 9 0 0 0-1 0h-1l-1-1h4a5 5 0 0 0 2-2v-1l1-3 1-5v-3c-1-2-3-2-4-2l-2 2-3 2a5 5 0 0 0 0 1l-1 1v1l-1 3zm61 99-1-1h-1l-2-1h-1l1-4h-2v-1l-2-2h-1a10 10 0 0 0-1 1l-1 2-2-2-1 1a11 11 0 0 0-1 1v1l-1-1h-1l-1 1v2-2l-2 1-1 1-1 2h-1s0-1 0 0h-1v1l-1-3v-1h1v1a1 1 0 0 0 1 0l-1-2h1v-1l-3-1 1 2h-3l-2-1c1-1-1-1-1-2l-3 1 1-6h-1l1-1v-2l-2-2-3-1 1-1h3v-1a1 1 0 0 0 0-1l-2-2 2 2 1-1v-1l1-2v-1a8 8 0 0 0-1-6l-2-1-3-1-6 1-2 1-2 2-6 2c-2 0-3 2-4 3l-1 1-1-1-1 1a67 67 0 0 0-6 7l-1 2-1 1-1-1v-1l1-2 3-3 5-5 5-2 2-2 2-1 10-3c1-1 3-2 5-1l3 1h8l1-1 1-1 2-2 1-3v-3l-2-1-1-2h-2 1l-2-2a3 3 0 0 0-1 0 11 11 0 0 0-1-1h-2l-1-1a2 2 0 0 1 0-1l-1-1-1 1v2h1l-2 1-1-1-2-1h1l-1-1-1 1-1-3 2-2 1 1 1 1v2l2-1v-1a47 47 0 0 0-2-3l-3-1-1-1h-6v-1l-1-1h-1l-2-2v1h-9l-1 1h1-2v-2l-3-1h-1l-1-1h-1l-2 1-1 1 1 2h-2l-2 2v1l-2 1c1 2 3 4 4 3l2 2 9 5a53 53 0 0 0 4 2 6 6 0 0 1 0 1l-3-1-4-2-3-2a2 2 0 0 1-1 0c-1-2-4-3-7-4l1-1-2-1v1l1 1c-2-1-3 0-4 1l1 1v1c-1-1-2-1-2 1l-1 1-1 1-2 3-2 1-1 2-2 4-2 2-1 4a15 15 0 0 0 0 1l-1 1v1a8 8 0 0 0 0 1v7l1 2c1 1 2 1 2 3l3 3a4 4 0 0 0 1 1 6 6 0 0 0 1 0l1 1h2l4-1 1 2 1-2h1l2-3v1l-2 2v1l-1 2h1v3h-1l2 1h2v3l2 3 1 2 3 2h1l2 1h3l2 1h2l3-1h1l3 1h5a5 5 0 0 0 2 0h1a6 6 0 0 0 2-1l1-1h2a16 16 0 0 0 2-1l3-1h1l2-1h1a230 230 0 0 0 5-1h20l1-1zm-50-60 1-1h1v2l1-1-1 2a53 53 0 0 1 0-1h-1v1a6 6 0 0 1-1 1 1 1 0 0 0 0-1v-1h-1l1-1zm-12 1h1a4 4 0 0 0-1 1l-1 1 1-1v-2 1zm-13 10h-1l-1-2 1 1v-1l1 1v1zm30 21 1 1 2 3-1-1a28 28 0 0 0-1-1 25 25 0 0 0-1-2zm-27 19v1h-1l1-1v-3l1-2v4l-1 1zm26-9-3-2-2-3 2 2 3 3zm1-1-3-3h1c0 2 1 2 2 3zm2-3-2-4-1-1 1 1 2 4zm4 11 3 1-3-1z"/></g><g class="D"><path d="m210 147-1 3 1 1h1l2 2h-1l1 1 1-1v-2h3-1c2 0 2 0 2 2l2 2v2c2-1 2-2 1-3s-2-1-1-2l-1-1v-2h-1c-1 0-1-2-3-2h-5zm3 3 1-1v1l-1 1-2-1h2zm71-40 3 1v1l-1 1h1v2l1 1a3 3 0 0 1-1 0 3 3 0 0 1-1-1 2 2 0 0 1 0-1h-1a1 1 0 0 0 0-1h-2l1 1v1l-1-1v2l2-1 1 1 1 1-1 1v2l-2 2-1 2-2 1-5-3-1-2v-2l2-3 1-1 3-3 2-1a9 9 0 0 1 1 0zm28 17-1 2c-1 2-2 2-4 2l1-1-3-2h-1l-1-1v-7l5-6 5-2 2 1 1 1 1 1v1a23 23 0 0 1 0 3l-1 1v2l-2 3-2 2zm1 33v-1h1l1-1a68 68 0 0 0 4-4l3-4v-2l-2-1-3-1h-2l-1 1-1 4-1 1h1v1h-1v2a25 25 0 0 0 0-1h-1v1l1 1v1l-1-1h-1v1l1 2 1 1 1 1v-1zm4-7-2-1v1l-1-1 1-2 2-1-1 1-1 1 2 2zm-45-13-4-1-1-1-2 1-1 2a3 3 0 0 0-1 1 4 4 0 0 1 0 1v1l-1 5-1 1v4l2 1 1-1h2l3-1 1-1h2v-1l1-1v-1l1-1h-2l2-1v-1a9 9 0 0 0 1-1 3 3 0 0 0 0-1 6 6 0 0 0 0-1v-2l-1-1h-2zm0 7-1 1v-1h1zm-4 0 1 1v-1l1 1v2l-1 1 1-1v-1h-1v1-1l-1-2zm7-8-1 1h-2l-1-1-3-1v-1h3l1 1a7 7 0 0 1 1 0l2 1zm4-6c0 1 0 2-2 2v1l-1 1h-4l-3-2-1-1 1-1 1-1 1-2 1-3 4 4h1c-1-1-2-2 0-4-2 0-1 2-2 2l-2-2v-2l3-1h2l2 1 1 1v2l-1 4-1 1zm31 32-2 2-2 2-1-1-1-1v1l-1 2-1 1-1 1-1-1v-3h1c2 0 3-1 2-2l-1-1v-2l2-1a1 1 0 0 0 0-1h1l4 2a1 1 0 0 0-1 0v1l2 1zm-18-23 3 2 2 1c-2 1-5 0-5-3z"/><path d="m291 159 1-1 3-5 1-1 1-1v-3l-3-2-1-1c0-1-2-2-3-1l-3 3-2 2-1 3v1l-1 1v2l1 1h2v1h2c0 1 2 2 3 1zm-1-4h1v1l-2 1 1-2zm34-24 2-1 3-1 2 1 2 4v1l-1 1v3l-3 2-1 2-3 3c-1 2-3 2-4 0l-2-2c-1 0-2-1-1-2l1-3 3-6 2-1v-1zm-17 2-2-1-1-1a43 43 0 0 0-2-1h-3l-1 1v1l-1 2-1 2-1 1-3 4 1 1 2 1 2 1h3l2-1 1-2v-1l1-1v-1l2-2 1-2v-1zm-9 5h1l-1 1v-1l-1 1v-1h1zm0-1 2-1a1 1 0 0 1 0-1h1v2h-3zm1-3h2v-2a2 2 0 0 1 2 1c1 1 0 1-1 1l1 1-1 1h-1c1-1 0-2-1-1l-1-1zm35 40-1 1-2 1c-1 1-1 0-2-1h-1c1 2 0 4-1 4l-3 2v1h-1l-1 1-2 2-2-3v3l-1-1-2-1 1 2-1 2-2 1-2-1-3 4-1-1 1-2 1-1h-1l1-2v-1l2-2 2-2c1 1 1-1 2-1l1-1 1-1a12 12 0 0 0 2-1 12 12 0 0 0 2-3l1-1h2a9 9 0 0 1 1 0l1 1v1h1l-1-1v-1l-1-2a5 5 0 0 1 2-3l1-1 2-2 4-3 4-1c2 0 3 2 3 4l-1 2-1 4a5 5 0 0 1-1 1l-1 1-3 2zm-126-19 1 3 2 6 1 2 2 2v1l1 4 1 2 2 6v10l1 2a1 1 0 0 1 0 1 3 3 0 0 0-1 1v1a7 7 0 0 0 0 1 5 5 0 0 0 0 1 6 6 0 0 0 1 2l1 2v1l2 3 1 2v1l1 4 1 2 1 1c0 2 3 2 2 3l2 2 1 1 2 2 3 1 4 1 3-2c-1 1 1 1 1 2l2 2-1-2h4l2-1v-2l2-2-1 3-1 1-1 2c2 1 2 1 3-1v5l1 2 1 1 1 1h2l3 2h1l4 1h2l4-1a9 9 0 0 1 1-1h2l1-1 1-1h1l1-1 3-3 2-2 3-4 1-2 1-2 1-3 1-2 1-2 1-3 1 1c1-1 2-3 0-4h2l-2-2v1l-7-5a2 2 0 0 1 0-1h-1l-3-2-3-3-3-2 1-1a60 60 0 0 0 4 3l8 7h1l2 1c0 1 3 3 5 3l1-3 2-2-1-2v-1h2l1-1v-3l-1-1-1-2-2-2h-2l-1 1v-2l1 1v-1l-1-2v-2l-2-3a9 9 0 0 1 0-2h-1l1-1-2-1-1-1-1-1h-2l-1-1c1-1 0-4-2-5l-3-2a50 50 0 0 0-4-1h-1l1 3 1-1h2l1 1-1 2h-3v-1l-2-1 1 2-2-2-1-1a2 2 0 0 0 0 1v-3l1 1 2-1v-1h-1a2 2 0 0 1-2 0l-1-1-1-2h-1v-1a3 3 0 0 0-1 0 7 7 0 0 0 0-1l-2-1v1h-1l1-1-1-1h-2l-3-2-2 1-3 3-1 2-1 2v1l1 4 1 3 1 1v1l2 2c2 2 2 4 2 6l1 11v3l-1 2-1 7-3 7-2 4-2 1-1 1a64 64 0 0 1-1 0l1-2 1-2a74 74 0 0 0 5-9v-3l2-5-1-7 1-3v-2l-2-7-1-3-3-1a9 9 0 0 0-6 0l-1 1-2 2h-1v2h1l2 1c-1 1-2 0-3-1a2 2 0 0 0-1 0l-1 1v1l1 1v2l-2-2-3-2-1 1h-1l-1 2-1-1-5 4-1-4h-2a595 595 0 0 0-2-2v-1l-1-2h2l-2-2h-1v1h-2v1h1a2 2 0 0 1 1 0l-1 1h-3v-1h1v-1l-1-1 1-2 1-1v-2h-1l-1 1v-1a16 16 0 0 0 1 0l1-1 1-1-1-1h-1l1-1 1-1v-1l-2-2 1-2 1-1-1-1-3-1h-1a718 718 0 0 1-1-2l-3 3-1-1-2-2-1-2-1 2zm81 26v-1h-1v1a1 1 0 0 0-1 0l1-1v-2h-1l2-2-1 2h3l-1 2-1 1zm6 10v1l-2 1-1 1 1-1v-1a5 5 0 0 0 0-1h1v1l1-1zm-6 18a1 1 0 0 1 1 0l1 1h1l-2 1v-2h-1zm-33-21a27 27 0 0 0-2 0l-2-1h-2 4l2 1zm-8 34 2-1 2-1-1 2-3 1v1l-2 1v-1h1v-1l1-1zm-2-29 4 2 3 2-4-2-3-2zm0-1h4l1 1v1l-5-2zm2-4 5 1h2v1l-2-1h-5v-1zm-15-2h1l2 2v1l-3-3z"/></g><g class="C"><path d="m217 64-1 2c0 1 0 2 1 1h1l2 2-1 1h1l1-1v-1h2v-1c2 0 2 1 1 2h1l2 2v2c2-1 2-2 0-3l-1-2-1-2-3-3h-3l-2 1zm2 2h2l-2 1h-1l1-1zm68-42 2 2-1 1h2a10 10 0 0 0 0 1 4 4 0 0 0 0 1v1h-1l-1-1v-1l-2-1 1 2h-1v2l2-1h1v4l-2 2-1 2-2 1-5-3-1-1v-2l2-3 1-2 3-2a10 10 0 0 1 2-1l1-1zm28 15-2 3c-1 1-1 2-3 2v-1l-3-2-1-1-1-2v-1l1-3c0-3 2-5 3-6 2-2 3-3 6-3l1 1 2 1 1 1v1a22 22 0 0 1 0 3l-1 1v2l-2 3-1 1zm1 33 1-1v-1c1 1 1 0 2-1a64 64 0 0 0 3-3l3-5v-2h-2l-3-1h-2l-1 1-1 4-1 1a27 27 0 0 1 1 0l-1 1 1 1h-1v3l-1-1v1l1 2 1 1zm4-8c-1 1-1 0-2-1v2l-1-1 1-2c0-1 1-2 2-1l-1 1-1 1 2 1zm-43-10h-1l-4-1h-1l-2 1-1 2v2a5 5 0 0 1-1 1v6l-1 2v1l3 1v-1h2l3-1 1-1 2-1a24 24 0 0 1 0-1l1-1v-1l-1-1h1v-1h1v-3a4 4 0 0 0 0-2l-1-1h-1zm-1 7v1l-1-1h1zm-3 1h1v-1l1 1v2l-1 1v-2 1-1a3 3 0 0 0-1-1zm6-9-1 1h-2l-1-1-2-1-1-1h1l2 1h2l2 1zm4-6c-1 1 0 2-2 2v1a5 5 0 0 0-1 1 3 3 0 0 1 0 1h-2l-1-1h-1l-3-1-1-2h1l1-2 1-2 1-2 4 3v-3l-1 1-3-1v-1l1-2 3-1h1l2 1 1 1 1 2a46 46 0 0 1-2 4v1zm31 30-2 2-2 2-1-1-1-1v1l-1 2-1 1-1 1v-4l1-1v1l2-2-2-1v-2l2-1a1 1 0 0 0 0-1h1l4 2-1 1 2 1zm-18-21 2 1 3 1c-2 1-5 0-5-2z"/><path d="m296 71 1-1 2-4 1-1 1-1v-3l-4-2v-1l-3-1-3 3-2 2v3h-1v5h2l1 1h5zm-1-3v1l-1 1 1-2zm31-25 2-1 2-1 3 1 2 3v1a10 10 0 0 1-1 1v3c0 2-1 2-2 3l-2 1-2 4c-2 2-3 2-4 0l-3-2-1-2 1-3 3-5 2-2v-1zm-16 3a671 671 0 0 0-2-1l-1-1a47 47 0 0 0-2-1h-3l-1 1v1l-1 2v1l-1 1-1 1-2 4c-1 1 0 1 1 1l2 1 2 1h3l1-1 1-2 1-1v-2l2-2 1-2v-1zm-9 5h1v1l-1-1v1h-1l1-1zm0-1 2-1a1 1 0 0 1 1 0c0-1 0-1 0 0v1h-2a2 2 0 0 0-1 0zm1-3h2v-1a2 2 0 0 1 2 0l-1 2h1l-1 1h-1c1-1 0-2-1-1l-1-1zm36 37-1 1-2 1h-2l-1-1c1 2 0 4-1 5l-3 2-1 1-1 1-2 1-2-2a1 1 0 0 0 0 1l1 1v1l-1-1a59 59 0 0 0-1 0l-1-1 1 1-1 3h-2v1l-2-1c-1 2-1 3-3 3l-1-1 1-1 1-1h-1l1-2v-1l1-2 3-2 2-1 1-1 1-1a11 11 0 0 0 1-2 11 11 0 0 0 2-2l1-1 1-1h1a8 8 0 0 1 1 1v1h1v1-2l-1-2 1-3 1-1 2-2 4-3 4-1c2 0 3 1 3 3v2l-1 4-1 1a38 38 0 0 0-1 1l-1 1-2 1zM215 72l1 3c0 2 1 3 3 5v2l2 2v1l2 3 1 3 1 5 1 1v7l1 2v2a3 3 0 0 0-1 2l1 2a4 4 0 0 0 0 1 6 6 0 0 0 1 1l1 2v1l2 3 1 2v1l1 4 1 1 2 2c0 1 2 1 2 3l1 1 1 1 3 2 2 1h4l3-1c-1 1 1 1 1 2l2 1-1-1 3-1 1 1 2-2v-1l1-3 1 1a1070 1070 0 0 1-2 3l-1 2h2l1 1v3l1 2 1 1 1 1h2l3 2h7l4-2a8 8 0 0 1 1 0l1-1h1a31 31 0 0 0 2-1 18 18 0 0 0 1-1l3-3 2-3 2-4 1-2 1-2 1-3 1-1 1-2v-3h1l1 1v-4h1l-2-2v1l-7-5h1a2 2 0 0 1-1-1 1 1 0 0 0 0 1 4 4 0 0 0 0-1l-3-1-4-3-2-2a8 8 0 0 1 0-1 56 56 0 0 0 5 3l8 6 3 1c-1 2 2 3 4 3l1-3 2-2-1-2v-1h2l1-1-1-3-1-1-1-1v-1l-2-1h-2v-1l1-1c-1 0-2-1-1-2l-1-2-2-2a9 9 0 0 1 0-2h-1l1-1-2-1-1-1h-3l-1-2c1-1 0-3-2-4l-3-3a50 50 0 0 0-4 0h-1l1 3 1-1h2l1 1c1 1 0 1-1 2h-3v-1l-1-1v2l-2-1 1-1h-1a1 1 0 0 0-1 0v-3h1v2l2-2 1-1h-2a2 2 0 0 1-1 0l-2-1-1-1a12 12 0 0 0 0-1h-1a3 3 0 0 0 0-1h-1l-2-1v1-1l-1-1h-2l-2-1h-3l-2 3-2 2v3l1 4 2 3v2l2 2h1l1 5 2 10v4l-1 2-1 6-2 7-2 4-1 2h-1l-1 1v-2l1-2a71 71 0 0 0 5-9v-2l-1-1 2-6-1-6 1-3-1-2-1-7-2-2-3-1a9 9 0 0 0-5 1l-2 1-1 1-1 1v1l3 1h-3a2 2 0 0 0-1-1l-1 1v1l1 1v2l-2-2-3-1h-1l-1 1-1 1v1l-1-1-5 3v-3h-3a923 923 0 0 0-1-2v-1c-2 0-1-1-2-2l2 1 1-1-2-2h-2l1 1h-2a1 1 0 0 0 0 1h2v1h-4v-1l-1-1 2-2v-3h-2 1v-1h1l1-1-1-1h-1l1-1 1-1v-2l-2-1 1-2v-2h-1l-2-1h-1l-1-2-3 3-1-1-2-1v-1l-1-1-1 2zm79 21 1-1-2 1a1 1 0 0 0-1 0 7 7 0 0 1 1-1l1-1-1-1 1-2-1 2h3l-1 2a1 1 0 0 1-1 1zm7 10h-1l-1 1-1 1a5 5 0 0 0 1-1v-1 1c1-1 1-2 2-1zm-5 17a1 1 0 0 1 1 0l1 1h1l-2 1-1-2zm-33-19a23 23 0 0 0-2 0 31 31 0 0 0-2 0l-2-1 4 1h2zm-6 33h1l3-2-2 2-2 2h-1l-1 1 1-1 1-2zm-4-28 4 2 3 2-3-2-4-1v-1zm1-1c1 0 2 2 4 1v1l-4-1v-1zm1-3h7v1h-2l-5-1zm-14-1v-1l2 3-2-2z"/></g><path fill="#594f4c" d="M34 243z"/><path fill="url(#A)" d="M393 200c-14-11-32-9-47-2 3-7 3-15 2-22h-1v11l-4 12a94 94 0 0 0-5 3c-12 6-22 15-34 20l-18 6 16-12c8-9 16-18 26-25-10 4-17 12-25 20-9 9-19 16-31 21-8 4-16 8-24 14a285 285 0 0 0 13-28l9-24c5-5 8-11 14-15 7-4 15-5 22-7v-1c-8 0-17 2-24 6-4 2-7 5-9 9a373 373 0 0 1 23-52c10-9 23-7 35-9v-1c-9-1-25-1-32 6a406 406 0 0 1 25-38c-20 22-36 48-47 76-7 14-11 30-17 45l-14 31 3-15c2-21 0-41 12-59h-1c-11 13-12 32-13 49-1 11-3 22-8 32l-7 9-3 2c-6 3-2-23-1-29a366 366 0 0 0 3-30l5-18a356 356 0 0 0 4-15l11-22 16-26c10-16 21-33 27-51l-1-1c-8 19-18 36-29 53-7 11-15 22-21 34l2-11 4-28c8-25 24-49 25-76l-6 21a225 225 0 0 1-8 22l-10 20a235 235 0 0 0 0-36 548 548 0 0 1-18 118l-3 8c0-16 0-32-2-48 4-4 7-12 9-17 3-8 5-15 4-23h-1c-1 9-2 17-6 25-2 3-5 7-6 11l-5-59c-1-19 0-38 7-56 1-1 0-1-1-1-7 12-9 25-10 39l-5-6-11-10h-1l10 12 7 8v8l5 60 2 34-2-4-9-16c-6-13-8-25-10-39h-1c-2 12 2 25 6 36l8 16 9 15v28c-1 13-4 22-6 29l-2 11a24 24 0 0 1-1 1c-2-1-3-5-4-6a78 78 0 0 1-1-4l-2-11-2-12v-1l-1-22c-1-12-2-25-8-36h-1c5 14 5 27 6 41v13c-7-15-16-28-21-44l-4-12v-21l-1-26c0-16 1-34-4-49 0-1 0-1 0 0l1 24v26l1 25v5l-4-18c-2-14-10-25-20-35a250 250 0 0 0-4-4l-4-18 1-19h-1c-2 7-3 15-2 22l1 10a198 198 0 0 0-26-21l33 32c5 6 10 11 14 18 3 7 5 14 6 22v2l-3-2-9-7c-4-5-10-11-13-17h-1c1 7 7 13 12 18 3 4 9 10 15 11a199 199 0 0 0 17 55l-13-11a190 190 0 0 1-30-33c6 11 14 22 24 31l16 14c6 6 10 12 13 19 5 11 8 21 10 32v42l-1 6c-6-2-10-11-13-16l-5-9a213 213 0 0 1-2-8c-5-16-7-34-18-47l-1-1c-3-8-9-16-14-23-7-9-15-16-24-23l-1-1c1-6-2-15-4-20-3-7-6-14-11-19 0-1-1 0 0 0l9 21c1 5 1 11 3 16-6-3-11-6-18-8 1-5-2-9-3-13a128 128 0 0 0-6-12c-5-8-10-17-17-24l-1 1c5 8 11 15 15 23a142 142 0 0 1 6 15l3 9c-13-5-26-9-39-16v1c17 13 41 16 59 27a107 107 0 0 1 36 40c-10-8-23-10-36-10h-9l-10-8-15-10h-1l14 12 7 6-14-1c-10-1-19-3-29-7 12 12 32 10 48 10v1l1-1h1c19 1 39 3 50 20 4 6 7 12 9 19l-8-2c-6-1-11-4-17-7a40 40 0 0 0-4-2l-4-7c-2-2-3-5-6-6v1l5 8 2 3c-8-3-17-3-24-1l1 1 15 1c6 0 12 2 17 5l12 6c4 0 8 0 11 2l7 23c-7-9-17-15-29-13-10 1-19 5-29 6s-21 1-32-1l-27-6c-5-2-10-3-14-7l-11-14-1 1c3 6 8 15 15 19l-23 2c11 0 23 0 33 2l21 4-10 11c-4 5-8 10-10 16l1 1c4-5 7-11 12-15l11-12h3a109 109 0 0 0 51-2c-3 5-5 13-8 17-8 8-22 11-33 10v1c10 3 21-1 30-6 4-2 7-5 9-8l3-7c1-4 3-6 5-8 9-3 18-1 26 6 5 4 8 10 11 15v1a167 167 0 0 0 3 6c10 27 11 57 10 86l-4 55-9 55v2l1 1c8 4 18 5 27 5 8 0 19-1 26-4 2-1 1-2 1-3l-5-19a368 368 0 0 1-9-53v-92c0-19 4-36 13-51 4-7 5-8 7-9 10 2 21 9 29 15 10 7 17 16 22 27v-1c-2-12-11-22-21-29a114 114 0 0 0-27-14c6-5 14-8 21-12l8-2c9 0 19 4 27 9 9 6 16 15 22 25l1-1c-5-11-14-21-25-27-3-3-10-7-17-9l14-4c8-3 15-8 22-12l14 1 17 8c9 6 20 14 25 24l1-1c-3-11-16-19-25-25-7-5-18-11-28-10l1-1c19-12 41-22 62-10h1z"/><g class="C"><path d="M219 133h-2l-1 1-1 1v1l-1 1 1 1v-1l1-1 1-1v1h1l1 1-1-1 1-1h2l-1-1-1-1zm0 2a67 67 0 0 1-1 0v-1l1 1s0-1 0 0zm-36-23h-2v1h1-1v1a2 2 0 0 1 0 1 1 1 0 0 0 1-1l1-1v1h-1 1v1a62 62 0 0 0-1 0 1 1 0 0 0-1 0v2l1 1 1 1 1 1 3-2v-2l-1-1v-1l-2-2a5 5 0 0 0-1 0zm-16 8 1 1 2 1 1-1 1-1 1-1v-1l-1-1-2-4-2-1h-1l-1 1-1 1v2h1v1l1 2v1zm-1 17h1l1-1v-1h-1v1-3h-1 1v-1l-1-2h-4v1l1 3a34 34 0 0 0 2 2h1v1zm-1-5-1-1 2 1v1h-1c1 0 1 0 0 0h-1l1-1zm22-4-1 1a3 3 0 0 0 0 1 4 4 0 0 0 1 1l1 1h-1v1l1 1h1v1h3v1h1v-6a2 2 0 0 1 0-1 2 2 0 0 0-1 0v-1l-1-1a1 1 0 0 0-1 0l-2 1h-1zm1 3h1l-1 1v-1zm1 2v1a4 4 0 0 1 0-1 1 1 0 0 1 0-1h1a1 1 0 0 0-1 1z"/><path d="M187 127v1h1l1-1h1v-1l-1 1a2 2 0 0 0-1 0h-1zm-2-3v1l1 1 1 1a1 1 0 0 0 0-1h3v-2h-1v-1l-1-2-2 2v-2l1 1 1-1v-1l-2-1-2 1v4h1zm-17 16 1 1 1 1v-1h1v2h1v1-1l1-1-1-1v1l-1-2h1v-1l-1-1h-1l-2 1h1l-1 1zm10-12-2 1-1 1c1 1 2 0 3-2z"/><path d="M178 137h2l1-1v1-1h1v-1l-1-1v-2l-1-1-2-2-1 1-2 1v2l1 1 1 2v1h1zm1-1h-1v-1l1 1zm-18-15a2 2 0 0 0-1 0h-2l-1 2a4 4 0 0 0 0 1v1l1 2 1 1 1 2h2l2-1v-3l-2-3-1-1v-1zm9 3 1 1v1l1 1v2h4l1-1s1 0 0 0l-1-2a33 33 0 0 0 0-1l-1-1v-2h-4v1h-1v1zm5 2-1 1v-1h1zm0 0a1 1 0 0 0-1-1l-1 1v-1a1 1 0 0 1 1 0h1v1zm-1-2-1 1h-1l1-1h-1v-1h1v1h1zm-19 20 1 1h1l1-1v3l2 1a3 3 0 0 1 1 1l1 1 1-1v1-1h1v2l1 1h1v-1l2 2v-1a2 2 0 0 1-1-1h1v-1l-1-2h-1l-2-1v-1h-1a6 6 0 0 1-1-1 6 6 0 0 1 0-1l-1-1a1 1 0 0 0-1 0 7 7 0 0 0-1 0v1-1a2 2 0 0 0 0-1 3 3 0 0 0 0-1l-1-1-1-1-2-2-2-1-2 2 1 1v2l1 1v1l2 1zm66-7h-1v1l-1 1h-1l-1-2-1 2v-1l-2 1c0-1 0 0 0 0a6 6 0 0 0 0 1l1 1-1 1-1 1h1v1h1-2l1 1h1v1l-1-1a4 4 0 0 1 0 1v1l1 1h-1v1h1-3a1 1 0 0 1 1 0h1a1 1 0 0 0-1-1h-1 1-1l-1 1 1-1-1 2-1 1h-1v2l-3-2v1-1l-1-1h-1l-1 1-1 1-1-1 1-1v-1h-1l-2 1 2-1v-1h-1v-1a4 4 0 0 0-1 0 5 5 0 0 0-3-1l-1 1h-1v1a13 13 0 0 0-2 5l1 1-1 4 1 3v1a39 39 0 0 0 2 5l1 1v1h-1l-1-1-1-2-1-4v-3l-1-2v-1l1-6 1-3 1-1h1v-1l1-1v-3a3 3 0 0 0 0-1l-1-1-1-2h-3l-1 1-1 1h-1a8 8 0 0 0-1 1 2 2 0 0 1-1 1 1 1 0 0 1-1 0c0-1 0 0 0 0l1 1v-1 2c0-1 0-1 0 0l-1 1v-1h-1v1h-1l-1-1 1-1h1v1l1-2h-1a26 26 0 0 0-2 0l-1 2h-1l-1 2v1h-2v1h-1v1a5 5 0 0 1-1 0l-1 2v3-1 1h-1s0-1 0 0l-2 1v1h-1v2h2v1l-1 1 1 1v1l3-1a5 5 0 0 0 2 0l4-4a30 30 0 0 0 2-1h1l-2 1-2 2-1 1a1 1 0 0 1-1 0l-3 3v-1l-1 1v2h1v1l1 1v1l1 2v1l1 1 1 2 1 1 2 2v1h1l1 1a4 4 0 0 1 1 0l2 1h4l2-1 1-1 1-1v-2l1-1 1 1-1-1v-1l-1-1h1v1l1 1v1l1-1 2 1h-1 1l1-1h5l1-1 1-1 2-2v-1l1-1v-2l1-1 1-2v-1h1v-1a2 2 0 0 0 0-1h1v-1a2 2 0 0 0-1-1l1-1v-5l1-3a5 5 0 0 1 1-1l1-2v-2l1-1 1-3 1-1v-1zm-43 11-1-1h2l-1-1 1 1h-1v1h1a4 4 0 0 1 0 1v-1h-1v1a1 1 0 0 1 0-1zm-3 6a3 3 0 0 0 0 1h1a23 23 0 0 1-1 0v-1h-1 1zm2 9v1h-2 1l1-1zm18-10h3-2a13 13 0 0 0-1 0zm4 19v1l-1-1-1-1-1-1 1 1h1l1 1zm1-16-2 1-2 1 2-1 2-1zm0 0h-3 3zm-1-2h-3 3zm7 0 1-1-1 1zm-95-70h-2l-1 1-1 1v1-1h2v-1l1 1v1h1l-1-1h2v-1l-1-1zm0 2c0-1 0-1 0 0l-1-1h1v1zM91 61h-1a1 1 0 0 0-1 1h1-1a1 1 0 0 1 0 1l1-1h1l-1 1v1-1h-1v3l1 1h2l1-1v-2h-1v-2a4 4 0 0 0-1-1zm-13 2v2l2 1-1-1h2l1-1v-4l-2-2h-1l-1 1v2c-1 0 0 0 0 0v2zm-5 13 1-1h1v-1h-1 1v-4h-3v2l1 2v1h1a3 3 0 0 0 0 1h-1zm1-4v-1h-1l1 1h-1 1zm16 1v1a1 1 0 0 0-1 0v2h1-1v2h1v1h1l1 1h1v-2l1-2v-1l-1-1h-2l-1-1zm0 3v1-1zm1 1a2 2 0 0 0 0 1v-1h-1v1a3 3 0 0 1 0-1l1-1v1z"/><path d="M90 73h1a7 7 0 0 0 1 1v-1h1-1a2 2 0 0 0-1 0h-1zm-1-3 1 1v1s0 1 0 0h1l2 1v-4l-2 1h-1l1-1h2l-1-1v-1a3 3 0 0 0-1 0h-2v1a18 18 0 0 0 0 2zm-15 8v1h2v2l1-1h-1v-1l1-1v-1a1 1 0 0 1-1 0h-1l-1 1zm9-6h-2 2zM81 78h4v-3a3 3 0 0 1 0-1l-1-2-1 1h-2l-1 1 1 1v3zm1-1v-1 1zm-9-14-1-1h-1l-1 1a4 4 0 0 0 0 1v3l1 2h3v-1a13 13 0 0 0 0-1v-3l-1-1zm6 4v2h1v2h2l1 1 1-1-1-2v-3h-4v1zm3 3h-1v-1h1v1zm0-1h-1v-1l1 1zm0-1h-2 1l-1-1h1l1 1zm-18 9v1h1a1 1 0 0 0 0 1h1v-1 2l1 1v1l1 1h1-1 1v2h1l1 2a1 1 0 0 0 1 0l-1-1v-1 1h1v-2l-1-1-1-1v-1a5 5 0 0 1-1-2 2 2 0 0 0-1-1 5 5 0 0 0-1 0 1 1 0 0 0 1-1 2 2 0 0 0-1-1v-2l-1-1-2-1-1 1v3l1 1zm48 10h-1v1h-1l-1-1h-3v1l1 1h-1l-1 1a5 5 0 0 0 1 0v1-1l-1 1h1v1h-1v2h-1a1 1 0 0 1-1 0 1 1 0 0 1 1 0v-1h-2 1l-1 1-1 1c0-1 0 0 0 0l-1 1-2-2v-1h-3l1-1a1 1 0 0 0-1-1h-1 1c1 0 1 0 0 0v-1a3 3 0 0 0-1-1 3 3 0 0 0-2-1h-1l-1 1-1 2-1 1v1l-1 2v9l-1-1v-5l1-2v-2l2-4 1-2h1l1-1 1-1 1-1v-1l-1-1v-2h-5v1h-1a1 1 0 0 1-1 0v1h1l-1 1v-1 1h-2l-1-1 1-1 1 1 1-1h-1a19 19 0 0 0-1 0h-2l-1 2h-3v1l-1 1-1 1h-1v1h1-2a3 3 0 0 1-1 1h-1v1l1 1h-1l1 1v2l2-1h1l4-1a22 22 0 0 0 2-1v1h-1l-2 1h-1a1 1 0 0 1-1 0l-3 1h-1v1h1l-1 1h1v6l1 1v1a4 4 0 0 0 1 2v1h1a3 3 0 0 0 0 1 5 5 0 0 1 1 0l1 1 1 1h4l1-1 1-1v-1l1 1a40 40 0 0 0 0-1v-2 3h2l-1 1 1-1h1l1 1h2a2 2 0 0 0 2-1h1l1-1h1v-1l1-1 1-1 1-1 1-1a3 3 0 0 0 1-1 1 1 0 0 0 0-1v-1h1v-2l1-1 1-2 1-1 1-1 1-1 2-2 1-1v-1zm-33-1v-1c0-1 0-1 0 0h1v-1 2a13 13 0 0 1-1 0zm-3 3a2 2 0 0 0 0 1 22 22 0 0 1 0-1zm-1 7a20 20 0 0 0 0 1l-1-1h1zm15-3h2a12 12 0 0 0-2 0zm-2 14h1a22 22 0 0 1-1 0l-1-1v-1l1 1v1zm5-11h-1l-2 1 2-1h1zm0 0h-2l1-1 1 1zm0-2h-3 3zm4 2 1-1-1 1z"/></g><g class="B"><path d="m93 117 1 1v-1h1v1-2h1v1l1-1v1l-1-1h-2v1h-1zm1 0a6 6 0 0 1 1 0h-1zm5-21a1 1 0 0 1 1 0v1-1a2 2 0 0 0 1 1h-1v1l1-1 1 1v2h-3v-3a3 3 0 0 1 0-1zm9-2v1l-1 1v-1l-1 1-1-1-1-2 1-2h1a7 7 0 0 1 1 1v1h1v1zm6 6v-1a19 19 0 0 0 0-1v-2h-1l-1 1v2-1l1 1h-1 1v1h1zm-1-2h-1l1-1v1zm-10 6-1 1v2l1 1 1 1v-1h1v-2a11 11 0 0 1 0-1h-1 1-1v-1h-1zm1 1v1-1zm0 1a2 2 0 0 1 1 0 1 1 0 0 1-1 0zm-1-3v1h-1 1v-1zm0-2v2h-1v1h-1v-2h1l-1-1s1 0 0 0v1l-1-1 1-1h1l1 1zm11 0v3h-1v-1h1-1v-1c-1 0 0 0 0 0v-1h1zm-7 0 1-1-1 1z"/><path d="M110 104v-2c-1 0 0 0 0 0l-1-1h-2v3h1v1h1c0-1 0 0 0 0v-1h1zm-1-1v1-1zm1-11a1 1 0 0 1 1 0v-1c0-1 0 0 0 0a1 1 0 0 1 2 0 1 1 0 0 1 0 1v2l1 1-1 1a1 1 0 0 0-1 0h-1a7 7 0 0 1 0-1v-2h-1v-1zm-2 4h-1a12 12 0 0 0-1 1v2l1 1c0 1 0 1 0 0h1l1-1v-1a1 1 0 0 1-1 0 2 2 0 0 0 0-1v-1zm-1 3h1-1zm0-1h1-1v1-1zm0 0v-1h1l-1 1c0-1 0-1 0 0zm13 0v2h-1l1 1v1a1 1 0 0 1 0 1h-1 1-1v1s1 0 0 0v2a1 1 0 0 1-1 0 1 1 0 0 0 0-1v1-5a1 1 0 0 1 0-1h1a1 1 0 0 1-1-1 1 1 0 0 1 0-1v-3h2v3zm-25 21 2 1h1l1 1h1l1 1h1l1 1h1v1a1 1 0 0 0 1 1h2l1 1h5v-1l1-1v1l1-1h-1 1a1 1 0 0 0 0-1v-1 1h1l1 1h1l1-1h1l1-1v-2h1v-1a3 3 0 0 0 0-1v-1l-1-1v-2a1 1 0 0 1-1-1v-2h-1v1h-5 1l3-1h2v-1l-1-1a2 2 0 0 1 0-1h-3 1a10 10 0 0 0-1 0v-1h-1a2 2 0 0 1-1 0h-5v1l1-1v2-1h-1l1 1h-1v-1 1l-1-1h1v-1l-1 1h-2l-1 1h-1v2l1 1h1l1 1h2l2 2 1 1 1 2 1 1v3-1a19 19 0 0 0-1-3h-1v-2l-2-1-1-1-1-1h-2a2 2 0 0 0-1 1v2h1-1v1h1-1v1c-1 0 0 0 0 0v1h-1v1h-3l1-1h-1v2-1h-1v-1l-1 1v-1h1-1c0-1 0-1 0 0v-1h-1v-1h-1l-1 1v-1 1c0 1 0 0 0 0h-2l1 1zm19-11h-1v-1 1-1h1v1zm3 1v1a1 1 0 0 0 0-1 1 1 0 0 0-1 0h1s-1 0 0 0zm2 4h1-1zm-10 3h-1 1v-1 1zm5 7v-1h1l-1 1v1-1zm-6-5h2-2zm0 0 1-1-1 1zm0-1 1-1-1 1zm-3 2h1-1zm140-80v1h2v-2h1v1l1-1 1 1-1-1h-4v1zm1 0h1-1v1-1zm7-27h2a1 1 0 0 0 0 1 1 1 0 0 1-1 0h-1 1v1-1h1l1 1v2l-2 1h-1v-1l-1-1v-1a5 5 0 0 1 0-1 3 3 0 0 1 1-1zm10-3 1 1-1 1h-2l-1-1-1-3 1-2h2l1 1v3zm9 8v-1a23 23 0 0 0 0-2l-1-2s0-1 0 0h-2v2l1 1v1h1-1v1h2zm-1-3h-1 1l-1 1v-2 1h1zm-13 8h-1l-1 1v2l1 2h1v1h1v-1h1v-3h-1l1-1a1 1 0 0 0-1 0 5 5 0 0 0 0-1 1 1 0 0 0-1 0zm1 2zm-1 1h1a16 16 0 0 1 0-1v1a1 1 0 0 0-1 0zm0-4v1h-2 1a2 2 0 0 1 0-1h1zm-1-2v1h1l-1 1-1 1h-1v-2l-1-1h2l-1-1v1h-1v-2h2c0-1 0-1 0 0h1v2zm15 0v3h-1v-2h-1v-1l2-1v1c0-1 0-1 0 0zm-9-1 1-1h1l-2 1z"/><path d="M267 22v-1l-1-2v-1h-3v4a2 2 0 0 0 1 1h1v-1h2zm-2-1h1v1l-1-1zm2-14V6h1V5h2a1 1 0 0 1 0 1l1 1v1a3 3 0 0 0 0 1v1c0 1 0 2-1 1a2 2 0 0 0-1 0h-1a11 11 0 0 1 0-1l-1-2V7zm-3 5h-2a1 1 0 0 0 0 1h-1a2 2 0 0 1 0 1h1v3h2l1-1v-1a1 1 0 0 1 0-1 3 3 0 0 0-1-1v-1zm-1 3zm0 0v-1 1zm-1-1 1-1h-1a1 1 0 0 1 1 0v1c0-1 0-1 0 0h-1zm18 1v1h-1l1 2v1a2 2 0 0 0 0 1v1h-2 1-1 1v2h-1v2-1h-1v-5a4 4 0 0 0 0-1 1 1 0 0 1 0-1v-1h1a1 1 0 0 1-1 0 2 2 0 0 1 0-1v-3l1-2h1l1 1v4zm-34 26 1 1 2 1h2l1 1a3 3 0 0 1 1 0l2 1 1 1 1 1a4 4 0 0 0 1 0v1a1 1 0 0 0 1 0v1h2l1 1h1l1 1h5l1-1h1l1-1h1v-3l1 1v1-1h1l1 1h1a1 1 0 0 0 1 0l1-1 1-1h1v-2h1v-6l-1-1v-2h-1v-2l-1-1h1-4l-1 1h-3a20 20 0 0 0 1-1h4a3 3 0 0 0 1-1h2l-1-1v-1h-1v-1h1l-1-1h-3v1-1h-1v-1h-1a3 3 0 0 1-1 0v-1l-1 1h-6v1h1v-1h1v1l-1 1h-2 1v-1h-3l-1 1h-2v4h1l1 1h3l2 1 2 3h1l1 1 1 2 1 2v2h1l-1 1v-1a26 26 0 0 0-1-4h-1l-1-2-2-1v-1l-1-1-2-1h-2l-1 2v2l1-1-1 1h-1l1 1h1-1l-1 1a1 1 0 0 0-1 0l1 1h-1v2l-1-1-1 1h-1l-1-1h1-1v2h-1c0-1 0 0 0 0v-1a4 4 0 0 0-1-1v-1h-1v-1h-1a4 4 0 0 0-1-1h-1v1l-1-1v2h-2zm25-14a1 1 0 0 1 0 1v-1h-1v-1l1 1v-1 1zm5 1-1 1 1-1zm3 6v-1 1l1-1-1 1zm-13 3a10 10 0 0 0-1 1h-1 1l1-1zm6 10v-1l1-1v1l-1 1v1a23 23 0 0 0 0-1zm-8-6 2-1h1-1l-2 1zm0-1h2-2zm0-1 1-1h1-1l-1 1zm-4 3h1-1z"/></g><g class="C"><path d="M216 24h-1l-1 1v1h-1l1 1a38 38 0 0 0-1 0l1-1 1-1v1h1v-1h1v-1h-1zm0 1h-1 1zm-26-11v2a1 1 0 0 0 0-1l1-1v2l-1-1v2l1 1h1l2-1v-1l-1-1a5 5 0 0 0-1-1 3 3 0 0 0-2 0zm-8 6v1h1l1-1h1v-1l-1-1-1-2-2-1h-1v4l1 1h1zm0 12 1-1v-2l-1 1 1-1h-1 1l-1-1v-1h-2l-1 1a35 35 0 0 0 1 1l2 2v1zm-1-4h-1 1l1 1h-1c1 0 1 0 0 0v-1zm14-5v3h1-1l1 1c0 1 0 1 0 0h1v1h3v-1a12 12 0 0 0-1 0v-3a1 1 0 0 0-1 0v-1h-3zm1 3zm1 0a2 2 0 0 0 0 1v-1 1a1 1 0 0 1-1-1 1 1 0 0 1 1 0z"/><path d="M195 23h2v-1h-1a2 2 0 0 0-1 1zm-2-2 1 1v1h1v-1h2v-1h-1v-1l-1-1-1 1v-1 1l1-1v-1h-1a2 2 0 0 0-1 0l-1 1v1l1 1zm-9 12v1a1 1 0 0 1 1 0h1v1h1v-1l-1-1v-1h-1v-1 1h-1v1zm5-8h-1l-1 1 2-1zM190 30h1c1 0 0 0 0 0l1-1v1-2l-1-1v-1l-2-1v1h-1l-1 1v1h1v1l1 1h1zm0 0a8 8 0 0 1 0-1v1zm-12-8a1 1 0 0 0-1 0h-2v1a3 3 0 0 0 0 1v1l1 1h1l1 1h1l1-1v-1l-2-2v-1zm5 0 1 1 1 1a2 2 0 0 1 0 1h1v1l1-1h1l1-1-1-1h-1a2 2 0 0 1 0-1v-1h-2a16 16 0 0 0-1 0v1h-1zm4 2a16 16 0 0 1-1 0l1-1v1zm0-1a1 1 0 0 0-1 0h1zm-1-1-1 1h1a5 5 0 0 1-1 0v-1h1zm-10 15a3 3 0 0 1 1 0c0 1 0 0 0 0h1v1l1 1h1v1h1v-1 1h1v-1 2h2l1 1a1 1 0 0 0 0-1l-1-1h1s-1 0 0 0l-1-1-1-1h-1v-1a4 4 0 0 1-1 0 4 4 0 0 1-1-1h-2v-1a2 2 0 0 0 0-1l-1-1-2-1h-1l-1 1v1l1 2h1l1 1zm41-11v1h-1v1l-1-1v1h-2v1h1l-1 1 1 1h-1l1 1v1l1 1h-1l1 1h-2v-1h1-1l-1 1 1-1v2h-2v2l-2-1v-1a1 1 0 0 0-1 0l-1 1h-1l1-1h-2 1v-1h-1a3 3 0 0 0-1-1 3 3 0 0 0-2 0l-1 1v7l1 2v1a25 25 0 0 0 2 3v1h1-2l-1-2-1-2v-2l-1-1v-5l1-2v-1l1-1v-2a2 2 0 0 0 0-1h-1l-1-1h-2v1h-1a1 1 0 0 0 0 1h-1a3 3 0 0 1 0 1h-2 1v1l1-1v1h-1v1h-2v-1h1l1-1h-1l-1 1-1 1-1 1v1h-1v1h-1 1a4 4 0 0 0-1 0v3h-1l1 1h-1l-1 1v2h1v2l1 1 1-1a3 3 0 0 0 1-1l3-3 1-1v1l-2 2h-1v1l-2 2v-1 2h1v1l1 1v1l1 1 1 1 1 1 1 1 1 1h1l2 1 1-1h1l1-1h1a5 5 0 0 0 0-1h1v-2c0 1 0 1 0 0v-1l-1-1 1 1 1 1h2v-1h3a2 2 0 0 0 1-1v-1h1v-1l1-1v-3l1-1v-1l1-1a1 1 0 0 0-1-1v-4l1-2a4 4 0 0 1 0-1v-2l1-1v-2l1-1-1-1zm-26 11h-1 1v-1l1 1h-1l1 1h-1a18 18 0 0 0 0-1v1-1zm-1 5v-1 1l-1-1 1 1zm2 5v1h-1l1-1zm10-8h1l1-1v1h-1a9 9 0 0 0-1 0zm4 12a1 1 0 0 0 1 0h-1l-1-1h1v1zm0-11-1 1-1 1 1-1 1-1zm0 0-2 1v-1h2zm-1-1h-2v1-1h2zm4 0 1-1-1 1z"/></g><g class="D"><path d="M216 13v1-1l1 1 1-1v1h1v1-1l-1-1-1-1-1 1zm1 0h-1 1zm15-12h1v1a1 1 0 0 1-1 0V1s0 1 0 0v1h1a1 1 0 0 1 0 1l-1 1h-2V2l1-1a2 2 0 0 1 1 0zm7 2v1l-1 1V4h-1V1l2-1 1 1v1a4 4 0 0 1-1 1zm2 8 1-1V8h-2v2-1 2-1 1h1zm0-2v1l-1-1h1s0-1 0 0zm-11-1h-2v1a1 1 0 0 1 0 1v2h1l1-1h1v-1a2 2 0 0 0 0-1 1 1 0 0 0 0-1h-1zm0 2zm0 0a1 1 0 0 1 0 1 1 1 0 0 0 0-1zm1-2a6 6 0 0 0-1 0 3 3 0 0 1-1 0h2zm1-2-1 1v1a3 3 0 0 0-1 0l-1-1V6l1-1 1 1V5l-1 1V4a2 2 0 0 1 1 0l1 1a9 9 0 0 1 0 1zm8 7a1 1 0 0 0-1 1v-1 1a2 2 0 0 1-1 0v1-1l1-1h-1v-1h2v1zm-5-5h1v1l-1-1z"/><path d="M236 12v-2h1l-1-1h-1V8l-1 1a2 2 0 0 1 0 1v1h-1v1h3zm-1-1v1-1zm7-7 1-1 1 1v2a2 2 0 0 0-1 1v1h-1a1 1 0 0 0-1-1V6l1-1V4zm-4 1h-2a14 14 0 0 0 0 1l-1 1v1h2l1-1a2 2 0 0 0 0-1 1 1 0 0 0 0-1zm-2 2zm0-1h1-1v1a1 1 0 0 0 0-1zm0 0h1a3 3 0 0 1 0-1v1h-1zm10 8h-1v1l-1 1-1 1v-1 1h-1 1-1v1h-1v1a1 1 0 0 1 0-1c-1 0 0 0 0 0v-2h1v-1h1a3 3 0 0 0 0-1h1c0-1 0-1 0 0a1 1 0 0 1 0-1 1 1 0 0 1 0-1l1-1h1l1-1v3a5 5 0 0 1-1 1zm-30 1 1 2h1v1l1 1v2l1 1v1a1 1 0 0 0 0 1 1 1 0 0 0 0 1h1v1h1v2h1v1h1l1 1h1l1-1v1h1v-1l1 1v-2 2-1 1h1v1a1 1 0 0 0 1 0l1 1h2v-1h1v-1h1v-1l1-1v-1l1-1a1 1 0 0 0 0-1v-2h1-1l-2-1h-1l-1-1v-1l1 1 2 1h1l1 1v-2c1 0 0 0 0 0h1v-1l-1-1h-1v-1a1 1 0 0 1-1-1v-1h-2v-1h-1v-1a15 15 0 0 0-1 0v1-1l1 1h-1a9 9 0 0 0-1 0h1-1a459 459 0 0 1 0-1v1-1h1-1a1 1 0 0 1-1 0 3 3 0 0 0 0-1h-3v1h-1a2 2 0 0 0 0 1l1 1v1h1l1 2v8h-1v1-2a18 18 0 0 0 1-2v-4l-1-1v-1a2 2 0 0 0-1-1 2 2 0 0 0-2 0v2h-1 1l-1 1v-1h-1a1 1 0 0 0 0 1h-1l-1 1v-1h-1v-1h-1l-1 1v-1l1-1s-1 0 0 0h-1v-1h1-1a4 4 0 0 0 1-1h-1v-1h-1a19 19 0 0 0 0-1l-1 1h-1v-1 1zm20 2h-1 1-1l1-1v1-1 1zm2 2v1h-1a1 1 0 0 0 0-1v1l1-1zm-1 5h1-1zm-9-4h-1 1zm0 9v-1h1l-1 1zm-2-7h2-2zm0 0h2a59 59 0 0 0-2 0zm1-1h1-1zm-4 0h1-1zm26 75v1l1 1h-1 2v1h1v1-2s-1 0 0 0l-1-1-1-1h-1zm1 1h-1 1zm24-5v2a1 1 0 0 1 0-1h-1 1-1v1h1a1 1 0 0 1 0 1h-1l-1 1-2-1v-1h1v-1l1-1a4 4 0 0 1 1 0 3 3 0 0 1 1 0zm6 7v1h-1l-1-1v-1l1-1 1-2h2l1 1v1a8 8 0 0 1-1 0v1a6 6 0 0 1-1 1h-1zm-2 10v-1h1a22 22 0 0 0 1 0l1-1v-1l-1-1h-1l-1 1v2h-1v1h1zm2-2h-1v-1h1-1l1 1zm-12-7-1-1a1 1 0 0 0-1 0h-1a1 1 0 0 1 0 1l-1 1v1l-1 1h4v-1h1-1 1v-2zm-1 2v-1 1zm-1-1a1 1 0 0 1 1 1 1 1 0 0 1-1 0 1 1 0 0 0 0-1zm3-2v1h-1v-1h-1v-1l1 1h1zm1-1v1h-2l-1-1v-1h1v-1h1l1 1v-1 1l-1-1v-1h2v1h1v1l-1 1a1 1 0 0 1-1 0zm6 12-1 1v-1h-1v1h-1v-1h2l-1-1 1-1 1 1v1zm-3-8 1 1h1l-2-1z"/><path d="M272 107a4 4 0 0 0 0-1l1-1h1v-1l-1-1v-1l-2 1-1 1a2 2 0 0 0 0 1s-1 0 0 0v1-1 1h1l1 1zm0-2v1a6 6 0 0 1-1 0l1-1zm12-4h1l1 1v1a3 3 0 0 1-1 1l-1 1-2 1h-1a1 1 0 0 0 0-1v-2l2-1 1-1zm-6 0v-1a12 12 0 0 0-1-1h-1l-1 1v1h-1v1l1 1h2a1 1 0 0 1 0-1l1-1c1 0 1 0 0 0zm-3 0h1l-1 1v-1zm1 0zm0-1h1v1l-1-1zm7 15h-2v-1l-1 2h-1a2 2 0 0 0-1 0s0 1 0 0h-2 1l-1 1h-2v-1l1-1h2v-1h1a3 3 0 0 0 1-1h1v1h1-1a1 1 0 0 1 1-1v-1l1-1h3l1 1-1 1v1h-2a6 6 0 0 1 0 1zm-35-17v4l1 1v2a81 81 0 0 0 0 2h-1v3a1 1 0 0 0-1 1v1h1v7h1v1l1 1h2v1h3v-1 1l-1 1h1v3l1 1h5a4 4 0 0 0 1 0 3 3 0 0 0 1-1h1l1-1v-1h1v-1h1v-1h1v-1h1l-1-1-1-2-1-1-1-1v-1l1 1 2 3v1l2 1v-1l1-1a2 2 0 0 1 1 0v-2l-1-1h-1v-1l1 1v-2a2 2 0 0 1 0-1h-1l1-1h-1v-1h-1v-2l-1-1-1-1v1h1v1h-1l-1-1v1-2 1l1-1a1 1 0 0 1-1 0 1 1 0 0 1 0-1v-1h-1v-1h-1v-1h-1l-1 1-1 1v9l-1 1-1 2-1 2-1 1h-2 1v-1a22 22 0 0 0 2-2h1l-1-1h1l1-1v-3l1-1v-2a2 2 0 0 0 0-1h-1a3 3 0 0 0-2-1 2 2 0 0 0 0 1h-1s-1 0 0 0v1l-1-1v2l-1-1v-1h-1v1-1l-2 1v-1h-1v-3 1h-1a1 1 0 0 1 1 0h-2l1-1h-1 1v-1h1v-1h-1 1v-1s1 0 0 0v-1a3 3 0 0 0 1-1h-2v-1l-1 1v-2h-1zm21 15v-1 1h-1a2 2 0 0 1 1-1v-1 1h1l-1 1zm1 3-1 1v-1h1-1 1zm-3 5 1 1-1-1zm-8-9a8 8 0 0 0-1 0 8 8 0 0 0 0-1h-1 1l1 1zm-5 9h1-1l-1 1v-1h1zm2-9 1 1v1l-1-1v-1zm0 0 1 1-1-1zm1-1 1 1h1-1l-1-1zm-4-2v1a51 51 0 0 1 0-1z"/></g><g class="C"><path d="M104 173v-2h1-2l1-1v-1l-1 1v2l1 1zm0-1v-1 1zm-19-9v-1a1 1 0 0 0 0-1 1 1 0 0 1 0 1v1l1-1v-1h2v3h-2a4 4 0 0 1-1-1zm-1-9h1v3h-4v-1s-1 0 0 0v-1a5 5 0 0 1 1 0v-1h2zm7-5h-1a18 18 0 0 0-1 0h-2v2h2v-1 1l1-1v1-1h1v-1zm-2 1h-1 1zm4 11v1h1a1 1 0 0 0 1 0h1l1-1v-1l-1-1h-2v1-1a2 2 0 0 0-1 1c-1 0 0 0 0 0v1zm1-1h1-1zm1 1a10 10 0 0 1 0-1 1 1 0 0 0 0 1zm-3-1h1v2l-1-1v-1zm-2 0h2v3h-2v-2l-1 1h1a10 10 0 0 1 0 1h-1v-1l-1-1h1a11 11 0 0 1 1 0v-1zm2-11h2v1h1v1h-1v-1h-1v1h-1a104 104 0 0 1 0-1v-1zm-2 7v-1 1z"/><path d="M94 154a3 3 0 0 0-1 0h-2v2c-1 0 0 0 0 0l1 1a2 2 0 0 1 1 0v-1h1s1 0 0 0h1a2 2 0 0 1-1 0v-2zm-1 1h1-1zm-10-4a1 1 0 0 1-1 0v-2h2a3 3 0 0 0 1 0h1l1 1-1 1a7 7 0 0 1-1 0h-1a3 3 0 0 1-1 0zm3 4v2h4v-2l-1-1h-1a2 2 0 0 0-1 0h-1v1zm2 1 1-1-1 1h1-1zm0 0h-1v-1a1 1 0 0 1 1 0v1zm-1 0v-1h1-1l1 1h-1zm3-13h1v1l2-1v1h2v1-1 1h2l1 1h-4a3 3 0 0 0-1 0 3 3 0 0 0-1 0 1 1 0 0 1 0-1h-1 1v-1l-1 1a1 1 0 0 1-1 0h-2l-1-1v-1h1l1-1h1v1zm16 29v-1l1-1v-1h1v-1l1-1 1-1 1-1a6 6 0 0 0 1-1 1 1 0 0 0 1 0 2 2 0 0 0 0-1v-1h1v-1l1-1v-1h1v-4h-1v-2h-1a1 1 0 0 0 0-1h-1v1-1h1l1-1v-3l-1-1-1-1h-1a4 4 0 0 0 0-1h-7l-1 1v-1l-1 1v2a1 1 0 0 1 0 1v3-4a2 2 0 0 0 0-1v-2l-1 1h-1a12 12 0 0 1-1 0h-1v2a21 21 0 0 1 0 1v-1 1h-1v2h-1v1h1v1l-1 1v2l1-1h-1v-1h1v2l1-1-1 1h-1a1 1 0 0 1 1 1h-1a3 3 0 0 0 0 1v1h1-1l1 1c-1 0 0 0 0 0v1h3v-1l1-1v-1l1-1 2-2 1-1h1l1-1h4-1a19 19 0 0 0-3 1l-2 1-1 1h-1l-1 2-1 1a2 2 0 0 0 1 1 2 2 0 0 0 1 1h1v-1 1h1v-1 2h1l2 1h-1v2h-1v1h1v-1 1h1-1v1c0-1 0 0 0 0h-2v1h-1v1a3 3 0 0 0-1 0l1 1c-1 0 0 0 0 0h-1l1 1c1 0 1 0 0 0v1h1zm-7-21h-1 1v1h-1v-1h1zm1-3h1-1a1 1 0 0 0 0 1v-1zm4-1v-1h1-1 1v1h-1zm1 10 1 1-1-1zm8-4h-1 2-1zm-5 5v-1l-1-1 1 1v1zm-1 0v-1l1 1h-1zm-1 1v-2l1 1-1 1zm2 3v-1 1z"/></g><g class="D"><path d="M84 283v-2h-2v-1s-1 0 0 0v2h1v1h1zm-1-1h1-1zm-20 5-1-1h1-1a1 1 0 0 0 1-1 1 1 0 0 0-1 0h1v1-1l1 1v-1h-1a1 1 0 0 1 0-1h1v-1h1l1 1v1l-1 1a4 4 0 0 1-1 1h-1zm-6-6 1-1h1-1l1 1v2l-2 1h-2v-2h1l1-1zm2-9v1c0-1 0 0 0 0h-2l-1 1v1h1l1 1v-1h1v-2h1v-1h-1zm-1 2h1l-1 1h-1 1v-1zm10 6 1 1h1v-1a1 1 0 0 1 1 0v-2h1v-1h-3a4 4 0 0 1 0 1h-1 1-1v1a1 1 0 0 0-1 0 1 1 0 0 0 0 1h1zm1-2a1 1 0 0 0 0 1v-1zm1 1-1-1v1a1 1 0 0 1 0-1h1a2 2 0 0 0-1 0 1 1 0 0 0 1 1zm-3 1h1l1 1h-1l-1-1zm-1 1h1a1 1 0 0 1 0-1v1h1l1 1h-1v1h-1l-1-1v1h1v1h-1l-1-1 1-1v-1zm-6-10h2v-1h1v1h-1v2h-1v-1l-1-1zm3 7-1-1 1 1z"/><path d="M65 274h-1l-1 1v1h-1l1 1 1 1 1-1 1-1v-1s1 0 0 0a21 21 0 0 0-1 0v-1zm0 1h-1 1zm-11 4h-1l-1-2a1 1 0 0 1 1 0v-1h1a2 2 0 0 0 0-1h2l1 1-1 1-1 1v1h-1zm5 0v1l1 1h1v-1h1v-1h1v-1h-1v-1h-1l-1 1a2 2 0 0 0-1 1zm3 0a8 8 0 0 0-1 0v-1 1h1zm-1 0zm0 1h-1v-1l1 1zm-6-13a2 2 0 0 0 1 0v1l1-2h1a2 2 0 0 0 1 0 80 80 0 0 0 1 0l1-1 1 1 1-1-1 1v1h-2v1a3 3 0 0 0-1 0 3 3 0 0 0-1 0 1 1 0 0 1 0 1h-1a3 3 0 0 1 0-1 1 1 0 0 1 0 1 1 1 0 0 1-1 0v1h-3v-2a1 1 0 0 1 1 0l1-1zm30 14v-4l-1-1a2 2 0 0 1 0-1v-1l1-1v-2a1 1 0 0 0 0-1v-1a2 2 0 0 0 0-1v-4l-1-1c1 0 0 0 0 0a1 1 0 0 0 0-1h-1a2 2 0 0 0-1-1h-1v-1 1l-1-1-1 1h-1 1v-1h1-1v-2a1 1 0 0 0-1-1h-1v-1h-2a2 2 0 0 1-1 0h-1a3 3 0 0 0 0 1 3 3 0 0 0-1 0h-1l-1 1v1h-1v1h-1v1l-1 1 2 2v1l1 1v1a16 16 0 0 0-1-1l-1-3a2 2 0 0 0-1 0l-1-1v1h-1v1h-1v1l1 1h1-1v2a2 2 0 0 1 0 1h1-1l1 1h1v3h2c-1 0-1 0 0 0a5 5 0 0 0-1 0 5 5 0 0 0 0-1h1v1-1 1h1-1l-1 1h1l1 1v1h1-1 1l1 1 1-1h1v-6a367 367 0 0 0 0-2v-1l1-1v-1l2-2v-1h1v1l-2 2v1l-1 1v2h-1v3l1 1h1a2 2 0 0 0 1 0l1-1a1 1 0 0 0-1 0h1v-1l1 1h3v1l1 1h-1 1-1v1h1v-1h1v1l-1 1v1h-1v1h1l-1 1 1 1h1v1h1zm-18-12v1h-1 1-1v-1h1zm-1-3a9 9 0 0 1 0-1h1a1 1 0 0 0-1 1zm3-4h-1v-1h1v1zm6 7 1 1h1-1a38 38 0 0 0-1-1zm5-8h-1v1-1h1zm-2 8-1-1v-1l1 1v1zm0 0h-1v-1l1 1zm-1 1-1-1 1 1zm4 1h-1 1zm93-243h-2l-2 1v1h-1v2-1h1v-1h2v1l1 1v-1l1-1h1v-2h-1zm0 2h-1l-1-1h1l1 1zM139 3l-1 1v1-1a4 4 0 0 1 0 1l-1 1h1a1 1 0 0 0 0-1 1 1 0 0 1 1 0h1-1v1h1l-1 1V6h-1v1h-1l1 1v1l1 2h1l3-1V6h-1l-1-2a5 5 0 0 0-1-1 5 5 0 0 0-1 0zm-15 7v1l2 1 1-1h1v-1l1-1V7l-2-3-3-2h-1l-1 1v1a13 13 0 0 0 0 1v2l1 2 1 1zm-3 17 1-1v-1h-1 1a1 1 0 0 0 0-1h-1l1-1a35 35 0 0 0-1 0h1v-1l-1-2-1-1-2 1h-1v1l1 2 2 3 1 1zm-1-5v-1h-1l2 1v1h-1v-1l-1 1 1-1zm22-2a2 2 0 0 0-1 1 2 2 0 0 0 0 1 6 6 0 0 0 1 0v1l1 1h-1v2h1l1 1h1l1 1h2v-5a2 2 0 0 1 0-1 2 2 0 0 1 0-1l-1-1-1-1-3 1a23 23 0 0 0-1 0zm1 3h1l-1 1a6 6 0 0 0 0-1zm1 2a1 1 0 0 1 0-1v-1 1h1l-1 1zM142 19v1l1-1h2l1-1h-2a2 2 0 0 0-1 1h-1zm-2-3 1 1v1h4l1-1-1-1v-2l-1-1a708 708 0 0 1-2 2v-2l1 1 1-1v-1l-2-1h-2v1l-1 1 1 2v1zm-18 14 1 1 1 1 1-1v2l1 1v-1l1-1h-1l-1-1 1-1v-1l-1-1h-1l-1 1-1 1zm11-11-2 1-1 1c1 0 2 0 3-2z"/><path d="M132 28h3v-1l1 1v-5l-1-1-2-2-1 1-2 1v3l1 2 1 1zm1-1-1-1h1v1zm-16-16a2 2 0 0 0-1-1h-2l-2 2v1l1 1 1 2v1l1 2h3l1-1 1-1a16 16 0 0 0-1-1l-1-4-1-1zm8 3a1 1 0 0 0 1 0v1l1 1v1a2 2 0 0 1 0 1l1 1v1h2l1-1h1l1-1-1-2h-1v-3h-1v-1h-1l-2 1h-1l-1 1zm6 3a3 3 0 0 1-1 0h1zm-1-1h-1v-1l1 1zm0-1h-2v1-3a1 1 0 0 1 1 1h1v1zm-21 18a4 4 0 0 1 1 1h1l1-1v3l1 1 1 1 1 1 1-1h1-1v1h2-1v2h2l2 2v-1a2 2 0 0 1 0-1v-1l-1-2-1-1h-1l-1-1v-1a6 6 0 0 1-2-2v-1a10 10 0 0 0-1 0 6 6 0 0 0-1 1v-2a3 3 0 0 0 0-1l-1-1-1-1-1-2-2-1-2 2v3l1 1 2 2zm66-2-1 1-1 1-1 1-1-2-1 1h-2a6 6 0 0 0 0 1l1 1-2 1v1h1v1h-1v1h1v1-1h-1v2l1 1v1c-1 0 0 0 0 0h-2 1a1 1 0 0 0 0-1h-1l-1-1-1 1v1l1-1-1 1a10 10 0 0 0 0 1l-1 1h-1v2l-3-3v1l-1-1v-1h-1l-1 1-1 1-1-1 1-1v-1a1 1 0 0 0-1 0h-2 2v-1l-1-1a5 5 0 0 0-1-1 5 5 0 0 0-3-1l-1 1-1 1a13 13 0 0 0-2 5l1 1-1 4v4a39 39 0 0 0 2 5v3a14 14 0 0 1 0-1h-1v-1l-1-2-1-4v-6l1-6 1-3h1l1-1 1-2 1-2v-1a3 3 0 0 0 0-1l-1-1-1-2h-2l-1 1a1 1 0 0 1-1 0h-1l-1 1-1 1h-2v1l1 1v-1 1h-1l1 1h-4v-1l1-1h1v1l1-1-1-1-2 1-2 1-1 2-1 1h-2l-1 1h1-1a5 5 0 0 1 0 1l-1 1-1 1v2h-1l-2 1v1h-1v2h1l1 1h-1v2h1v2l2-1a5 5 0 0 0 2-1l5-3a29 29 0 0 0 2-1 4 4 0 0 1 1 0l-2 1-2 2h-2v1l-4 2h-1v1-1l1 1-1 2 1-1v3l1 1v1l1 2v1l1 2 1 1 1 2a12 12 0 0 0 1 1h1v1h1a4 4 0 0 1 1 1l2 1h3l2-1h1a4 4 0 0 0 1-1l1-1v-2h2l-1-1v-2l1 1v2h2v1l1-1h6l1-1h1l1-1 1-1 1-1v-1l1-2 1-2 1-1v-1h1a3 3 0 0 0 0-1 2 2 0 0 0 1 0v-2a2 2 0 0 0 0-1v-2l1-2v-2l1-3a5 5 0 0 1 1-1l1-2 1-1 1-1 2-3v-3zm-44 8-1-1h2a95 95 0 0 0 0-1v3-1h-1zm-3 6v-1a2 2 0 0 0 0 1l1 1-1-1-1-1 1 1zm1 9a41 41 0 0 0 0 1l-2-1 1 1v-1h1zm19-8a65 65 0 0 0 1 0l2-1v1h-1a16 16 0 0 0-2 0zm2 19h-1v-1h-1l-1-1v-1l1 1 1 1 1 1zm3-16-2 1h-2 2l2-1zm0 0h-3v-1h3v1zm-1-2h-4v-1h4v1zm6 1 1-2 1 1-2 1z"/></g><g class="B"><path d="m114 175-1 1-1 2 1 1v1c0 1 0 2 1 1v-3l1-1v1h1v-3l-1-1-1 1zm1 1-1 1v-1h1s0-1 0 0zm-42 9-1 2h1a5 5 0 0 1 0 1l1 1v-1a1 1 0 0 0 0-1v-1l1 1v1h-1l1 1 1 1h3l1-3v-1l-1-1h-2v-1l-3 1a6 6 0 0 0-1 0zm-5 16 1 1 2-1v-4h-1l-1-1-4-1-2 1-1 1v2a14 14 0 0 0 1 1h1l1 1a9 9 0 0 0 1 0h2zm11 14v-1s1 0 0 0v-2 1h-1a1 1 0 0 0 0-1h-2l1-1h-1l-2-1h-1v1l-1 1-1 1 1 1h3l2 1 1-1h1v1zm-4-3h-1 2v1l-1-1v1-1zm12-19v1l1 1 1 1h2l-1 1h4l1-1h1v-1l1 1v-2l-1-1h-1l-2-2a2 2 0 0 1-1 0 2 2 0 0 0 0-1h-2a1 1 0 0 0-1 1l-1 2h-1zm3 2h1v1-1h-1zm2 0a3 3 0 0 0 1 1h-1 1a3 3 0 0 1-1 0 1 1 0 0 1 0-1h-1 1v-1a1 1 0 0 0 0 1zm-5-2h1v-1l1-1v-1h-1v1a2 2 0 0 0-1 1v1zm-4-1 1 1h2v-1h1v-1l1-1-1-1h-1l-1-1h-1l-1 3c0-1 0-2-1-1h1v-2l-1-1-1 1h-1v2s-1 0 0 0v1l2 1h1zm-1 24h3v-1h3l-1-1v-1l-1 1h1-2v-2h-2l-1 1v3zm-1-15v1l-1 2c1-1 2-2 1-3z"/><path d="m87 207 1-2h1v-2c1 0 0 0 0 0v-1h-2l-1-1-1-1-3 1v2l-1 2 1 1h2l2 1h1zm0-2h-1 1zm-23 2a2 2 0 0 0-1 1h-1v4h1l1 1h3l3 1 1-2v-3a16 16 0 0 0-1 0l-4-2h-2zm8-4h4v1h3v-1l1-1 1-1-1-1-2-1h-2l-1-1h-1l-1 1-1 2v2zm6-2h-1l1 1-1-1h1zm-1 0-1 1v-1h-1a1 1 0 0 1 1 0l1-1v1zm-1-1-1 1v1-1h-1v-1h2zm0 28v-1a4 4 0 0 1 1 0h1v-1l2 1h5v-2 1a1 1 0 0 0 1 0v-1 1h3v-1h3a2 2 0 0 0 0-1h-2l-1-1-2-1-1 1h-2a9 9 0 0 1-1 0 6 6 0 0 1-1 0 6 6 0 0 1-2 0h-1v2h-1v-2a3 3 0 0 0-2-1h-5l-2 2v2l1 1 2 1h4zm41-52 1 1-1 2c1 0 1 0 0 0h-2l1 1-1 1-1 1v1h2v2a7 7 0 0 0 1 0h1v1c-1 0-1 0 0 0v1l1-1h1l-1 1 1 1h1v1h1l-1 1-1 1v-1h1a1 1 0 0 0 0-1 1 1 0 0 0-1 0v1l-1-1v2l1-1v3l-1 1 1 2h-3v1h-2l-1 2v1-1l-1-1a1 1 0 0 0-1 1l-1 1 1-1v-1h-3a5 5 0 0 0-3 2v3a13 13 0 0 0 3 4l1 1 2 3 3 1v1l1 1a38 38 0 0 0 5 1l1 1h1l-1 1h-1l-3-1-3-2-3-2-1-1-1-1-3-4-2-3v-4l-1-2-1-1a3 3 0 0 0-1 0l-1-1h-2l-1 1-1 1-1 1v1h1-1v1a1 1 0 0 0 0 1 4 4 0 0 0 0 1v1l-1 1h1l1 1v1h-1l1 1-1 1h-2v-1l1-1h1l-1-1-2 2v2l1 2v1l-1 1v2c0 1 0 0 0 0v1h1v3l1 1 1 1h-1v4l1 1 1-1 1 1 1 1h1l1 1 1-3a5 5 0 0 0 0-2l1-5 1-3v5l-1 1v1l-1 4v1l2 1v-1l1 1 1 1h1l2 1h1l1 1h4l2 1h1l1-1h2l2-1 1-1 2-2 1-2v-3l-1-2h-1l2-1h-2l-2-1h2l1 1h1v-1l1-1 1 1v-2l1-1 1-2 1-1v-2l1-1-1-2v-2l-1-2-1-2v-2l-1-1v-2a3 3 0 0 0-1 0 2 2 0 0 0-1-1v-1a9 9 0 0 0-1-1l-1-1v-1l-1-1-2-3a5 5 0 0 1 0-1l-1-2-1-2v-1l-1-3-1-1-1-1zm-22 39-1-1 1-1h-1 1v1h1-1l1 1a1 1 0 0 1-1 0zm3 6-1-1a2 2 0 0 0 1 1 2 2 0 0 0 1 0h-2 1zm7 5 1 1h-2 1v-1zm6-20 1-1 1-2-1 1v1l-1 1zm16 11a2 2 0 0 0-1 0h-3 4zm-10-13-1 2-1 2 1-2v-2h1zm-1 0-1 2 1-2zm-2-1-2 3v-1l2-2zm5-4v-2 2z"/></g><g class="E"><path d="M60 186h-2l-1 1v2l-1 1 1 1-1-1 1-1 1-1h1v1h1v-1h1v-2h-1zm0 1v1l-1-1h1zm-37-14-1 1 1 1h-1v1a1 1 0 0 0 1 0 1 1 0 0 0 0-1l1-1v1l-1 1h1v-1 1h-1v2l1 1 1 1h1l2-2v-2l-1-1h-1l-1-2a5 5 0 0 0-2 0zm-12 10 1 1 2 1-1-1 2-1v-2c1 0 0 0 0 0v-2c-1-1-1-2-3-2l-2-1H9l-1 1v3h1v1l1 1 1 1zm2 16h1v-2h-1a1 1 0 0 0 0-1v-2l-1-1-1-1h-1l-1 1-1 1 2 2a32 32 0 0 0 2 2h1v1zm-2-4v-1h-1 2v2-1l-1 1v-1zm19-8v2l1 1v1l1 1h1s0 1 0 0l2 1h2v-3l-1-2a2 2 0 0 1-1 0 2 2 0 0 1 0-1l-1-1-1-1v1l-2 1h-1zm2 3v1-1zm1 1a1 1 0 0 1-1-1h1a1 1 0 0 0 0 1z"/><path d="M30 186v1l1-1a8 8 0 0 0 1 0l1-1h-2a4 4 0 0 0-1 1zm-3-2 1 1h1a1 1 0 0 0 0 1h1v-1h1l1-1v-1l-1-1-1-1-2 2v-2l1 1 1-1v-1l-1-1h-1a4 4 0 0 0-1 0l-1 1v1l1 2v1zm-12 17 1 1h2v1h2v-1h-1l-1-1v-1h1l-1-1h-1l-2 1h1l-1 1zm7-12-1 1-2 1c2 0 3-1 3-2z"/><path d="m23 197 2-1h1v-1 1l1-1v-1h-1v-1l-1-1-1-1-1-1h-1l-1 1-1 1v2h1l2 2v1zm1-1-1-1 1 1zM6 186a2 2 0 0 0-1-1H4l-1 1-1 2v1l1 1 1 1 1 1 1 1h2l1-1 1-2a14 14 0 0 0-1-1l-2-2-1-1zm8 0 1 1 1 1a2 2 0 0 1 0 1l1 1h2l1-1h1v-1l-1-1v-1h-1v-1l-1-1h-1a1 1 0 0 0-1 0 17 17 0 0 0-1 1l-1 1zm5 2a16 16 0 0 1-1-1h1v1zm0-1a1 1 0 0 0-1 0h-1v-1l2 1zm-1-1-1 1a23 23 0 0 0-1 0l1-1h-1v-1a1 1 0 0 1 1 0v1l1-1v1zM4 207h1l1 1 1-1 1 2 1 1h1l2 1v-1 1h1v-1 1l1 1h2l2 1v-1h-1a2 2 0 0 1 0-1v-1l-1-1-2-1h-1v-1a6 6 0 0 1-2 0 6 6 0 0 1-1-1l-1-1H8a9 9 0 0 0 0 1v-2a2 2 0 0 0-1-1H6l-1-1-2-1H1l-1 1v2l1 1 1 1h1l1 1zm58-18h-1v1l-1 1-2-1v1h-2v1l1 1v1h-1v1a8 8 0 0 0 1 1h1-1v1h1v1-1h-1v1l1 1 1 1h-1v1h1-2 1a1 1 0 0 0-1-1h-1l-1 1h1v1l-1 1-1 1v1l-3-1v1l-1-1-1-1-1 1-1 1 1-1-1-1a1 1 0 0 0-1 0l-1 1 1-1c1 0 1 0 0 0v-1h-1a4 4 0 0 0-1-1 4 4 0 0 0-3 0l-1 1-1 2v4l1 1v4l1 2h1l-1 1v1a36 36 0 0 0 3 3l1 1v1a2 2 0 0 1-1 0v-1l-2-1-2-4v-3l-1-1v-1l-1-5 1-3 1-1v-1l1-2v-2a3 3 0 0 0-1-1l-1-1-1-1h-1l-1 1h-2v1h-1v1h-1v1h-1l-1 1h1v1l1-1v1h-1l1 1-1 1v-1h-1v1h-1l-1-1 1-1h1v1-2l-2 1-1 1-1 3-1 1h-1l-1 1h1a8 8 0 0 1-1 1v3l-1 1h1v1h-1c0-1 0-1 0 0l-1 1a4 4 0 0 1-1 1v2h2l-1 1 1 1h1v2l2-2 1-1 4-4a26 26 0 0 0 2-1l-1 1-2 2-1 1-3 3-1 1h1v2l1-1v2h1v1l1 1 1 1 1 1 1 2 1 1 2 1 1 1h2l2 1 2-1h1l2-1 1-1v-1l1-1v-2h1l-1-1-1-1 1 1h1v1h3v-1h2l1-1h2l1-2 1-1 1-1v-4h1v-2l1-1a3 3 0 0 0 0-1v-1a2 2 0 0 0 0-1 3 3 0 0 0 0-1 2 2 0 0 0 0-1v-4l-1-1v-1l1-2a5 5 0 0 1 0-2v-2l1-1v-1l1-3v-2zm-37 18v-1s0-1 0 0h1v-1 1a4 4 0 0 1 1 1h-1a1 1 0 0 1-1 0zm-1 6v-1a2 2 0 0 0 1 1h-1 1-1v-1 1zm3 7v1h-1 1v-1zm15-12h1l1-1h1l-1 1a13 13 0 0 0-2 0zm6 16 1 1-1-1h-1l-1-1 1 1h1zm-1-14-2 1-1 1 1-1 2-1zm0-1-2 1 2-1zm-2-1-2 1h-1l1-1h2zm6-1 1-1-1 1zm297-97v-1l-1-1h-2v-1h-1l-1 1h3v1l-1 1h2v1l1-1zm-1 0h-1l1-1v1zm6-31-1-1-1 1v-1a1 1 0 0 1-1 0 2 2 0 0 0 0 1h1l1 1-1-1v1h-1l1-1h-2l-1 1v2l1 1 1 1 1-1 1-1a5 5 0 0 0 1-2 4 4 0 0 0 0-1zm-10-8-1 1v1l2 1h1l2-1 1-2v-3h-2a9 9 0 0 0-1 0l-1 1v1l-1 1zm-12 4h2l-1-1h2v-1l1-1h1l-1-1v-1h-1l-2 2a26 26 0 0 0-1 1v1a2 2 0 0 1 0 1zm3-2v-1 1a32 32 0 0 1-1 0h1l-1-1 1 1zm9 13h-1a2 2 0 0 0-1 0v1h-1v1-1 1h-1v5l1-1h1l2-1a2 2 0 0 1 0-1h1v-1a1 1 0 0 0 0-1l-1-1a10 10 0 0 0 0-1zm-2 2h-1 1zm-1 1a1 1 0 0 1 1 0 1 1 0 0 0-1 0zm3-3v1h1v1h1l-1-1v-1h-1zm2-3-1 1v2l1 2h1v-1l1-1 1-1-2-1h1l1 1h1v-2a3 3 0 0 0-1 0v-1h-2l-1 1zm-16-7v3h-1a3 3 0 0 0 0 1h2a6 6 0 0 0-1 0l1-1h1v-1h1l-1-1-1-1v1l-1-1zm11 4-1-1-1-1 2 2z"/><path d="m334 82 1 1v1h1a8 8 0 0 0-1 1h2v-1l1-1 1-1 1-1-1-1h-1l-1-1h-1v1h-1l-1 2zm1 1v-1s1 0 0 0v1zm5-16a2 2 0 0 0 0-1v-2h-2a5 5 0 0 0-1 0l-1 1v1l-1 1-1 1 1 2h1l1 1a10 10 0 0 0 1-1l1-2 1-1zm1 6v1l-1 1a1 1 0 0 1-1 1l-1 1 1 1v1l1 1 2-2v-1h1v-1h1l-1-1-1-1-1-1zm0 5v-1h-1 1v1zm0-1v-1 1zm1-1h-1v-1h1c-1 0-1 0 0 0v1zm-19-7a3 3 0 0 1 0 1l1 1-2 1v1l-1 1v1h1a1 1 0 0 1 0 1l-1-1 1 1-1 1v1l-1 2h1v-1h2v-2l1-1v-2l1-1v-1c1 0 0 0 0 0v-1h-1 2l1-1v-1l1-2v-2h-3l-1 1a2 2 0 0 0 0 1l-1 1v1zm23 43h-1v-1h-1v-2h-1v-1h-1l-1 1v-1h-1v1h-1v1h-1v-1a3 3 0 0 1 0 1h-1v1h-1l-1-1v-1h1a1 1 0 0 1 0 1v-1l-1-1 1 1h-2a46 46 0 0 0-1 0v-1h-1v-5h-1v-1l1 1v-1l-1-1h1v1l1-1v-2a3 3 0 0 0 0-2l-1-1h-4l-1 1h-1l-2 1-2 1-1 1a29 29 0 0 0-3 3l-1 1v-1l1-1 1-1 2-2 2-1 1-1h1l4-1h8l1-1v-3l-1-1h-1 1l-1-1a3 3 0 0 1-1 0l-1-1-1-1v2l-1-1h-1 1-1v-2h1v1h1a19 19 0 0 0-1-1l-1-1h-2l-1-1v-1h-4c0-1 0-1 0 0h-2 1-1v-1h-1a3 3 0 0 1-1-1l-1 1h-1l1 1h-1l-1 1h-1l2 2v1l4 2 2 1a3 3 0 0 1-1 0h-1l-1-1-1-1a1 1 0 0 1-1 0c0-1-1-2-3-2h1l-1-1v1l-1 1h-1v1l-1 1h-1v1l-1 1-1 1-1 1a4 4 0 0 0-1 2v5l1 1v1l1 1a2 2 0 0 0 1 0l1 1h2v-1 1a57 57 0 0 1 1 0l1-1-1 1v2h-1l1 1h1v1l1 1v1l1 1h2l1 1h7a2 2 0 0 0 0 1 1 1 0 0 0 1 0v-1a1 1 0 0 0 1 0h2l1-1h2a83 83 0 0 0 2 0 4 4 0 0 1 1 0h8zm-20-27h1v1l1-1-1 1h-1 1a1 1 0 0 0-1 0 1 1 0 0 1 0-1zm-4 0a2 2 0 0 0 0 1h-1l1-1zm-6 4h-1v-1 1-1l1 1zm12 10 1 2-1-1v-1zm-12 7v1-3h1l-1 1v1zm11-3-1-1-1-1 1 1 1 1zm0 0-1-2h1v2zm1-2v-1l-1-1 1 1 1 1-1 1v-1zm2 5h1v1l-1-1z"/></g><g class="F"><path d="M204 69h-1l-1 1c1 0 0 0 0 0v2-1h1v-1h1v1-1h1v-1h-1zm0 1c0-1 0 0 0 0 0-1 0-1 0 0zm-21-6-1 1h1-1a2 2 0 0 1 0 1 1 1 0 0 0 1 0v-1 1-1 1a1 1 0 0 0 0 1l1 1h1l1-1v-1l-1-1a4 4 0 0 0-1-1 3 3 0 0 0-1 0zm-6 7h1l1-1v-2l-2-1h-2v2l1 1 1 1zm2 8v-2h-1 1-1v-1h-2v1l1 1 1 1h1zm-1-2h-1 1v1-1l-1 1 1-1zm10-6-1 1h1v1h1-1v1h4l-1-1v-1a1 1 0 0 1 0-1 1 1 0 0 1-1 0v-1h-1a1 1 0 0 0 0 1h-1zm1 2zm0 0a1 1 0 0 0 1 1l-1-1v1a1 1 0 0 1 0-1h1a1 1 0 0 0-1 0zm-2-2h1l1-1h-1v1h-1zm-1-1 1 1 1-1h1v-1h-1v-1h-1l-1 1v-1 1l1-1v-1h-1v1h-1v2h1zm-6 10 1 1h1v-1 1h1v-1 1l-1-1v-1h-1a43 43 0 0 0-1 1zm3-7v1h-1l1-1z"/><path d="M184 77h2v-1 1-1a2 2 0 0 0 0-1l-1-1-1-1-1 1-1 1v1h1l1 1zm1 0h-1v-1l1 1zm-11-4a1 1 0 0 0-1-1l-1 1v1l1 1v1a2 2 0 0 1 1 0l1 1 1-1 1-1a9 9 0 0 0-1-1l-1-1h-1zm5-1v1h1a1 1 0 0 1 0 1h2v-1h1l-1-1-1-1h-1a9 9 0 0 0-1 0v1c-1 0-1 0 0 0zm3 1h-1v-1l1 1zm-1-1-1 1v-1h1zm0 0h-1v-1 1l1-1v1zm-6 12v1l1-1 1 1 1 1h1v-1 1h1v-1 1h1l1 1a1 1 0 0 0 1-1h-1v-1h-1l-1-1c0 1 0 0 0 0h-1a3 3 0 0 1-1 0 3 3 0 0 1 0-1 1 1 0 0 0-1 0v1h-1v-1h1a1 1 0 0 0-1 0 1 1 0 0 0 0-1l-1-1h-3v2l1 1h2zm30-14v1l-1 1-1-1v1h-1l1 1v1c-1 0-1 0 0 0v1h1-1l1 1v1h-1a1 1 0 0 1 1 0h-1l-1 1 1-1v2h-1v1l-2-1a9 9 0 0 0 0 1v-1h-1v1l-1 1v-2l-1 1 1-1h-1a2 2 0 0 0-1-1 2 2 0 0 0-1 1h-1a2 2 0 0 0 0 1 6 6 0 0 0 0 3h1v2l1 1v1a20 20 0 0 0 2 2l1 1h-1l-1-1-2-2v-2h-1v-9l-1-1h-1c0-1 0-1 0 0h-1v1h-1a1 1 0 0 0 0 1 2 2 0 0 1-1 0 1 1 0 0 1 0 1h-1 1c0 1 0 0 0 0l1 1h-1v1h-1v-1h1v-1h-1l-1 1v2h-1v1h-1v1a1 1 0 0 1 0 1v2h-1a2 2 0 0 1 0 1v1h1v1h1v1l1-1 1-1 1-2 1-1v1l-1 1v1a1 1 0 0 1-1 0h1l-2 2v1h1v1h1v1h1v1l1 1h1l1 1h4s0-1 0 0l1-1a1 1 0 0 0 1-1v-2h1-1a2 2 0 0 0 0-1l1 1 1-1v1-1s1 0 0 0h1l1-1h1v-1h1v-4h1v-3a1 1 0 0 0 0-1h-1v-8l1-2-1-1zm-19 13v-1h1-1 1v1h-1 1-1zm0 3h1a5 5 0 0 0-1 0zm2 4v1-1zm7-8h2-2zm5 9h1a25 25 0 0 0-1 0h-1v-1 1h1zm-2-8v1h-1 1v-1zm0 0h-1 1zm0-1-2 1v-1h2zm3-1v-1 1z"/></g><g class="B"><path d="m179 302 1-1h-1a64 64 0 0 0 0-1v-1l-1 1h-1v-1l-1-1v3l1 1h2zm0-1h-1 1zm-32 8-1-1h1-1l1-1a1 1 0 0 0 0-1v2h1v-1 1-1h-1v-1l1-1 1-1h1l2 2v1l-1 1h-1a6 6 0 0 1-1 1 4 4 0 0 1-1 0h-1zm-9-9 1-1h2-1l1 1 1 1v1l-1 1-2 2h-4v-2l1-1v-1h1l1-1zm3-13v1h-1l-1 1-2 1v1l1 1h2l1-1v-2 1-2l1 1v-2h-1zm-2 3h1v1h-1s0-1 0 0l1-1h-1zm16 9 2 1h1v-1h1v-1l1-2v-1h1l-1-1h-4a1 1 0 0 1 0 1h-1v1h1-1a3 3 0 0 0-1 1v2h1zm1-3zm1 0v1-2a4 4 0 0 1 0 1v-1 1zm-3 3h1l1 1v1-1h-1a5 5 0 0 1-1 0v-1zm-2 2v-1h1a1 1 0 0 1 0-1l1 1h1l1 1v1h-1l-1 1v1l-2-2v1h1v2h-1a2 2 0 0 1-1-1h-1v-1l1-2h1zm-9-16h1l1-1v1h1v-1h1v1l-1 1v1h-1v1l-1-1h-1v-1h1-1v-1zm5 11-1-1-1-1 2 2z"/><path d="m149 290-1 1-1 1-1 1 1 1 1 1v1l2-1 1-1v-1h1v-2h-1v-1h-2zm0 1h1-1zm-15 6h-3v-3h1v-1h1l1-1 1-1 2 1 1 1v1l-1 1-2 1-1 1zm7 1v1h1l1 1h1a5 5 0 0 1 0-1v1l1-1 1-1 1-1v-1h-1v-1h-3a2 2 0 0 1 0 1h-1v1l-1 1zm4-1h-1l1-1v1zm0 1h-2l1-1a1 1 0 0 0 1 0v1zm-1 1-1-1a8 8 0 0 0 0 1 1 1 0 0 1-1 0v-1h1v-1l1 1v1zm-9-19v-1a3 3 0 0 0 1 0l1 1 1-2h2a2 2 0 0 0 0-1h1l1 1v-1 1h1l-1-1h1l1-1v1h1l1-1h1l-1 1-1 1c1 0 0 0 0 0l-1 1h-2v1h-1a5 5 0 0 0-1 1 2 2 0 0 1-1 1h-1v-2h-1l1 1v1l-1 1h-1l-1 1-2 1h-1l-1-2v-1l1-1 1-1h1a8 8 0 0 1 1 0zm46 19v-4l-1-1v-2a4 4 0 0 1 0-1v-4l1-2v-1a1 1 0 0 0 0-1 3 3 0 0 0 0-1 2 2 0 0 0 0-1v-3l-1-1v-4l-1-1a2 2 0 0 0-1-1l-1-1-1-1h-2v-1 1l-1-1h-1v1h-1l-1 1 1-1v-1h1-1v-3a2 2 0 0 0-1-1l-1-1-2-1h-5v1a4 4 0 0 0-2 0l-1 1-1 1-1 1-1 1v1h-1l-1 1v1-1l-1 2v1-1l2 3a1 1 0 0 0 1 1l1 2 1 1a26 26 0 0 0-1-1l-3-4a4 4 0 0 0-1-1l-1-1-1 1-1 1v1h-1v2l1 1c0 1 0 1 0 0h1v1h-1v2l1 1a4 4 0 0 1 0 1h-1l1 1 1 1h1v2l1 2h2v-1l-1 1-1-1 1-1h1v1h1v2-1l-1 1h-1 1a1 1 0 0 1 1 0v2h1l1 1 1 1v1h1l2-1v-1l1-1v-4l-1-1v-2l1-4v-2h1l1-3 2-2 1-2h1v1h-1a29 29 0 0 0-2 3l-1 1-1 2v3l-1 1v5l1 1a4 4 0 0 0 2 0h1l1-1a4 4 0 0 0 0-1h-1 1a1 1 0 0 0 0 1h1v-2l1 1 1 1h1v-1h3v1h1v3a50 50 0 0 0-1-1l1 1h1a1 1 0 0 1-1 0v-1h1l1 1v1h-1a8 8 0 0 0 0 1l1 1h-2v1h1-1v2a4 4 0 0 0-1 1h1v1h1v1l1-1h1v2h1v-1zm-28-17h-1 1v1h-1 1-1l-1-1h1a1 1 0 0 1 1 0zm-2-5h1v-1h1a2 2 0 0 0-1 1h-1zm4-6v-1a14 14 0 0 1-1 0h1a27 27 0 0 0 0 1zm11 11h1v1h1-1a32 32 0 0 0-1-1zm6-12h-1l1-1h1l-1 1zm-2 11-1-1-1-1 1 1 1 1zm0 1-1-1h-1v-1l2 2zm-1 1-2-1 2 1zm5 2v-1 1zm157-180h-1v2h1v2h-1 1v-1l1-1v-1h-1v-1zm0 1v1a50 50 0 0 1 0-1h-1 1zm19 10v1a1 1 0 0 0-1 0l1-1h-1v1l-1 1s0-1 0 0h-1v-1l-1-1 1-1h3a2 2 0 0 1 0 1zm1 8h-2v-2h1l1-1h2l1 1v2a5 5 0 0 1-1 0h-2zm-7 5 1 1h2l1-1-1-1h-2v1h-1v-1 1zm2 0v-1l1 1-1-1v1zm-4-11v-1l-1-1h-1l-2 1h-1v1h1v1h4a1 1 0 0 0 0-1zm-2 1v-1 1zm0-1a1 1 0 0 1-1 1v-1a1 1 0 0 0 1 0zM342 118v-2 2zm2 0h-1v-1l-1-1h3l-1 1h1c0-1 0 0 0 0v-2l1 1v2a12 12 0 0 1-1 0h-1zm-2 11h-3l1-1h1l1-1v1l1 1h-1zm2-7v1l1 1-1-2z"/><path d="M341 125h2l1-1v-2h-1a2 2 0 0 1-1 0h-2c-1 0 0 0 0 0v2l1 1zm0-1h1-1zm11 3v1h1v1l-1 1h-3l-1-1a1 1 0 0 0 0-1l1-1h3zm-3-3v-2a1 1 0 0 0-1 0h-1a1 1 0 0 1-1 0h-1s-1 0 0 0v2h1c0 1 0 1 0 0a1 1 0 0 1 1 0h2zm-3-1zm1 0h-1a1 1 0 0 1 1 0zm0-1 1 1c0 1 0 0 0 0h-1c1 0 1 0 0 0v-1zm-3 14a2 2 0 0 0-1 0v-1h-2a2 2 0 0 0-1 0v-1h-1a9 9 0 0 0 0-1v1h-1a7 7 0 0 0 0-1h-2a1 1 0 0 1 1 0l1-1h1v1h2a3 3 0 0 0 1 0h1v1a1 1 0 0 1 1 0h3l1 1-1 1-1 1h-1v-1a6 6 0 0 1-1 0zm-15-30-1 1-1 1v1l-1 1v1l-1 1-1 1h-1v1a5 5 0 0 1-1 0 2 2 0 0 0-1 1v1h-1v2h-1v1s-1 0 0 0l-1 1v3l1 1v1l1 1h2-1a161 161 0 0 1-1 0v1h-1v1a1 1 0 0 0 0 1v1l1 1v1h1v1h2a3 3 0 0 0 1 0l1 1h1l1-1c0 1 0 0 0 0h4v-6h1v1l-1 3v1l1 1h1l1-1v1a1 1 0 0 0 1-1v-2h1v-1a1 1 0 0 1 0-1h1v-2l1-1a1 1 0 0 0 0-1l-1-1v1h-1v-2h1-1 1v1-1a1 1 0 0 1 0-1v-3h-1l-1-1a1 1 0 0 0-1 1l-1 1-1 1v1l-1 1-2 2h-1l-2 1-2 1h-2v-1h4v-1h2l1-1 1-1 2-1v-2a2 2 0 0 0-1-1 2 2 0 0 0-1 0h-1v1-1a1 1 0 0 0 0-1l-1 1v-2h-1l-1-1v-2h1v-1 1l-1-1v1-2h2v-1 1h1v-1h1v-2h-1v-2zm7 21h-1 2-1 1v1h-1v-1zm-2 3h-1 1zm-4 2v1l-1-1h1zm-1-11v-1h-1l1 1zm-8 4h1v1l-1-1h-1 1zm6-5v2-1l-1-1h1zm0 0v1-1zm1 0v1h1-1v-1zm-2-4v1-1z"/></g><g class="C"><path d="M250 200h-1l1 1v1l1-1 1 1v1-2l-1-1h-1zm0 1h1-1c0-1 0-1 0 0zm21-9h1v2-1h-1v1h1v1h-1v1h-1l-1-1-1-1h1v-1h1a4 4 0 0 1 1-1zm8 6h-1l-1 1v-1h-1v-2l2-2h2v1a6 6 0 0 1 0 1 6 6 0 0 1-1 1v1zm-1 9v-1c0 1 0 0 0 0l1-1 2-1h-1l-1-1h-1v2h-1v2h1zm1-2h-1v-1h1v1zm-12-5-1-1h-1v1a1 1 0 0 1-1 0v4h1l1-1h1v-1a2 2 0 0 0 1-1 1 1 0 0 0 0-1h-1 1a7 7 0 0 0-1 0zm0 2h-1 1zm-1 0a2 2 0 0 1 0 1v-1 1a2 2 0 0 0 0-1zm2-2h-1a3 3 0 0 1-1-1h1l1 1zm1-2v1h-3v-1h1v-1l1-1 1 2v-1h-1v-1h2v1l-1 1zm8 10-1 1h-1a3 3 0 0 1-1 1v-2 1l1-1h-1v-1h2v1h1zm-5-7 1 1h1l-2-1z"/><path d="M272 206v-1l1-1h1v-1l-1-1h-2a3 3 0 0 1-1 1v2s-1 0 0 0h1l1 1zm0-1a9 9 0 0 1-1 0h1zm10-6h2v1a1 1 0 0 1 0 1l-1 1-1 1h-2v-1a8 8 0 0 1 0-1l1-1 1-1zm-5 0h-1a14 14 0 0 0 0-1h-1a2 2 0 0 1-1 1v1h-1v1c-1 0 0 0 0 0l1 1h1l1-1v-1h1v-1zm-3 1h1l-1 1a14 14 0 0 1 0-1zm0 0h1a1 1 0 0 0-1 0zm1-1h1-1l1 1h-1v-1zm8 12v1a2 2 0 0 0-1 0h-1v-1 2h-1a2 2 0 0 0-1 1l-1-1v1-1 1h-1a1 1 0 0 0 0 1v-1h-1l-1 1v-1h1-1 1v-1l1-1h1l1-1 1-1v1h1a1 1 0 0 1 0-1v-1l1-1h3v2a1 1 0 0 1-1 1 6 6 0 0 1-1 0zm-34-9v2l1 1v2a3 3 0 0 1 0 1l1 1v1s-1 0 0 0v1l-1 1 1 1h-1a2 2 0 0 0 0 1 2 2 0 0 0 1 1v3l1 1v1l1 1 1 1h2v1h2a1 1 0 0 0 0-1h1v1h-1 1v2a2 2 0 0 0 1 0 1 1 0 0 0 0 1h1l1 1h2v-1h2l1-1v-1l1-1h1v-1h1v-2h1v-1l-2-2-1-1-1-1v-1l1 1 2 3h1l1 1v-1h1v-1h1v-1h-1a2 2 0 0 1 0-1v-1h-1v-1a1 1 0 0 1 0-1 4 4 0 0 1 0-1 5 5 0 0 1-1 0h1-1v-1h-1v-2h-1a13 13 0 0 0-1-1v1h1l-1 1h-1l1-1a8 8 0 0 1-1 0v1-2 1-1h1-1l-1-1v-1h-2v-1h-1l-1 1v1h-1l1 1v2h1v6l-1 1v1l-1 2-1 1v1a1 1 0 0 1-1 0v-1h1a20 20 0 0 0 1-3l1-2v-5a2 2 0 0 0 0-1h-1a3 3 0 0 0-1 0h-2v1h1-1c-1 0-1 0 0 0v1l-1-1h-1v1l-1-1-1 1v-1h-1v-2 1-1h-1v1h-1v-1l1-1h-1v-1h1v-1c1 0 1 0 0 0v-2c1 0 0 0 0 0h-1v-1l-1 1-1-1v-1 1zm21 10v-2 1h1v1h-1zm2 3h-1 1zm-2 4v1-1zm-9-6a6 6 0 0 0-1-1h-1 2v1zm-3 9 1-1-1 1h-1 1zm0-8h1l1 1-1-1h-1zm0-1 1 1-1-1zm1-1 1 1h1-1l-1-1zm-4-1v1-1zm20 87h1l1-1v-3 1h-1v2-1h-2 1l-1 1-1 1h2zm-1-1h1-1zm32 10 1-1-1-1h1v-1h-1a1 1 0 0 0 0 1l-1 1 1-1h-1v-1l1 1v-2l-1-1v-1h-1l-2 2v1l1 1v1l2 1h1zm10-9-1-1h-2 1l-1 1h-1v2l1 1 2 2h3v-2a10 10 0 0 0 0-1l-1-1v-1h-1zm-3-14v1h-1v1h1v2h1a5 5 0 0 1-1 0h1l1 2h1l1-1h1v-1l-2-1a28 28 0 0 0-2-2h-1a2 2 0 0 1 0-1zm2 4 1 1-1-1h-1l1-1v1-1 1zm-16 8 1-1a1 1 0 0 0 0-1 3 3 0 0 0-1 0 27 27 0 0 0 0-1h-1 1l-1-1a10 10 0 0 1 0-1h-5v1l1 1 1 2a2 2 0 0 1 0 1l1 1h1l2-1zm-1-3zm-1 0a2 2 0 0 0 0-1v1-1 2a13 13 0 0 0 0-1z"/><path d="M300 296h-1a3 3 0 0 0-1 0l-1 1v1h1l1-1 1-1zm2 2-1-1a1 1 0 0 0-1 0c0-1 0 0 0 0h-1l-1 1v1h1v1l1 1 1-2 1 2-1-1-1 1 1 1h1l1-1s1 0 0 0v-1a19 19 0 0 0-1-1v-1zm9-15-1-1c-1 0 0 0 0 0h-1v1a4 4 0 0 0 0-1h-1v-1h-1v2h1v-1l1 1-1 1v1h2l1-1v-1zm-5 10 1-1h1l-2 1z"/><path d="m305 287-2 1h-1v2h1v1l1 1 2 1v-1h1l1-1v-1l-1-1-2-2zm-1 1h1v1l-1-1zm16 7h3v-2l-1-1-1-1a3 3 0 0 1-1-1l-1-1h-2a2 2 0 0 1 0 1l-1 1 1 1 2 2 1 1zm-7 0h-1v-1h-1a1 1 0 0 1 0-1l-1-1h-2v1h-1v1l1 1v1h1v1h1v1h1v-1h1v-1h1v-1zm-4-1v1-1zm0 1h1-1zm1 1 1-1v1h1-2zm10-19a3 3 0 0 1-1 0h-1v1l-1-2-1-1h-1l-1-1-1 1v1-2 1h-1v-1h-2l-2-1v1h1v2h1l1 1h2v1a5 5 0 0 1 1 0 5 5 0 0 1 1 1h1a8 8 0 0 0 1 0v-1 1a1 1 0 0 0 0 1 2 2 0 0 0 1 1l2 1h3l1-1-1-1v-1a2 2 0 0 0-1-1h-1a8 8 0 0 0-1-1zm-47 19v-1l1-1 1 1 1-1 1-1s1 0 0 0a4 4 0 0 0 0-1h-1l1-1v-1a7 7 0 0 0-1 0l1-1h-2v-1h1v-1h-1v-1l1-1v1h1l1-1h-1v1-1a12 12 0 0 0 0-1v-1h1v-1l3 1v-1 1h1l1-1 1-1v2a1 1 0 0 0 1 0l1-1-1 1v1h1a4 4 0 0 0 1 0h3v-1l1-1v-3l-1-1v-3l-2-2v-2a30 30 0 0 0-3-3l-1-1h1l1 1 1 1 2 2 1 3v1l1 1v7l-1 1v4a2 2 0 0 0 0 1h1l1 1h2l1-1h1v-1h1a5 5 0 0 0 0-1l1-1h1l-1-1h-1v1-1l1-1h-1l1-1v1-1h1l1 1-1 1a6 6 0 0 0 0-1v1h1l1-1v-1l1-2h1v-1l1-1a4 4 0 0 1 0-1v-2l1-1h-1v-1 1l1-1 1-1v-2h-1v-1l-1-1-1-1-1 1a4 4 0 0 0-1 1l-3 3a23 23 0 0 0-1 2 3 3 0 0 1-1 0l1-1 1-2 1-1a1 1 0 0 1 1 0h-1l3-3v1-1l-1-2v1-1l-1-1-1-1v-1h-1l-1-1-1-1-1-1-1-1a17 17 0 0 0-1 0l-1-1h-4l-1 1h-1l-1 1a2 2 0 0 0-1 1v3h-1 1v1l1 1h-1v-1h-1v-1h-3v1h-1l-1 1h-1l-1 2h-1v1l-1 1v4l-1 2v1a2 2 0 0 0 0 1v2a7 7 0 0 0 0 1l1 2v4a4 4 0 0 1 0 1l-1 1 1 1-1 1v1l-1 2v1l1 1zm29-17h1v1h-2 1v-1h-1 1zm1-5a2 2 0 0 0-1-1h1v1zm-3-7h1-1v1-1zm-12 12-2 1v-1h2zm-6-14h-1 1l1 1h1-1l-1-1zm2 12 1-1 1-1-1 2-1 1v-1zm0 1 2-1-2 1zm1 1 2-1h1-1l-2 1zm-5 1v1-1z"/></g><g class="B"><path d="M351 250h-1v1h-1 1v1h1-1v1h-1 2v-1l1-1v-1h-1zm0 1h-1l1-1v1zm14 18v1h-1v-1 1-1h-1l1 1h-3v-1l1-2h2v1h1a3 3 0 0 1 0 1zm-3 9h-1l-1-1h1v-2h2l2 1 1 2v1h-1a7 7 0 0 1-1 0h-1a5 5 0 0 1-1-1zm-10 2h1l1 1 2 1v-1l1-1h-1v-1h-2 1-3v1zm3 1v-1h-1 2-1v1zm1-14v-1a1 1 0 0 0 0-1h-3a579 579 0 0 1-1 0v2h1v1h1v-1 1h2v-1zm-2 0zm0-1v1a1 1 0 0 1-1 0 1 1 0 0 0 1-1zm3 2a20 20 0 0 1-1 0v-1l1-1v2zm2 1-1-1h-1v-2h2l1 1-1 1h1l-1-1h2v2h-1a11 11 0 0 1-1 0h-1 1zm-8 10h-1v-2h-2 1v-1h1v1h-1 3v1l-1 1zm5-6v2-2z"/><path d="M352 273v1h1l1 1h1v-1l1-1-1-1a2 2 0 0 1-1-1h-1a2 2 0 0 0-1 0v2zm1 0a9 9 0 0 1-1 0h1zm8 9a1 1 0 0 1 1 0v1l-1 1a1 1 0 0 1-1 0h-2a3 3 0 0 0 0-1h-1v-2l1-1h1l1 1h1v1zm-1-5v-3h-2a11 11 0 0 0-1-1h-1l1 1-1 1 1 1h1l1 1h1zm-2-3v1-1zm0 0 1 1h-1a1 1 0 0 0 0-1zm1 1h1a1 1 0 0 1 0 1h-1v-1 1-1zm-10 11v-1h-1l-1-1a1 1 0 0 0-1-1v-2 1h-1v-1h-1l1-1h-2a1 1 0 0 1 1-1v1h1-1 2l1 1 1 1a4 4 0 0 0 1 1h1l-1 1a1 1 0 0 1 1 0h1l1 1 1 1v2h-2a2 2 0 0 1-1-1 6 6 0 0 1-1-1zm0-36h-1l-1 1h-1v1h-2v1h-2v1h-3a1 1 0 0 0-1 0 2 2 0 0 0-1 0v1h-1l-1 1h-1l-1 1-1 1-1 1a2 2 0 0 0 0 1v1l-1 1 1 1h-1v1-1l1 1v1h1-2l1 1h-2v1a1 1 0 0 0-1 0v3l1 2v1h1l1 1h1l1 1h1v1h3v1l1-1v1l1-1h-1l2-2v-1l1-1v-1h1l-1 2-2 2v3h3a2 2 0 0 1 1 0v-1c1 0 0 0 0 0v-1h1-1 2a1 1 0 0 1 1-1l1-1v-1l1-1h1v-2h-1 1v1a8 8 0 0 0-1 0v-2h1v1-1l1-1v-1h1a4 4 0 0 1 0-1v-2h-1l-1-1h-1l-1 1h-1v1h-1l-1 1-3 1h-4l-2-1h-2a1 1 0 0 1 0-1h1l3 1h1l2 1 1-1h2l2-1h1v-1a3 3 0 0 0-1-2v-1h-1v1-1h-2l1-1v-1h-1 1l-2-2h1v-1h1l1-1-1 1h1v-2a1 1 0 0 0-1 0v1-1h2v-1 1h1v-1 1h1v-1h1a3 3 0 0 0 1 1v-2l-1-1h1a1 1 0 0 0 0-1h1-1zm-4 24h1l-1-1h1v1-1h1v1l-1-1v1c1 0 0 0 0 0h-1zm-2 2h-1a90 90 0 0 1 0-1v1h1-1 1zm-6-1v1-1zm5-10v-2 2zm-10-1 1 1h-1l-1-1h1zm8-2v1l-1 1 1-1v-1zm0 0v2-2zm1 1v1-1zm0-5v1-1zm-61-96-1-1-2 1h-1v2-1h1l1-1-1 1h1v1h1l-1-1h2c0 1 0 1 0 0v-1zm-1 1-1-1h1v1zm-16-24h-1v1h-1a1 1 0 0 1 0 1 1 1 0 0 0 1 0v-1h1v1h-1v1-1a1 1 0 0 0-1 0 1 1 0 0 0 0 1v2h3v-2a5 5 0 0 0 0-2 3 3 0 0 0-1-1zm-11 1v1l1 1h-1 2l1-1v-4l-1-1h-2a8 8 0 0 0-1 1v2l1 1zm-6 11h1l1-1h-1v-1h1-1 1l-1-1h1v-2h-2l-1-1v3l1 2v1zm1-4v1h-1l1-1zm14 3h1-1v1l-1 1 1 1h-1v1l1 1 1 1 1 1 1-1v-3a1 1 0 0 0 0-1v-1h-2l-1-1zm0 3zm1 1a2 2 0 0 0-1 0 1 1 0 0 1 0-1 1 1 0 0 1 1 0v1z"/><path d="M261 150h1a3 3 0 0 0 1 1l1-1h-1a1 1 0 0 0-1 0h-1zm0-3v2h1l1 1h1v-3h-2v-1l1 1 1-1-1-1h-2v2zm-14 6v1h1v2h1v-1l-1-1h1v-2h-2v1c0-1 0 0 0 0zm8-5h-2 2zM253 154h3v-2l1-1a3 3 0 0 1-1-1v-1h-3v5zm1-1v-1 1zm-7-13a1 1 0 0 0 0-1h-1l-1-1-1 1a1 1 0 0 0 0 1v3l1 2h2l1-1v-3l-1-1zm5 3a1 1 0 0 0 0 1 3 3 0 0 0 0 1v2l1 1h3l-1-2v-3a1 1 0 0 0-1 0h-2zm3 3h-1 1zm-1 0-1-1h1v1zm0-1c0-1 0-1 0 0h-1l1-1h-1 2l-1 1zm-16 7v1h1v2l1 1 1 1h1-1v1l1-1v2h1v2a1 1 0 0 0 1 0v-1a1 1 0 0 1-1 0h1v-2l-1-1v-1a3 3 0 0 1-1-1 4 4 0 0 1 0-1 1 1 0 0 0 0-1h-1a6 6 0 0 0-1 0l1-1a2 2 0 0 0 0-1v-1l-1-1v-1a2 2 0 0 0-2-1l-1 1v3l1 1zm42 12-1 1h-1l-1-1h-2a4 4 0 0 0 0 1v1h-1v1h-1l1 1h-1v2h-1v-1h-1v1h-2l-1 1-1-2v1-1a1 1 0 0 0-1-1h-1l-1 1v-1h1v-1a1 1 0 0 0-1 0h-1 1a1 1 0 0 0 1 0v-1a19 19 0 0 0-1-1 3 3 0 0 0-2-1h-2l-1 2-1 1v1l-1 2v2h-1v4l1 1-1 1a1 1 0 0 1 0-1v-8l1-1 2-3 1-1 1-1h1l1-1 1-1v-2l-1-1v-1h-4a5 5 0 0 0 0 1 3 3 0 0 1-1 0 1 1 0 0 1-1 0v1-1 1l-1 1v-1h-1v-1h1v1-1l-1-1-1 1h-1l-1 1h-2v1a4 4 0 0 1-1-1 3 3 0 0 1 0 1 2 2 0 0 1-1 1l-1 1h-2a3 3 0 0 1 0 1h-1v1h1l-1 1v2h2a3 3 0 0 0 1 0l4-1h1-1l-1 1h-2l-3 1-1 1h1v8l1 1v1l1 1v1l1 1h4a2 2 0 0 0 1 0h1l1-1v-1l1 1v-2 2h1v1h1v-1l1 1h5l1-1 1-1 1-1h1l1-1v-1a2 2 0 0 0 1 0v-1l1-1v-1l1-1v-1h1l1-2a3 3 0 0 1 1-1l1-1h1v-1l2-1 1-1v-1zm-30-4s1 0 0 0h1v-1l1 1h-1v1-1 1l-1-1zm-3 3h1a2 2 0 0 0 0 1h-1v-1zm-1 6v1l-1-1v1a2 2 0 0 1 1-1zm14-1h2-1a14 14 0 0 0-1 0zm-3 12v1-1l-1-1v-1l1 1v1zm5-9h-2 2zm0 0a108 108 0 0 0-1-1l1 1zm0-2h-2v-1 1h2zm4 2h1-1z"/></g><g class="C"><path d="M372 159h-2l-1 1h-1v1l1-1h2l-1 1h2v-2zm0 1h-1 1zm-17-23h-1v1-1a4 4 0 0 1 0 1h-1a1 1 0 0 0 1 0h1-1l1 1h-2v2l1 1h2l1-1v-2a5 5 0 0 0-1-1 3 3 0 0 0-1-1zm-11 1v1l1 1 1-1h1v-1l1-1-1-2-1-2h-1l-1 1a8 8 0 0 0 0 1l-1 1 1 1v1zm-5 10h1v-1h-1 1v-4h-3l1 2v2l1 1zm0-3v-1l1 1v1h-1v-1h-1 1zm15 3h-1a1 1 0 0 0 0 1v4h1l1 1h1v-1l1-2a2 2 0 0 1 0-1v-1l-1-1h-2zm-1 2h1v1h-1v-1zm1 1a2 2 0 0 0 0 1v-1 1a2 2 0 0 1 0-1zM354 147v1h2l-1-1h-1zm-1-2v2h4l-1-1v-2l-2 1 1-1h1v-2h-2l-1 1v2zm-14 5v1a1 1 0 0 1 0 1h1v1l1 1v-2 1-2h1l-1-1h-2zm9-4h-2 2z"/><path d="M346 151h1v1l1-1c0 1 0 0 0 0v1-1h1v-2a3 3 0 0 1 0-1l-1-2-1 1h-2v4h1zm0 0v-1 1zm-7-14-1-1-2 1v3l1 1v1l1 1a2 2 0 0 1 1-1h1v-4a5 5 0 0 1 0-1h-1zm5 4 1 1a3 3 0 0 0 0 1 2 2 0 0 1 0 1v1h2v1l1-1v-4h-1a1 1 0 0 0 0-1l-1 1h-2zm3 3h-1v-1l1 1zm0-1h-1a1 1 0 0 1 0-1l1 1zm0-1h-1v1-2a8 8 0 0 0 0 1h1zm-17 7v1h1v1l1-1-1 2 1 1v1a1 1 0 0 0 1 1l1-1v1h-1 1v2h1l1 1v-4h-1v-1a4 4 0 0 1-1-2v-1h-2 1v-1a2 2 0 0 0 0-1v-1l-1-2-1-1-2 1v2a2 2 0 0 0 0 1l1 1zm42 13h-1l-1 1-1-2v1h-1v-1l-1 1v1h-1v1h1a1 1 0 0 1-1 0v2-1 1h-1l1 1h-1a1 1 0 0 0 0 1l-1-1h1-1v-1l-1 1h1-1v1h-2v1l-2-2v-1h-2v-1c1 0 1 0 0 0v-1h-1 1v-1a4 4 0 0 0-1-1 3 3 0 0 0-2-1h-1v1l-2 2-1 1-1 2v3a26 26 0 0 0 0 4v1h-1v-5l1-2v-2l2-3 1-2h2v-1h1l1-1v-4h-5a3 3 0 0 1-1 0h-1v1h1l-1 1c0-1 0-1 0 0h-1 1-2v-2l1 1 1-1h-3l-2 1v1-1h-1v1h-1a3 3 0 0 1-1 0 2 2 0 0 1-1 1v1h-1v1h1-1v-1l-1 1a3 3 0 0 1-1 0l-1 1v1h1l-1 1v1c1 0 0 0 0 0v1h3l4-1a23 23 0 0 0 2-1 3 3 0 0 1 0 1h-3l-1 1a1 1 0 0 1-1 0h1-4v9h1v2l1 1v1a3 3 0 0 1 1 0l1 1 1 1h2a2 2 0 0 0 1 0h1v-1l1-1h1v-2 2h1l1 1h-1 2v1h4l1-1h1l1-1 1-1 1-1h1v-1h1v-1h1v-2a7 7 0 0 0 1 0v-2h1v-1l1-1 1-1 1-1 1-1h1l1-2h1v-1zm-29-4v-1h1v1h-1 1v1h-1v-1zm-3 3v1-1h-1 1zm-2 6h-1 2-1zm14-2 1 1h1-1a14 14 0 0 0-1-1zm-2 13h-1v-1l-1-1h1v1l1 1zm5-9h-3l1-1h2v1zm-1-1h-1 2-1zm0-1-1-1h-1 1l1 1zm4 2 1-1-1 1z"/></g><g class="D"><path d="M395 221v-4h-1l-1-1h1v3a6 6 0 0 1 0-1v1h-2 1v2h2zm-2-1c1 0 1 0 0 0l1-1v1h-1zm28-14v-2a1 1 0 0 1-1-1 1 1 0 0 0 0 1l1 1h-2l1-1v-1h-3l-1 1v3h3a6 6 0 0 0 1-1 3 3 0 0 0 1 0zm1-13h-1l-1 1v2l1 1h4l2-1v-2h-1a9 9 0 0 0-1-1h-3zm-11-7 1 1v1-1h1v1-1l1 1h3v-3h-2l-2 1h-2zm4 1h1l-1 1-1-1h1v-1 1zm-5 16v-1a1 1 0 0 0-1 0 2 2 0 0 0 0-1h-1l-1 1v-1h-2l-1 1-1 1v1h1l2 1h1a1 1 0 0 0 0 1h1l1-1v-2h1zm-3-1h-1 1zm-1 0a2 2 0 0 0-1 0h1-1a2 2 0 0 1 1 0l1 1h-1a1 1 0 0 0 0-1z"/><path d="M410 203v-1 1h-1a7 7 0 0 0 0 1v1h1v-1a3 3 0 0 0 0-1zm3-1h-2v2h-1v2h3v-2h1l-1 1 1 1 1-1a3 3 0 0 0 1 0v-2h-1a17 17 0 0 0-1-1h-1zm-4-16h-1a1 1 0 0 1-1 0v1h-2l1 1h1-1 2v1h1l1-1v-1h-1v-1zm4 10v-2 2zm-6-3v1a9 9 0 0 1 0 1c-1 0 0 0 0 0v1h-1 1c-1 0 0 0 0 0l1 1h4v-3l-1-1h-4zm1 1h1-1zm15-5 1-1 1-1c1-1 0 0 0 0l-1-2a6 6 0 0 0-1 0h-5v1a2 2 0 0 1 0 1v1l1 1h4zm-4 4a1 1 0 0 0-1 0h-4v1l-1 1v2h5l1-1v-3zm-4 3v-1h1l-1 1zm1-1h1l-1 1v-1zm1 1v-2 1h1-1v1zm-5-20-1 1h-1v1l-2-1-1 1a2 2 0 0 1-1 0l-1 1 1 1h-1v-1 1h-2v1h-2v1h1c0-1 0 0 0 0h3l1-1h1a4 4 0 0 1 1 0 5 5 0 0 1 1 0h1v-2l1 1h3l2-1 1-1-1-2h-3a8 8 0 0 0-1 0zm-20 44-1-1c1 0 1 0 0 0v-1h2l-1-1h1v-2a4 4 0 0 0-1 0h-1v-1a5 5 0 0 0-1 0v-1h-1v1h-1v-1h1a3 3 0 0 1-1 0h-1v-1a1 1 0 0 0-1 0l1-1a5 5 0 0 1 0 1l1-1v-1 1l-1-1v-2l-1-1 2-1v-1l1 1v-1h1v-1l-1-1h1v1h1a1 1 0 0 0 0-1l1-1-1 1v1h1l1-1h1a3 3 0 0 0 1-2v-2a9 9 0 0 0-3-2l-1-1-2-1-2-1h-1a28 28 0 0 0-4-1h-2 1v-1h3l3 1 2 1h1l1 1 3 3 1 1 1 1v1l1 1 1 1v1h2l1-1h1v-3a2 2 0 0 1 0-1 3 3 0 0 0 0-1 1 1 0 0 1 0-1l1-1h-2v1h1-1v-1l-1-1 1 1v-2h1v1h-1l1 1h1v-3l-1-2h-1l1-1v-2h-1a1 1 0 0 1 1 0 3 3 0 0 1-1 0l-1-1v-1l-1-1v-3l-1-1h-1v1l-1-1h-2v2a4 4 0 0 0 0 1v6-1l-1-2v-5l-2-1v1l-1-1h-9a4 4 0 0 0 0 1 10 10 0 0 0-1 0h-1a4 4 0 0 1 0 1l-1 1-1 1-1 1v2a2 2 0 0 0 0 1l1 1 1 1-1 1h3-1a2 2 0 0 0-1 0h-1v1l-1 1v-1 2l-1 2v3l1 2v1l1 1h1v1l1 1v1a2 2 0 0 0 1 1 2 2 0 0 0 0 1h2v1l1 1h2v1l1 1 1 1 1 1v2h1l1 2 1 1h1zm8-31h1v1h-1v-1zm-3-4 1 1a2 2 0 0 0-1-1h1-1zm-6-2v-1 1zm0 15v1l-1 1a12 12 0 0 0 1-2zm-13-4h-1l1-1h2-2v1zm9 6v-3 3zm0 0 1-1v1h-1zm2 0 1-1v-1 1l-1 2v-1zm-3 4 1 2-1-2zm-69 54 1-1v-1l-1-1h-1v-1h-1l1 1v2h-1l1 1h1zm-1 0v-1h1-1v1zm18-23v-1l-1 1 1-1h-1a1 1 0 0 1-1 0 1 1 0 0 0 1 0v2-1h-1 1a1 1 0 0 0-1 0 1 1 0 0 0 0-1h-2v1h-1l1 3h2v-1h1l1-1a3 3 0 0 0 0-1zm-4-10h-1v1l1 1v1h2l2-1 1-2v-1h-1a7 7 0 0 0-1 0h-1a6 6 0 0 0-1 0l-1 1zm-11-2 1 1v-1h4v-3h-1l-1 1-2 1h-1v1zm3-1h1-1v1-1zm1 15a1 1 0 0 0-1-1l-1 1h-1a3 3 0 0 0-1 0v1l-1 1v2h3a2 2 0 0 1 1-1h2a1 1 0 0 0-1-1v-2zm-2 0v1-1h-1 1zm-1 1h1v1a1 1 0 0 0-1-1zm4-1h-1l1 1v1-1a2 2 0 0 0 0-1zm2-1h-1a1 1 0 0 0-1 0v1h1v2h2l1-1-1-1h1-1l1 1h1a2 2 0 0 0 0-1v-2h-2l-1 1zm-9-13-1 1v1h-1v1h-1 2v-1l1 1 1-1v-1h-1v-1zm7 8-1-1v-1l1 2z"/><path d="M318 230v3h1a2 2 0 0 0 1 0h1l1-1 1-1v-1l-1-1-1-1v1h-1l-1 1a5 5 0 0 0-1 0zm1 1v-1h1-1v1zm11-11v-2l-1-1h-1l-2 1-2 1v2h1l1 1h1l2-1 1-1zm-2 6a1 1 0 0 0-1 0l-1 1a1 1 0 0 1-1 0h-1v4l2-1h1l1-1h1v-1a20 20 0 0 0-1-1v-1zm-3 3h1-1 1-1zm1 0v-1h1l-1 1zm1 0v-1h-1 1v-1 1l1-1v1h-1v1zm-11-15-1 1v1h-2v1h-1v1l-1 1h1v1-1h-1v1h-1v1l-2 1 1 1v-1a1 1 0 0 1 1 0h2v-1l1-1h1v-1a4 4 0 0 1 1 0 2 2 0 0 0 1 0v-1l-1-1h1l1 1a2 2 0 0 0 0-1h1l1-1 1-1 1-1-1-1h-3l-1 1zm-1 44h-1v-1l1-1-1-1v-1a4 4 0 0 0-1 0l-1-1h-1v1-1h-1v1-1a2 2 0 0 1-1 0l-1 1v-1h-1v-1h1v1-1h1l-1-1v1l-1-1h-1l1-1-2-1 2-1-1-1h1l1-1-1-1v-1l1 1a1 1 0 0 0 0-1v-1 1h1c0 1 0 1 0 0h1v-1a3 3 0 0 0 1-2v-1h-1l-2-1h-2l-3-1h-3a25 25 0 0 0-3 1l-1 1v-1l1-1h1l3-1 2 1 1-1 1 1h4l1 1 1 1v1h1l2 1h1l1-1h1v-3a1 1 0 0 0-1 0h1l-1-1a2 2 0 0 0 0-1 3 3 0 0 1-1 0 1 1 0 0 1 0-1v-1s0 1 0 0l-1 1h1-1l-1-1h1a8 8 0 0 1-1 0v-1l1-1v2h1a19 19 0 0 0 0-1l-1-2-1-1h-1v-2h-1l-1-1h-1v-1h-1v-1a3 3 0 0 1-1-1h-2v1-1l-1 1h-1v1l1 1-1 1 2 3 1 1a2 2 0 0 1 0 1l-1-1-1-2v-1l-2-3h1l-1-1v1h-3l-1 1h-2l-2 1v1a4 4 0 0 0-2 0v1h-1v1a3 3 0 0 1 0 1l-1 1v4a6 6 0 0 0 1 1l2 1v1-1h2l-1 1h-1l-1 1v1h1l-1 1v2l1 1a2 2 0 0 0 0 1l1 1h1v1h1l1 1 1 1h1v1h2a2 2 0 0 0 0 1l1-1 1 1h3v1h2a3 3 0 0 1 1 1l1 1h1v1l2 1h2zm-4-29h1v1h-1a2 2 0 0 1-1 0h1v-1zm-4-2a2 2 0 0 0-1 0h1c1 0 0 0 0 0zm-6 0v-1 1zm5 13v2-2zm-12 1a8 8 0 0 1-1 0h1v-1l1-1v1h-1v1zm10 2-1-1v-1l1 1v1zm0 0v-1 1zm1 0 1-2v-1 3h-1zm0 4v1-1z"/></g><g class="B"><path d="M396 220h-1l-1 1v-1l-1 1h1v1c0 1 0 1 0 0h-1v1h-1 3l1-1v-2zm-1 1v-1 1zm8 27-1 1-1-1 1 1a4 4 0 0 0-1 0 1 1 0 0 0-1 0 1 1 0 0 1 1-1h1a3 3 0 0 0 0-1l-1 1v-1 1a1 1 0 0 1-1 0h-1v-1h-1v-1l1-2h2v1h1v1l1 1a3 3 0 0 1 0 1zm-8 8h-1v-2 1l1-1v-1h2l1 1 1 2 1 2h-1v1h-1a8 8 0 0 1-1-1h-1l-1-1v-1zm-11-2v1l1 1 1 2h1v-1l1-1v-1l-1-1h-2v-1h-1v1h-1 1zm2 2v-1h1v1-1l-1 1zm7-14h1v-3a1 1 0 0 0-1 0 1 1 0 0 1 0-1l-2-1h-1l-1 1v2h1v1l1 1v-1 1h1a1 1 0 0 0 1 1v-1zm-2-1zm0-1a1 1 0 0 1-1 0h1-1 1zm3 3-1-1h1v-1h1l-1 1v1zm1 2v-1a9 9 0 0 0-1 0 1 1 0 0 0 0-1l1-1v-1h1l1 1 1 1-2 1h1c1 0 0 0 0 0l1-1h1v1l-1 1v1h-1a16 16 0 0 1-1-1h-1zm-13 7-1-1h1v-1h-1v-1h1v1h2v1l-1 1h-1zm9-4-1 1v1l1-2z"/><path d="m386 247 1 1 1 1h1l1-1h1l-1-2a3 3 0 0 1-1-1h-1v-1h-1v1h-1v2zm1 0-1-1h1v1zm6 13v2h-1l-1 1a4 4 0 0 1-1-1h-1v-1a3 3 0 0 0-1-1l-1-1 1-1v-1h1l1 1 2 1v1h1zm0-6 1-1h1v-2h-1v-1h-1l-1-2-1 1-1 1v1l1 1v1h1l1 1zm-1-4v1-1zm1 1v1h-1v-1h1zm1 0-1 1h1a1 1 0 0 1 0 1h-1v-1h-1 1v-1h1zm-17 9a8 8 0 0 0 0-1v-1l-1-1v-1h-1v-2h1-1v-1h1-2v-1l1-1-1-1h1l1 1c0-1 0 0 0 0h1v3a4 4 0 0 0 1 2h1v1h-1 1l1 1 1 1 1 2v1l-2 1h-1l-1-1a5 5 0 0 0 0-1l-1-1zm16-41h-4v1h-2a3 3 0 0 1-1 0h-6v-1a1 1 0 0 0-1 0h-3l-1 1h-3l-2 1h-1l-1 1v1l-1 1v1l-1 1h1v1h-1l1 1 1 1-1-1h-3a6 6 0 0 0-1 1l-1 1v1l-1 1v4h1v1l1 1v1l1 1 1 1 1 1h1v1h1v1h2l2-2 1-1 2-1v-1a2 2 0 0 1 1 1l-2 1-3 2a3 3 0 0 0 0 1l-2 1 1 1 1 1v-1h1v2h1l1-1h1v-1h4l1-1v-1h3l1-1v-2h-1l1 1-1 1-1-1 1-1v-1l1 1v-1h1-1l1 1v1-2h2v-1h1v-1l1-1v-1l-1-1-1-1h-4l-1 1h-2l-3-1h-2l-2-1-2-2-2-1a1 1 0 0 1 0-1l1 1a26 26 0 0 0 3 2h1l1 1 3 1h5l1-1v-2l-1-1c0-1 0-1 0 0h-1l1-1h-2l1-1 1-1-1-1v-2h1v-1h3v-1h-1v-1h1v1h1v-1l1 1c0 1 0 0 0 0h1v1h1v-1l1 1h1v-1h1l-1-2h1l1-1h-1zm-14 25h-1l1-1a2 2 0 0 1 0 1h1v1h-1l-1-1zm-5 1v-1 1a2 2 0 0 0 1 0h-1s1 0 0 0zm-5-3v1a2 2 0 0 1-1 0v-1h1zm10-10v-1h1l-1 1v1-1zm-11-5v2-1l-1-1v-1 1h1zm10 2-1 1-1 1 1-1 1-1zm0 0v1h-1l1-1zm1 1v2h-1l1-2zm2-5-1 1 1-1z"/></g><g class="F"><path d="M355 133h1c0 1 0 0 0 0h2l-1-1h1-1 1l1-1 1 1-1-1h-3v1l-1 1zm2-1v1h-1l1-1zm2-25 1-1v1-1 1h1a1 1 0 0 1-1 0h-1 1v1-1h1l1 1v2l-2 1-1-1v-1a5 5 0 0 1 0-2 3 3 0 0 1 0-1v1zm9-5 1 1-1 1h-1v1l-1-1-1-1-1-2 1-2h2v1l1 1v1zm9 6v-1a23 23 0 0 0 0-2l-1-1s0-1 0 0h-2v1l1 2h1-1l1 1h1zm-1-2h-1 1l-1 1v-2 1h1zm-11 9-1 1a1 1 0 0 0-1 0v2a1 1 0 0 0 1 0l1 2h1v1l1-1v-2l1-1a16 16 0 0 1-1-1h-1a3 3 0 0 0 0-1 1 1 0 0 0-1 0zm1 2h1-1v-1 1zm0 1v-1a1 1 0 0 1 1 0v1a3 3 0 0 1 0-1v1a1 1 0 0 0-1 0 1 1 0 0 0 0-1v1z"/><path d="M365 114v1h-1l-1 1v-1h1l1-1zm-1-2v1a1 1 0 0 0 1 0v1h-1v1h-2v-1l-1-1 2-1h-1l-1 1v-2l1-1h1v1l1 1zm14-2v2h-1l1 1h-1v-1h-1v-2h2zm-9 0h2-2zM373 113l-1-1v-1l-1-1-1 1h-1v2l1 1v1h2v-1h1v-1zm-1 0v1-1zm0-13v-2h2v1h1v2l1 2-1 1a1 1 0 0 0-1 0h-1a9 9 0 0 1 0-1l-1-2v-1zm-3 5h-1l-1 1v2h1v2h1l1-1h1v-1l-1-1a5 5 0 0 0 0-1l-1-1zm0 3zm-1 0v-1h1v1h-1zm0-1v-1h1v1h-1zm17-2v1l-1 1 1 1v3h-1 1-1v1h1l-1 1v2-1h-1v-1h-1v-1l1-1-1-1a3 3 0 0 0 0-1 4 4 0 0 0 0-1v-1h1a1 1 0 0 1-1 0 2 2 0 0 1 0-1v-1l-1-1v-1l1-2h1l1 1 1 1v2zm-28 30h4l1 1h1a3 3 0 0 1 1 0l1 1h2l1 1 1 1h1v1a2 2 0 0 0 1 0h3l1 1h3c0-1 0 0 0 0l1-1h1l1-1v-1h2-1l1-1v-1l-1-1 1 1h3a2 2 0 0 0 1 0l1-1 1-1 1-2v-2a3 3 0 0 0 0-1l-1-1v-2l-1-1v-1l-1-1v-1l-1-1h-1 1l-3 1-1 1h-3a19 19 0 0 0 2-1l3-1h1l1-1v-1h-1v-2h-1a2 2 0 0 1-1 0h-1v1h-1l1-1h-3a2 2 0 0 1 0-1v1h-1v-1 1h-5l-1 1 1 1v-1h1v1h-1v1-1l-1 1v-2 1a1 1 0 0 1-1 0h-1l-1 1h-1l-1 1v2l1 1 1 1h5l3 2v1h1l1 2 2 2v2-1a23 23 0 0 0-2-3h-1l-1-2-2-1-1-1-2-1h-1l-1 1a3 3 0 0 0-1 1v1a1 1 0 0 0 0 1h2-1v1h1l-1 1h-1a1 1 0 0 0 0 1v2h-2l-1 1v-1h-1 1-1v1h1a1 1 0 0 1-1 0v1-1h-1a6 6 0 0 0 0-1 3 3 0 0 1-1 0v1-2h-1v1-2l-1 1v-1a3 3 0 0 0-1 0c0-1 0-1 0 0h-1v1l-1-1 1 2h-2v1zm21-17v1a2 2 0 0 1 0-1h-1v-1 1l1-1v1zm4 0v2a2 2 0 0 0 0-1v-1zm4 5 1-1-1 1zm-12 5a8 8 0 0 0-1 1l1-1zm8 8v-1 2a26 26 0 0 0 0-1zm-8-5h1l1-1-1 1h-1zm-1 0 1-1h1l-1 1h-1zm0-1 1-1v-1 1l-1 1zm-3 3h1-1z"/></g><g class="E"><path d="M406 172v-1l-1-1h-2 1l1 1h-1v1h1v1l1-1zm-1 0v-1 1zm10-22-1-1v1-1a1 1 0 0 1-1 0v1h1-3v1l1 2h1v-1h1a4 4 0 0 0 1-1 3 3 0 0 0 0-1zm-6-8v1l-1 1h1v1h2l2-2v-2h-1a7 7 0 0 0-1 0 5 5 0 0 0-1 1h-1zm-10 1h1v1h1v-1h-1 2l1-1h1v-1h-1v-1h-1l-1 1-1 1v1h-1zm3-1h1v-1l-1 1v1-1zm4 12a1 1 0 0 0 0-1 1 1 0 0 0-1 0v1a4 4 0 0 1-1 0h-1a7 7 0 0 1 0 1l-1 1v1h1-1l1 1h1v-1h1a1 1 0 0 1 1 0l1-1-1-2zm-2 1v-1 1zm0 0a1 1 0 0 0-1 0h1-1a2 2 0 0 1 1 0v1a1 1 0 0 0 0-1z"/><path d="M407 153a6 6 0 0 0-1 1h1v1a1 1 0 0 0 0-1v-1zm1-1v1h-1v1l1 1h1v-1h1l-1-1h1-1l1 1h1v-1a2 2 0 0 0 0-1l-1-1-1 1a3 3 0 0 0-1 0zm-10-8v1h-1l1 1h-1v1h1a9 9 0 0 0-1-1h2v-1h1-1v-1h-1zm7 5v-1l-1-1 1 2zM400 149l1 1a3 3 0 0 1 0 1h2l1-1 1-1-1-1-1-1-1 1-1 1h-1zm1 1v-1h1l-1 1zm7-11v-2l-1-1a1 1 0 0 0-1 1h-1v1h-1l-1 1v1a1 1 0 0 1 1 1h2a26 26 0 0 0 1-1l1-1zm-1 5-1 1a1 1 0 0 1-1 0v3h2v-1h1v-1h1a1 1 0 0 0 0-1 11 11 0 0 0-1 0v-1h-1zm-1 3v-1 1zm1 0v-1h-1 1v1zm0-1a10 10 0 0 0 0-1h1a1 1 0 0 1 0 1h-1zm-12-9a2 2 0 0 1 0 1v1h-1l-1 1a3 3 0 0 1 0 1l-1 1h1-1 1v1h-1v1l-1 1h2v-1l1-1v-1h1a3 3 0 0 1 1-1v-1l-1-1h1a1 1 0 0 0 0 1l1-1 1-1 1-1a2 2 0 0 0 0-1l-1-1h-2v1a4 4 0 0 0-1 0 6 6 0 0 0 0 1zm9 36h-1v-3c-1 0-1 0 0 0l-1-1a3 3 0 0 0 0 1h-1v-1h-1v1h-1v1-1a3 3 0 0 1-1 0l-1 1v-1 1-2 1-1s1 0 0 0v-1 1h-1l-1-1c1 0 0 0 0 0h-1l1-2a1 1 0 0 0 0-1v-1h-1l1-1v1h1v-1l-1-1 1 1 1-1a3 3 0 0 0 0-2v-1h-7l-1 1h-1c0-1 0 0 0 0a22 22 0 0 0-3 1v1h-1v-1h1l1-1 2-1h2v-1h4l2 1h1l1 1h2l1-1 1-1-1-1v-2h-1a3 3 0 0 1-1 0 1 1 0 0 1 0-1v-1 1h-1a6 6 0 0 1 1 0h-2 1v-1a10 10 0 0 0-1 0l1-1v1h1a15 15 0 0 0-1-1v-1h-2v-1h-1v-1a3 3 0 0 1-1 0 1 1 0 0 1-1 0v-1h-1v1l-1-1h1l-1-1a2 2 0 0 1-1 0h-1v1l-1-1v1h-1l1 2 2 3a17 17 0 0 0 1 1l-1-1-1-1a1 1 0 0 1 0-1h-1l-1-1v-1a26 26 0 0 0-1 0h1l-2 1h1-2v1h-1l-1 1-1 1-1 1a3 3 0 0 0-1 0 6 6 0 0 0 0 1v1a3 3 0 0 1-1 1v3h1v1h1a4 4 0 0 0 0 1h2v1-1h1-1v3h1l-1 1 1 1v1h1v1h1l1 1h3v1h1a2 2 0 0 0 1 0h1a5 5 0 0 1 1 0h5v1h2l1 1h3zm-10-23h1v1l1-1-1 1v-1 1h-1v-1zm-3-1a1 1 0 0 0-1 1l1-1zm-5 2v-1 1zm7 9v2-1a7 7 0 0 0 0-1zm-10 4v-2h1l-1 1v1zm9-1-1-1v-1 1l1 1zm0 0-1-1h1v1zm1-1v-1h-1l1-1v2zm0 4h1v1l-1-1z"/></g><g class="B"><path d="m59 162 1-1v-2l-1 1v-3h1l-1 1h-1v3l1 1zm0-2 1 1-1-1zm-24-12v-1h1a1 1 0 0 0 1-1v1a1 1 0 0 1-1 0v1h1v-1 1-2h2l1 1v2h-2a5 5 0 0 1-2 0 3 3 0 0 1-1-1zm0-10h2v2l-1 1h-4l-1-1v-2h2a6 6 0 0 1 1 0h1zm9-6h-1v-1a24 24 0 0 0-2 0h-2v2l1 1 1-1h2v-1 1h1v-1zm-3 0v1l1-1v1h-1l-1-1 1 1v-1zm5 14v2h2a2 2 0 0 1 1 0l1-1h2l-1-1v-1h-1l-1-1h-1v1l-1-1v1h-1v1zm2-1zm1 1a8 8 0 0 0-1 0 1 1 0 0 1 0-1 1 1 0 0 1 1 0 1 1 0 0 0 0 1z"/><path d="M45 146h1v2h-1v-2zm-2 0h2v2h-3l1-1h-1c0 1 0 0 0 0v2h-1v-1l-1-1v-1h3zm3-14h1v1h1v-1l1 1-1 1v-1h-1v1h-1v-1l-1-1h1zm-3 8v-2 2zm4-2h-2l-1-1v2l-1 1 1 1h4v-2l-1-1zm0 1-1-1h1v1zm-13-5a1 1 0 0 1-1-1l-1-1 1-1h1l1-1h1l1 1h1l1 1v1l-1 1a11 11 0 0 1-1 0h-2a5 5 0 0 1-1 0zm4 4v3h4l1-1h-1v-2h-1c0-1 0 0 0 0a1 1 0 0 1-1 0h-2zm3 2-1-1h1v1zm-1 0v-1a1 1 0 0 1-1 0 1 1 0 0 1 1 0v1zm-1 0a47 47 0 0 1 0-1v1a1 1 0 0 1-1-1h2-1v1zm5-17v1h1v1l2-1 1 1h1v1h1v1-1h1v1l2 1h-4v-1h-1a4 4 0 0 0-2 0 2 2 0 0 1-1 0v-2 1a1 1 0 0 1-1 0 2 2 0 0 1-1 1v-1h-3l-1-1 1-2h4zm17 38 1-1 1-2h1v-1l1-1v-1l2-2h1l1-1v-1h1a1 1 0 0 0 1 0v-1l1-1v-1l1-1 1-1v-1s1 0 0 0l1-1v-3l-1-2v-2 1l-1-1h-2a5321 5321 0 0 0 1-1h1-1 1l1-1v-1a2 2 0 0 0 0-1v-2l-1-1-1-1a3 3 0 0 1-1 0v-1h-1a5 5 0 0 0-1 0 3 3 0 0 0-1-1h-6v1h-1v-1l-1 1h-1v1l1-1-1 3v4-8a22 22 0 0 1-1 1h-3v1a2 2 0 0 1-1 0v2h1a14 14 0 0 0-1 0l-1 1a2 2 0 0 1 0 1 3 3 0 0 1-1 0l1 1h-1v2c1 0 0 0 0 0l-1 1v2l1 1v-2h1v2-1 2h-1 1l-1-1v1a1 1 0 0 1 0 1v4h1l1 1h1l1-1 1-1v-1h1v-1l1-2 3-2h1l2-1 3-1h2v1h-1a25 25 0 0 0-3 0h-1v1h-2l-2 1v1h-1l-2 2v2l1 1h1v1a1 1 0 0 0 1 0v-2 2h1v-1h1v2h1v1h2l-1 1v2l-1 1v-1 1h1l1 1h-2a2 2 0 0 1-1 1h1-2 1-1l-1 1a4 4 0 0 0-1 0v3h1v2zm-7-27h-1 1v1h-1v-1h1zm1-3h2-2zm6-2v-1l1 1h-1zm1 13v2-1l-1-1h1zm10-4-1-1h1v1h1-1zm-7 6v-2l-1-1 1 1v2zm-1 0v-2 2zm-1 0-1-2a2701 2701 0 0 0 1 2zm2 4v-1 1z"/></g><defs><linearGradient id="A" x1="212.8" x2="213.7" y1="83.7" y2="480" gradientUnits="userSpaceOnUse"><stop stop-color="#4b64fe"/><stop offset="0" stop-color="#abb7ff"/><stop offset="1" stop-color="#0119b1"/></linearGradient></defs></svg>