<svg width="320" height="314" viewBox="0 0 320 314" fill="none" xmlns="http://www.w3.org/2000/svg">
<path d="M168.325 144.571L163.78 143.42L141.966 181.559H147.444L168.325 144.571Z" fill="white"/>
<path d="M161.814 156.101L164.533 151.238L181.842 181.558H174.946L161.814 156.101Z" fill="#FFCC01"/>
<path fill-rule="evenodd" clip-rule="evenodd" d="M37.5705 94.8487C64.7113 134.501 184.688 128.599 191.667 126.335C198.639 124.07 181.752 114.1 177.855 108.173C119.301 93.2687 80.8557 89.14 50.2769 61.9766C36.2715 49.536 24.6889 76.0275 37.5705 94.8487Z" fill="#001BC2"/>
<path fill-rule="evenodd" clip-rule="evenodd" d="M29.6002 219.03C77.4955 222.015 146.719 123.653 149.233 116.751C151.746 109.85 145.021 105.758 137.958 105.189C90.1838 142.244 51.7564 181.346 11.5647 188.761C-6.84536 192.158 6.86402 217.614 29.6002 219.03Z" fill="#FFCC01"/>
<path fill-rule="evenodd" clip-rule="evenodd" d="M119.852 301.126C151.688 265.148 116.946 149.932 113.067 143.703C109.188 137.473 103.502 139.738 98.7048 144.962C98.433 205.494 103.853 260.432 84.9471 296.731C76.2828 313.361 104.747 318.204 119.858 301.132L119.852 301.126Z" fill="#001BC2"/>
<path fill-rule="evenodd" clip-rule="evenodd" d="M241.896 280.815C233.201 233.528 121.194 190.026 113.907 189.251C106.62 188.476 104.01 194.554 105.164 201.558C152.606 239.037 200.042 268.392 216.942 305.672C224.688 322.743 246.022 303.262 241.896 280.815Z" fill="#8495FF"/>
<path fill-rule="evenodd" clip-rule="evenodd" d="M302.41 172.103C259.868 149.855 156.701 211.507 151.601 216.786C146.508 222.065 150.598 227.858 156.815 231.255C215.502 216.877 266.871 197.499 306.598 207.106C324.796 211.501 322.603 182.661 302.41 172.103Z" fill="#0E2FD8"/>
<path fill-rule="evenodd" clip-rule="evenodd" d="M253.959 58.4834C210.269 78.3762 195.243 197.787 196.252 205.064C197.267 212.335 204.01 213.679 210.511 210.864C235.332 155.677 252.056 102.18 284.061 76.7296C298.725 65.0699 274.689 49.0395 253.953 58.4834H253.959Z" fill="#FFE88E"/>
<path fill-rule="evenodd" clip-rule="evenodd" d="M135.19 28.6626C123.94 75.404 208.601 160.787 214.945 164.468C221.289 168.142 228.781 164.589 230.57 157.718C202.45 104.141 168.385 57.067 168.071 16.1251C167.926 -2.62953 140.525 6.47539 135.184 28.6626H135.19Z" fill="#FFCC01"/>
<path fill-rule="evenodd" clip-rule="evenodd" d="M164.151 105.748C159.571 121.966 166.549 123.098 169.353 128.092C178.132 139.498 201.231 130.502 204.596 129.109C205.206 128.897 205.835 128.667 206.384 128.468C211.659 126.573 215.067 122.123 213.925 118.933C213.315 117.22 211.526 116.13 209.194 115.779C211.683 113.666 212.946 110.984 212.185 108.853C211.448 106.795 209.013 105.633 205.968 105.572C208.143 103.526 209.2 101.05 208.487 99.0583C207.551 96.437 203.865 95.2625 199.66 95.9769C201.019 94.3181 201.611 92.4838 201.061 90.9643C200.01 88.0282 195.219 87.0596 190.355 88.8092C188.542 89.463 186.971 90.4013 185.775 91.4728C179.038 92.393 167.202 94.9356 164.151 105.748Z" fill="#001BC2"/>
<path fill-rule="evenodd" clip-rule="evenodd" d="M215.098 132.769C198.791 136.898 201.298 143.521 198.38 148.449C192.906 161.767 212.228 177.319 215.116 179.547C215.606 179.965 216.119 180.401 216.56 180.782C220.838 184.414 226.385 185.147 228.572 182.562C229.744 181.176 229.792 179.081 228.934 176.877C232.004 177.979 234.958 177.737 236.414 176.012C237.828 174.341 237.617 171.653 236.143 168.977C239 169.843 241.671 169.522 243.037 167.912C244.837 165.787 244.009 162.003 241.284 158.71C243.399 159.067 245.278 158.662 246.323 157.421C248.335 155.041 246.783 150.398 242.837 147.05C241.369 145.803 239.774 144.913 238.245 144.405C234.088 139.017 225.968 130.015 215.098 132.769Z" fill="#FFCC01"/>
<path fill-rule="evenodd" clip-rule="evenodd" d="M220.168 184.717C206.658 174.68 203.129 180.812 197.474 181.666C183.716 185.843 183.915 210.676 184.018 214.32C184 214.968 183.988 215.634 183.982 216.221C183.879 221.839 186.822 226.603 190.205 226.664C192.018 226.7 193.673 225.411 194.827 223.352C195.921 226.434 197.975 228.571 200.229 228.607C202.41 228.649 204.356 226.779 205.492 223.946C206.627 226.712 208.567 228.583 210.676 228.619C213.455 228.668 215.854 225.641 216.681 221.439C217.745 223.304 219.249 224.509 220.862 224.533C223.98 224.587 226.578 220.447 226.675 215.271C226.711 213.339 226.391 211.535 225.817 210.034C227.352 203.399 229.176 191.406 220.168 184.711V184.717Z" fill="#FFE88E"/>
<path fill-rule="evenodd" clip-rule="evenodd" d="M182.505 226.01C180.584 209.265 173.702 210.875 169.219 207.328C156.772 200.124 138.815 217.238 136.235 219.811C135.752 220.241 135.256 220.689 134.821 221.082C130.658 224.847 129.196 230.26 131.462 232.772C132.676 234.122 134.743 234.449 137.039 233.886C135.54 236.792 135.389 239.752 136.9 241.429C138.362 243.051 141.051 243.203 143.896 242.095C142.658 244.819 142.622 247.513 144.035 249.081C145.902 251.151 149.745 250.83 153.37 248.566C152.736 250.619 152.887 252.538 153.975 253.742C156.065 256.061 160.862 255.129 164.693 251.66C166.125 250.364 167.219 248.899 167.92 247.452C173.805 244.038 183.786 237.179 182.505 226.01Z" fill="#0E2FD8"/>
<path fill-rule="evenodd" clip-rule="evenodd" d="M129.507 220.326C142.492 209.617 137.404 204.701 137.942 198.999C137.217 184.615 113.115 178.815 109.563 178.034C108.94 177.865 108.294 177.689 107.732 177.538C102.318 176.085 96.9892 177.792 96.1131 181.067C95.6418 182.823 96.4877 184.742 98.2097 186.364C94.9651 186.685 92.3972 188.162 91.8172 190.348C91.2492 192.46 92.5906 194.803 95.0618 196.595C92.1072 197.031 89.8294 198.466 89.2856 200.506C88.5666 203.2 90.923 206.263 94.7899 208.079C92.7235 208.66 91.2009 209.835 90.784 211.397C89.9744 214.412 93.3639 217.947 98.3547 219.279C100.216 219.781 102.04 219.902 103.629 219.709C109.684 222.802 120.861 227.47 129.52 220.326H129.507Z" fill="#8495FF"/>
<path fill-rule="evenodd" clip-rule="evenodd" d="M101.421 172.883C118.17 174.457 118.013 167.374 122.411 163.712C132.018 152.997 119.003 131.863 117.028 128.8C116.708 128.243 116.369 127.662 116.079 127.153C113.264 122.298 108.279 119.749 105.355 121.45C103.784 122.364 103.04 124.32 103.113 126.687C100.587 124.623 97.7234 123.86 95.7779 124.998C93.8867 126.1 93.1919 128.703 93.6873 131.718C91.2826 129.944 88.6603 129.351 86.8356 130.41C84.4309 131.808 83.9475 135.646 85.4158 139.666C83.5427 138.625 81.6335 138.377 80.2377 139.194C77.543 140.762 77.4584 145.659 80.0625 150.133C81.0293 151.804 82.2377 153.178 83.5065 154.165C85.6273 160.637 90.2675 171.842 101.439 172.889L101.421 172.883Z" fill="#001BC2"/>
<path fill-rule="evenodd" clip-rule="evenodd" d="M180.543 107.948C163.74 103.668 148.605 100.284 134.823 96.979C146.098 105.279 156.931 115.268 162.115 127.799C179.51 127.835 192.223 126.8 194.355 126.11C201.328 123.846 184.44 113.875 180.543 107.948Z" fill="#001BC2"/>
<path fill-rule="evenodd" clip-rule="evenodd" d="M124.297 124.084C136.175 136.016 140.574 130.476 146.29 130.464C160.513 128.376 163.981 103.785 164.416 100.165C164.524 99.5294 164.639 98.8696 164.736 98.2884C165.666 92.7492 163.461 87.5974 160.126 87.0344C158.337 86.7317 156.513 87.7608 155.063 89.6254C154.434 86.4169 152.724 84.0014 150.495 83.6261C148.338 83.2629 146.139 84.8187 144.598 87.4581C143.885 84.5523 142.241 82.4153 140.163 82.0703C137.42 81.6102 134.598 84.2496 133.166 88.2815C132.387 86.2777 131.082 84.8671 129.487 84.6007C126.411 84.0801 123.227 87.7971 122.375 92.9005C122.055 94.8074 122.103 96.6357 122.454 98.2036C119.958 104.542 116.381 116.129 124.303 124.09L124.297 124.084Z" fill="#FFCC01"/>
<path d="M53.4089 257.22L7.09064 198.462L22.6006 131.852" stroke="#FFCC01" stroke-width="13.9237" stroke-linejoin="round"/>
<path d="M166.722 305.839L91.4386 305.476L53.41 257.221" stroke="#1A2EAD" stroke-width="13.9237" stroke-linejoin="round"/>
<path d="M273.477 248.967L227.534 306.127L166.72 305.836" stroke="#001BC2" stroke-width="13.9237" stroke-linejoin="round"/>
<path d="M297.685 131.608L312.904 199.919L273.48 248.967" stroke="#001BC2" stroke-width="13.9237" stroke-linejoin="round"/>
<path d="M220.46 36.1633L283.249 66.8379L297.683 131.608" stroke="#2508BD" stroke-width="13.9237" stroke-linejoin="round"/>
<path d="M96.0125 38.0164L160.91 7.08142L220.46 36.1639" stroke="#FFCC01" stroke-width="13.9237" stroke-linejoin="round"/>
<path d="M22.603 131.852L38.0102 65.6592L96.0138 38.0176" stroke="#FFCC01" stroke-width="13.9237" stroke-linejoin="round"/>
</svg>
