<svg width="430" height="117" viewBox="0 0 430 117" fill="none" xmlns="http://www.w3.org/2000/svg">
<path d="M30.9357 30.1278H37.8767V53.9109C37.8767 58.6063 36.9326 62.0598 35.0442 64.2714C32.5094 67.2655 28.6901 68.7626 23.5864 68.7626C20.8645 68.7626 18.5763 68.4224 16.722 67.7419C14.8676 67.0614 13.3025 66.0577 12.0266 64.7307C10.7507 63.4208 9.8065 61.8216 9.19406 59.9333H16.8751C17.5556 60.7158 18.4317 61.3027 19.5035 61.694C20.5753 62.1023 21.8427 62.3065 23.3057 62.3065C25.1771 62.3065 26.6827 62.0173 27.8225 61.4388C28.9623 60.8604 29.7619 60.1119 30.2212 59.1932C30.6976 58.2746 30.9357 56.6924 30.9357 54.4468C29.7109 55.6717 28.4264 56.5563 27.0825 57.1007C25.7385 57.6281 24.2159 57.8918 22.5147 57.8918C18.789 57.8918 15.6417 56.5478 13.0729 53.8599C10.504 51.1719 9.21957 47.7695 9.21957 43.6525C9.21957 39.2463 10.5806 35.7078 13.3025 33.0369C15.7693 30.6211 18.7124 29.4132 22.1319 29.4132C23.731 29.4132 25.2366 29.711 26.6486 30.3064C28.0777 30.8848 29.5067 31.846 30.9357 33.19V30.1278ZM23.714 35.9204C21.5194 35.9204 19.7076 36.6605 18.2786 38.1405C16.8496 39.6036 16.1351 41.4494 16.1351 43.678C16.1351 45.9917 16.8666 47.8886 18.3296 49.3686C19.7927 50.8487 21.63 51.5887 23.8416 51.5887C26.0022 51.5887 27.78 50.8657 29.175 49.4197C30.587 47.9736 31.293 46.0768 31.293 43.7291C31.293 41.4154 30.587 39.5355 29.175 38.0895C27.763 36.6435 25.9426 35.9204 23.714 35.9204ZM47.6503 18.6955C48.8752 18.6955 49.9214 19.1378 50.7891 20.0225C51.6737 20.9071 52.116 21.9789 52.116 23.2378C52.116 24.4797 51.6822 25.543 50.8146 26.4276C49.947 27.2952 48.9092 27.729 47.7013 27.729C46.4594 27.729 45.3962 27.2867 44.5115 26.4021C43.6439 25.5004 43.2101 24.4116 43.2101 23.1357C43.2101 21.9108 43.6439 20.8646 44.5115 19.997C45.3792 19.1293 46.4254 18.6955 47.6503 18.6955ZM44.1543 30.1278H51.1463V57.8918H44.1543V30.1278ZM54.4892 30.1278H61.5833L68.6009 46.5106L75.5929 30.1278H82.6615L70.8465 57.8918H66.3298L54.4892 30.1278ZM114.585 46.0257H92.2054C92.5287 47.9991 93.3878 49.5728 94.7828 50.7466C96.1948 51.9035 97.9896 52.4819 100.167 52.4819C102.77 52.4819 105.007 51.5717 106.879 49.7514L112.748 52.5074C111.285 54.5829 109.532 56.1225 107.491 57.1262C105.449 58.1129 103.025 58.6063 100.218 58.6063C95.8631 58.6063 92.316 57.2368 89.577 54.4978C86.8381 51.7418 85.4686 48.2969 85.4686 44.1629C85.4686 39.9268 86.8296 36.4138 89.5515 33.6238C92.2905 30.8168 95.7185 29.4132 99.8354 29.4132C104.208 29.4132 107.763 30.8168 110.502 33.6238C113.241 36.4138 114.611 40.1055 114.611 44.6988L114.585 46.0257ZM107.593 40.5393C107.134 38.9912 106.224 37.7322 104.863 36.7625C103.519 35.7928 101.953 35.308 100.167 35.308C98.2278 35.308 96.5266 35.8524 95.0635 36.9412C94.1448 37.6217 93.2942 38.821 92.5117 40.5393H107.593ZM159.778 19.8949H166.719V30.1278H170.853V36.1246H166.719V57.8918H159.778V36.1246H156.206V30.1278H159.778V19.8949ZM195.121 30.1278H202.062V57.8918H195.121V54.9572C193.76 56.2501 192.391 57.1858 191.013 57.7642C189.652 58.3256 188.172 58.6063 186.572 58.6063C182.983 58.6063 179.878 57.2198 177.258 54.4468C174.638 51.6568 173.328 48.1948 173.328 44.0608C173.328 39.7737 174.596 36.2607 177.131 33.5217C179.666 30.7827 182.745 29.4132 186.368 29.4132C188.036 29.4132 189.601 29.728 191.064 30.3574C192.527 30.9869 193.879 31.9311 195.121 33.19V30.1278ZM187.797 35.8439C185.637 35.8439 183.842 36.6094 182.413 38.1405C180.984 39.6546 180.269 41.6025 180.269 43.9843C180.269 46.383 180.992 48.3564 182.439 49.9045C183.902 51.4526 185.696 52.2267 187.823 52.2267C190.017 52.2267 191.838 51.4697 193.284 49.9556C194.73 48.4245 195.453 46.4255 195.453 43.9587C195.453 41.543 194.73 39.5866 193.284 38.0895C191.838 36.5924 190.009 35.8439 187.797 35.8439ZM209.156 19.41H216.123V41.5855L226.381 30.1278H235.109L223.166 43.4484L236.563 57.8918H227.912L216.123 45.1071V57.8918H209.156V19.41ZM267.236 46.0257H244.857C245.18 47.9991 246.039 49.5728 247.434 50.7466C248.846 51.9035 250.641 52.4819 252.818 52.4819C255.421 52.4819 257.658 51.5717 259.53 49.7514L265.399 52.5074C263.936 54.5829 262.184 56.1225 260.142 57.1262C258.101 58.1129 255.676 58.6063 252.869 58.6063C248.514 58.6063 244.967 57.2368 242.228 54.4978C239.489 51.7418 238.12 48.2969 238.12 44.1629C238.12 39.9268 239.481 36.4138 242.203 33.6238C244.942 30.8168 248.37 29.4132 252.487 29.4132C256.859 29.4132 260.414 30.8168 263.153 33.6238C265.892 36.4138 267.262 40.1055 267.262 44.6988L267.236 46.0257ZM260.244 40.5393C259.785 38.9912 258.875 37.7322 257.514 36.7625C256.17 35.7928 254.605 35.308 252.818 35.308C250.879 35.308 249.178 35.8524 247.715 36.9412C246.796 37.6217 245.945 38.821 245.163 40.5393H260.244ZM276.704 50.619C277.809 50.619 278.753 51.0103 279.536 51.7929C280.319 52.5584 280.71 53.4941 280.71 54.5999C280.71 55.7057 280.319 56.6499 279.536 57.4325C278.753 58.215 277.809 58.6063 276.704 58.6063C275.598 58.6063 274.654 58.215 273.871 57.4325C273.088 56.6499 272.697 55.7057 272.697 54.5999C272.697 53.4941 273.088 52.5584 273.871 51.7929C274.654 51.0103 275.598 50.619 276.704 50.619Z" fill="#FFCC01"/>
<path d="M121.041 20.3542H127.88L143.982 45.056V20.3542H151.127V57.8918H144.263L128.186 33.2665V57.8918H121.041V20.3542Z" fill="white"/>
<path d="M284.461 30.1278H291.275L296.863 45.9237L302.885 30.1278H307.045L312.94 45.745L318.528 30.1278H325.393L315.262 57.8918H310.847L304.927 42.0704L298.828 57.8918H294.464L284.461 30.1278ZM342.388 29.4132C345.008 29.4132 347.466 30.0682 349.763 31.3782C352.076 32.6881 353.88 34.4659 355.173 36.7115C356.466 38.9571 357.112 41.3814 357.112 43.9843C357.112 46.6041 356.457 49.0539 355.147 51.3336C353.854 53.6132 352.085 55.3995 349.839 56.6924C347.594 57.9683 345.118 58.6063 342.413 58.6063C338.433 58.6063 335.03 57.1943 332.206 54.3702C329.399 51.5292 327.996 48.0842 327.996 44.0353C327.996 39.6972 329.586 36.0821 332.767 33.19C335.557 30.6722 338.764 29.4132 342.388 29.4132ZM342.49 35.9715C340.329 35.9715 338.526 36.7285 337.08 38.2426C335.651 39.7397 334.937 41.6621 334.937 44.0098C334.937 46.4255 335.643 48.3819 337.055 49.879C338.484 51.3761 340.287 52.1246 342.464 52.1246C344.642 52.1246 346.454 51.3676 347.9 49.8535C349.346 48.3394 350.069 46.3915 350.069 44.0098C350.069 41.6281 349.354 39.6972 347.925 38.2171C346.513 36.72 344.702 35.9715 342.49 35.9715ZM361.195 30.1278H367.166V33.6238C367.813 32.2458 368.672 31.1995 369.744 30.485C370.815 29.7705 371.989 29.4132 373.265 29.4132C374.167 29.4132 375.111 29.6514 376.098 30.1278L373.929 36.1246C373.112 35.7163 372.44 35.5121 371.913 35.5121C370.841 35.5121 369.931 36.1756 369.182 37.5026C368.451 38.8295 368.085 41.4324 368.085 45.3112L368.11 46.6637V57.8918H361.195V30.1278ZM378.828 19.41H385.795V57.8918H378.828V19.41ZM412.64 19.41H419.581V57.8918H412.64V54.9572C411.279 56.2501 409.91 57.1858 408.532 57.7642C407.171 58.3256 405.691 58.6063 404.091 58.6063C400.502 58.6063 397.397 57.2198 394.777 54.4468C392.157 51.6568 390.847 48.1948 390.847 44.0608C390.847 39.7737 392.115 36.2607 394.65 33.5217C397.184 30.7827 400.264 29.4132 403.887 29.4132C405.554 29.4132 407.12 29.728 408.583 30.3574C410.046 30.9869 411.398 31.9311 412.64 33.19V19.41ZM405.316 35.8439C403.156 35.8439 401.361 36.6094 399.932 38.1405C398.503 39.6546 397.788 41.6025 397.788 43.9843C397.788 46.383 398.511 48.3564 399.957 49.9045C401.42 51.4526 403.215 52.2267 405.342 52.2267C407.536 52.2267 409.357 51.4697 410.803 49.9556C412.249 48.4245 412.972 46.4255 412.972 43.9587C412.972 41.543 412.249 39.5866 410.803 38.0895C409.357 36.5924 407.528 35.8439 405.316 35.8439Z" fill="#44C7F4"/>
<path d="M109.258 71.2098C110.26 71.2098 111.201 71.4605 112.08 71.9618C112.965 72.4631 113.656 73.1434 114.15 74.0028C114.645 74.8622 114.893 75.7899 114.893 76.786C114.893 77.7886 114.642 78.7261 114.141 79.5985C113.646 80.4709 112.969 81.1545 112.109 81.6493C111.25 82.1375 110.303 82.3817 109.268 82.3817C107.744 82.3817 106.442 81.8413 105.361 80.7606C104.287 79.6734 103.75 78.355 103.75 76.8055C103.75 75.1454 104.359 73.7619 105.576 72.6551C106.644 71.6916 107.871 71.2098 109.258 71.2098ZM109.297 73.7196C108.47 73.7196 107.78 74.0093 107.227 74.5887C106.68 75.1616 106.406 75.8973 106.406 76.7957C106.406 77.7202 106.676 78.4689 107.217 79.0418C107.764 79.6148 108.454 79.9012 109.287 79.9012C110.12 79.9012 110.814 79.6115 111.367 79.0321C111.921 78.4526 112.197 77.7072 112.197 76.7957C112.197 75.8843 111.924 75.1454 111.377 74.5789C110.837 74.006 110.143 73.7196 109.297 73.7196ZM117.08 71.4832H119.736V72.5672C120.342 72.0594 120.889 71.7079 121.377 71.5125C121.872 71.3107 122.376 71.2098 122.891 71.2098C123.945 71.2098 124.84 71.5776 125.576 72.3133C126.195 72.9383 126.504 73.8628 126.504 75.0868V82.1082H123.867V77.45C123.867 76.1805 123.809 75.3374 123.691 74.9207C123.581 74.5041 123.382 74.1883 123.096 73.9735C122.816 73.7521 122.467 73.6414 122.051 73.6414C121.51 73.6414 121.045 73.8237 120.654 74.1883C120.27 74.5464 120.003 75.0444 119.854 75.6825C119.775 76.0145 119.736 76.7339 119.736 77.8407V82.1082H117.08V71.4832ZM128.809 67.3817H131.475V82.1082H128.809V67.3817ZM134.941 67.1082C135.41 67.1082 135.811 67.2775 136.143 67.6161C136.481 67.9546 136.65 68.3648 136.65 68.8465C136.65 69.3218 136.484 69.7287 136.152 70.0672C135.82 70.3993 135.423 70.5653 134.961 70.5653C134.486 70.5653 134.079 70.396 133.74 70.0575C133.408 69.7124 133.242 69.2957 133.242 68.8075C133.242 68.3387 133.408 67.9383 133.74 67.6063C134.072 67.2743 134.473 67.1082 134.941 67.1082ZM133.604 71.4832H136.279V82.1082H133.604V71.4832ZM138.701 71.4832H141.357V72.5672C141.963 72.0594 142.51 71.7079 142.998 71.5125C143.493 71.3107 143.997 71.2098 144.512 71.2098C145.566 71.2098 146.462 71.5776 147.197 72.3133C147.816 72.9383 148.125 73.8628 148.125 75.0868V82.1082H145.488V77.45C145.488 76.1805 145.43 75.3374 145.312 74.9207C145.202 74.5041 145.003 74.1883 144.717 73.9735C144.437 73.7521 144.089 73.6414 143.672 73.6414C143.132 73.6414 142.666 73.8237 142.275 74.1883C141.891 74.5464 141.624 75.0444 141.475 75.6825C141.396 76.0145 141.357 76.7339 141.357 77.8407V82.1082H138.701V71.4832ZM161.357 77.5672H152.793C152.917 78.3224 153.245 78.9247 153.779 79.3739C154.32 79.8166 155.007 80.0379 155.84 80.0379C156.836 80.0379 157.692 79.6896 158.408 78.993L160.654 80.0477C160.094 80.842 159.424 81.4312 158.643 81.8153C157.861 82.1929 156.934 82.3817 155.859 82.3817C154.193 82.3817 152.835 81.8576 151.787 80.8094C150.739 79.7547 150.215 78.4364 150.215 76.8543C150.215 75.2332 150.736 73.8888 151.777 72.8211C152.826 71.7469 154.137 71.2098 155.713 71.2098C157.386 71.2098 158.747 71.7469 159.795 72.8211C160.843 73.8888 161.367 75.3016 161.367 77.0594L161.357 77.5672ZM158.682 75.4676C158.506 74.8752 158.158 74.3934 157.637 74.0223C157.122 73.6512 156.523 73.4657 155.84 73.4657C155.098 73.4657 154.447 73.674 153.887 74.0907C153.535 74.3511 153.21 74.8101 152.91 75.4676H158.682ZM169.141 67.3817H171.787V72.5575C172.308 72.1082 172.832 71.773 173.359 71.5516C173.887 71.3237 174.421 71.2098 174.961 71.2098C176.016 71.2098 176.904 71.5744 177.627 72.3036C178.245 72.9351 178.555 73.8628 178.555 75.0868V82.1082H175.928V77.45C175.928 76.2196 175.869 75.3862 175.752 74.95C175.635 74.5138 175.433 74.1883 175.146 73.9735C174.867 73.7586 174.518 73.6512 174.102 73.6512C173.561 73.6512 173.096 73.8303 172.705 74.1883C172.321 74.5464 172.054 75.0347 171.904 75.6532C171.826 75.9722 171.787 76.7013 171.787 77.8407V82.1082H169.141V67.3817ZM191.787 77.5672H183.223C183.346 78.3224 183.675 78.9247 184.209 79.3739C184.749 79.8166 185.436 80.0379 186.27 80.0379C187.266 80.0379 188.122 79.6896 188.838 78.993L191.084 80.0477C190.524 80.842 189.854 81.4312 189.072 81.8153C188.291 82.1929 187.363 82.3817 186.289 82.3817C184.622 82.3817 183.265 81.8576 182.217 80.8094C181.169 79.7547 180.645 78.4364 180.645 76.8543C180.645 75.2332 181.165 73.8888 182.207 72.8211C183.255 71.7469 184.567 71.2098 186.143 71.2098C187.816 71.2098 189.176 71.7469 190.225 72.8211C191.273 73.8888 191.797 75.3016 191.797 77.0594L191.787 77.5672ZM189.111 75.4676C188.936 74.8752 188.587 74.3934 188.066 74.0223C187.552 73.6512 186.953 73.4657 186.27 73.4657C185.527 73.4657 184.876 73.674 184.316 74.0907C183.965 74.3511 183.639 74.8101 183.34 75.4676H189.111ZM193.672 67.3817H196.338V82.1082H193.672V67.3817ZM201.406 71.4832V72.6551C201.888 72.1734 202.409 71.812 202.969 71.5711C203.529 71.3303 204.128 71.2098 204.766 71.2098C206.152 71.2098 207.331 71.7339 208.301 72.7821C209.271 73.8303 209.756 75.1747 209.756 76.8153C209.756 78.3973 209.255 79.7222 208.252 80.7899C207.249 81.8511 206.061 82.3817 204.688 82.3817C204.076 82.3817 203.506 82.2743 202.979 82.0594C202.451 81.8381 201.927 81.48 201.406 80.9852V85.995H198.76V71.4832H201.406ZM204.209 73.6707C203.369 73.6707 202.673 73.9572 202.119 74.5301C201.566 75.103 201.289 75.8517 201.289 76.7762C201.289 77.7202 201.566 78.4852 202.119 79.0711C202.673 79.6506 203.369 79.9403 204.209 79.9403C205.023 79.9403 205.706 79.6441 206.26 79.0516C206.82 78.4592 207.1 77.7039 207.1 76.786C207.1 75.8745 206.826 75.1291 206.279 74.5497C205.732 73.9637 205.042 73.6707 204.209 73.6707ZM213.008 67.1082C213.477 67.1082 213.877 67.2775 214.209 67.6161C214.548 67.9546 214.717 68.3648 214.717 68.8465C214.717 69.3218 214.551 69.7287 214.219 70.0672C213.887 70.3993 213.49 70.5653 213.027 70.5653C212.552 70.5653 212.145 70.396 211.807 70.0575C211.475 69.7124 211.309 69.2957 211.309 68.8075C211.309 68.3387 211.475 67.9383 211.807 67.6063C212.139 67.2743 212.539 67.1082 213.008 67.1082ZM211.67 71.4832H214.346V82.1082H211.67V71.4832ZM216.768 71.4832H219.424V72.5672C220.029 72.0594 220.576 71.7079 221.064 71.5125C221.559 71.3107 222.064 71.2098 222.578 71.2098C223.633 71.2098 224.528 71.5776 225.264 72.3133C225.882 72.9383 226.191 73.8628 226.191 75.0868V82.1082H223.555V77.45C223.555 76.1805 223.496 75.3374 223.379 74.9207C223.268 74.5041 223.07 74.1883 222.783 73.9735C222.503 73.7521 222.155 73.6414 221.738 73.6414C221.198 73.6414 220.732 73.8237 220.342 74.1883C219.958 74.5464 219.691 75.0444 219.541 75.6825C219.463 76.0145 219.424 76.7339 219.424 77.8407V82.1082H216.768V71.4832ZM236.631 71.4832H239.287V80.5848C239.287 82.3817 238.926 83.7033 238.203 84.5497C237.233 85.6955 235.771 86.2684 233.818 86.2684C232.777 86.2684 231.901 86.1382 231.191 85.8778C230.482 85.6174 229.883 85.2332 229.395 84.7254C228.906 84.2241 228.545 83.6122 228.311 82.8895H231.25C231.51 83.189 231.846 83.4136 232.256 83.5633C232.666 83.7196 233.151 83.7977 233.711 83.7977C234.427 83.7977 235.003 83.687 235.439 83.4657C235.876 83.2443 236.182 82.9579 236.357 82.6063C236.54 82.2547 236.631 81.6493 236.631 80.7899C236.162 81.2586 235.671 81.5972 235.156 81.8055C234.642 82.0073 234.059 82.1082 233.408 82.1082C231.982 82.1082 230.778 81.5939 229.795 80.5653C228.812 79.5366 228.32 78.2345 228.32 76.659C228.32 74.9728 228.841 73.6187 229.883 72.5965C230.827 71.672 231.953 71.2098 233.262 71.2098C233.874 71.2098 234.45 71.3237 234.99 71.5516C235.537 71.773 236.084 72.1408 236.631 72.6551V71.4832ZM233.867 73.7C233.027 73.7 232.334 73.9832 231.787 74.5497C231.24 75.1095 230.967 75.8159 230.967 76.6688C230.967 77.5542 231.247 78.2801 231.807 78.8465C232.367 79.4129 233.07 79.6961 233.916 79.6961C234.743 79.6961 235.423 79.4194 235.957 78.8661C236.497 78.3127 236.768 77.5868 236.768 76.6883C236.768 75.8029 236.497 75.0835 235.957 74.5301C235.417 73.9767 234.72 73.7 233.867 73.7ZM250.234 71.4832V72.6551C250.716 72.1734 251.237 71.812 251.797 71.5711C252.357 71.3303 252.956 71.2098 253.594 71.2098C254.98 71.2098 256.159 71.7339 257.129 72.7821C258.099 73.8303 258.584 75.1747 258.584 76.8153C258.584 78.3973 258.083 79.7222 257.08 80.7899C256.077 81.8511 254.889 82.3817 253.516 82.3817C252.904 82.3817 252.334 82.2743 251.807 82.0594C251.279 81.8381 250.755 81.48 250.234 80.9852V85.995H247.588V71.4832H250.234ZM253.037 73.6707C252.197 73.6707 251.501 73.9572 250.947 74.5301C250.394 75.103 250.117 75.8517 250.117 76.7762C250.117 77.7202 250.394 78.4852 250.947 79.0711C251.501 79.6506 252.197 79.9403 253.037 79.9403C253.851 79.9403 254.535 79.6441 255.088 79.0516C255.648 78.4592 255.928 77.7039 255.928 76.786C255.928 75.8745 255.654 75.1291 255.107 74.5497C254.561 73.9637 253.87 73.6707 253.037 73.6707ZM260.508 67.3817H263.174V82.1082H260.508V67.3817ZM273.447 71.4832H276.104V82.1082H273.447V80.9852C272.926 81.48 272.402 81.8381 271.875 82.0594C271.354 82.2743 270.788 82.3817 270.176 82.3817C268.802 82.3817 267.614 81.8511 266.611 80.7899C265.609 79.7222 265.107 78.3973 265.107 76.8153C265.107 75.1747 265.592 73.8303 266.562 72.7821C267.533 71.7339 268.711 71.2098 270.098 71.2098C270.736 71.2098 271.335 71.3303 271.895 71.5711C272.454 71.812 272.972 72.1734 273.447 72.6551V71.4832ZM270.645 73.6707C269.818 73.6707 269.131 73.9637 268.584 74.5497C268.037 75.1291 267.764 75.8745 267.764 76.786C267.764 77.7039 268.04 78.4592 268.594 79.0516C269.154 79.6441 269.84 79.9403 270.654 79.9403C271.494 79.9403 272.191 79.6506 272.744 79.0711C273.298 78.4852 273.574 77.7202 273.574 76.7762C273.574 75.8517 273.298 75.103 272.744 74.5301C272.191 73.9572 271.491 73.6707 270.645 73.6707ZM279.121 67.5672H281.777V71.4832H283.359V73.7782H281.777V82.1082H279.121V73.7782H277.754V71.4832H279.121V67.5672ZM283.525 71.4832H284.473C284.479 70.09 284.502 69.2664 284.541 69.0125C284.613 68.4266 284.857 67.9644 285.273 67.6258C285.697 67.2808 286.292 67.1082 287.061 67.1082C287.614 67.1082 288.239 67.2352 288.936 67.4891V69.5204C288.551 69.4097 288.236 69.3543 287.988 69.3543C287.676 69.3543 287.448 69.4194 287.305 69.5497C287.201 69.6473 287.148 69.8491 287.148 70.1551L287.139 71.4832H288.828V73.7489H287.139V82.1082H284.473V73.7489H283.525V71.4832ZM295.391 71.2098C296.393 71.2098 297.334 71.4605 298.213 71.9618C299.098 72.4631 299.788 73.1434 300.283 74.0028C300.778 74.8622 301.025 75.7899 301.025 76.786C301.025 77.7886 300.775 78.7261 300.273 79.5985C299.779 80.4709 299.102 81.1545 298.242 81.6493C297.383 82.1375 296.436 82.3817 295.4 82.3817C293.877 82.3817 292.575 81.8413 291.494 80.7606C290.42 79.6734 289.883 78.355 289.883 76.8055C289.883 75.1454 290.492 73.7619 291.709 72.6551C292.777 71.6916 294.004 71.2098 295.391 71.2098ZM295.43 73.7196C294.603 73.7196 293.913 74.0093 293.359 74.5887C292.812 75.1616 292.539 75.8973 292.539 76.7957C292.539 77.7202 292.809 78.4689 293.35 79.0418C293.896 79.6148 294.587 79.9012 295.42 79.9012C296.253 79.9012 296.947 79.6115 297.5 79.0321C298.053 78.4526 298.33 77.7072 298.33 76.7957C298.33 75.8843 298.057 75.1454 297.51 74.5789C296.969 74.006 296.276 73.7196 295.43 73.7196ZM302.588 71.4832H304.873V72.8211C305.12 72.2938 305.449 71.8934 305.859 71.62C306.27 71.3465 306.719 71.2098 307.207 71.2098C307.552 71.2098 307.913 71.301 308.291 71.4832L307.461 73.7782C307.148 73.6219 306.891 73.5438 306.689 73.5438C306.279 73.5438 305.931 73.7977 305.645 74.3055C305.365 74.8133 305.225 75.8094 305.225 77.2938L305.234 77.8114V82.1082H302.588V71.4832ZM309.6 71.4832H312.275V72.7039C312.731 72.2026 313.236 71.8283 313.789 71.5809C314.349 71.3335 314.958 71.2098 315.615 71.2098C316.279 71.2098 316.878 71.3726 317.412 71.6981C317.946 72.0236 318.376 72.4989 318.701 73.1239C319.124 72.4989 319.642 72.0236 320.254 71.6981C320.872 71.3726 321.546 71.2098 322.275 71.2098C323.031 71.2098 323.695 71.3856 324.268 71.7372C324.84 72.0887 325.251 72.5477 325.498 73.1141C325.752 73.6805 325.879 74.6017 325.879 75.8778V82.1082H323.193V76.7176C323.193 75.5132 323.044 74.6994 322.744 74.2762C322.445 73.8465 321.995 73.6317 321.396 73.6317C320.941 73.6317 320.531 73.7619 320.166 74.0223C319.808 74.2827 319.541 74.6441 319.365 75.1063C319.189 75.562 319.102 76.2977 319.102 77.3133V82.1082H316.416V76.9618C316.416 76.0112 316.344 75.3244 316.201 74.9012C316.064 74.4715 315.856 74.1525 315.576 73.9442C315.296 73.7359 314.958 73.6317 314.561 73.6317C314.118 73.6317 313.714 73.7651 313.35 74.0321C312.992 74.2925 312.721 74.6603 312.539 75.1356C312.363 75.6109 312.275 76.3595 312.275 77.3817V82.1082H309.6V71.4832Z" fill="white"/>
<path d="M62.0703 109.132C62.0703 108.929 62.0391 108.746 61.9766 108.585C61.9193 108.418 61.8099 108.267 61.6484 108.132C61.487 107.991 61.2604 107.853 60.9688 107.718C60.6771 107.582 60.2995 107.442 59.8359 107.296C59.3203 107.129 58.8307 106.942 58.3672 106.733C57.9089 106.525 57.5026 106.283 57.1484 106.007C56.7995 105.725 56.5234 105.4 56.3203 105.03C56.1224 104.66 56.0234 104.231 56.0234 103.741C56.0234 103.267 56.1276 102.837 56.3359 102.452C56.5443 102.061 56.8359 101.728 57.2109 101.452C57.5859 101.171 58.0286 100.955 58.5391 100.804C59.0547 100.653 59.6198 100.577 60.2344 100.577C61.0729 100.577 61.8047 100.728 62.4297 101.03C63.0547 101.332 63.5391 101.746 63.8828 102.272C64.2318 102.798 64.4062 103.4 64.4062 104.077H62.0781C62.0781 103.744 62.0078 103.452 61.8672 103.202C61.7318 102.947 61.5234 102.746 61.2422 102.6C60.9661 102.455 60.6172 102.382 60.1953 102.382C59.7891 102.382 59.4505 102.444 59.1797 102.569C58.9089 102.689 58.7057 102.853 58.5703 103.061C58.4349 103.264 58.3672 103.494 58.3672 103.749C58.3672 103.942 58.4141 104.116 58.5078 104.272C58.6068 104.429 58.7526 104.574 58.9453 104.71C59.138 104.845 59.375 104.973 59.6562 105.093C59.9375 105.212 60.263 105.33 60.6328 105.444C61.2526 105.632 61.7969 105.843 62.2656 106.077C62.7396 106.311 63.1354 106.574 63.4531 106.866C63.7708 107.158 64.0104 107.488 64.1719 107.858C64.3333 108.228 64.4141 108.647 64.4141 109.116C64.4141 109.611 64.3177 110.054 64.125 110.444C63.9323 110.835 63.6536 111.166 63.2891 111.436C62.9245 111.707 62.4896 111.913 61.9844 112.054C61.4792 112.194 60.9141 112.264 60.2891 112.264C59.7266 112.264 59.1719 112.192 58.625 112.046C58.0781 111.895 57.5807 111.668 57.1328 111.366C56.6901 111.064 56.3359 110.679 56.0703 110.21C55.8047 109.741 55.6719 109.186 55.6719 108.546H58.0234C58.0234 108.9 58.0781 109.199 58.1875 109.444C58.2969 109.689 58.4505 109.887 58.6484 110.038C58.8516 110.189 59.0911 110.298 59.3672 110.366C59.6484 110.434 59.9557 110.468 60.2891 110.468C60.6953 110.468 61.0286 110.41 61.2891 110.296C61.5547 110.181 61.75 110.022 61.875 109.819C62.0052 109.616 62.0703 109.387 62.0703 109.132ZM70.4297 110.202V106.436C70.4297 106.166 70.3854 105.934 70.2969 105.741C70.2083 105.543 70.0703 105.389 69.8828 105.28C69.7005 105.171 69.4635 105.116 69.1719 105.116C68.9219 105.116 68.7057 105.16 68.5234 105.249C68.3411 105.332 68.2005 105.455 68.1016 105.616C68.0026 105.772 67.9531 105.957 67.9531 106.171H65.7031C65.7031 105.811 65.7865 105.47 65.9531 105.147C66.1198 104.824 66.362 104.541 66.6797 104.296C66.9974 104.046 67.375 103.85 67.8125 103.71C68.2552 103.569 68.75 103.499 69.2969 103.499C69.9531 103.499 70.5365 103.608 71.0469 103.827C71.5573 104.046 71.9583 104.374 72.25 104.811C72.5469 105.249 72.6953 105.796 72.6953 106.452V110.069C72.6953 110.533 72.724 110.913 72.7812 111.21C72.8385 111.501 72.9219 111.757 73.0312 111.975V112.108H70.7578C70.6484 111.879 70.5651 111.593 70.5078 111.249C70.4557 110.9 70.4297 110.551 70.4297 110.202ZM70.7266 106.96L70.7422 108.233H69.4844C69.1875 108.233 68.9297 108.267 68.7109 108.335C68.4922 108.403 68.3125 108.499 68.1719 108.624C68.0312 108.744 67.9271 108.884 67.8594 109.046C67.7969 109.207 67.7656 109.384 67.7656 109.577C67.7656 109.77 67.8099 109.944 67.8984 110.1C67.987 110.251 68.1146 110.371 68.2812 110.46C68.4479 110.543 68.6432 110.585 68.8672 110.585C69.2057 110.585 69.5 110.517 69.75 110.382C70 110.246 70.1927 110.08 70.3281 109.882C70.4688 109.684 70.5417 109.496 70.5469 109.319L71.1406 110.272C71.0573 110.486 70.9427 110.707 70.7969 110.936C70.6562 111.166 70.4766 111.382 70.2578 111.585C70.0391 111.783 69.776 111.947 69.4688 112.077C69.1615 112.202 68.7969 112.264 68.375 112.264C67.8385 112.264 67.3516 112.158 66.9141 111.944C66.4818 111.725 66.138 111.426 65.8828 111.046C65.6328 110.66 65.5078 110.223 65.5078 109.733C65.5078 109.291 65.5911 108.897 65.7578 108.554C65.9245 108.21 66.1693 107.921 66.4922 107.686C66.8203 107.447 67.2292 107.267 67.7188 107.147C68.2083 107.022 68.776 106.96 69.4219 106.96H70.7266ZM76.625 100.108V112.108H74.375V100.108H76.625ZM76.3047 107.585H75.6875C75.6927 106.996 75.7708 106.455 75.9219 105.96C76.0729 105.46 76.2891 105.028 76.5703 104.663C76.8516 104.293 77.1875 104.007 77.5781 103.804C77.974 103.6 78.4115 103.499 78.8906 103.499C79.3073 103.499 79.6849 103.559 80.0234 103.679C80.3672 103.793 80.6615 103.981 80.9062 104.241C81.1562 104.496 81.349 104.832 81.4844 105.249C81.6198 105.666 81.6875 106.171 81.6875 106.764V112.108H79.4219V106.749C79.4219 106.374 79.3672 106.08 79.2578 105.866C79.1536 105.647 79 105.494 78.7969 105.405C78.599 105.311 78.3542 105.264 78.0625 105.264C77.7396 105.264 77.4635 105.324 77.2344 105.444C77.0104 105.564 76.8307 105.731 76.6953 105.944C76.5599 106.153 76.4609 106.397 76.3984 106.679C76.3359 106.96 76.3047 107.262 76.3047 107.585ZM87.9609 110.202V106.436C87.9609 106.166 87.9167 105.934 87.8281 105.741C87.7396 105.543 87.6016 105.389 87.4141 105.28C87.2318 105.171 86.9948 105.116 86.7031 105.116C86.4531 105.116 86.237 105.16 86.0547 105.249C85.8724 105.332 85.7318 105.455 85.6328 105.616C85.5339 105.772 85.4844 105.957 85.4844 106.171H83.2344C83.2344 105.811 83.3177 105.47 83.4844 105.147C83.651 104.824 83.8932 104.541 84.2109 104.296C84.5286 104.046 84.9062 103.85 85.3438 103.71C85.7865 103.569 86.2812 103.499 86.8281 103.499C87.4844 103.499 88.0677 103.608 88.5781 103.827C89.0885 104.046 89.4896 104.374 89.7812 104.811C90.0781 105.249 90.2266 105.796 90.2266 106.452V110.069C90.2266 110.533 90.2552 110.913 90.3125 111.21C90.3698 111.501 90.4531 111.757 90.5625 111.975V112.108H88.2891C88.1797 111.879 88.0964 111.593 88.0391 111.249C87.987 110.9 87.9609 110.551 87.9609 110.202ZM88.2578 106.96L88.2734 108.233H87.0156C86.7188 108.233 86.4609 108.267 86.2422 108.335C86.0234 108.403 85.8438 108.499 85.7031 108.624C85.5625 108.744 85.4583 108.884 85.3906 109.046C85.3281 109.207 85.2969 109.384 85.2969 109.577C85.2969 109.77 85.3411 109.944 85.4297 110.1C85.5182 110.251 85.6458 110.371 85.8125 110.46C85.9792 110.543 86.1745 110.585 86.3984 110.585C86.737 110.585 87.0312 110.517 87.2812 110.382C87.5312 110.246 87.724 110.08 87.8594 109.882C88 109.684 88.0729 109.496 88.0781 109.319L88.6719 110.272C88.5885 110.486 88.474 110.707 88.3281 110.936C88.1875 111.166 88.0078 111.382 87.7891 111.585C87.5703 111.783 87.3073 111.947 87 112.077C86.6927 112.202 86.3281 112.264 85.9062 112.264C85.3698 112.264 84.8828 112.158 84.4453 111.944C84.013 111.725 83.6693 111.426 83.4141 111.046C83.1641 110.66 83.0391 110.223 83.0391 109.733C83.0391 109.291 83.1224 108.897 83.2891 108.554C83.4557 108.21 83.7005 107.921 84.0234 107.686C84.3516 107.447 84.7604 107.267 85.25 107.147C85.7396 107.022 86.3073 106.96 86.9531 106.96H88.2578ZM94.2109 100.1V112.108H91.9609V100.1H94.2109ZM99.5391 103.655L95.8672 107.843L93.8984 109.835L93.0781 108.21L94.6406 106.225L96.8359 103.655H99.5391ZM97.2031 112.108L94.7031 108.202L96.2578 106.843L99.7969 112.108H97.2031ZM105.07 110.202V106.436C105.07 106.166 105.026 105.934 104.938 105.741C104.849 105.543 104.711 105.389 104.523 105.28C104.341 105.171 104.104 105.116 103.812 105.116C103.562 105.116 103.346 105.16 103.164 105.249C102.982 105.332 102.841 105.455 102.742 105.616C102.643 105.772 102.594 105.957 102.594 106.171H100.344C100.344 105.811 100.427 105.47 100.594 105.147C100.76 104.824 101.003 104.541 101.32 104.296C101.638 104.046 102.016 103.85 102.453 103.71C102.896 103.569 103.391 103.499 103.938 103.499C104.594 103.499 105.177 103.608 105.688 103.827C106.198 104.046 106.599 104.374 106.891 104.811C107.188 105.249 107.336 105.796 107.336 106.452V110.069C107.336 110.533 107.365 110.913 107.422 111.21C107.479 111.501 107.562 111.757 107.672 111.975V112.108H105.398C105.289 111.879 105.206 111.593 105.148 111.249C105.096 110.9 105.07 110.551 105.07 110.202ZM105.367 106.96L105.383 108.233H104.125C103.828 108.233 103.57 108.267 103.352 108.335C103.133 108.403 102.953 108.499 102.812 108.624C102.672 108.744 102.568 108.884 102.5 109.046C102.438 109.207 102.406 109.384 102.406 109.577C102.406 109.77 102.451 109.944 102.539 110.1C102.628 110.251 102.755 110.371 102.922 110.46C103.089 110.543 103.284 110.585 103.508 110.585C103.846 110.585 104.141 110.517 104.391 110.382C104.641 110.246 104.833 110.08 104.969 109.882C105.109 109.684 105.182 109.496 105.188 109.319L105.781 110.272C105.698 110.486 105.583 110.707 105.438 110.936C105.297 111.166 105.117 111.382 104.898 111.585C104.68 111.783 104.417 111.947 104.109 112.077C103.802 112.202 103.438 112.264 103.016 112.264C102.479 112.264 101.992 112.158 101.555 111.944C101.122 111.725 100.779 111.426 100.523 111.046C100.273 110.66 100.148 110.223 100.148 109.733C100.148 109.291 100.232 108.897 100.398 108.554C100.565 108.21 100.81 107.921 101.133 107.686C101.461 107.447 101.87 107.267 102.359 107.147C102.849 107.022 103.417 106.96 104.062 106.96H105.367ZM111.32 105.499V112.108H109.07V103.655H111.188L111.32 105.499ZM113.867 103.6L113.828 105.686C113.719 105.671 113.586 105.658 113.43 105.647C113.279 105.632 113.141 105.624 113.016 105.624C112.698 105.624 112.422 105.666 112.188 105.749C111.958 105.827 111.766 105.944 111.609 106.1C111.458 106.257 111.344 106.447 111.266 106.671C111.193 106.895 111.151 107.15 111.141 107.436L110.688 107.296C110.688 106.749 110.742 106.246 110.852 105.788C110.961 105.324 111.12 104.921 111.328 104.577C111.542 104.233 111.802 103.968 112.109 103.78C112.417 103.593 112.768 103.499 113.164 103.499C113.289 103.499 113.417 103.509 113.547 103.53C113.677 103.546 113.784 103.569 113.867 103.6ZM117.305 103.655V112.108H115.047V103.655H117.305ZM114.906 101.452C114.906 101.124 115.021 100.853 115.25 100.639C115.479 100.426 115.786 100.319 116.172 100.319C116.552 100.319 116.857 100.426 117.086 100.639C117.32 100.853 117.438 101.124 117.438 101.452C117.438 101.78 117.32 102.051 117.086 102.264C116.857 102.478 116.552 102.585 116.172 102.585C115.786 102.585 115.479 102.478 115.25 102.264C115.021 102.051 114.906 101.78 114.906 101.452ZM121.414 100.1V112.108H119.164V100.1H121.414ZM126.742 103.655L123.07 107.843L121.102 109.835L120.281 108.21L121.844 106.225L124.039 103.655H126.742ZM124.406 112.108L121.906 108.202L123.461 106.843L127 112.108H124.406ZM129.961 100.1V112.108H127.711V100.1H129.961ZM135.289 103.655L131.617 107.843L129.648 109.835L128.828 108.21L130.391 106.225L132.586 103.655H135.289ZM132.953 112.108L130.453 108.202L132.008 106.843L135.547 112.108H132.953ZM141.258 110.085V103.655H143.508V112.108H141.391L141.258 110.085ZM141.508 108.35L142.172 108.335C142.172 108.897 142.107 109.421 141.977 109.905C141.846 110.384 141.651 110.801 141.391 111.155C141.13 111.504 140.802 111.778 140.406 111.975C140.01 112.168 139.544 112.264 139.008 112.264C138.596 112.264 138.216 112.207 137.867 112.093C137.523 111.973 137.227 111.788 136.977 111.538C136.732 111.283 136.539 110.957 136.398 110.561C136.263 110.16 136.195 109.679 136.195 109.116V103.655H138.445V109.132C138.445 109.382 138.474 109.593 138.531 109.764C138.594 109.936 138.68 110.077 138.789 110.186C138.898 110.296 139.026 110.374 139.172 110.421C139.323 110.468 139.49 110.491 139.672 110.491C140.135 110.491 140.5 110.397 140.766 110.21C141.036 110.022 141.227 109.767 141.336 109.444C141.451 109.116 141.508 108.751 141.508 108.35ZM147.477 100.1V112.108H145.227V100.1H147.477ZM152.805 103.655L149.133 107.843L147.164 109.835L146.344 108.21L147.906 106.225L150.102 103.655H152.805ZM150.469 112.108L147.969 108.202L149.523 106.843L153.062 112.108H150.469ZM158.336 110.202V106.436C158.336 106.166 158.292 105.934 158.203 105.741C158.115 105.543 157.977 105.389 157.789 105.28C157.607 105.171 157.37 105.116 157.078 105.116C156.828 105.116 156.612 105.16 156.43 105.249C156.247 105.332 156.107 105.455 156.008 105.616C155.909 105.772 155.859 105.957 155.859 106.171H153.609C153.609 105.811 153.693 105.47 153.859 105.147C154.026 104.824 154.268 104.541 154.586 104.296C154.904 104.046 155.281 103.85 155.719 103.71C156.161 103.569 156.656 103.499 157.203 103.499C157.859 103.499 158.443 103.608 158.953 103.827C159.464 104.046 159.865 104.374 160.156 104.811C160.453 105.249 160.602 105.796 160.602 106.452V110.069C160.602 110.533 160.63 110.913 160.688 111.21C160.745 111.501 160.828 111.757 160.938 111.975V112.108H158.664C158.555 111.879 158.471 111.593 158.414 111.249C158.362 110.9 158.336 110.551 158.336 110.202ZM158.633 106.96L158.648 108.233H157.391C157.094 108.233 156.836 108.267 156.617 108.335C156.398 108.403 156.219 108.499 156.078 108.624C155.938 108.744 155.833 108.884 155.766 109.046C155.703 109.207 155.672 109.384 155.672 109.577C155.672 109.77 155.716 109.944 155.805 110.1C155.893 110.251 156.021 110.371 156.188 110.46C156.354 110.543 156.549 110.585 156.773 110.585C157.112 110.585 157.406 110.517 157.656 110.382C157.906 110.246 158.099 110.08 158.234 109.882C158.375 109.684 158.448 109.496 158.453 109.319L159.047 110.272C158.964 110.486 158.849 110.707 158.703 110.936C158.562 111.166 158.383 111.382 158.164 111.585C157.945 111.783 157.682 111.947 157.375 112.077C157.068 112.202 156.703 112.264 156.281 112.264C155.745 112.264 155.258 112.158 154.82 111.944C154.388 111.725 154.044 111.426 153.789 111.046C153.539 110.66 153.414 110.223 153.414 109.733C153.414 109.291 153.497 108.897 153.664 108.554C153.831 108.21 154.076 107.921 154.398 107.686C154.727 107.447 155.135 107.267 155.625 107.147C156.115 107.022 156.682 106.96 157.328 106.96H158.633Z" fill="#FFCC01"/>
<path d="M164.469 110.21L164.461 111.718C164.461 112.296 164.315 112.879 164.023 113.468C163.737 114.056 163.372 114.538 162.93 114.913L161.758 114.311C161.888 114.072 162.016 113.832 162.141 113.593C162.266 113.353 162.37 113.09 162.453 112.804C162.536 112.517 162.578 112.192 162.578 111.827V110.21H164.469ZM176.32 109.132C176.32 108.929 176.289 108.746 176.227 108.585C176.169 108.418 176.06 108.267 175.898 108.132C175.737 107.991 175.51 107.853 175.219 107.718C174.927 107.582 174.549 107.442 174.086 107.296C173.57 107.129 173.081 106.942 172.617 106.733C172.159 106.525 171.753 106.283 171.398 106.007C171.049 105.725 170.773 105.4 170.57 105.03C170.372 104.66 170.273 104.231 170.273 103.741C170.273 103.267 170.378 102.837 170.586 102.452C170.794 102.061 171.086 101.728 171.461 101.452C171.836 101.171 172.279 100.955 172.789 100.804C173.305 100.653 173.87 100.577 174.484 100.577C175.323 100.577 176.055 100.728 176.68 101.03C177.305 101.332 177.789 101.746 178.133 102.272C178.482 102.798 178.656 103.4 178.656 104.077H176.328C176.328 103.744 176.258 103.452 176.117 103.202C175.982 102.947 175.773 102.746 175.492 102.6C175.216 102.455 174.867 102.382 174.445 102.382C174.039 102.382 173.701 102.444 173.43 102.569C173.159 102.689 172.956 102.853 172.82 103.061C172.685 103.264 172.617 103.494 172.617 103.749C172.617 103.942 172.664 104.116 172.758 104.272C172.857 104.429 173.003 104.574 173.195 104.71C173.388 104.845 173.625 104.973 173.906 105.093C174.188 105.212 174.513 105.33 174.883 105.444C175.503 105.632 176.047 105.843 176.516 106.077C176.99 106.311 177.385 106.574 177.703 106.866C178.021 107.158 178.26 107.488 178.422 107.858C178.583 108.228 178.664 108.647 178.664 109.116C178.664 109.611 178.568 110.054 178.375 110.444C178.182 110.835 177.904 111.166 177.539 111.436C177.174 111.707 176.74 111.913 176.234 112.054C175.729 112.194 175.164 112.264 174.539 112.264C173.977 112.264 173.422 112.192 172.875 112.046C172.328 111.895 171.831 111.668 171.383 111.366C170.94 111.064 170.586 110.679 170.32 110.21C170.055 109.741 169.922 109.186 169.922 108.546H172.273C172.273 108.9 172.328 109.199 172.438 109.444C172.547 109.689 172.701 109.887 172.898 110.038C173.102 110.189 173.341 110.298 173.617 110.366C173.898 110.434 174.206 110.468 174.539 110.468C174.945 110.468 175.279 110.41 175.539 110.296C175.805 110.181 176 110.022 176.125 109.819C176.255 109.616 176.32 109.387 176.32 109.132ZM184.68 110.202V106.436C184.68 106.166 184.635 105.934 184.547 105.741C184.458 105.543 184.32 105.389 184.133 105.28C183.951 105.171 183.714 105.116 183.422 105.116C183.172 105.116 182.956 105.16 182.773 105.249C182.591 105.332 182.451 105.455 182.352 105.616C182.253 105.772 182.203 105.957 182.203 106.171H179.953C179.953 105.811 180.036 105.47 180.203 105.147C180.37 104.824 180.612 104.541 180.93 104.296C181.247 104.046 181.625 103.85 182.062 103.71C182.505 103.569 183 103.499 183.547 103.499C184.203 103.499 184.786 103.608 185.297 103.827C185.807 104.046 186.208 104.374 186.5 104.811C186.797 105.249 186.945 105.796 186.945 106.452V110.069C186.945 110.533 186.974 110.913 187.031 111.21C187.089 111.501 187.172 111.757 187.281 111.975V112.108H185.008C184.898 111.879 184.815 111.593 184.758 111.249C184.706 110.9 184.68 110.551 184.68 110.202ZM184.977 106.96L184.992 108.233H183.734C183.438 108.233 183.18 108.267 182.961 108.335C182.742 108.403 182.562 108.499 182.422 108.624C182.281 108.744 182.177 108.884 182.109 109.046C182.047 109.207 182.016 109.384 182.016 109.577C182.016 109.77 182.06 109.944 182.148 110.1C182.237 110.251 182.365 110.371 182.531 110.46C182.698 110.543 182.893 110.585 183.117 110.585C183.456 110.585 183.75 110.517 184 110.382C184.25 110.246 184.443 110.08 184.578 109.882C184.719 109.684 184.792 109.496 184.797 109.319L185.391 110.272C185.307 110.486 185.193 110.707 185.047 110.936C184.906 111.166 184.727 111.382 184.508 111.585C184.289 111.783 184.026 111.947 183.719 112.077C183.411 112.202 183.047 112.264 182.625 112.264C182.089 112.264 181.602 112.158 181.164 111.944C180.732 111.725 180.388 111.426 180.133 111.046C179.883 110.66 179.758 110.223 179.758 109.733C179.758 109.291 179.841 108.897 180.008 108.554C180.174 108.21 180.419 107.921 180.742 107.686C181.07 107.447 181.479 107.267 181.969 107.147C182.458 107.022 183.026 106.96 183.672 106.96H184.977ZM190.875 100.108V112.108H188.625V100.108H190.875ZM190.555 107.585H189.938C189.943 106.996 190.021 106.455 190.172 105.96C190.323 105.46 190.539 105.028 190.82 104.663C191.102 104.293 191.438 104.007 191.828 103.804C192.224 103.6 192.661 103.499 193.141 103.499C193.557 103.499 193.935 103.559 194.273 103.679C194.617 103.793 194.911 103.981 195.156 104.241C195.406 104.496 195.599 104.832 195.734 105.249C195.87 105.666 195.938 106.171 195.938 106.764V112.108H193.672V106.749C193.672 106.374 193.617 106.08 193.508 105.866C193.404 105.647 193.25 105.494 193.047 105.405C192.849 105.311 192.604 105.264 192.312 105.264C191.99 105.264 191.714 105.324 191.484 105.444C191.26 105.564 191.081 105.731 190.945 105.944C190.81 106.153 190.711 106.397 190.648 106.679C190.586 106.96 190.555 107.262 190.555 107.585ZM202.211 110.202V106.436C202.211 106.166 202.167 105.934 202.078 105.741C201.99 105.543 201.852 105.389 201.664 105.28C201.482 105.171 201.245 105.116 200.953 105.116C200.703 105.116 200.487 105.16 200.305 105.249C200.122 105.332 199.982 105.455 199.883 105.616C199.784 105.772 199.734 105.957 199.734 106.171H197.484C197.484 105.811 197.568 105.47 197.734 105.147C197.901 104.824 198.143 104.541 198.461 104.296C198.779 104.046 199.156 103.85 199.594 103.71C200.036 103.569 200.531 103.499 201.078 103.499C201.734 103.499 202.318 103.608 202.828 103.827C203.339 104.046 203.74 104.374 204.031 104.811C204.328 105.249 204.477 105.796 204.477 106.452V110.069C204.477 110.533 204.505 110.913 204.562 111.21C204.62 111.501 204.703 111.757 204.812 111.975V112.108H202.539C202.43 111.879 202.346 111.593 202.289 111.249C202.237 110.9 202.211 110.551 202.211 110.202ZM202.508 106.96L202.523 108.233H201.266C200.969 108.233 200.711 108.267 200.492 108.335C200.273 108.403 200.094 108.499 199.953 108.624C199.812 108.744 199.708 108.884 199.641 109.046C199.578 109.207 199.547 109.384 199.547 109.577C199.547 109.77 199.591 109.944 199.68 110.1C199.768 110.251 199.896 110.371 200.062 110.46C200.229 110.543 200.424 110.585 200.648 110.585C200.987 110.585 201.281 110.517 201.531 110.382C201.781 110.246 201.974 110.08 202.109 109.882C202.25 109.684 202.323 109.496 202.328 109.319L202.922 110.272C202.839 110.486 202.724 110.707 202.578 110.936C202.438 111.166 202.258 111.382 202.039 111.585C201.82 111.783 201.557 111.947 201.25 112.077C200.943 112.202 200.578 112.264 200.156 112.264C199.62 112.264 199.133 112.158 198.695 111.944C198.263 111.725 197.919 111.426 197.664 111.046C197.414 110.66 197.289 110.223 197.289 109.733C197.289 109.291 197.372 108.897 197.539 108.554C197.706 108.21 197.951 107.921 198.273 107.686C198.602 107.447 199.01 107.267 199.5 107.147C199.99 107.022 200.557 106.96 201.203 106.96H202.508ZM208.594 111.155L210.836 103.655H213.25L209.852 113.382C209.779 113.595 209.68 113.824 209.555 114.069C209.435 114.314 209.271 114.546 209.062 114.764C208.859 114.988 208.602 115.171 208.289 115.311C207.982 115.452 207.604 115.522 207.156 115.522C206.943 115.522 206.768 115.509 206.633 115.483C206.497 115.457 206.336 115.421 206.148 115.374V113.725C206.206 113.725 206.266 113.725 206.328 113.725C206.391 113.731 206.451 113.733 206.508 113.733C206.805 113.733 207.047 113.699 207.234 113.632C207.422 113.564 207.573 113.46 207.688 113.319C207.802 113.184 207.893 113.007 207.961 112.788L208.594 111.155ZM207.656 103.655L209.492 109.78L209.812 112.163L208.281 112.327L205.242 103.655H207.656ZM216.523 103.655V112.108H214.266V103.655H216.523ZM214.125 101.452C214.125 101.124 214.24 100.853 214.469 100.639C214.698 100.426 215.005 100.319 215.391 100.319C215.771 100.319 216.076 100.426 216.305 100.639C216.539 100.853 216.656 101.124 216.656 101.452C216.656 101.78 216.539 102.051 216.305 102.264C216.076 102.478 215.771 102.585 215.391 102.585C215.005 102.585 214.698 102.478 214.469 102.264C214.24 102.051 214.125 101.78 214.125 101.452ZM220.633 100.1V112.108H218.383V100.1H220.633ZM225.961 103.655L222.289 107.843L220.32 109.835L219.5 108.21L221.062 106.225L223.258 103.655H225.961ZM223.625 112.108L221.125 108.202L222.68 106.843L226.219 112.108H223.625ZM229.18 100.1V112.108H226.93V100.1H229.18ZM234.508 103.655L230.836 107.843L228.867 109.835L228.047 108.21L229.609 106.225L231.805 103.655H234.508ZM232.172 112.108L229.672 108.202L231.227 106.843L234.766 112.108H232.172ZM240.477 110.085V103.655H242.727V112.108H240.609L240.477 110.085ZM240.727 108.35L241.391 108.335C241.391 108.897 241.326 109.421 241.195 109.905C241.065 110.384 240.87 110.801 240.609 111.155C240.349 111.504 240.021 111.778 239.625 111.975C239.229 112.168 238.763 112.264 238.227 112.264C237.815 112.264 237.435 112.207 237.086 112.093C236.742 111.973 236.445 111.788 236.195 111.538C235.951 111.283 235.758 110.957 235.617 110.561C235.482 110.16 235.414 109.679 235.414 109.116V103.655H237.664V109.132C237.664 109.382 237.693 109.593 237.75 109.764C237.812 109.936 237.898 110.077 238.008 110.186C238.117 110.296 238.245 110.374 238.391 110.421C238.542 110.468 238.708 110.491 238.891 110.491C239.354 110.491 239.719 110.397 239.984 110.21C240.255 110.022 240.445 109.767 240.555 109.444C240.669 109.116 240.727 108.751 240.727 108.35ZM246.695 100.1V112.108H244.445V100.1H246.695ZM252.023 103.655L248.352 107.843L246.383 109.835L245.562 108.21L247.125 106.225L249.32 103.655H252.023ZM249.688 112.108L247.188 108.202L248.742 106.843L252.281 112.108H249.688ZM257.555 110.202V106.436C257.555 106.166 257.51 105.934 257.422 105.741C257.333 105.543 257.195 105.389 257.008 105.28C256.826 105.171 256.589 105.116 256.297 105.116C256.047 105.116 255.831 105.16 255.648 105.249C255.466 105.332 255.326 105.455 255.227 105.616C255.128 105.772 255.078 105.957 255.078 106.171H252.828C252.828 105.811 252.911 105.47 253.078 105.147C253.245 104.824 253.487 104.541 253.805 104.296C254.122 104.046 254.5 103.85 254.938 103.71C255.38 103.569 255.875 103.499 256.422 103.499C257.078 103.499 257.661 103.608 258.172 103.827C258.682 104.046 259.083 104.374 259.375 104.811C259.672 105.249 259.82 105.796 259.82 106.452V110.069C259.82 110.533 259.849 110.913 259.906 111.21C259.964 111.501 260.047 111.757 260.156 111.975V112.108H257.883C257.773 111.879 257.69 111.593 257.633 111.249C257.581 110.9 257.555 110.551 257.555 110.202ZM257.852 106.96L257.867 108.233H256.609C256.312 108.233 256.055 108.267 255.836 108.335C255.617 108.403 255.438 108.499 255.297 108.624C255.156 108.744 255.052 108.884 254.984 109.046C254.922 109.207 254.891 109.384 254.891 109.577C254.891 109.77 254.935 109.944 255.023 110.1C255.112 110.251 255.24 110.371 255.406 110.46C255.573 110.543 255.768 110.585 255.992 110.585C256.331 110.585 256.625 110.517 256.875 110.382C257.125 110.246 257.318 110.08 257.453 109.882C257.594 109.684 257.667 109.496 257.672 109.319L258.266 110.272C258.182 110.486 258.068 110.707 257.922 110.936C257.781 111.166 257.602 111.382 257.383 111.585C257.164 111.783 256.901 111.947 256.594 112.077C256.286 112.202 255.922 112.264 255.5 112.264C254.964 112.264 254.477 112.158 254.039 111.944C253.607 111.725 253.263 111.426 253.008 111.046C252.758 110.66 252.633 110.223 252.633 109.733C252.633 109.291 252.716 108.897 252.883 108.554C253.049 108.21 253.294 107.921 253.617 107.686C253.945 107.447 254.354 107.267 254.844 107.147C255.333 107.022 255.901 106.96 256.547 106.96H257.852ZM263.688 110.21L263.68 111.718C263.68 112.296 263.534 112.879 263.242 113.468C262.956 114.056 262.591 114.538 262.148 114.913L260.977 114.311C261.107 114.072 261.234 113.832 261.359 113.593C261.484 113.353 261.589 113.09 261.672 112.804C261.755 112.517 261.797 112.192 261.797 111.827V110.21H263.688Z" fill="white"/>
<path d="M275.539 109.132C275.539 108.929 275.508 108.746 275.445 108.585C275.388 108.418 275.279 108.267 275.117 108.132C274.956 107.991 274.729 107.853 274.438 107.718C274.146 107.582 273.768 107.442 273.305 107.296C272.789 107.129 272.299 106.942 271.836 106.733C271.378 106.525 270.971 106.283 270.617 106.007C270.268 105.725 269.992 105.4 269.789 105.03C269.591 104.66 269.492 104.231 269.492 103.741C269.492 103.267 269.596 102.837 269.805 102.452C270.013 102.061 270.305 101.728 270.68 101.452C271.055 101.171 271.497 100.955 272.008 100.804C272.523 100.653 273.089 100.577 273.703 100.577C274.542 100.577 275.273 100.728 275.898 101.03C276.523 101.332 277.008 101.746 277.352 102.272C277.701 102.798 277.875 103.4 277.875 104.077H275.547C275.547 103.744 275.477 103.452 275.336 103.202C275.201 102.947 274.992 102.746 274.711 102.6C274.435 102.455 274.086 102.382 273.664 102.382C273.258 102.382 272.919 102.444 272.648 102.569C272.378 102.689 272.174 102.853 272.039 103.061C271.904 103.264 271.836 103.494 271.836 103.749C271.836 103.942 271.883 104.116 271.977 104.272C272.076 104.429 272.221 104.574 272.414 104.71C272.607 104.845 272.844 104.973 273.125 105.093C273.406 105.212 273.732 105.33 274.102 105.444C274.721 105.632 275.266 105.843 275.734 106.077C276.208 106.311 276.604 106.574 276.922 106.866C277.24 107.158 277.479 107.488 277.641 107.858C277.802 108.228 277.883 108.647 277.883 109.116C277.883 109.611 277.786 110.054 277.594 110.444C277.401 110.835 277.122 111.166 276.758 111.436C276.393 111.707 275.958 111.913 275.453 112.054C274.948 112.194 274.383 112.264 273.758 112.264C273.195 112.264 272.641 112.192 272.094 112.046C271.547 111.895 271.049 111.668 270.602 111.366C270.159 111.064 269.805 110.679 269.539 110.21C269.273 109.741 269.141 109.186 269.141 108.546H271.492C271.492 108.9 271.547 109.199 271.656 109.444C271.766 109.689 271.919 109.887 272.117 110.038C272.32 110.189 272.56 110.298 272.836 110.366C273.117 110.434 273.424 110.468 273.758 110.468C274.164 110.468 274.497 110.41 274.758 110.296C275.023 110.181 275.219 110.022 275.344 109.819C275.474 109.616 275.539 109.387 275.539 109.132ZM283.898 110.202V106.436C283.898 106.166 283.854 105.934 283.766 105.741C283.677 105.543 283.539 105.389 283.352 105.28C283.169 105.171 282.932 105.116 282.641 105.116C282.391 105.116 282.174 105.16 281.992 105.249C281.81 105.332 281.669 105.455 281.57 105.616C281.471 105.772 281.422 105.957 281.422 106.171H279.172C279.172 105.811 279.255 105.47 279.422 105.147C279.589 104.824 279.831 104.541 280.148 104.296C280.466 104.046 280.844 103.85 281.281 103.71C281.724 103.569 282.219 103.499 282.766 103.499C283.422 103.499 284.005 103.608 284.516 103.827C285.026 104.046 285.427 104.374 285.719 104.811C286.016 105.249 286.164 105.796 286.164 106.452V110.069C286.164 110.533 286.193 110.913 286.25 111.21C286.307 111.501 286.391 111.757 286.5 111.975V112.108H284.227C284.117 111.879 284.034 111.593 283.977 111.249C283.924 110.9 283.898 110.551 283.898 110.202ZM284.195 106.96L284.211 108.233H282.953C282.656 108.233 282.398 108.267 282.18 108.335C281.961 108.403 281.781 108.499 281.641 108.624C281.5 108.744 281.396 108.884 281.328 109.046C281.266 109.207 281.234 109.384 281.234 109.577C281.234 109.77 281.279 109.944 281.367 110.1C281.456 110.251 281.583 110.371 281.75 110.46C281.917 110.543 282.112 110.585 282.336 110.585C282.674 110.585 282.969 110.517 283.219 110.382C283.469 110.246 283.661 110.08 283.797 109.882C283.938 109.684 284.01 109.496 284.016 109.319L284.609 110.272C284.526 110.486 284.411 110.707 284.266 110.936C284.125 111.166 283.945 111.382 283.727 111.585C283.508 111.783 283.245 111.947 282.938 112.077C282.63 112.202 282.266 112.264 281.844 112.264C281.307 112.264 280.82 112.158 280.383 111.944C279.951 111.725 279.607 111.426 279.352 111.046C279.102 110.66 278.977 110.223 278.977 109.733C278.977 109.291 279.06 108.897 279.227 108.554C279.393 108.21 279.638 107.921 279.961 107.686C280.289 107.447 280.698 107.267 281.188 107.147C281.677 107.022 282.245 106.96 282.891 106.96H284.195ZM290.148 105.405V112.108H287.891V103.655H290.008L290.148 105.405ZM289.836 107.585H289.211C289.211 106.996 289.281 106.455 289.422 105.96C289.568 105.46 289.779 105.028 290.055 104.663C290.336 104.293 290.682 104.007 291.094 103.804C291.505 103.6 291.982 103.499 292.523 103.499C292.898 103.499 293.242 103.556 293.555 103.671C293.867 103.78 294.135 103.955 294.359 104.194C294.589 104.429 294.766 104.736 294.891 105.116C295.016 105.491 295.078 105.942 295.078 106.468V112.108H292.828V106.718C292.828 106.332 292.776 106.035 292.672 105.827C292.568 105.619 292.419 105.473 292.227 105.389C292.039 105.306 291.812 105.264 291.547 105.264C291.255 105.264 291 105.324 290.781 105.444C290.568 105.564 290.391 105.731 290.25 105.944C290.109 106.153 290.005 106.397 289.938 106.679C289.87 106.96 289.836 107.262 289.836 107.585ZM294.867 107.327L294.062 107.429C294.062 106.876 294.13 106.363 294.266 105.889C294.406 105.416 294.612 104.999 294.883 104.639C295.159 104.28 295.5 104.001 295.906 103.804C296.312 103.6 296.781 103.499 297.312 103.499C297.719 103.499 298.089 103.559 298.422 103.679C298.755 103.793 299.039 103.978 299.273 104.233C299.513 104.483 299.695 104.811 299.82 105.218C299.951 105.624 300.016 106.121 300.016 106.71V112.108H297.758V106.71C297.758 106.319 297.706 106.022 297.602 105.819C297.503 105.611 297.357 105.468 297.164 105.389C296.977 105.306 296.753 105.264 296.492 105.264C296.221 105.264 295.984 105.319 295.781 105.429C295.578 105.533 295.409 105.679 295.273 105.866C295.138 106.054 295.036 106.272 294.969 106.522C294.901 106.767 294.867 107.035 294.867 107.327ZM301.758 100.108H304.008V110.171L303.781 112.108H301.758V100.108ZM309.359 107.796V107.96C309.359 108.59 309.292 109.168 309.156 109.694C309.026 110.22 308.823 110.676 308.547 111.061C308.271 111.442 307.927 111.738 307.516 111.952C307.109 112.16 306.63 112.264 306.078 112.264C305.562 112.264 305.115 112.16 304.734 111.952C304.359 111.744 304.044 111.449 303.789 111.069C303.534 110.689 303.328 110.244 303.172 109.733C303.016 109.223 302.898 108.666 302.82 108.061V107.702C302.898 107.098 303.016 106.541 303.172 106.03C303.328 105.52 303.534 105.074 303.789 104.694C304.044 104.314 304.359 104.02 304.734 103.811C305.109 103.603 305.552 103.499 306.062 103.499C306.62 103.499 307.104 103.606 307.516 103.819C307.932 104.028 308.276 104.324 308.547 104.71C308.823 105.09 309.026 105.543 309.156 106.069C309.292 106.59 309.359 107.166 309.359 107.796ZM307.109 107.96V107.796C307.109 107.452 307.083 107.129 307.031 106.827C306.984 106.52 306.901 106.251 306.781 106.022C306.661 105.788 306.497 105.603 306.289 105.468C306.086 105.332 305.823 105.264 305.5 105.264C305.193 105.264 304.932 105.317 304.719 105.421C304.505 105.525 304.328 105.671 304.188 105.858C304.052 106.046 303.951 106.27 303.883 106.53C303.815 106.785 303.773 107.067 303.758 107.374V108.397C303.773 108.809 303.841 109.173 303.961 109.491C304.086 109.804 304.273 110.051 304.523 110.233C304.779 110.41 305.109 110.499 305.516 110.499C305.833 110.499 306.096 110.436 306.305 110.311C306.513 110.186 306.674 110.009 306.789 109.78C306.909 109.551 306.992 109.283 307.039 108.975C307.086 108.663 307.109 108.324 307.109 107.96ZM315.32 110.202V106.436C315.32 106.166 315.276 105.934 315.188 105.741C315.099 105.543 314.961 105.389 314.773 105.28C314.591 105.171 314.354 105.116 314.062 105.116C313.812 105.116 313.596 105.16 313.414 105.249C313.232 105.332 313.091 105.455 312.992 105.616C312.893 105.772 312.844 105.957 312.844 106.171H310.594C310.594 105.811 310.677 105.47 310.844 105.147C311.01 104.824 311.253 104.541 311.57 104.296C311.888 104.046 312.266 103.85 312.703 103.71C313.146 103.569 313.641 103.499 314.188 103.499C314.844 103.499 315.427 103.608 315.938 103.827C316.448 104.046 316.849 104.374 317.141 104.811C317.438 105.249 317.586 105.796 317.586 106.452V110.069C317.586 110.533 317.615 110.913 317.672 111.21C317.729 111.501 317.812 111.757 317.922 111.975V112.108H315.648C315.539 111.879 315.456 111.593 315.398 111.249C315.346 110.9 315.32 110.551 315.32 110.202ZM315.617 106.96L315.633 108.233H314.375C314.078 108.233 313.82 108.267 313.602 108.335C313.383 108.403 313.203 108.499 313.062 108.624C312.922 108.744 312.818 108.884 312.75 109.046C312.688 109.207 312.656 109.384 312.656 109.577C312.656 109.77 312.701 109.944 312.789 110.1C312.878 110.251 313.005 110.371 313.172 110.46C313.339 110.543 313.534 110.585 313.758 110.585C314.096 110.585 314.391 110.517 314.641 110.382C314.891 110.246 315.083 110.08 315.219 109.882C315.359 109.684 315.432 109.496 315.438 109.319L316.031 110.272C315.948 110.486 315.833 110.707 315.688 110.936C315.547 111.166 315.367 111.382 315.148 111.585C314.93 111.783 314.667 111.947 314.359 112.077C314.052 112.202 313.688 112.264 313.266 112.264C312.729 112.264 312.242 112.158 311.805 111.944C311.372 111.725 311.029 111.426 310.773 111.046C310.523 110.66 310.398 110.223 310.398 109.733C310.398 109.291 310.482 108.897 310.648 108.554C310.815 108.21 311.06 107.921 311.383 107.686C311.711 107.447 312.12 107.267 312.609 107.147C313.099 107.022 313.667 106.96 314.312 106.96H315.617ZM324.312 110.264V100.108H326.578V112.108H324.539L324.312 110.264ZM318.969 107.983V107.819C318.969 107.173 319.042 106.587 319.188 106.061C319.333 105.53 319.547 105.074 319.828 104.694C320.109 104.314 320.456 104.02 320.867 103.811C321.279 103.603 321.747 103.499 322.273 103.499C322.768 103.499 323.201 103.603 323.57 103.811C323.945 104.02 324.263 104.317 324.523 104.702C324.789 105.082 325.003 105.533 325.164 106.054C325.326 106.569 325.443 107.134 325.516 107.749V108.108C325.443 108.697 325.326 109.244 325.164 109.749C325.003 110.254 324.789 110.697 324.523 111.077C324.263 111.452 323.945 111.744 323.57 111.952C323.195 112.16 322.758 112.264 322.258 112.264C321.732 112.264 321.263 112.158 320.852 111.944C320.445 111.731 320.102 111.431 319.82 111.046C319.544 110.66 319.333 110.207 319.188 109.686C319.042 109.166 318.969 108.598 318.969 107.983ZM321.219 107.819V107.983C321.219 108.332 321.245 108.658 321.297 108.96C321.354 109.262 321.445 109.53 321.57 109.764C321.701 109.994 321.867 110.173 322.07 110.304C322.279 110.429 322.531 110.491 322.828 110.491C323.214 110.491 323.531 110.405 323.781 110.233C324.031 110.056 324.221 109.814 324.352 109.507C324.487 109.199 324.565 108.845 324.586 108.444V107.421C324.57 107.093 324.523 106.798 324.445 106.538C324.372 106.272 324.263 106.046 324.117 105.858C323.977 105.671 323.799 105.525 323.586 105.421C323.378 105.317 323.13 105.264 322.844 105.264C322.552 105.264 322.302 105.332 322.094 105.468C321.885 105.598 321.716 105.778 321.586 106.007C321.461 106.236 321.367 106.507 321.305 106.819C321.247 107.126 321.219 107.46 321.219 107.819ZM330.711 103.655V112.108H328.453V103.655H330.711ZM328.312 101.452C328.312 101.124 328.427 100.853 328.656 100.639C328.885 100.426 329.193 100.319 329.578 100.319C329.958 100.319 330.263 100.426 330.492 100.639C330.727 100.853 330.844 101.124 330.844 101.452C330.844 101.78 330.727 102.051 330.492 102.264C330.263 102.478 329.958 102.585 329.578 102.585C329.193 102.585 328.885 102.478 328.656 102.264C328.427 102.051 328.312 101.78 328.312 101.452ZM334.82 100.1V112.108H332.57V100.1H334.82ZM340.148 103.655L336.477 107.843L334.508 109.835L333.688 108.21L335.25 106.225L337.445 103.655H340.148ZM337.812 112.108L335.312 108.202L336.867 106.843L340.406 112.108H337.812ZM343.367 100.1V112.108H341.117V100.1H343.367ZM348.695 103.655L345.023 107.843L343.055 109.835L342.234 108.21L343.797 106.225L345.992 103.655H348.695ZM346.359 112.108L343.859 108.202L345.414 106.843L348.953 112.108H346.359ZM354.664 110.085V103.655H356.914V112.108H354.797L354.664 110.085ZM354.914 108.35L355.578 108.335C355.578 108.897 355.513 109.421 355.383 109.905C355.253 110.384 355.057 110.801 354.797 111.155C354.536 111.504 354.208 111.778 353.812 111.975C353.417 112.168 352.951 112.264 352.414 112.264C352.003 112.264 351.622 112.207 351.273 112.093C350.93 111.973 350.633 111.788 350.383 111.538C350.138 111.283 349.945 110.957 349.805 110.561C349.669 110.16 349.602 109.679 349.602 109.116V103.655H351.852V109.132C351.852 109.382 351.88 109.593 351.938 109.764C352 109.936 352.086 110.077 352.195 110.186C352.305 110.296 352.432 110.374 352.578 110.421C352.729 110.468 352.896 110.491 353.078 110.491C353.542 110.491 353.906 110.397 354.172 110.21C354.443 110.022 354.633 109.767 354.742 109.444C354.857 109.116 354.914 108.751 354.914 108.35ZM360.883 100.1V112.108H358.633V100.1H360.883ZM366.211 103.655L362.539 107.843L360.57 109.835L359.75 108.21L361.312 106.225L363.508 103.655H366.211ZM363.875 112.108L361.375 108.202L362.93 106.843L366.469 112.108H363.875ZM371.742 110.202V106.436C371.742 106.166 371.698 105.934 371.609 105.741C371.521 105.543 371.383 105.389 371.195 105.28C371.013 105.171 370.776 105.116 370.484 105.116C370.234 105.116 370.018 105.16 369.836 105.249C369.654 105.332 369.513 105.455 369.414 105.616C369.315 105.772 369.266 105.957 369.266 106.171H367.016C367.016 105.811 367.099 105.47 367.266 105.147C367.432 104.824 367.674 104.541 367.992 104.296C368.31 104.046 368.688 103.85 369.125 103.71C369.568 103.569 370.062 103.499 370.609 103.499C371.266 103.499 371.849 103.608 372.359 103.827C372.87 104.046 373.271 104.374 373.562 104.811C373.859 105.249 374.008 105.796 374.008 106.452V110.069C374.008 110.533 374.036 110.913 374.094 111.21C374.151 111.501 374.234 111.757 374.344 111.975V112.108H372.07C371.961 111.879 371.878 111.593 371.82 111.249C371.768 110.9 371.742 110.551 371.742 110.202ZM372.039 106.96L372.055 108.233H370.797C370.5 108.233 370.242 108.267 370.023 108.335C369.805 108.403 369.625 108.499 369.484 108.624C369.344 108.744 369.24 108.884 369.172 109.046C369.109 109.207 369.078 109.384 369.078 109.577C369.078 109.77 369.122 109.944 369.211 110.1C369.299 110.251 369.427 110.371 369.594 110.46C369.76 110.543 369.956 110.585 370.18 110.585C370.518 110.585 370.812 110.517 371.062 110.382C371.312 110.246 371.505 110.08 371.641 109.882C371.781 109.684 371.854 109.496 371.859 109.319L372.453 110.272C372.37 110.486 372.255 110.707 372.109 110.936C371.969 111.166 371.789 111.382 371.57 111.585C371.352 111.783 371.089 111.947 370.781 112.077C370.474 112.202 370.109 112.264 369.688 112.264C369.151 112.264 368.664 112.158 368.227 111.944C367.794 111.725 367.451 111.426 367.195 111.046C366.945 110.66 366.82 110.223 366.82 109.733C366.82 109.291 366.904 108.897 367.07 108.554C367.237 108.21 367.482 107.921 367.805 107.686C368.133 107.447 368.542 107.267 369.031 107.147C369.521 107.022 370.089 106.96 370.734 106.96H372.039Z" fill="#00BE35"/>
</svg>
