<svg width="77" height="60" viewBox="0 0 77 60" fill="none" xmlns="http://www.w3.org/2000/svg">
<path d="M69.4098 51.8491L69.7298 51.5591L69.4798 51.2891L68.8398 51.8691L68.9498 51.9891L69.0898 52.1391L69.4098 51.8491Z" fill="#ABABA4"/>
<path d="M15.8014 0.558125C15.8014 0.558125 15.8314 0.478126 15.8414 0.438126L15.8714 0.358124L15.0614 0.078125L15.0314 0.148125C15.0014 0.228125 14.9714 0.318123 14.9414 0.428123C14.9414 0.428123 14.9414 0.448126 14.9414 0.458126L15.7914 0.628124C15.7914 0.608124 15.7914 0.588127 15.8114 0.568127L15.8014 0.558125Z" fill="#ABABA4"/>
<path d="M24.1787 0.740002L24.4387 0.870003C24.4887 0.900003 24.5587 0.930003 24.6187 0.960003C24.6187 0.960003 24.6987 0.990002 24.7287 1.01L24.8687 0.600002L24.9187 0.460003L24.8087 0.390003L24.9587 0.360001L25.0187 0.200001C24.9587 0.180001 24.8887 0.140001 24.8187 0.110001L24.7387 0.0700035L24.6287 0.280003L24.2087 0C24.1087 0.15 24.0787 0.340003 24.1187 0.530003L24.1587 0.730003L24.1787 0.740002Z" fill="#ABABA4"/>
<path d="M76.0903 50.8619C76.0903 50.8619 76.0903 50.8819 76.0903 50.8919L76.9503 50.8719C76.9503 50.7019 76.9103 50.5519 76.8403 50.4219L76.0703 50.8119C76.0703 50.8119 76.0703 50.8119 76.0703 50.8219C76.0703 50.8219 76.0703 50.8519 76.0703 50.8719L76.0903 50.8619Z" fill="#ABABA4"/>
<path d="M43.4283 2.67875C43.4283 2.67875 43.3883 2.64875 43.3683 2.62875C43.3083 2.57875 43.2383 2.50875 43.1483 2.46875C43.1483 2.46875 43.1483 2.46875 43.1383 2.46875L42.7383 3.22875C42.7383 3.22875 42.7783 3.26875 42.7983 3.27875C42.8383 3.30875 42.8783 3.34875 42.9183 3.37875C42.9183 3.37875 42.9283 3.37875 42.9383 3.38875L43.4383 2.68875L43.4283 2.67875Z" fill="#ABABA4"/>
<path d="M46.2887 39.0431H46.2287H46.1987V38.9531L46.1887 39.0431H46.1787L45.8687 39.0231L45.4387 38.9931C45.4187 39.3731 45.6487 39.6831 46.0287 39.7931L46.1187 39.8131C46.1187 39.8131 46.1787 39.8131 46.1987 39.8131C46.1987 39.8131 46.2487 39.8131 46.2687 39.8131L46.2187 39.1231L46.2387 39.0431H46.2987H46.2887ZM46.1887 39.3831V39.2131V39.1931V39.3831Z" fill="#ABABA4"/>
<path d="M43.4784 29.1663L43.1484 29.9663C43.1484 29.9663 43.1684 29.9662 43.1684 29.9762C43.2284 30.0162 43.2584 30.1263 43.2784 30.2163C43.2784 30.2863 43.2584 30.3163 43.2484 30.3363L43.9284 30.8563C44.0484 30.6963 44.1284 30.4763 44.1384 30.2063V30.1562V30.1063C44.0584 29.6163 43.8284 29.2963 43.4784 29.1562V29.1663Z" fill="#ABABA4"/>
<path d="M46.8789 10.8403L46.8589 10.8203L46.5489 11.1403L46.4489 11.0503L46.3389 11.1803L46.4389 11.2603L46.1289 11.5203C46.1289 11.5203 46.1289 11.5203 46.1289 11.5303C46.1889 11.6003 46.2489 11.6603 46.3089 11.7203L46.6789 12.0803L47.3589 11.2903L46.8689 10.8303L46.8789 10.8403Z" fill="#ABABA4"/>
<path d="M57.2819 29.3387L56.5019 27.2188L56.4219 29.3988V29.4587C56.4219 29.4487 56.4419 29.4188 56.4719 29.3988C56.4719 29.3988 56.4819 29.3988 56.4919 29.3988L56.5519 29.5387L56.6619 29.7887L56.8319 30.1887C56.8319 30.1887 56.8919 30.1587 56.9219 30.1387C57.1419 29.9987 57.2619 29.7587 57.2819 29.4387V29.3487V29.3387Z" fill="#ABABA4"/>
<path d="M53.2002 5.53125H53.0302L52.9102 5.66125L53.2102 5.96125V6.34125H53.2302V6.40125H53.3902L53.5202 6.27125L54.0002 6.16125C54.0002 6.16125 53.9902 6.11125 53.9802 6.09125C53.8702 5.75125 53.5902 5.53125 53.2102 5.53125H53.2002Z" fill="#ABABA4"/>
<path d="M57.7109 52.0638L57.7309 51.8438L57.7109 52.0638Z" fill="#ABABA4"/>
<path d="M47.8508 5.5C47.7708 5.55 47.7108 5.61999 47.6508 5.68999C47.6108 5.73999 47.5808 5.79 47.5508 5.85L47.9408 6.04L48.2508 6.18L48.3308 6.22L47.8408 5.50999L47.8508 5.5Z" fill="#ABABA4"/>
<path d="M50.8806 8.41062C50.8806 8.41062 50.8206 8.33063 50.7806 8.29063C50.7306 8.24063 50.6706 8.18062 50.5906 8.14062L50.3906 8.52062L50.2906 8.71062V8.73062H50.2806L50.1906 8.90063C50.1806 8.90063 50.1706 8.89062 50.1606 8.88062C50.1606 8.88062 50.1506 8.88062 50.1406 8.87062C50.1406 8.87062 50.1706 8.91063 50.1906 8.93063C50.2306 8.98063 50.2606 9.03063 50.3006 9.07063H50.3106L50.3306 9.58062C50.3506 9.58062 50.3806 9.58062 50.4006 9.58062C50.4306 9.58062 50.4506 9.58063 50.4706 9.57063C50.6706 9.52063 50.8306 9.39062 50.9306 9.19062C50.9806 9.09062 51.0106 8.98062 51.0306 8.85062L51.0506 8.65063L50.9106 8.50063C50.9106 8.50063 50.8806 8.46062 50.8606 8.44062L50.8806 8.41062Z" fill="#ABABA4"/>
<path d="M31.62 49.81C31.62 49.81 31.62 49.81 31.62 49.8C31.62 49.8 31.62 49.77 31.62 49.75L30.84 49.87L31.1 50.67C31.1 50.67 31.19 50.63 31.23 50.61C31.5 50.46 31.65 50.17 31.61 49.82L31.62 49.81Z" fill="#ABABA4"/>
<path d="M5.65125 47.2531C5.65125 47.2531 5.64125 47.2231 5.63125 47.2031L4.78125 47.3231C4.82125 47.5731 4.93125 47.7831 5.11125 47.9231L5.65125 47.2531Z" fill="#ABABA4"/>
<path d="M0.46 23.9803L0.28 24.0203L0.19 24.1803C0.19 24.1803 0.16 24.2203 0.14 24.2403C0.12 24.2703 0.0900004 24.3103 0.0600004 24.3503C0.0400004 24.3803 0.02 24.4203 0 24.4503L0.54 24.7003L0.79 24.8103C0.79 24.8103 0.82 24.7703 0.84 24.7403C0.87 24.7003 0.91 24.6503 0.93 24.6003L0.75 24.4903L1.12 24.1203C0.96 23.9603 0.71 23.9003 0.46 23.9603V23.9803Z" fill="#ABABA4"/>
<path d="M2.68812 57.0625H2.25813L1.82812 57.0925C1.82812 57.1325 1.82812 57.1525 1.82812 57.1525C1.82812 57.1525 1.83812 57.1325 1.85812 57.1225C1.85812 57.1225 1.86813 57.1225 1.87813 57.1125L2.21813 57.9025C2.52813 57.7625 2.70812 57.4525 2.69812 57.0625H2.68812Z" fill="#ABABA4"/>
<path d="M58.1813 51.4087L58.1513 51.3787L58.1012 51.3387C58.0112 51.2687 57.9113 51.2287 57.7913 51.2188H57.7513H57.6213L57.7213 51.8087L57.5312 51.9987L57.6612 51.8687L57.7113 51.8187V51.8487V52.0687V51.9587V51.9187L57.7412 52.0787L57.7213 51.8087L58.1513 51.4187L58.1813 51.4087Z" fill="#ABABA4"/>
<path d="M24.8319 5.10969C24.8719 5.04969 24.9319 5.00969 25.0219 4.96969L24.8519 4.57969L25.0319 4.96969L24.8619 4.57969L24.6919 4.17969L24.8719 4.57969L24.7019 4.18969C24.5119 4.26969 24.3519 4.38969 24.2319 4.52969C24.2119 4.55969 24.1919 4.57969 24.1719 4.60969L24.8719 5.10969H24.8319Z" fill="#ABABA4"/>
<path d="M25.4092 30.7784C25.2392 30.5384 24.9892 30.4084 24.7092 30.3984V30.8284H24.6992V31.2584C24.6992 31.2584 24.6992 31.2584 24.7192 31.2984L25.4492 30.8384C25.4492 30.8384 25.4192 30.7984 25.4092 30.7784Z" fill="#ABABA4"/>
<path d="M15.6009 25.3712C15.6009 25.3712 15.5709 25.3612 15.5709 25.3712H15.4409L15.5709 25.3613H15.4409L14.7109 25.2812C14.7109 25.3313 14.7109 25.3813 14.7109 25.4313C14.7409 25.7713 14.9609 26.0513 15.3009 26.1813L15.3709 26.2113H17.8709L15.5909 25.3712H15.6009Z" fill="#ABABA4"/>
<path d="M72.2616 0.148438C72.2616 0.148438 72.2316 0.188437 72.2216 0.218437C72.2216 0.218437 72.2216 0.218439 72.2216 0.228439C72.1816 0.288439 72.1316 0.358438 72.1016 0.438438L72.9016 0.778439C72.9016 0.778439 72.9316 0.738437 72.9416 0.718437C72.9716 0.668437 73.0116 0.628438 73.0316 0.578438L72.2816 0.158436L72.2616 0.148438Z" fill="#ABABA4"/>
<path d="M65.3516 0.316254C65.2216 0.216254 65.0516 0.16625 64.8516 0.15625H64.6616L64.5316 0.296253C64.5216 0.316253 64.5016 0.326252 64.4816 0.346252C64.4516 0.376252 64.4116 0.406253 64.3916 0.436253C64.3816 0.446253 64.3616 0.466254 64.3516 0.476254L64.8316 0.896252H64.8516V0.916252L65.0016 1.04625C65.0016 1.04625 65.0316 1.01625 65.0516 0.99625C65.0916 0.95625 65.1416 0.916253 65.1716 0.886253L65.1516 0.866253H65.2116L65.6416 0.806252C65.6116 0.606252 65.5116 0.436252 65.3616 0.326252L65.3516 0.316254Z" fill="#ABABA4"/>
<path d="M68.5697 38.3703C66.3397 36.4903 64.4497 35.5603 62.9097 35.5603C63.0097 34.5903 63.7697 33.0103 65.1797 30.8203C66.5897 28.6403 68.2697 26.8003 70.2297 25.3103C70.0797 23.4603 69.1297 22.0503 67.3797 21.0703C63.8397 22.1503 60.4997 24.2303 57.3597 27.3103C54.2197 30.3903 51.7497 33.8503 49.9197 37.6703C48.0997 41.5003 47.1797 45.1603 47.1797 48.6503C47.1797 52.1403 48.2997 54.8903 50.5297 56.8903C52.7597 58.8903 55.6297 59.9003 59.1197 59.9003C62.6097 59.9003 65.6197 58.4903 68.1397 55.6603C70.6597 52.8403 71.9197 49.7203 71.9197 46.3003C71.9197 42.8803 70.7997 40.2403 68.5697 38.3603V38.3703Z" fill="#E4869A"/>
<path d="M40.9891 38.3703C38.7591 36.4903 36.8691 35.5603 35.3291 35.5603C35.4291 34.5903 36.1891 33.0103 37.5991 30.8203C39.0091 28.6403 40.6691 26.8003 42.5691 25.3103C42.4191 23.4103 41.4591 22.0003 39.7191 21.0703C34.4291 22.7103 29.7391 26.3903 25.6591 32.0903C21.5791 37.7903 19.5391 42.8503 19.5391 47.2703C19.5391 51.6903 20.6691 54.9003 22.9291 56.9003C25.1891 58.9003 28.0691 59.9103 31.5591 59.9103C35.0491 59.9103 38.0591 58.5003 40.5791 55.6703C43.0891 52.8503 44.3591 49.7303 44.3591 46.3103C44.3591 42.8903 43.2391 40.2503 41.0091 38.3703H40.9891Z" fill="#E4869A"/>
<g style="mix-blend-mode:multiply">
<path d="M65.1508 30.3309C62.2908 27.9309 59.8808 26.7309 57.9108 26.7309C58.0408 25.4809 59.0108 23.4609 60.8108 20.6709C62.6208 17.8809 64.7608 15.5309 67.2608 13.6309C67.0608 11.2709 65.8508 9.46094 63.6108 8.21094C59.0808 9.59094 54.8108 12.2509 50.8108 16.1909C46.8008 20.1309 43.6408 24.5509 41.3008 29.4409C38.9708 34.3309 37.8008 39.0109 37.8008 43.4709C37.8008 47.9309 39.2308 51.4509 42.0908 54.0109C44.9508 56.5709 48.6008 57.8509 53.0708 57.8509C57.5408 57.8509 61.3808 56.0409 64.5908 52.4309C67.8108 48.8209 69.4208 44.8309 69.4208 40.4609C69.4208 36.0909 67.9908 32.7109 65.1408 30.3209L65.1508 30.3309Z" fill="#8F70A7"/>
<path d="M29.8892 30.3309C27.0292 27.9309 24.6192 26.7309 22.6492 26.7309C22.7792 25.4809 23.7492 23.4609 25.5492 20.6709C27.3592 17.8809 29.4692 15.5309 31.9092 13.6309C31.7092 11.2009 30.4892 9.39094 28.2592 8.21094C21.4992 10.3109 15.4992 15.0109 10.2792 22.2909C5.05922 29.5809 2.44922 36.0509 2.44922 41.6909C2.44922 47.3309 3.88922 51.4409 6.77922 54.0009C9.66922 56.5609 13.3492 57.8409 17.8092 57.8409C22.2692 57.8409 26.1092 56.0309 29.3392 52.4209C32.5492 48.8109 34.1692 44.8209 34.1692 40.4509C34.1692 36.0809 32.7392 32.7009 29.8792 30.3109L29.8892 30.3309Z" fill="#8F70A7"/>
</g>
</svg>
