<svg width="77" height="60" viewBox="0 0 77 60" fill="none" xmlns="http://www.w3.org/2000/svg">
<path d="M7.53938 8.0611L7.21938 8.3511L7.46938 8.62109L8.10937 8.0411L7.99937 7.9211L7.85937 7.7711L7.53938 8.0611Z" fill="#ABABA4"/>
<path d="M61.1478 59.352C61.1478 59.352 61.1178 59.432 61.1078 59.472L61.0778 59.552L61.8878 59.832L61.9178 59.762C61.9478 59.682 61.9778 59.592 62.0078 59.482C62.0078 59.482 62.0078 59.462 62.0078 59.452L61.1578 59.282C61.1578 59.302 61.1578 59.322 61.1378 59.342L61.1478 59.352Z" fill="#ABABA4"/>
<path d="M52.7705 59.1702L52.5105 59.0402C52.4605 59.0102 52.3905 58.9802 52.3305 58.9502C52.3305 58.9502 52.2505 58.9202 52.2205 58.9002L52.0805 59.3102L52.0305 59.4502L52.1405 59.5202L51.9905 59.5502L51.9305 59.7102C51.9905 59.7302 52.0605 59.7702 52.1305 59.8002L52.2105 59.8402L52.3205 59.6302L52.7405 59.9102C52.8405 59.7602 52.8705 59.5702 52.8305 59.3802L52.7905 59.1802L52.7705 59.1702Z" fill="#ABABA4"/>
<path d="M0.855003 9.04437C0.855003 9.04437 0.855003 9.02437 0.855003 9.01437L-0.0049973 9.03438C-0.00499728 9.20438 0.0350034 9.35438 0.105003 9.48438L0.875 9.09438C0.875 9.09438 0.875 9.09437 0.875 9.08437C0.875 9.08437 0.875 9.05438 0.875 9.03438L0.855003 9.04437Z" fill="#ABABA4"/>
<path d="M33.5248 57.2314C33.5248 57.2314 33.5648 57.2614 33.5848 57.2814C33.6448 57.3314 33.7148 57.4014 33.8048 57.4414C33.8048 57.4414 33.8048 57.4414 33.8148 57.4414L34.2148 56.6814C34.2148 56.6814 34.1748 56.6414 34.1548 56.6314C34.1148 56.6014 34.0748 56.5614 34.0348 56.5314C34.0348 56.5314 34.0248 56.5314 34.0148 56.5214L33.5148 57.2214L33.5248 57.2314Z" fill="#ABABA4"/>
<path d="M30.6527 20.8592L30.7127 20.8592L30.7427 20.8592L30.7427 20.9492L30.7527 20.8592L30.7627 20.8592L31.0727 20.8792L31.5027 20.9092C31.5227 20.5292 31.2927 20.2192 30.9127 20.1092L30.8227 20.0892C30.8227 20.0892 30.7627 20.0892 30.7427 20.0892C30.7427 20.0892 30.6927 20.0892 30.6727 20.0892L30.7227 20.7792L30.7027 20.8592L30.6427 20.8592L30.6527 20.8592ZM30.7527 20.5192L30.7527 20.6892L30.7527 20.7092L30.7527 20.5192Z" fill="#ABABA4"/>
<path d="M33.4747 30.74L33.8047 29.94C33.8047 29.94 33.7847 29.94 33.7847 29.93C33.7247 29.89 33.6947 29.78 33.6747 29.69C33.6747 29.62 33.6947 29.59 33.7047 29.57L33.0247 29.05C32.9047 29.21 32.8247 29.43 32.8147 29.7L32.8147 29.75L32.8147 29.8C32.8947 30.29 33.1247 30.61 33.4747 30.75L33.4747 30.74Z" fill="#ABABA4"/>
<path d="M30.0703 49.0698L30.0903 49.0898L30.4003 48.7698L30.5003 48.8598L30.6103 48.7298L30.5103 48.6498L30.8203 48.3898C30.8203 48.3898 30.8203 48.3898 30.8203 48.3798C30.7603 48.3098 30.7003 48.2498 30.6403 48.1898L30.2703 47.8298L29.5903 48.6198L30.0803 49.0798L30.0703 49.0698Z" fill="#ABABA4"/>
<path d="M19.6595 30.5675L20.4395 32.6875L20.5195 30.5075L20.5195 30.4475C20.5195 30.4575 20.4995 30.4875 20.4695 30.5075C20.4695 30.5075 20.4595 30.5075 20.4495 30.5075L20.3895 30.3675L20.2795 30.1175L20.1095 29.7175C20.1095 29.7175 20.0495 29.7475 20.0195 29.7675C19.7995 29.9075 19.6795 30.1475 19.6595 30.4675L19.6595 30.5575L19.6595 30.5675Z" fill="#ABABA4"/>
<path d="M23.7491 54.375L23.9191 54.375L24.0391 54.245L23.7391 53.945L23.7391 53.565L23.7191 53.565L23.7191 53.505L23.5591 53.505L23.4291 53.635L22.9491 53.745C22.9491 53.745 22.9591 53.795 22.9691 53.815C23.0791 54.155 23.3591 54.375 23.7391 54.375L23.7491 54.375Z" fill="#ABABA4"/>
<path d="M19.2344 7.8425L19.2144 8.0625L19.2344 7.8425Z" fill="#ABABA4"/>
<path d="M29.0984 54.418C29.1784 54.368 29.2384 54.298 29.2984 54.228C29.3384 54.178 29.3684 54.128 29.3984 54.068L29.0084 53.878L28.6984 53.738L28.6184 53.698L29.1084 54.408L29.0984 54.418Z" fill="#ABABA4"/>
<path d="M26.0686 51.4995C26.0686 51.4995 26.1286 51.5795 26.1686 51.6195C26.2186 51.6695 26.2786 51.7295 26.3586 51.7695L26.5586 51.3895L26.6586 51.1995L26.6586 51.1795L26.6686 51.1795L26.7586 51.0095C26.7686 51.0095 26.7786 51.0195 26.7886 51.0295C26.7886 51.0295 26.7986 51.0295 26.8086 51.0395C26.8086 51.0395 26.7786 50.9995 26.7586 50.9795C26.7186 50.9295 26.6886 50.8795 26.6486 50.8395L26.6386 50.8395L26.6186 50.3295C26.5986 50.3295 26.5686 50.3295 26.5486 50.3295C26.5186 50.3295 26.4986 50.3295 26.4786 50.3395C26.2786 50.3895 26.1186 50.5195 26.0186 50.7195C25.9686 50.8195 25.9386 50.9295 25.9186 51.0595L25.8986 51.2595L26.0386 51.4095C26.0386 51.4095 26.0686 51.4495 26.0886 51.4695L26.0686 51.4995Z" fill="#ABABA4"/>
<path d="M45.3294 10.0923C45.3294 10.0923 45.3294 10.0923 45.3294 10.1023C45.3294 10.1023 45.3294 10.1323 45.3294 10.1523L46.1094 10.0323L45.8494 9.23235C45.8494 9.23235 45.7594 9.27234 45.7194 9.29234C45.4494 9.44234 45.2994 9.73234 45.3394 10.0823L45.3294 10.0923Z" fill="#ABABA4"/>
<path d="M71.298 12.657C71.298 12.657 71.308 12.687 71.318 12.707L72.168 12.587C72.128 12.337 72.018 12.127 71.838 11.987L71.298 12.657Z" fill="#ABABA4"/>
<path d="M76.4892 35.9298L76.6692 35.8898L76.7592 35.7298C76.7592 35.7298 76.7892 35.6898 76.8092 35.6698C76.8292 35.6398 76.8592 35.5998 76.8892 35.5598C76.9092 35.5298 76.9292 35.4898 76.9492 35.4598L76.4092 35.2098L76.1592 35.0998C76.1592 35.0998 76.1292 35.1398 76.1092 35.1698C76.0792 35.2098 76.0392 35.2598 76.0192 35.3098L76.1992 35.4198L75.8292 35.7898C75.9892 35.9498 76.2392 36.0098 76.4892 35.9498L76.4892 35.9298Z" fill="#ABABA4"/>
<path d="M74.2611 2.83984L74.6911 2.83984L75.1211 2.80984C75.1211 2.76984 75.1211 2.74984 75.1211 2.74984C75.1211 2.74984 75.1111 2.76985 75.0911 2.77985C75.0911 2.77985 75.0811 2.77984 75.0711 2.78984L74.7311 1.99984C74.4211 2.13984 74.2411 2.44984 74.2511 2.83984L74.2611 2.83984Z" fill="#ABABA4"/>
<path d="M18.768 8.50141L18.798 8.53141L18.848 8.57141C18.938 8.64141 19.038 8.68141 19.158 8.69141L19.198 8.69141L19.328 8.69141L19.228 8.10141L19.418 7.91141L19.288 8.04141L19.238 8.09141L19.238 8.06141L19.238 7.84141L19.238 7.95141L19.238 7.99141L19.208 7.83141L19.228 8.10141L18.798 8.49141L18.768 8.50141Z" fill="#ABABA4"/>
<path d="M52.1173 54.8044C52.0773 54.8644 52.0173 54.9044 51.9273 54.9444L52.0973 55.3344L51.9173 54.9444L52.0873 55.3344L52.2573 55.7344L52.0773 55.3344L52.2473 55.7244C52.4373 55.6444 52.5973 55.5244 52.7173 55.3844C52.7373 55.3544 52.7573 55.3344 52.7773 55.3044L52.0773 54.8044L52.1173 54.8044Z" fill="#ABABA4"/>
<path d="M51.54 29.1317C51.71 29.3717 51.96 29.5017 52.24 29.5117L52.24 29.0817L52.25 29.0817L52.25 28.6517C52.25 28.6517 52.25 28.6517 52.23 28.6117L51.5 29.0717C51.5 29.0717 51.53 29.1117 51.54 29.1317Z" fill="#ABABA4"/>
<path d="M61.3483 34.5389C61.3483 34.5389 61.3783 34.5489 61.3783 34.5389L61.5083 34.5389L61.3783 34.5489L61.5083 34.5489L62.2383 34.6289C62.2383 34.5789 62.2383 34.5289 62.2383 34.4789C62.2083 34.1389 61.9883 33.8589 61.6483 33.7289L61.5783 33.6989L59.0783 33.6989L61.3583 34.5389L61.3483 34.5389Z" fill="#ABABA4"/>
<path d="M4.68765 59.7656C4.68765 59.7656 4.71765 59.7256 4.72765 59.6956C4.72765 59.6956 4.72765 59.6956 4.72765 59.6856C4.76765 59.6256 4.81766 59.5556 4.84766 59.4756L4.04765 59.1356C4.04765 59.1356 4.01765 59.1756 4.00765 59.1956C3.97765 59.2456 3.93766 59.2856 3.91766 59.3356L4.66766 59.7556L4.68765 59.7656Z" fill="#ABABA4"/>
<path d="M11.5977 59.5861C11.7277 59.6861 11.8977 59.7361 12.0977 59.7461L12.2877 59.7461L12.4177 59.6061C12.4277 59.5861 12.4477 59.5761 12.4677 59.5561C12.4977 59.5261 12.5377 59.4961 12.5577 59.4661C12.5677 59.4561 12.5877 59.4361 12.5977 59.4261L12.1177 59.0061L12.0977 59.0061L12.0977 58.9861L11.9477 58.8561C11.9477 58.8561 11.9177 58.8861 11.8977 58.9061C11.8577 58.9461 11.8077 58.9861 11.7777 59.0161L11.7977 59.0361L11.7377 59.0361L11.3077 59.0961C11.3377 59.2961 11.4377 59.4661 11.5877 59.5761L11.5977 59.5861Z" fill="#ABABA4"/>
<path d="M8.39125 21.5359C10.6212 23.4159 12.5113 24.3459 14.0513 24.3459C13.9513 25.3159 13.1912 26.8959 11.7812 29.0859C10.3712 31.2659 8.69125 33.1059 6.73125 34.5959C6.88125 36.4459 7.83125 37.8559 9.58125 38.8359C13.1213 37.7559 16.4612 35.6759 19.6012 32.5959C22.7412 29.5159 25.2113 26.0559 27.0413 22.2359C28.8613 18.4059 29.7812 14.7459 29.7812 11.2559C29.7812 7.76594 28.6612 5.01594 26.4312 3.01594C24.2012 1.01594 21.3312 0.00593629 17.8412 0.00593654C14.3512 0.0059368 11.3412 1.41594 8.82125 4.24594C6.30125 7.06594 5.04125 10.1859 5.04125 13.6059C5.04125 17.0259 6.16125 19.6659 8.39125 21.5459L8.39125 21.5359Z" fill="#E4869A"/>
<path d="M35.9602 21.5398C38.1902 23.4198 40.0802 24.3498 41.6202 24.3498C41.5202 25.3198 40.7602 26.8998 39.3502 29.0898C37.9402 31.2698 36.2802 33.1098 34.3802 34.5998C34.5302 36.4998 35.4902 37.9098 37.2302 38.8398C42.5202 37.1998 47.2102 33.5198 51.2902 27.8198C55.3702 22.1198 57.4102 17.0598 57.4102 12.6398C57.4102 8.21985 56.2802 5.00984 54.0202 3.00984C51.7602 1.00984 48.8802 -0.000151963 45.3902 -0.000151707C41.9002 -0.000151451 38.8902 1.40984 36.3702 4.23985C33.8602 7.05985 32.5902 10.1798 32.5902 13.5998C32.5902 17.0198 33.7102 19.6599 35.9402 21.5398L35.9602 21.5398Z" fill="#E4869A"/>
<g style="mix-blend-mode:multiply">
<path d="M11.8023 29.5714C14.6623 31.9714 17.0723 33.1714 19.0423 33.1714C18.9123 34.4214 17.9423 36.4414 16.1423 39.2314C14.3323 42.0214 12.1923 44.3714 9.69234 46.2714C9.89234 48.6314 11.1023 50.4414 13.3423 51.6914C17.8723 50.3114 22.1423 47.6514 26.1423 43.7114C30.1523 39.7714 33.3123 35.3514 35.6523 30.4614C37.9823 25.5714 39.1523 20.8914 39.1523 16.4314C39.1523 11.9714 37.7223 8.45141 34.8623 5.89141C32.0023 3.33141 28.3523 2.05141 23.8823 2.05141C19.4123 2.05141 15.5723 3.86141 12.3623 7.47141C9.14234 11.0814 7.53234 15.0714 7.53234 19.4414C7.53234 23.8114 8.96234 27.1914 11.8123 29.5814L11.8023 29.5714Z" fill="#8F70A7"/>
<path d="M47.06 29.5792C49.92 31.9792 52.33 33.1792 54.3 33.1792C54.17 34.4292 53.2 36.4492 51.4 39.2392C49.59 42.0292 47.48 44.3792 45.04 46.2792C45.24 48.7092 46.46 50.5192 48.69 51.6992C55.45 49.5992 61.45 44.8992 66.67 37.6192C71.89 30.3292 74.5 23.8592 74.5 18.2192C74.5 12.5792 73.06 8.46922 70.17 5.90922C67.28 3.34922 63.6 2.06922 59.14 2.06922C54.68 2.06922 50.84 3.87922 47.61 7.48922C44.4 11.0992 42.78 15.0892 42.78 19.4592C42.78 23.8292 44.21 27.2092 47.07 29.5992L47.06 29.5792Z" fill="#8F70A7"/>
</g>
</svg>
