<svg width="110" height="96" viewBox="0 0 110 96" fill="none" xmlns="http://www.w3.org/2000/svg">
<path d="M5.80971 95.625C4.83957 95.625 3.95763 95.3825 3.16388 94.8974C2.37013 94.4123 1.75277 93.7729 1.31179 92.9792C0.870822 92.1854 0.628287 91.3255 0.58419 90.3995C0.540092 89.4734 0.782627 88.5694 1.31179 87.6875L50.2597 3.02083C50.7889 2.13889 51.4724 1.47743 52.3102 1.03646C53.1481 0.595486 54.008 0.375 54.8899 0.375C55.7719 0.375 56.6318 0.595486 57.4696 1.03646C58.3074 1.47743 58.991 2.13889 59.5201 3.02083L108.468 87.6875C108.997 88.5694 109.24 89.4734 109.196 90.3995C109.152 91.3255 108.909 92.1854 108.468 92.9792C108.027 93.7729 107.41 94.4123 106.616 94.8974C105.822 95.3825 104.94 95.625 103.97 95.625H5.80971ZM14.9378 85.0417H94.842L54.8899 16.25L14.9378 85.0417ZM54.8899 79.75C56.3892 79.75 57.646 79.2429 58.6602 78.2286C59.6745 77.2144 60.1816 75.9576 60.1816 74.4583C60.1816 72.959 59.6745 71.7023 58.6602 70.688C57.646 69.6738 56.3892 69.1667 54.8899 69.1667C53.3906 69.1667 52.1338 69.6738 51.1196 70.688C50.1054 71.7023 49.5982 72.959 49.5982 74.4583C49.5982 75.9576 50.1054 77.2144 51.1196 78.2286C52.1338 79.2429 53.3906 79.75 54.8899 79.75ZM54.8899 63.875C56.3892 63.875 57.646 63.3679 58.6602 62.3536C59.6745 61.3394 60.1816 60.0826 60.1816 58.5833V42.7083C60.1816 41.209 59.6745 39.9523 58.6602 38.938C57.646 37.9238 56.3892 37.4167 54.8899 37.4167C53.3906 37.4167 52.1338 37.9238 51.1196 38.938C50.1054 39.9523 49.5982 41.209 49.5982 42.7083V58.5833C49.5982 60.0826 50.1054 61.3394 51.1196 62.3536C52.1338 63.3679 53.3906 63.875 54.8899 63.875Z" fill="#FF0707"/>
</svg>
