<svg width="51" height="52" viewBox="0 0 51 52" fill="none" xmlns="http://www.w3.org/2000/svg">
<path d="M9.92952 45.1301C8.96175 45.1301 8.15375 44.806 7.50553 44.1578C6.85731 43.5096 6.5332 42.7016 6.5332 41.7338V21.1961C6.5332 20.2283 6.85731 19.4203 7.50553 18.7721C8.15375 18.1239 8.96175 17.7998 9.92952 17.7998H21.2495V9.39042C21.2495 8.80001 21.4524 8.30211 21.8582 7.89671C22.2636 7.49096 22.7615 7.28809 23.3519 7.28809H27.5565C28.147 7.28809 28.6449 7.49096 29.0503 7.89671C29.456 8.30211 29.6589 8.80001 29.6589 9.39042V17.7998H40.9789C41.9467 17.7998 42.7547 18.1239 43.4029 18.7721C44.0511 19.4203 44.3752 20.2283 44.3752 21.1961V41.7338C44.3752 42.7016 44.0511 43.5096 43.4029 44.1578C42.7547 44.806 41.9467 45.1301 40.9789 45.1301H9.92952ZM9.92952 43.0278H40.9789C41.3563 43.0278 41.6664 42.9065 41.9092 42.6641C42.1516 42.4212 42.2729 42.1111 42.2729 41.7338V21.1961C42.2729 20.8187 42.1516 20.5086 41.9092 20.2658C41.6664 20.0233 41.3563 19.9021 40.9789 19.9021H29.6589V21.5193C29.6589 22.0827 29.4493 22.574 29.0303 22.993C28.6112 23.4121 28.12 23.6216 27.5565 23.6216H23.3519C22.7885 23.6216 22.2972 23.4121 21.8781 22.993C21.4591 22.574 21.2495 22.0827 21.2495 21.5193V19.9021H9.92952C9.55215 19.9021 9.24206 20.0233 8.99924 20.2658C8.75677 20.5086 8.63554 20.8187 8.63554 21.1961V41.7338C8.63554 42.1111 8.75677 42.4212 8.99924 42.6641C9.24206 42.9065 9.55215 43.0278 9.92952 43.0278ZM13.4872 37.6101H24.8072V37.311C24.8072 36.8233 24.6746 36.3791 24.4094 35.9786C24.1438 35.5785 23.7804 35.2652 23.3193 35.0389C22.6455 34.7505 21.9629 34.5342 21.2716 34.3898C20.5803 34.2458 19.8722 34.1738 19.1472 34.1738C18.4223 34.1738 17.7141 34.2458 17.0228 34.3898C16.3315 34.5342 15.6489 34.7505 14.9751 35.0389C14.514 35.2652 14.1507 35.5785 13.8851 35.9786C13.6198 36.3791 13.4872 36.8233 13.4872 37.311V37.6101ZM19.1472 32.5161C19.8347 32.5161 20.4242 32.2701 20.9158 31.7782C21.4077 31.2862 21.6537 30.6967 21.6537 30.0096C21.6537 29.3221 21.4077 28.7324 20.9158 28.2405C20.4242 27.7489 19.8347 27.5031 19.1472 27.5031C18.4597 27.5031 17.8702 27.7489 17.3786 28.2405C16.8867 28.7324 16.6407 29.3221 16.6407 30.0096C16.6407 30.6967 16.8867 31.2862 17.3786 31.7782C17.8702 32.2701 18.4597 32.5161 19.1472 32.5161ZM23.3519 21.5193H27.5565V9.39042H23.3519V21.5193Z" fill="white"/>
<path d="M33.5176 30.9801L37.2456 37.9821H39.1903L34.2959 29.6621L33.5176 30.9801Z" fill="#FFCC01"/>
<path d="M34.1299 27.4717L34.1175 27.4923L27.9766 37.9743H29.5217L35.4128 27.7855L34.1299 27.4717Z" fill="white"/>
</svg>
