<svg width="64" height="65" viewBox="0 0 64 65" fill="none" xmlns="http://www.w3.org/2000/svg">
<g clip-path="url(#clip0_1725_17121)">
<path d="M3.99923 5.0615C-1.0301 10.2855 -0.000770763 15.8348 -0.000770763 32.6935C-0.000770763 46.6935 -2.44344 60.7282 10.3406 64.0322C14.3326 65.0588 49.7032 65.0588 53.6899 64.0268C59.0126 62.6535 63.3432 58.3362 63.9352 50.8082C64.0179 49.7575 64.0179 15.6482 63.9325 14.5762C63.3032 6.5575 58.3672 1.93616 51.8632 1.00016C50.3726 0.784163 50.0739 0.720163 42.4259 0.706829C15.2979 0.720163 9.35123 -0.487838 3.99923 5.0615Z" fill="url(#paint0_linear_1725_17121)"/>
<path d="M31.9955 9.07945C22.3128 9.07945 13.1181 8.21811 9.60614 17.2314C8.15547 20.9541 8.36614 25.7888 8.36614 32.7115C8.36614 38.7861 8.17147 44.4955 9.60614 48.1888C13.1101 57.2075 22.3795 56.3435 31.9901 56.3435C41.2621 56.3435 50.8221 57.3088 54.3768 48.1888C55.8301 44.4288 55.6168 39.6661 55.6168 32.7115C55.6168 23.4795 56.1261 17.5194 51.6488 13.0448C47.1155 8.51145 40.9848 9.07945 31.9848 9.07945H31.9955ZM29.8781 13.3381C50.0755 13.3061 52.6461 11.0608 51.2275 42.2528C50.7235 53.2848 42.3235 52.0741 31.9981 52.0741C13.1715 52.0741 12.6301 51.5355 12.6301 32.7008C12.6301 13.6474 14.1235 13.3488 29.8781 13.3328V13.3381ZM44.6088 17.2608C43.0435 17.2608 41.7741 18.5301 41.7741 20.0954C41.7741 21.6608 43.0435 22.9301 44.6088 22.9301C46.1741 22.9301 47.4435 21.6608 47.4435 20.0954C47.4435 18.5301 46.1741 17.2608 44.6088 17.2608ZM31.9955 20.5754C25.2941 20.5754 19.8621 26.0101 19.8621 32.7115C19.8621 39.4128 25.2941 44.8448 31.9955 44.8448C38.6968 44.8448 44.1261 39.4128 44.1261 32.7115C44.1261 26.0101 38.6968 20.5754 31.9955 20.5754ZM31.9955 24.8341C42.4088 24.8341 42.4221 40.5888 31.9955 40.5888C21.5848 40.5888 21.5688 24.8341 31.9955 24.8341Z" fill="white"/>
</g>
<defs>
<linearGradient id="paint0_linear_1725_17121" x1="4.12195" y1="60.6191" x2="63.6032" y2="9.13877" gradientUnits="userSpaceOnUse">
<stop stop-color="#FFDD55"/>
<stop offset="0.5" stop-color="#FF543E"/>
<stop offset="1" stop-color="#C837AB"/>
</linearGradient>
<clipPath id="clip0_1725_17121">
<rect width="64" height="64" fill="white" transform="translate(0 0.708008)"/>
</clipPath>
</defs>
</svg>
