<svg width="32" height="53" viewBox="0 0 32 53" fill="none" xmlns="http://www.w3.org/2000/svg">
<path d="M4.54385 52.7946C3.34106 52.7946 2.33684 52.3918 1.53121 51.5861C0.725572 50.7805 0.322754 49.7763 0.322754 48.5735V4.75821C0.322754 3.55541 0.725572 2.5512 1.53121 1.74556C2.33684 0.939927 3.34106 0.537109 4.54385 0.537109H27.4561C28.6589 0.537109 29.6632 0.939927 30.4688 1.74556C31.2744 2.5512 31.6772 3.55541 31.6772 4.75821V48.5735C31.6772 49.7763 31.2744 50.7805 30.4688 51.5861C29.6632 52.3918 28.6589 52.7946 27.4561 52.7946H4.54385ZM2.93563 46.2624V48.5735C2.93563 48.9759 3.10307 49.3445 3.43795 49.6794C3.77284 50.0143 4.14147 50.1817 4.54385 50.1817H27.4561C27.8585 50.1817 28.2272 50.0143 28.562 49.6794C28.8969 49.3445 29.0644 48.9759 29.0644 48.5735V46.2624H2.93563ZM2.93563 43.6495H29.0644V9.68217H2.93563V43.6495ZM2.93563 7.06929H29.0644V4.75821C29.0644 4.35582 28.8969 3.98719 28.562 3.65231C28.2272 3.31743 27.8585 3.14998 27.4561 3.14998H4.54385C4.14147 3.14998 3.77284 3.31743 3.43795 3.65231C3.10307 3.98719 2.93563 4.35582 2.93563 4.75821V7.06929Z" fill="#5640E4"/>
</svg>
