<svg width="48" height="21" viewBox="0 0 48 21" fill="none" xmlns="http://www.w3.org/2000/svg">
<path d="M1.59436 20.286C1.14273 20.286 0.764 20.1341 0.458182 19.8302C0.152727 19.5267 0 19.1505 0 18.7018V18.414C0 17.0825 0.716 15.9776 2.148 15.0992C3.58036 14.2212 5.42382 13.7822 7.67836 13.7822C8.01109 13.7822 8.36764 13.7981 8.748 13.8299C9.12873 13.862 9.53309 13.9142 9.96109 13.9865C9.61964 14.5783 9.37055 15.1855 9.21382 15.8081C9.05745 16.4307 8.97927 17.0547 8.97927 17.6801V20.286H1.59436ZM14.8702 20.286C14.3524 20.286 13.9264 20.1182 13.5922 19.7825C13.258 19.4468 13.0909 19.0309 13.0909 18.5348V17.8471C13.0909 16.9734 13.3462 16.1747 13.8567 15.4509C14.3673 14.7276 15.1204 14.1018 16.116 13.5735C17.112 13.0456 18.2722 12.6496 19.5965 12.3855C20.9209 12.1213 22.3831 11.9893 23.9831 11.9893C25.614 11.9893 27.0916 12.1213 28.416 12.3855C29.7404 12.6496 30.9005 13.0456 31.8965 13.5735C32.8922 14.1018 33.6433 14.7276 34.1498 15.4509C34.656 16.1747 34.9091 16.9734 34.9091 17.8471V18.5348C34.9091 19.0309 34.7402 19.4468 34.4024 19.7825C34.0645 20.1182 33.646 20.286 33.1467 20.286H14.8702ZM39.0207 20.286V17.6861C39.0207 16.9927 38.9445 16.3418 38.7922 15.7333C38.6398 15.1245 38.4113 14.5422 38.1065 13.9865C38.5622 13.9142 38.9713 13.862 39.3338 13.8299C39.696 13.7981 40.0393 13.7822 40.3636 13.7822C42.6182 13.7822 44.4545 14.2192 45.8727 15.0932C47.2909 15.9673 48 17.0742 48 18.414V18.7018C48 19.1505 47.8473 19.5267 47.5418 19.8302C47.236 20.1341 46.8573 20.286 46.4056 20.286H39.0207ZM15.3355 18.118H32.6771V17.6595C32.5931 16.6308 31.7447 15.79 30.132 15.1371C28.5196 14.4839 26.4756 14.1572 24 14.1572C21.5244 14.1572 19.4804 14.4839 17.868 15.1371C16.2553 15.79 15.4111 16.6308 15.3355 17.6595V18.118ZM7.66691 11.7389C6.81018 11.7389 6.08036 11.4368 5.47745 10.8327C4.87491 10.2285 4.57364 9.50228 4.57364 8.65389C4.57364 7.81454 4.87764 7.09749 5.48564 6.50275C6.09364 5.90801 6.82455 5.61064 7.67836 5.61064C8.52309 5.61064 9.25182 5.90801 9.86455 6.50275C10.4769 7.09749 10.7831 7.81869 10.7831 8.66636C10.7831 9.48909 10.4845 10.2069 9.88745 10.8197C9.29 11.4325 8.54982 11.7389 7.66691 11.7389ZM40.3636 11.7389C39.5273 11.7389 38.8007 11.4325 38.184 10.8197C37.5673 10.2069 37.2589 9.48909 37.2589 8.66636C37.2589 7.81869 37.5673 7.09749 38.184 6.50275C38.8007 5.90801 39.53 5.61064 40.3718 5.61064C41.2391 5.61064 41.972 5.90801 42.5705 6.50275C43.1691 7.09749 43.4684 7.81454 43.4684 8.65389C43.4684 9.50228 43.1709 10.2285 42.576 10.8327C41.9807 11.4368 41.2433 11.7389 40.3636 11.7389ZM24.0147 10.3633C22.6904 10.3633 21.5596 9.90118 20.6225 8.97692C19.6855 8.05301 19.2169 6.93092 19.2169 5.61064C19.2169 4.26399 19.6818 3.13521 20.6116 2.22431C21.5418 1.31305 22.6713 0.857422 24 0.857422C25.3553 0.857422 26.4913 1.31161 27.408 2.21998C28.3247 3.12798 28.7831 4.25333 28.7831 5.596C28.7831 6.91195 28.3262 8.03549 27.4124 8.96662C26.4985 9.89775 25.366 10.3633 24.0147 10.3633ZM24.0207 8.19537C24.7371 8.19537 25.3462 7.93901 25.848 7.42629C26.3502 6.91321 26.6013 6.30095 26.6013 5.5895C26.6013 4.87805 26.352 4.27284 25.8535 3.77385C25.3549 3.27486 24.7371 3.02537 24 3.02537C23.2978 3.02537 22.6887 3.27324 22.1727 3.76897C21.6567 4.26435 21.3987 4.87824 21.3987 5.61064C21.3987 6.308 21.6567 6.91321 22.1727 7.42629C22.6887 7.93901 23.3047 8.19537 24.0207 8.19537Z" fill="#5640E4"/>
</svg>
