<svg width="39" height="39" viewBox="0 0 39 39" fill="none" xmlns="http://www.w3.org/2000/svg">
<path d="M13.1281 22.7988V19.5043H14.4279C14.6778 19.5043 14.8907 19.5521 15.0665 19.6475C15.2424 19.7419 15.3765 19.8733 15.4687 20.0416C15.562 20.2089 15.6086 20.402 15.6086 20.6207C15.6086 20.8395 15.5615 21.0325 15.4671 21.1998C15.3727 21.3671 15.236 21.4974 15.0569 21.5907C14.8789 21.684 14.6633 21.7307 14.4102 21.7307H13.5818V21.1725H14.2976C14.4317 21.1725 14.5421 21.1494 14.629 21.1033C14.7169 21.0561 14.7823 20.9913 14.8252 20.9087C14.8692 20.825 14.8912 20.7291 14.8912 20.6207C14.8912 20.5114 14.8692 20.4159 14.8252 20.3344C14.7823 20.2518 14.7169 20.188 14.629 20.143C14.541 20.0969 14.4295 20.0738 14.2944 20.0738H13.8247V22.7988H13.1281ZM16.0611 19.5043H16.9201L17.8274 21.7178H17.866L18.7732 19.5043H19.6322V22.7988H18.9566V20.6545H18.9293L18.0767 22.7827H17.6166L16.764 20.6465H16.7367V22.7988H16.0611V19.5043ZM20.2061 22.7988V19.5043H22.3874V20.0786H20.9027V20.8636H22.2426V21.4379H20.9027V22.7988H20.2061Z" fill="white"/>
<path d="M18.1914 13.78L20.3978 17.924H21.5487L18.6521 13L18.1914 13.78Z" fill="#FFCC01"/>
<path d="M18.5596 11.7031L18.5523 11.7153L14.918 17.9188H15.8324L19.3189 11.8888L18.5596 11.7031Z" fill="white"/>
<path fill-rule="evenodd" clip-rule="evenodd" d="M23.4043 22.8984H29.7484V23.0161C29.7484 24.9892 29.7484 26.9653 29.7484 28.9384C29.7474 29.0095 29.7277 29.0788 29.6917 29.1375C29.1053 30.0345 28.5188 30.9295 27.9323 31.8226C27.9183 31.8412 27.901 31.8565 27.8815 31.8674C27.862 31.8783 27.8408 31.8846 27.819 31.8859H23.4772H23.4043V22.8984ZM29.4408 28.8901V23.2725H23.7092V31.4847H27.6463V28.878L29.4408 28.8901ZM27.8972 31.3036L29.206 29.1918H27.8972V31.3036Z" fill="white"/>
<path fill-rule="evenodd" clip-rule="evenodd" d="M25.748 30.0998C25.7485 30.2996 25.6962 30.495 25.5977 30.6612C25.4991 30.8275 25.3588 30.9571 25.1946 31.0335C25.0303 31.1099 24.8496 31.1297 24.6753 31.0905C24.5009 31.0512 24.341 30.9546 24.2157 30.8129C24.0904 30.6712 24.0054 30.4909 23.9715 30.2948C23.9376 30.0987 23.9564 29.8958 24.0255 29.7117C24.0945 29.5276 24.2107 29.3708 24.3593 29.2611C24.5079 29.1515 24.6821 29.0939 24.8599 29.0957C25.0959 29.0974 25.3218 29.2039 25.4882 29.392C25.6546 29.5802 25.748 29.8346 25.748 30.0998Z" fill="#001BC2"/>
<path fill-rule="evenodd" clip-rule="evenodd" d="M24.5514 30.2154C24.601 30.223 24.6525 30.2147 24.7019 30.2082C24.754 30.2056 24.8037 30.1833 24.843 30.1449C24.8577 30.1295 24.8695 30.1109 24.8776 30.0902C24.8857 30.0696 24.8899 30.0473 24.8901 30.0247L24.5218 30.0146C24.5393 29.989 24.5548 29.9651 24.5686 29.9409C24.5728 29.9316 24.5797 29.9241 24.588 29.9196C24.5964 29.915 24.6058 29.9137 24.6149 29.9156C24.6963 29.9282 24.7784 29.9205 24.861 29.9231L24.8822 29.9264C24.8768 29.9135 24.8698 29.9015 24.8613 29.8908C24.8433 29.8671 24.821 29.8479 24.796 29.8343C24.7709 29.8207 24.7437 29.813 24.7159 29.8118C24.6611 29.8034 24.6062 29.795 24.5494 29.8024L24.5317 29.7997C24.552 29.7664 24.57 29.7368 24.5898 29.7075C24.6096 29.6782 24.6004 29.7091 24.6057 29.7099L25.0173 29.7206L25.1863 29.7243L25.2057 29.7273C25.192 29.7515 25.1769 29.7714 25.1652 29.7939C25.1608 29.8059 25.1527 29.8157 25.1424 29.8215C25.1321 29.8273 25.1202 29.8288 25.109 29.8257C25.0666 29.8192 25.0259 29.8129 24.9832 29.8226C24.9986 29.8593 25.0139 29.8961 25.0288 29.9368L25.2082 29.9441L25.1501 30.0363C25.1501 30.0363 25.1395 30.0347 25.1359 30.0341L25.0407 30.0316C25.0255 30.0677 25.0176 30.1029 25.0013 30.1328C24.9797 30.1717 24.9508 30.2049 24.9166 30.23C24.8824 30.2551 24.8438 30.2716 24.8033 30.2784C24.7736 30.2859 24.7445 30.2875 24.7115 30.2926L24.7571 30.3623L25.0336 30.7709C25.0398 30.7802 25.0446 30.7905 25.048 30.8014L25.0161 30.7965L24.9188 30.7957C24.9116 30.7967 24.9043 30.7955 24.8976 30.7925L24.5623 30.3182C24.5589 30.3146 24.5563 30.31 24.5549 30.3049C24.55 30.2718 24.5498 30.2434 24.5514 30.2154Z" fill="url(#paint0_linear_1725_16255)"/>
<path fill-rule="evenodd" clip-rule="evenodd" d="M26.6586 26.3071C27.2873 26.3071 27.9161 26.3071 28.5448 26.3071C28.6424 26.3144 28.7373 26.3525 28.8217 26.4183C28.851 26.4347 28.8759 26.4623 28.8934 26.4976C28.911 26.5329 28.9203 26.5743 28.9203 26.6168C28.9203 26.6592 28.911 26.7006 28.8934 26.7359C28.8759 26.7712 28.851 26.7988 28.8217 26.8152C28.7241 26.887 28.6146 26.9253 28.5032 26.9265C27.4314 26.9265 26.3595 26.9265 25.2849 26.9265C25.1049 26.9265 24.9248 26.9265 24.7476 26.9265C24.6435 26.916 24.5424 26.8755 24.4512 26.8078C24.4264 26.7896 24.4056 26.7627 24.3912 26.7301C24.3768 26.6975 24.3691 26.6602 24.3691 26.6223C24.3691 26.5844 24.3768 26.5472 24.3912 26.5145C24.4056 26.4819 24.4264 26.4551 24.4512 26.4369C24.54 26.3647 24.641 26.3239 24.7448 26.3182C25.4012 26.3033 26.0216 26.3071 26.6586 26.3071Z" fill="#001BC2"/>
<path fill-rule="evenodd" clip-rule="evenodd" d="M26.6564 28.167C27.2765 28.167 27.8966 28.167 28.5167 28.167C28.6204 28.1681 28.7223 28.194 28.8144 28.2426C28.8455 28.2548 28.8724 28.2763 28.8913 28.3043C28.9102 28.3323 28.9203 28.3655 28.9203 28.3994C28.9203 28.4334 28.9102 28.4666 28.8913 28.4946C28.8724 28.5225 28.8455 28.5441 28.8144 28.5562C28.7299 28.6039 28.6353 28.6299 28.5387 28.6319C27.2728 28.6319 26.0069 28.6319 24.7409 28.6319C24.6441 28.6292 24.5494 28.6023 24.4653 28.5535C24.4366 28.54 24.4123 28.5185 24.3953 28.4914C24.3782 28.4644 24.3691 28.433 24.3691 28.4008C24.3691 28.3687 24.3782 28.3373 24.3953 28.3102C24.4123 28.2832 24.4366 28.2616 24.4653 28.2482C24.5604 28.1991 24.6647 28.1714 24.7713 28.167C25.4079 28.167 26.0335 28.167 26.6564 28.167Z" fill="#001BC2"/>
<path fill-rule="evenodd" clip-rule="evenodd" d="M26.6381 27.2389C27.2607 27.2389 27.8833 27.2389 28.5059 27.2389C28.6074 27.2388 28.7076 27.2692 28.7992 27.3278C28.8344 27.3429 28.8651 27.3725 28.8868 27.4124C28.9086 27.4523 28.9203 27.5005 28.9203 27.5499C28.9203 27.5993 28.9086 27.6475 28.8868 27.6874C28.8651 27.7273 28.8344 27.7569 28.7992 27.772C28.7231 27.8256 28.6388 27.8547 28.5529 27.8571H24.7316C24.6492 27.8502 24.5685 27.8226 24.4937 27.7757C24.4574 27.76 24.4258 27.7293 24.4034 27.6881C24.3811 27.6468 24.3691 27.5972 24.3691 27.5462C24.3692 27.4957 24.3813 27.4466 24.4037 27.406C24.4261 27.3654 24.4576 27.3354 24.4937 27.3204C24.5818 27.2727 24.6754 27.2452 24.7704 27.2389C25.3929 27.2352 26.0183 27.2389 26.6381 27.2389Z" fill="#001BC2"/>
<path fill-rule="evenodd" clip-rule="evenodd" d="M26.6499 25.535C27.2788 25.535 27.9105 25.535 28.5394 25.535C28.6432 25.539 28.7441 25.5707 28.8318 25.6269C28.8582 25.6391 28.8806 25.6587 28.8963 25.6834C28.912 25.708 28.9203 25.7367 28.9203 25.7661C28.9203 25.7954 28.912 25.8241 28.8963 25.8487C28.8806 25.8734 28.8582 25.893 28.8318 25.9052C28.7497 25.9602 28.6544 25.9919 28.556 25.9971C27.2871 25.9971 26.0173 25.9971 24.7465 25.9971C24.6499 25.995 24.5552 25.9692 24.4707 25.9219C24.4405 25.9088 24.4148 25.887 24.3968 25.8593C24.3788 25.8316 24.3691 25.7992 24.3691 25.7661C24.3691 25.7329 24.3788 25.7005 24.3968 25.6728C24.4148 25.6451 24.4405 25.6233 24.4707 25.6102C24.5557 25.5636 24.6499 25.5369 24.7465 25.5322C25.4003 25.5322 26.0209 25.535 26.6499 25.535Z" fill="#001BC2"/>
<path fill-rule="evenodd" clip-rule="evenodd" d="M24.8603 24.1198V24.7441H24.6465V23.694C24.8061 23.6537 24.8261 23.6623 24.9144 23.7975C25.0028 23.9328 25.1282 24.1313 25.2536 24.3241V23.6882H25.7011C25.7809 23.9011 25.8636 24.1284 25.9548 24.3816L26.2114 23.6824H26.4394C26.4344 23.7097 26.4278 23.7366 26.4194 23.763C26.3054 24.0651 26.1885 24.3701 26.0774 24.6751C26.0546 24.7412 26.0175 24.7528 25.9548 24.7556C25.9281 24.7601 25.9007 24.7543 25.878 24.7394C25.8553 24.7245 25.839 24.7015 25.8322 24.6751C25.7382 24.4075 25.6356 24.1428 25.5472 23.8781C25.5361 23.8447 25.5164 23.8149 25.4902 23.7918V24.7384C25.3106 24.7729 25.3106 24.7729 25.2223 24.6348L24.8831 24.1198H24.8603Z" fill="white"/>
<path fill-rule="evenodd" clip-rule="evenodd" d="M26.7854 24.7575C26.6543 24.7477 26.5316 24.6863 26.4421 24.5856C26.3525 24.485 26.3027 24.3527 26.3027 24.2152C26.3027 24.0777 26.3525 23.9454 26.4421 23.8448C26.5316 23.7441 26.6543 23.6827 26.7854 23.6729C26.9166 23.6827 27.0392 23.7441 27.1288 23.8448C27.2184 23.9454 27.2681 24.0777 27.2681 24.2152C27.2681 24.3527 27.2184 24.485 27.1288 24.5856C27.0392 24.6863 26.9166 24.7477 26.7854 24.7575ZM26.5174 24.2138C26.5133 24.2544 26.5171 24.2954 26.5285 24.3345C26.5398 24.3735 26.5585 24.4098 26.5835 24.4411C26.6085 24.4725 26.6393 24.4983 26.6739 24.517C26.7086 24.5357 26.7465 24.547 26.7854 24.5501C26.8255 24.5518 26.8655 24.5447 26.9027 24.529C26.94 24.5134 26.9736 24.4898 27.0015 24.4596C27.0293 24.4294 27.0507 24.3934 27.0643 24.3539C27.0779 24.3145 27.0834 24.2724 27.0803 24.2306C27.0863 24.1888 27.084 24.1461 27.0736 24.1053C27.0632 24.0644 27.0448 24.0262 27.0197 23.9931C26.9945 23.96 26.9631 23.9326 26.9275 23.9127C26.8918 23.8928 26.8526 23.8808 26.8122 23.8775C26.7696 23.8739 26.7267 23.8802 26.6867 23.896C26.6467 23.9118 26.6105 23.9366 26.5808 23.9688C26.551 24.001 26.5285 24.0396 26.5147 24.082C26.501 24.1243 26.4964 24.1694 26.5013 24.2138H26.5174Z" fill="white"/>
<path fill-rule="evenodd" clip-rule="evenodd" d="M28.5098 24.7575V23.6729H29.0567V23.8762H28.7032V24.0767H29.0184V24.2889H28.7032V24.5483H29.0614V24.7575H28.5098Z" fill="white"/>
<path fill-rule="evenodd" clip-rule="evenodd" d="M28.5103 23.7661C28.4821 23.8254 28.4569 23.8846 28.4318 23.9411C28.2246 23.9044 28.0047 23.8 27.8477 24.0145C27.8002 24.0861 27.7789 24.1693 27.7868 24.2523C27.7946 24.3354 27.8313 24.4141 27.8917 24.4774C28.0613 24.627 28.2465 24.5395 28.4381 24.4774L28.504 24.6609C28.3803 24.7315 28.2349 24.7648 28.0887 24.7562C27.9425 24.7476 27.8031 24.6974 27.6907 24.6129C27.6005 24.5039 27.5497 24.3726 27.5452 24.2368C27.5408 24.101 27.5828 23.9672 27.6656 23.8536C27.7745 23.7551 27.9174 23.6928 28.0709 23.6769C28.2244 23.661 28.3793 23.6924 28.5103 23.7661Z" fill="white"/>
<path fill-rule="evenodd" clip-rule="evenodd" d="M24.5071 24.7575H24.3691V23.6729H24.5071V24.7575Z" fill="white"/>
<path fill-rule="evenodd" clip-rule="evenodd" d="M27.5434 24.7575H27.2676V23.6729H27.5359L27.5434 24.7575Z" fill="white"/>
<path d="M25.1179 35.0399C25.8437 35.0399 26.4497 34.7968 26.9359 34.3106L25.7853 33.16C25.5832 33.3621 25.3607 33.4631 25.1179 33.4631V35.0399Z" fill="white"/>
<path fill-rule="evenodd" clip-rule="evenodd" d="M11.2914 35.0399C10.5656 35.0399 9.95955 34.7968 9.47339 34.3106C8.98722 33.8245 8.74414 33.2185 8.74414 32.4927V6.05212C8.74414 5.32629 8.98722 4.72029 9.47339 4.23413C9.95955 3.74797 10.5656 3.50488 11.2914 3.50488H25.1179C25.8437 3.50488 26.4497 3.74797 26.9359 4.23413C27.4221 4.72029 27.6651 5.32629 27.6651 6.05212V20.5338H26.0884V9.02351H10.3209V29.5213H21.0428V31.098L10.3209 31.098V32.4927C10.3209 32.7355 10.4219 32.9579 10.624 33.16C10.8261 33.3621 11.0486 33.4631 11.2914 33.4631H25.1179V35.0399H11.2914ZM10.3209 7.44676H26.0884V6.05212C26.0884 5.8093 25.9874 5.58685 25.7853 5.38476C25.5832 5.18268 25.3607 5.08163 25.1179 5.08163H11.2914C11.0486 5.08163 10.8261 5.18268 10.624 5.38476C10.4219 5.58685 10.3209 5.8093 10.3209 6.05212V7.44676Z" fill="white"/>
<path d="M21.0428 29.5213V31.098L22.4619 31.098V29.5213H21.0428Z" fill="white"/>
<path d="M26.0884 32.4927C26.0884 32.7355 25.9874 32.9579 25.7853 33.16L26.9359 34.3106C27.4166 33.8299 27.6597 33.2321 27.6651 32.5171L26.0884 32.4927Z" fill="white"/>
<path d="M27.6651 20.5338H26.0884V22.0317H27.6651V20.5338Z" fill="white"/>
<defs>
<linearGradient id="paint0_linear_1725_16255" x1="24.5188" y1="30.242" x2="25.1956" y2="30.258" gradientUnits="userSpaceOnUse">
<stop stop-color="#001BC2"/>
<stop offset="1" stop-color="#001BC2"/>
</linearGradient>
</defs>
</svg>
