<svg width="63" height="63" viewBox="0 0 63 63" fill="none" xmlns="http://www.w3.org/2000/svg">
<g clip-path="url(#clip0_614_20920)">
<path d="M31.2803 62.6211C48.3877 62.6211 62.2559 48.7529 62.2559 31.6455C62.2559 14.5382 48.3877 0.669922 31.2803 0.669922C14.1729 0.669922 0.304688 14.5382 0.304688 31.6455C0.304688 48.7529 14.1729 62.6211 31.2803 62.6211Z" fill="#039BE5"/>
<path d="M14.4787 30.9745L44.3444 19.4593C45.7305 18.9585 46.9412 19.7974 46.492 21.8935L46.4946 21.8909L41.4094 45.8479C41.0326 47.5464 40.0233 47.9594 38.6113 47.1592L30.8674 41.452L27.1323 45.0503C26.7192 45.4633 26.3708 45.8118 25.5706 45.8118L26.1204 37.9311L40.4724 24.9652C41.0971 24.4154 40.333 24.1056 39.5096 24.6529L21.7735 35.8196L14.1277 33.4345C12.4679 32.9079 12.4317 31.7747 14.4787 30.9745Z" fill="white"/>
</g>
<defs>
<clipPath id="clip0_614_20920">
<rect width="61.9512" height="61.9512" fill="white" transform="translate(0.304688 0.669922)"/>
</clipPath>
</defs>
</svg>
