<svg width="64" height="65" viewBox="0 0 64 65" fill="none" xmlns="http://www.w3.org/2000/svg">
<g clip-path="url(#clip0_1725_17127)">
<path d="M32 64.1943C49.6731 64.1943 64 49.8675 64 32.1943C64 14.5212 49.6731 0.194336 32 0.194336C14.3269 0.194336 0 14.5212 0 32.1943C0 49.8675 14.3269 64.1943 32 64.1943Z" fill="#29A71A"/>
<path d="M46.1088 18.0851C42.7794 14.7225 38.3581 12.6604 33.6423 12.2706C28.9264 11.8808 24.2265 13.1891 20.3903 15.9594C16.5541 18.7297 13.8341 22.7797 12.7209 27.3788C11.6078 31.978 12.1748 36.8235 14.3197 41.0414L12.2142 51.2632C12.1924 51.365 12.1918 51.4701 12.2124 51.5721C12.2331 51.6741 12.2745 51.7707 12.3342 51.856C12.4217 51.9853 12.5465 52.0849 12.6921 52.1414C12.8376 52.198 12.9969 52.2087 13.1488 52.1723L23.167 49.7978C27.373 51.8883 32.1843 52.4189 36.7448 51.295C41.3053 50.1711 45.3192 47.4657 48.0722 43.6602C50.8253 39.8547 52.1389 35.1958 51.7794 30.5126C51.4198 25.8295 49.4104 21.4258 46.1088 18.0851ZM42.9851 43.016C40.6816 45.313 37.7153 46.8294 34.5043 47.3513C31.2933 47.8732 27.9994 47.3743 25.087 45.925L23.6906 45.2341L17.5488 46.6887L17.567 46.6123L18.8397 40.4305L18.1561 39.0814C16.6679 36.1588 16.1429 32.8401 16.6564 29.6008C17.1698 26.3616 18.6953 23.3679 21.0142 21.0487C23.9281 18.1358 27.8795 16.4994 31.9997 16.4994C36.1198 16.4994 40.0713 18.1358 42.9851 21.0487C43.01 21.0771 43.0367 21.1039 43.0651 21.1287C45.9429 24.0491 47.5493 27.9888 47.5344 32.0888C47.5194 36.1888 45.8841 40.1166 42.9851 43.016Z" fill="white"/>
<path d="M42.4411 38.4809C41.6883 39.6664 40.4992 41.1173 39.0047 41.4773C36.3865 42.11 32.3683 41.4991 27.3683 36.8373L27.3065 36.7827C22.9101 32.7064 21.7683 29.3136 22.0447 26.6227C22.1974 25.0954 23.4701 23.7136 24.5429 22.8118C24.7125 22.6671 24.9136 22.564 25.1301 22.5109C25.3467 22.4578 25.5726 22.456 25.79 22.5059C26.0073 22.5557 26.21 22.6557 26.3817 22.7978C26.5535 22.94 26.6896 23.1204 26.7792 23.3245L28.3974 26.9609C28.5026 27.1967 28.5415 27.4566 28.5102 27.7129C28.4788 27.9691 28.3782 28.212 28.2192 28.4154L27.4011 29.4773C27.2255 29.6965 27.1196 29.9633 27.0969 30.2432C27.0742 30.5232 27.1358 30.8035 27.2738 31.0482C27.732 31.8518 28.8301 33.0336 30.0483 34.1282C31.4156 35.3645 32.932 36.4954 33.892 36.8809C34.1488 36.9858 34.4313 37.0114 34.7028 36.9544C34.9744 36.8974 35.2227 36.7603 35.4156 36.5609L36.3647 35.6045C36.5478 35.424 36.7756 35.2952 37.0247 35.2313C37.2738 35.1674 37.5354 35.1707 37.7829 35.2409L41.6265 36.3318C41.8385 36.3968 42.0329 36.5095 42.1947 36.6612C42.3565 36.8128 42.4815 36.9995 42.5601 37.2069C42.6387 37.4143 42.6688 37.6369 42.6482 37.8577C42.6276 38.0785 42.5567 38.2917 42.4411 38.4809Z" fill="white"/>
</g>
<defs>
<clipPath id="clip0_1725_17127">
<rect width="64" height="64" fill="white" transform="translate(0 0.195312)"/>
</clipPath>
</defs>
</svg>
