<svg width="63" height="63" viewBox="0 0 63 63" fill="none" xmlns="http://www.w3.org/2000/svg">
<g clip-path="url(#clip0_614_20930)">
<path d="M31.0733 62.6211C48.1806 62.6211 62.0489 48.7529 62.0489 31.6455C62.0489 14.5382 48.1806 0.669922 31.0733 0.669922C13.9659 0.669922 0.0976562 14.5382 0.0976562 31.6455C0.0976562 48.7529 13.9659 62.6211 31.0733 62.6211Z" fill="#FF0000"/>
<path d="M41.2098 19.9922H20.9371C20.127 19.9922 19.3247 20.1518 18.5763 20.462C17.8279 20.7721 17.1479 21.2267 16.5752 21.7998C16.0025 22.3728 15.5484 23.0531 15.2387 23.8018C14.9291 24.5504 14.77 25.3527 14.7705 26.1629V37.1266C14.77 37.9367 14.9291 38.7391 15.2387 39.4877C15.5484 40.2363 16.0025 40.9166 16.5752 41.4897C17.1479 42.0627 17.8279 42.5173 18.5763 42.8275C19.3247 43.1376 20.127 43.2973 20.9371 43.2973H41.2098C42.02 43.2973 42.8222 43.1376 43.5706 42.8275C44.319 42.5173 44.999 42.0627 45.5717 41.4897C46.1444 40.9166 46.5985 40.2363 46.9082 39.4877C47.2178 38.7391 47.3769 37.9367 47.3764 37.1266V26.1629C47.3769 25.3527 47.2178 24.5504 46.9082 23.8018C46.5985 23.0531 46.1444 22.3728 45.5717 21.7998C44.999 21.2267 44.319 20.7721 43.5706 20.462C42.8222 20.1518 42.02 19.9922 41.2098 19.9922ZM26.7776 36.6416V26.6479L35.3693 31.6447L26.7776 36.6416Z" fill="white"/>
</g>
<defs>
<clipPath id="clip0_614_20930">
<rect width="61.9512" height="61.9512" fill="white" transform="translate(0.0976562 0.669922)"/>
</clipPath>
</defs>
</svg>
