<svg width="64" height="65" viewBox="0 0 64 65" fill="none" xmlns="http://www.w3.org/2000/svg">
<g clip-path="url(#clip0_1725_17201)">
<mask id="mask0_1725_17201" style="mask-type:luminance" maskUnits="userSpaceOnUse" x="-65" y="-56" width="315" height="177">
<path d="M-64.3145 -55.9619H249.412V120.352H-64.3145V-55.9619Z" fill="white"/>
</mask>
<g mask="url(#mask0_1725_17201)">
<mask id="mask1_1725_17201" style="mask-type:luminance" maskUnits="userSpaceOnUse" x="0" y="0" width="64" height="65">
<path d="M32.0001 64.1954C49.6732 64.1954 64.0001 49.8685 64.0001 32.1954C64.0001 14.5222 49.6732 0.195312 32.0001 0.195312C14.3269 0.195312 0 14.5222 0 32.1954C0 49.8685 14.3269 64.1954 32.0001 64.1954Z" fill="white"/>
</mask>
<g mask="url(#mask1_1725_17201)">
<path d="M-1.56836 -1.37305H65.569V65.7643H-1.56836V-1.37305Z" fill="#E5E5E4"/>
</g>
<mask id="mask2_1725_17201" style="mask-type:luminance" maskUnits="userSpaceOnUse" x="0" y="0" width="64" height="64">
<path d="M31.9996 63.5684C49.3262 63.5684 63.3722 49.5225 63.3722 32.1958C63.3722 14.8692 49.3262 0.823242 31.9996 0.823242C14.6729 0.823242 0.626953 14.8692 0.626953 32.1958C0.626953 49.5225 14.6729 63.5684 31.9996 63.5684Z" fill="white"/>
</mask>
<g mask="url(#mask2_1725_17201)">
<path d="M-0.941406 -0.745117H64.9411V65.1373H-0.941406V-0.745117Z" fill="white"/>
</g>
<mask id="mask3_1725_17201" style="mask-type:luminance" maskUnits="userSpaceOnUse" x="3" y="3" width="58" height="59">
<path d="M31.9995 61.0586C47.94 61.0586 60.8623 48.1363 60.8623 32.1958C60.8623 16.2553 47.94 3.33301 31.9995 3.33301C16.059 3.33301 3.13672 16.2553 3.13672 32.1958C3.13672 48.1363 16.059 61.0586 31.9995 61.0586Z" fill="white"/>
</mask>
<g mask="url(#mask3_1725_17201)">
<path d="M1.56836 1.76465H62.4312V62.6275H1.56836V1.76465Z" fill="#4A8CFF"/>
</g>
<mask id="mask4_1725_17201" style="mask-type:luminance" maskUnits="userSpaceOnUse" x="13" y="22" width="38" height="21">
<path d="M40.7837 28.4498L48.9405 22.489C49.6527 21.9086 50.1954 22.0435 50.1954 23.1164V41.2937C50.1954 42.4984 49.5178 42.3604 48.9405 41.9212L40.7837 35.9604V28.4498ZM13.1758 23.1604V36.7133C13.1833 38.1847 13.7747 39.5929 14.8201 40.6283C15.8655 41.6637 17.2793 42.2416 18.7507 42.2349H38.5154C38.7828 42.2357 39.0396 42.1305 39.2296 41.9424C39.4195 41.7542 39.5271 41.4984 39.5288 41.231V27.678C39.5213 26.2067 38.9298 24.7985 37.8844 23.7631C36.839 22.7277 35.4252 22.1498 33.9539 22.1564H14.1891C13.9217 22.1556 13.6649 22.2608 13.475 22.449C13.285 22.6372 13.1774 22.893 13.1758 23.1604Z" fill="white"/>
</mask>
<g mask="url(#mask4_1725_17201)">
<path d="M11.6074 20.5879H51.7644V43.8036H11.6074V20.5879Z" fill="white"/>
</g>
</g>
</g>
<defs>
<clipPath id="clip0_1725_17201">
<rect width="64" height="64" fill="white" transform="translate(0 0.195312)"/>
</clipPath>
</defs>
</svg>
