<svg width="24" height="24" viewBox="0 0 24 24" fill="none" xmlns="http://www.w3.org/2000/svg">
<path d="M16.5838 -0.00292969C19.0559 -0.00292969 21.5278 -0.00292969 23.9999 -0.00292969C23.9999 7.99596 23.9999 15.9951 23.9999 23.9957C20.608 23.9957 17.2244 23.9957 13.8431 23.9957C13.8291 23.9712 13.8166 23.9486 13.8036 23.9263C13.5434 23.4804 13.2821 23.035 13.0226 22.5883C12.7384 22.099 12.4561 21.6082 12.1718 21.1189C11.8843 20.6244 11.5947 20.1312 11.3072 19.6364C11.0217 19.1454 10.7386 18.6529 10.4534 18.1619C10.1228 17.5931 9.78992 17.0255 9.45905 16.4567C9.17257 15.964 8.88805 15.47 8.6023 14.9767C8.48359 14.7717 8.36439 14.5666 8.24445 14.3623C8.22752 14.3334 8.22679 14.3113 8.2442 14.2811C8.38254 14.0454 8.51842 13.8082 8.65602 13.572C8.91895 13.121 9.18213 12.6699 9.44605 12.2191C9.72689 11.7391 10.0094 11.2601 10.29 10.7801C10.5103 10.4031 10.7281 10.0246 10.9484 9.64764C11.2027 9.21203 11.4593 8.7779 11.7136 8.34229C11.9589 7.92238 12.202 7.501 12.4472 7.08109C12.7246 6.60624 13.0042 6.13237 13.2821 5.65752C13.5721 5.16231 13.8612 4.66661 14.1502 4.17066C14.3751 3.78484 14.5983 3.39805 14.8237 3.01248C15.1053 2.53076 15.3886 2.04977 15.6706 1.5683C15.9024 1.17267 16.1337 0.776798 16.3645 0.380434C16.4386 0.253627 16.5107 0.125104 16.5838 -0.00292969Z" fill="#FECB01"/>
<path d="M0 23.9974C0 15.9973 0 7.99719 0 -0.00292969C4.74802 -0.00292969 9.49605 -0.00292969 14.2441 -0.00292969C14.2183 0.0448988 14.1938 0.0934631 14.1663 0.140311C14.0349 0.364737 13.9019 0.588182 13.7704 0.812853C13.6537 1.01226 13.5392 1.2129 13.4224 1.4123C13.2909 1.63673 13.1577 1.86018 13.0265 2.08485C12.9098 2.28425 12.7952 2.48489 12.6785 2.6843C12.5637 2.88027 12.4467 3.07477 12.3322 3.27099C12.199 3.49885 12.068 3.72819 11.9348 3.95629C11.7916 4.20083 11.6461 4.44414 11.5031 4.68868C11.3589 4.93494 11.2174 5.18266 11.0732 5.42892C10.9397 5.65678 10.8039 5.88341 10.6704 6.11127C10.5547 6.30896 10.4416 6.50813 10.3258 6.70582C10.1838 6.94864 10.0398 7.19048 9.89756 7.43355C9.76438 7.66141 9.6334 7.89074 9.49997 8.1186C9.34594 8.38153 9.18945 8.643 9.03567 8.90618C8.87403 9.1826 8.7146 9.4605 8.55297 9.73717C8.41954 9.96502 8.28366 10.1914 8.15023 10.4195C8.03544 10.6155 7.92384 10.8132 7.80905 11.0092C7.66679 11.252 7.52208 11.4936 7.37982 11.7364C7.26209 11.9373 7.14681 12.1399 7.02932 12.341C6.89491 12.5706 6.75878 12.7992 6.62437 13.0287C6.51057 13.223 6.39921 13.4187 6.2854 13.613C6.15198 13.8409 6.01609 14.0675 5.88266 14.2953C5.76689 14.493 5.65382 14.6922 5.5383 14.8899C5.40708 15.1146 5.27365 15.3378 5.14242 15.5624C5.02567 15.7618 4.91113 15.9625 4.79438 16.1619C4.65114 16.4064 4.50569 16.6497 4.36245 16.8943C4.21823 17.1405 4.07671 17.3883 3.93249 17.6345C3.79906 17.8624 3.66317 18.0888 3.52974 18.3169C3.41496 18.5128 3.30336 18.7105 3.18857 18.9065C3.04631 19.1493 2.90184 19.3909 2.75958 19.634C2.62517 19.8636 2.49371 20.0946 2.3593 20.3242C2.23273 20.5403 2.10347 20.7549 1.97716 20.971C1.84373 21.1988 1.71275 21.4282 1.57957 21.656C1.41989 21.9293 1.25826 22.2013 1.09834 22.4743C0.954363 22.7205 0.812349 22.968 0.668373 23.2145C0.534208 23.4441 0.395873 23.6715 0.265142 23.903C0.224671 23.9744 0.181258 24.0161 0.0951666 23.9999C0.0649979 23.9925 0.0318857 23.9974 0 23.9974Z" fill="white"/>
</svg>
