<svg width="32" height="32" viewBox="0 0 32 32" fill="none" xmlns="http://www.w3.org/2000/svg">
<path d="M28.0003 17.3332H25.3337C24.9559 17.3332 24.6392 17.2055 24.3837 16.9499C24.1281 16.6944 24.0003 16.3777 24.0003 15.9999C24.0003 15.6221 24.1281 15.3055 24.3837 15.0499C24.6392 14.7944 24.9559 14.6666 25.3337 14.6666H28.0003C28.3781 14.6666 28.6948 14.7944 28.9503 15.0499C29.2059 15.3055 29.3337 15.6221 29.3337 15.9999C29.3337 16.3777 29.2059 16.6944 28.9503 16.9499C28.6948 17.2055 28.3781 17.3332 28.0003 17.3332ZM22.1337 22.3999C22.3559 22.0888 22.6448 21.911 23.0003 21.8666C23.3559 21.8221 23.6892 21.911 24.0003 22.1332L26.1337 23.7332C26.4448 23.9555 26.6225 24.2444 26.667 24.5999C26.7114 24.9555 26.6225 25.2888 26.4003 25.5999C26.1781 25.911 25.8892 26.0888 25.5337 26.1332C25.1781 26.1777 24.8448 26.0888 24.5337 25.8666L22.4003 24.2666C22.0892 24.0444 21.9114 23.7555 21.867 23.3999C21.8225 23.0444 21.9114 22.711 22.1337 22.3999ZM26.1337 8.26658L24.0003 9.86658C23.6892 10.0888 23.3559 10.1777 23.0003 10.1332C22.6448 10.0888 22.3559 9.91102 22.1337 9.59991C21.9114 9.2888 21.8225 8.95547 21.867 8.59991C21.9114 8.24436 22.0892 7.95547 22.4003 7.73325L24.5337 6.13325C24.8448 5.91102 25.1781 5.82214 25.5337 5.86658C25.8892 5.91102 26.1781 6.0888 26.4003 6.39991C26.6225 6.71102 26.7114 7.04436 26.667 7.39991C26.6225 7.75547 26.4448 8.04436 26.1337 8.26658ZM6.66699 19.9999H5.33366C4.60033 19.9999 3.97255 19.7388 3.45033 19.2166C2.9281 18.6944 2.66699 18.0666 2.66699 17.3332V14.6666C2.66699 13.9332 2.9281 13.3055 3.45033 12.7832C3.97255 12.261 4.60033 11.9999 5.33366 11.9999H10.667L15.3003 9.19991C15.7448 8.93325 16.1948 8.93325 16.6503 9.19991C17.1059 9.46658 17.3337 9.85547 17.3337 10.3666V21.6332C17.3337 22.1444 17.1059 22.5332 16.6503 22.7999C16.1948 23.0666 15.7448 23.0666 15.3003 22.7999L10.667 19.9999H9.33366V23.9999C9.33366 24.3777 9.20588 24.6944 8.95033 24.9499C8.69477 25.2055 8.3781 25.3332 8.00033 25.3332C7.62255 25.3332 7.30588 25.2055 7.05033 24.9499C6.79477 24.6944 6.66699 24.3777 6.66699 23.9999V19.9999ZM14.667 19.2666V12.7332L11.4003 14.6666H5.33366V17.3332H11.4003L14.667 19.2666ZM18.667 20.4666V11.5332C19.267 12.0666 19.7503 12.7166 20.117 13.4832C20.4837 14.2499 20.667 15.0888 20.667 15.9999C20.667 16.911 20.4837 17.7499 20.117 18.5166C19.7503 19.2832 19.267 19.9332 18.667 20.4666Z" fill="white"/>
</svg>
