<svg width="28" height="27" viewBox="0 0 28 27" fill="none" xmlns="http://www.w3.org/2000/svg">
<g clip-path="url(#clip0_454_5535)">
<path d="M20.9163 9.26074C17.7797 7.50642 12.7455 4.6894 4.937 0.317247C4.41055 -0.0304308 3.80485 -0.0759933 3.28151 0.101142L16.6787 13.4983L20.9163 9.26074Z" fill="#32BBFF"/>
<path d="M3.28188 0.0996094C3.1838 0.132832 3.08835 0.17291 2.99706 0.22132C2.41915 0.53393 1.99448 1.13547 1.99448 1.89627V25.0973C1.99448 25.8581 2.41909 26.4596 2.99706 26.7722C3.08819 26.8206 3.18358 26.8608 3.28156 26.8942L16.6791 13.4968L3.28188 0.0996094Z" fill="#32BBFF"/>
<path d="M16.679 13.4983L3.28151 26.8957C3.805 27.0742 4.41071 27.0321 4.93732 26.6794C12.5099 22.439 17.4874 19.6553 20.6602 17.8861C20.7485 17.8365 20.8351 17.788 20.9206 17.7399L16.679 13.4983Z" fill="#32BBFF"/>
<path d="M1.99333 13.4985V25.099C1.99333 25.8598 2.41795 26.4614 2.99592 26.7739C3.08704 26.8223 3.18244 26.8625 3.28042 26.896L16.6779 13.4985H1.99333Z" fill="#2C9FD9"/>
<path d="M4.93581 0.317878C4.31064 -0.0949267 3.57341 -0.0831669 2.9955 0.223536L16.4741 13.7022L20.915 9.26137C17.7785 7.50705 12.7443 4.69003 4.93581 0.317878Z" fill="#29CC5E"/>
<path d="M16.4743 13.2959L2.9955 26.7745C3.57347 27.0812 4.31064 27.0989 4.93581 26.6802C12.5084 22.4398 17.4859 19.6562 20.6587 17.887C20.747 17.8373 20.8335 17.7888 20.9191 17.7408L16.4743 13.2959Z" fill="#D93F21"/>
<path d="M26.509 13.4957C26.509 12.8529 26.1847 12.2042 25.5418 11.8444C25.5418 11.8444 24.3395 11.1736 20.6543 9.1123L16.2708 13.4957L20.6585 17.8835C24.3033 15.837 25.5417 15.147 25.5417 15.147C26.1847 14.7873 26.509 14.1386 26.509 13.4957Z" fill="#FFD500"/>
</g>
<defs>
<clipPath id="clip0_454_5535">
<rect width="27" height="27" fill="white" transform="translate(0.75)"/>
</clipPath>
</defs>
</svg>
