<svg width="24" height="24" viewBox="0 0 24 24" fill="none" xmlns="http://www.w3.org/2000/svg">
<g clip-path="url(#clip0_454_6199)">
<path d="M12 24C18.6274 24 24 18.6274 24 12C24 5.37258 18.6274 0 12 0C5.37258 0 0 5.37258 0 12C0 18.6274 5.37258 24 12 24Z" fill="#2196F3"/>
<path d="M11.9972 12.5925L5.67188 9.43689V15.7069C5.67274 16.0248 5.7994 16.3294 6.02417 16.5541C6.24893 16.7789 6.55354 16.9056 6.87141 16.9064H17.1286C17.4465 16.9056 17.7511 16.7789 17.9758 16.5541C18.2006 16.3294 18.3273 16.0248 18.3281 15.7069V9.50298L11.9972 12.5925Z" fill="white"/>
<path d="M12.0028 11.4075L18.3281 8.32032V8.29313C18.3273 7.97526 18.2006 7.67066 17.9758 7.44589C17.7511 7.22112 17.4465 7.09446 17.1286 7.0936H6.87141C6.56085 7.09421 6.26256 7.21492 6.03898 7.43047C5.8154 7.64601 5.68386 7.93968 5.67188 8.25L12.0028 11.4075Z" fill="white"/>
</g>
<defs>
<clipPath id="clip0_454_6199">
<rect width="24" height="24" fill="white"/>
</clipPath>
</defs>
</svg>
