<svg width="19" height="20" viewBox="0 0 19 20" fill="none" xmlns="http://www.w3.org/2000/svg">
<path d="M15.9116 3.25715C14.351 1.68096 12.2785 0.714328 10.0679 0.531623C7.85735 0.348918 5.65426 0.962164 3.85604 2.26075C2.05781 3.55933 0.782815 5.45776 0.261037 7.61361C-0.260741 9.76946 0.00504369 12.0408 1.01045 14.018L0.0235181 18.8094C0.0132776 18.8571 0.0129876 18.9064 0.0226663 18.9542C0.032345 19.002 0.051784 19.0473 0.0797678 19.0873C0.120762 19.1479 0.179279 19.1946 0.247504 19.2211C0.315729 19.2476 0.390414 19.2526 0.461586 19.2356L5.15761 18.1225C7.12919 19.1024 9.38451 19.3511 11.5222 18.8243C13.66 18.2975 15.5415 17.0294 16.832 15.2455C18.1224 13.4617 18.7382 11.2778 18.5697 9.08259C18.4011 6.88736 17.4592 4.82311 15.9116 3.25715ZM14.4474 14.9435C13.3676 16.0203 11.9771 16.7311 10.472 16.9757C8.96682 17.2203 7.42283 16.9865 6.05761 16.3072L5.40306 15.9833L2.52409 16.6651L2.53261 16.6293L3.1292 13.7316L2.80875 13.0992C2.11118 11.7292 1.8651 10.1736 2.10577 8.65518C2.34643 7.13677 3.0615 5.73349 4.14852 4.64636C5.51438 3.28092 7.36663 2.51386 9.29795 2.51386C11.2293 2.51386 13.0815 3.28092 14.4474 4.64636C14.459 4.6597 14.4715 4.67223 14.4849 4.68386C15.8338 6.05282 16.5869 7.89954 16.5798 9.82141C16.5728 11.7433 15.8063 13.5845 14.4474 14.9435Z" fill="#29A71A"/>
<path d="M14.1933 12.8197C13.8404 13.3754 13.283 14.0555 12.5825 14.2242C11.3552 14.5208 9.47167 14.2345 7.12792 12.0492L7.09894 12.0237C5.03814 10.1129 4.50292 8.52253 4.63246 7.26117C4.70405 6.54526 5.30064 5.89753 5.80348 5.4748C5.88298 5.40695 5.97725 5.35865 6.07876 5.33374C6.18027 5.30884 6.28619 5.30804 6.38806 5.33139C6.48994 5.35475 6.58493 5.40162 6.66545 5.46825C6.74597 5.53489 6.80978 5.61944 6.85178 5.71514L7.6103 7.41969C7.65959 7.53021 7.67786 7.65207 7.66315 7.77219C7.64843 7.8923 7.60129 8.00615 7.52678 8.10151L7.14326 8.59923C7.06096 8.70201 7.01131 8.82705 7.00068 8.95828C6.99004 9.08951 7.01892 9.22092 7.0836 9.3356C7.29837 9.7123 7.81314 10.2663 8.38417 10.7793C9.02508 11.3589 9.73587 11.889 10.1859 12.0697C10.3063 12.1189 10.4387 12.1309 10.566 12.1042C10.6933 12.0774 10.8096 12.0132 10.9001 11.9197L11.345 11.4714C11.4308 11.3867 11.5376 11.3264 11.6543 11.2964C11.7711 11.2665 11.8938 11.268 12.0097 11.3009L13.8114 11.8123C13.9108 11.8428 14.0019 11.8956 14.0778 11.9667C14.1536 12.0378 14.2122 12.1253 14.249 12.2225C14.2859 12.3197 14.3 12.424 14.2903 12.5276C14.2807 12.6311 14.2475 12.731 14.1933 12.8197Z" fill="#29A71A"/>
</svg>
