<svg width="31" height="31" viewBox="0 0 31 31" fill="none" xmlns="http://www.w3.org/2000/svg">
<path d="M15.3598 30.5C23.6441 30.5 30.3598 23.7843 30.3598 15.5C30.3598 7.21573 23.6441 0.5 15.3598 0.5C7.07553 0.5 0.359802 7.21573 0.359802 15.5C0.359802 23.7843 7.07553 30.5 15.3598 30.5Z" fill="#29A71A"/>
<path d="M21.9745 8.88801C20.4139 7.31182 18.3414 6.34519 16.1308 6.16248C13.9203 5.97978 11.7172 6.59302 9.91896 7.89161C8.12074 9.19019 6.84574 11.0886 6.32396 13.2445C5.80219 15.4003 6.06797 17.6717 7.07338 19.6488L6.08645 24.4403C6.0762 24.488 6.07591 24.5373 6.08559 24.5851C6.09527 24.6329 6.11471 24.6782 6.1427 24.7181C6.18369 24.7788 6.24221 24.8254 6.31043 24.8519C6.37866 24.8784 6.45334 24.8835 6.52451 24.8664L11.2205 23.7534C13.1921 24.7333 15.4474 24.982 17.5852 24.4552C19.7229 23.9284 21.6044 22.6602 22.8949 20.8764C24.1854 19.0925 24.8011 16.9087 24.6326 14.7134C24.4641 12.5182 23.5222 10.454 21.9745 8.88801ZM20.5103 20.5744C19.4305 21.6511 18.0401 22.3619 16.5349 22.6066C15.0297 22.8512 13.4858 22.6174 12.1205 21.938L11.466 21.6142L8.58701 22.296L8.59554 22.2602L9.19213 19.3624L8.87167 18.7301C8.1741 17.3601 7.92803 15.8044 8.16869 14.286C8.40936 12.7676 9.12442 11.3644 10.2114 10.2772C11.5773 8.91178 13.4296 8.14472 15.3609 8.14472C17.2922 8.14472 19.1444 8.91178 20.5103 10.2772C20.5219 10.2906 20.5345 10.3031 20.5478 10.3147C21.8967 11.6837 22.6498 13.5304 22.6428 15.4523C22.6357 17.3741 21.8692 19.2153 20.5103 20.5744Z" fill="white"/>
<path d="M20.2562 18.4505C19.9033 19.0062 19.346 19.6863 18.6454 19.8551C17.4181 20.1517 15.5346 19.8653 13.1908 17.6801L13.1619 17.6545C11.1011 15.7437 10.5658 14.1534 10.6954 12.892C10.767 12.1761 11.3636 11.5284 11.8664 11.1057C11.9459 11.0378 12.0402 10.9895 12.1417 10.9646C12.2432 10.9397 12.3491 10.9389 12.451 10.9623C12.5529 10.9856 12.6479 11.0325 12.7284 11.0991C12.8089 11.1657 12.8727 11.2503 12.9147 11.346L13.6732 13.0505C13.7225 13.1611 13.7408 13.2829 13.7261 13.403C13.7114 13.5232 13.6642 13.637 13.5897 13.7324L13.2062 14.2301C13.1239 14.3329 13.0742 14.4579 13.0636 14.5891C13.053 14.7204 13.0819 14.8518 13.1465 14.9665C13.3613 15.3432 13.8761 15.8971 14.4471 16.4102C15.088 16.9898 15.7988 17.5199 16.2488 17.7005C16.3692 17.7497 16.5016 17.7617 16.6289 17.735C16.7562 17.7083 16.8726 17.644 16.963 17.5505L17.4079 17.1023C17.4937 17.0176 17.6005 16.9572 17.7173 16.9273C17.834 16.8973 17.9567 16.8989 18.0727 16.9318L19.8744 17.4432C19.9738 17.4736 20.0649 17.5265 20.1407 17.5976C20.2165 17.6686 20.2751 17.7561 20.312 17.8534C20.3488 17.9506 20.3629 18.0549 20.3533 18.1584C20.3436 18.2619 20.3104 18.3618 20.2562 18.4505Z" fill="white"/>
</svg>
