<svg width="330" height="78" viewBox="0 0 330 78" fill="none" xmlns="http://www.w3.org/2000/svg">
<path d="M32.7168 30.0038L54.7248 74.0973H66.2049L37.3118 21.7041L32.7168 30.0038Z" fill="#FFCC01"/>
<path d="M36.3251 7.90283L36.2519 8.03284L0 74.0405H9.12158L43.8988 9.87895L36.3251 7.90283Z" fill="white"/>
<path d="M95.292 36.9474H99.4302V51.1266C99.4302 53.926 98.8673 55.9849 97.7415 57.3035C96.2302 59.0885 93.9532 59.9811 90.9105 59.9811C89.2877 59.9811 87.9235 59.7782 86.8179 59.3725C85.7124 58.9668 84.7793 58.3684 84.0186 57.5773C83.2579 56.7963 82.695 55.8429 82.3299 54.7171H86.9092C87.3149 55.1837 87.8373 55.5336 88.4763 55.7669C89.1152 56.0103 89.8708 56.132 90.7431 56.132C91.8588 56.132 92.7564 55.9596 93.436 55.6147C94.1155 55.2699 94.5922 54.8236 94.8661 54.2759C95.15 53.7282 95.292 52.785 95.292 51.4461C94.5618 52.1764 93.796 52.7038 92.9948 53.0284C92.1935 53.3428 91.2857 53.5 90.2715 53.5C88.0503 53.5 86.1739 52.6987 84.6424 51.0962C83.1108 49.4937 82.3451 47.4652 82.3451 45.0107C82.3451 42.3838 83.1565 40.2741 84.7793 38.6817C86.25 37.2415 88.0046 36.5214 90.0433 36.5214C90.9967 36.5214 91.8943 36.6989 92.7361 37.0539C93.5881 37.3987 94.4401 37.9718 95.292 38.773V36.9474ZM90.9865 40.4009C89.6781 40.4009 88.598 40.8421 87.746 41.7245C86.894 42.5968 86.468 43.6972 86.468 45.0259C86.468 46.4053 86.9042 47.5362 87.7764 48.4186C88.6487 49.301 89.7441 49.7422 91.0626 49.7422C92.3507 49.7422 93.4106 49.3111 94.2423 48.449C95.0841 47.5869 95.505 46.456 95.505 45.0563C95.505 43.6769 95.0841 42.5562 94.2423 41.6941C93.4005 40.832 92.3152 40.4009 90.9865 40.4009ZM105.257 30.1316C105.987 30.1316 106.611 30.3953 107.128 30.9227C107.656 31.4501 107.92 32.0891 107.92 32.8396C107.92 33.58 107.661 34.214 107.144 34.7414C106.626 35.2586 106.008 35.5173 105.288 35.5173C104.547 35.5173 103.913 35.2536 103.386 34.7262C102.869 34.1886 102.61 33.5395 102.61 32.7788C102.61 32.0485 102.869 31.4248 103.386 30.9075C103.903 30.3902 104.527 30.1316 105.257 30.1316ZM103.173 36.9474H107.341V53.5H103.173V36.9474ZM109.334 36.9474H113.564L117.748 46.7146L121.916 36.9474H126.13L119.086 53.5H116.394L109.334 36.9474ZM145.163 46.4256H131.82C132.013 47.6021 132.525 48.5403 133.357 49.2401C134.199 49.9298 135.269 50.2747 136.567 50.2747C138.119 50.2747 139.453 49.732 140.568 48.6468L144.068 50.2899C143.195 51.5273 142.151 52.4452 140.933 53.0436C139.716 53.6319 138.271 53.926 136.598 53.926C134.001 53.926 131.886 53.1095 130.253 51.4766C128.62 49.8335 127.804 47.7796 127.804 45.315C127.804 42.7895 128.615 40.695 130.238 39.0317C131.871 37.3581 133.915 36.5214 136.369 36.5214C138.976 36.5214 141.096 37.3581 142.729 39.0317C144.362 40.695 145.178 42.896 145.178 45.6345L145.163 46.4256ZM140.994 43.1546C140.72 42.2316 140.178 41.4811 139.366 40.903C138.565 40.3248 137.632 40.0358 136.567 40.0358C135.411 40.0358 134.397 40.3603 133.524 41.0095C132.977 41.4152 132.47 42.1302 132.003 43.1546H140.994ZM172.107 30.8466H176.245V36.9474H178.709V40.5226H176.245V53.5H172.107V40.5226H169.977V36.9474H172.107V30.8466ZM193.178 36.9474H197.316V53.5H193.178V51.7504C192.366 52.5212 191.55 53.0791 190.728 53.4239C189.917 53.7586 189.035 53.926 188.081 53.926C185.941 53.926 184.09 53.0994 182.528 51.4461C180.966 49.7828 180.185 47.7187 180.185 45.2541C180.185 42.6982 180.941 40.6038 182.452 38.9708C183.963 37.3379 185.799 36.5214 187.959 36.5214C188.953 36.5214 189.886 36.709 190.759 37.0843C191.631 37.4596 192.437 38.0225 193.178 38.773V36.9474ZM188.811 40.3553C187.523 40.3553 186.453 40.8117 185.601 41.7245C184.749 42.6272 184.323 43.7885 184.323 45.2085C184.323 46.6386 184.754 47.8151 185.616 48.7381C186.489 49.661 187.559 50.1225 188.827 50.1225C190.135 50.1225 191.22 49.6712 192.082 48.7685C192.944 47.8557 193.376 46.6639 193.376 45.1933C193.376 43.753 192.944 42.5866 192.082 41.6941C191.22 40.8015 190.13 40.3553 188.811 40.3553ZM201.545 30.5576H205.699V43.7784L211.815 36.9474H217.018L209.898 44.889L217.885 53.5H212.727L205.699 45.8779V53.5H201.545V30.5576ZM236.172 46.4256H222.829C223.022 47.6021 223.534 48.5403 224.366 49.2401C225.208 49.9298 226.278 50.2747 227.576 50.2747C229.128 50.2747 230.462 49.732 231.577 48.6468L235.077 50.2899C234.204 51.5273 233.16 52.4452 231.943 53.0436C230.725 53.6319 229.28 53.926 227.607 53.926C225.01 53.926 222.895 53.1095 221.262 51.4766C219.629 49.8335 218.813 47.7796 218.813 45.315C218.813 42.7895 219.624 40.695 221.247 39.0317C222.88 37.3581 224.924 36.5214 227.378 36.5214C229.985 36.5214 232.105 37.3581 233.738 39.0317C235.371 40.695 236.187 42.896 236.187 45.6345L236.172 46.4256ZM232.003 43.1546C231.73 42.2316 231.187 41.4811 230.376 40.903C229.574 40.3248 228.641 40.0358 227.576 40.0358C226.42 40.0358 225.406 40.3603 224.533 41.0095C223.986 41.4152 223.479 42.1302 223.012 43.1546H232.003ZM241.816 49.1641C242.476 49.1641 243.038 49.3973 243.505 49.8639C243.972 50.3203 244.205 50.8782 244.205 51.5374C244.205 52.1967 243.972 52.7596 243.505 53.2262C243.038 53.6927 242.476 53.926 241.816 53.926C241.157 53.926 240.594 53.6927 240.128 53.2262C239.661 52.7596 239.428 52.1967 239.428 51.5374C239.428 50.8782 239.661 50.3203 240.128 49.8639C240.594 49.3973 241.157 49.1641 241.816 49.1641Z" fill="#FFCC01"/>
<path d="M149.012 31.1205H153.089L162.689 45.8475V31.1205H166.949V53.5H162.857L153.272 38.8187V53.5H149.012V31.1205Z" fill="white"/>
<path d="M246.441 36.9474H250.503L253.835 46.3647L257.426 36.9474H259.906L263.42 46.2582L266.752 36.9474H270.844L264.804 53.5H262.172L258.643 44.0674L255.007 53.5H252.405L246.441 36.9474ZM280.977 36.5214C282.539 36.5214 284.004 36.9119 285.373 37.6928C286.753 38.4738 287.828 39.5337 288.599 40.8725C289.37 42.2113 289.755 43.6567 289.755 45.2085C289.755 46.7704 289.365 48.2309 288.584 49.59C287.813 50.9492 286.758 52.0141 285.419 52.785C284.08 53.5456 282.605 53.926 280.992 53.926C278.619 53.926 276.59 53.0842 274.906 51.4005C273.233 49.7067 272.396 47.6528 272.396 45.2389C272.396 42.6525 273.344 40.4973 275.241 38.773C276.904 37.2719 278.816 36.5214 280.977 36.5214ZM281.038 40.4313C279.749 40.4313 278.674 40.8827 277.812 41.7854C276.96 42.6779 276.534 43.824 276.534 45.2237C276.534 46.6639 276.955 47.8303 277.797 48.7229C278.649 49.6154 279.724 50.0617 281.022 50.0617C282.321 50.0617 283.401 49.6103 284.263 48.7076C285.125 47.805 285.556 46.6436 285.556 45.2237C285.556 43.8037 285.13 42.6525 284.278 41.7701C283.436 40.8776 282.356 40.4313 281.038 40.4313ZM292.189 36.9474H295.749V39.0317C296.135 38.2101 296.647 37.5863 297.286 37.1604C297.925 36.7344 298.625 36.5214 299.385 36.5214C299.923 36.5214 300.486 36.6634 301.074 36.9474L299.781 40.5226C299.294 40.2792 298.893 40.1575 298.579 40.1575C297.94 40.1575 297.397 40.553 296.951 41.3442C296.515 42.1353 296.297 43.6871 296.297 45.9996L296.312 46.8059V53.5H292.189V36.9474ZM302.702 30.5576H306.855V53.5H302.702V30.5576ZM322.86 30.5576H326.998V53.5H322.86V51.7504C322.049 52.5212 321.232 53.0791 320.411 53.4239C319.599 53.7586 318.717 53.926 317.764 53.926C315.624 53.926 313.773 53.0994 312.211 51.4461C310.649 49.7828 309.868 47.7187 309.868 45.2541C309.868 42.6982 310.623 40.6038 312.135 38.9708C313.646 37.3379 315.482 36.5214 317.642 36.5214C318.636 36.5214 319.569 36.709 320.441 37.0843C321.314 37.4596 322.12 38.0225 322.86 38.773V30.5576ZM318.494 40.3553C317.206 40.3553 316.136 40.8117 315.284 41.7245C314.432 42.6272 314.006 43.7885 314.006 45.2085C314.006 46.6386 314.437 47.8151 315.299 48.7381C316.171 49.661 317.241 50.1225 318.509 50.1225C319.818 50.1225 320.903 49.6712 321.765 48.7685C322.627 47.8557 323.058 46.6639 323.058 45.1933C323.058 43.753 322.627 42.5866 321.765 41.6941C320.903 40.8015 319.812 40.3553 318.494 40.3553Z" fill="#44C7F4"/>
<path d="M288.304 12V0.413086H292.698C293.929 0.413086 294.852 0.686523 295.467 1.2334C296.082 1.78027 296.39 2.52734 296.39 3.47461C296.39 4.04102 296.258 4.5293 295.994 4.93945C295.73 5.33984 295.384 5.65234 294.954 5.87695C295.442 6.05273 295.872 6.38477 296.243 6.87305C296.614 7.35156 296.8 7.9375 296.8 8.63086C296.8 9.59766 296.487 10.4033 295.862 11.0479C295.247 11.6826 294.383 12 293.27 12H288.304ZM290.237 10.3594H292.933C293.45 10.3594 293.89 10.208 294.251 9.90527C294.622 9.60254 294.808 9.17773 294.808 8.63086C294.808 8.11328 294.637 7.68848 294.295 7.35645C293.963 7.02441 293.494 6.8584 292.889 6.8584H290.237V10.3594ZM290.237 5.23242H292.508C293.064 5.23242 293.519 5.10059 293.87 4.83691C294.222 4.56348 294.397 4.1582 294.397 3.62109C294.397 3.14258 294.246 2.7666 293.943 2.49316C293.65 2.20996 293.191 2.06836 292.566 2.06836H290.237V5.23242ZM299.348 12V0.413086H306.951V2.06836H301.282V5.20312H306.394V6.8291H301.282V10.3594H307.097V12H299.348ZM308.473 2.06836V0.413086H317.087V2.06836H313.747V12H311.813V2.06836H308.473ZM320.792 7.57617H324.249L323.268 4.57324C323.199 4.3584 323.121 4.11914 323.033 3.85547C322.955 3.5918 322.867 3.30371 322.77 2.99121C322.682 2.66895 322.613 2.42969 322.565 2.27344H322.477C322.447 2.37109 322.213 3.1377 321.774 4.57324L320.792 7.57617ZM317.277 12L321.466 0.413086H323.59L327.765 12H325.714L324.762 9.12891H320.279L319.327 12H317.277Z" fill="white"/>
</svg>
