<svg width="427" height="97" viewBox="0 0 427 97" fill="none" xmlns="http://www.w3.org/2000/svg">
<path d="M29.4358 12.236H36.3768V36.0191C36.3768 40.7145 35.4326 44.168 33.5442 46.3796C31.0094 49.3738 27.1901 50.8708 22.0865 50.8708C19.3645 50.8708 17.0764 50.5306 15.222 49.8501C13.3677 49.1696 11.8026 48.1659 10.5266 46.8389C9.25071 45.529 8.30653 43.9298 7.69409 42.0415H15.3751C16.0556 42.824 16.9318 43.411 18.0035 43.8022C19.0753 44.2105 20.3427 44.4147 21.8058 44.4147C23.6771 44.4147 25.1827 44.1255 26.3225 43.5471C27.4623 42.9686 28.2619 42.2201 28.7213 41.3014C29.1976 40.3828 29.4358 38.8006 29.4358 36.555C28.2109 37.7799 26.9265 38.6645 25.5825 39.2089C24.2385 39.7363 22.7159 40 21.0147 40C17.289 40 14.1417 38.656 11.5729 35.9681C9.00403 33.2802 7.71961 29.8777 7.71961 25.7607C7.71961 21.3546 9.08059 17.816 11.8026 15.1451C14.2693 12.7293 17.2125 11.5215 20.6319 11.5215C22.2311 11.5215 23.7367 11.8192 25.1487 12.4146C26.5777 12.993 28.0067 13.9542 29.4358 15.2982V12.236ZM22.2141 18.0287C20.0195 18.0287 18.2077 18.7687 16.7786 20.2488C15.3496 21.7118 14.6351 23.5576 14.6351 25.7862C14.6351 28.0999 15.3666 29.9968 16.8297 31.4769C18.2927 32.9569 20.1301 33.697 22.3417 33.697C24.5022 33.697 26.28 32.9739 27.675 31.5279C29.087 30.0818 29.793 28.185 29.793 25.8373C29.793 23.5236 29.087 21.6438 27.675 20.1977C26.263 18.7517 24.4427 18.0287 22.2141 18.0287ZM46.1503 0.803728C47.3752 0.803728 48.4215 1.24605 49.2891 2.13069C50.1737 3.01532 50.616 4.0871 50.616 5.346C50.616 6.5879 50.1822 7.65117 49.3146 8.53581C48.447 9.40343 47.4092 9.83724 46.2014 9.83724C44.9595 9.83724 43.8962 9.39492 43.0116 8.51029C42.1439 7.60864 41.7101 6.51985 41.7101 5.24393C41.7101 4.01905 42.1439 2.97279 43.0116 2.10517C43.8792 1.23754 44.9254 0.803728 46.1503 0.803728ZM42.6543 12.236H49.6463V40H42.6543V12.236ZM52.9893 12.236H60.0834L67.1009 28.6188L74.093 12.236H81.1616L69.3466 40H64.8298L52.9893 12.236ZM113.085 28.1339H90.7055C91.0287 30.1074 91.8878 31.681 93.2828 32.8548C94.6948 34.0117 96.4896 34.5901 98.6672 34.5901C101.27 34.5901 103.507 33.6799 105.379 31.8596L111.248 34.6156C109.785 36.6911 108.032 38.2307 105.991 39.2344C103.95 40.2212 101.525 40.7145 98.7182 40.7145C94.3631 40.7145 90.816 39.345 88.0771 36.6061C85.3381 33.8501 83.9686 30.4051 83.9686 26.2711C83.9686 22.035 85.3296 18.522 88.0516 15.732C90.7905 12.925 94.2185 11.5215 98.3355 11.5215C102.708 11.5215 106.263 12.925 109.002 15.732C111.741 18.522 113.111 22.2137 113.111 26.807L113.085 28.1339ZM106.093 22.6475C105.634 21.0994 104.724 19.8405 103.363 18.8708C102.019 17.9011 100.453 17.4162 98.6672 17.4162C96.7278 17.4162 95.0266 17.9606 93.5635 19.0494C92.6449 19.7299 91.7943 20.9292 91.0117 22.6475H106.093ZM158.278 2.00309H165.219V12.236H169.353V18.2328H165.219V40H158.278V18.2328H154.706V12.236H158.278V2.00309ZM193.621 12.236H200.562V40H193.621V37.0654C192.26 38.3583 190.891 39.294 189.513 39.8724C188.152 40.4338 186.672 40.7145 185.073 40.7145C181.483 40.7145 178.378 39.328 175.758 36.555C173.138 33.765 171.828 30.303 171.828 26.169C171.828 21.8819 173.096 18.3689 175.631 15.6299C178.166 12.8909 181.245 11.5215 184.868 11.5215C186.536 11.5215 188.101 11.8362 189.564 12.4656C191.027 13.0951 192.379 14.0393 193.621 15.2982V12.236ZM186.297 17.9521C184.137 17.9521 182.342 18.7176 180.913 20.2488C179.484 21.7628 178.769 23.7108 178.769 26.0925C178.769 28.4912 179.493 30.4646 180.939 32.0127C182.402 33.5609 184.196 34.3349 186.323 34.3349C188.518 34.3349 190.338 33.5779 191.784 32.0638C193.23 30.5327 193.953 28.5337 193.953 26.067C193.953 23.6512 193.23 21.6948 191.784 20.1977C190.338 18.7006 188.509 17.9521 186.297 17.9521ZM207.656 1.51824H214.623V23.6937L224.881 12.236H233.609L221.666 25.5566L235.063 40H226.412L214.623 27.2153V40H207.656V1.51824ZM265.736 28.1339H243.357C243.68 30.1074 244.539 31.681 245.934 32.8548C247.346 34.0117 249.141 34.5901 251.318 34.5901C253.921 34.5901 256.158 33.6799 258.03 31.8596L263.899 34.6156C262.436 36.6911 260.684 38.2307 258.642 39.2344C256.601 40.2212 254.176 40.7145 251.369 40.7145C247.014 40.7145 243.467 39.345 240.728 36.6061C237.989 33.8501 236.62 30.4051 236.62 26.2711C236.62 22.035 237.981 18.522 240.703 15.732C243.442 12.925 246.87 11.5215 250.987 11.5215C255.359 11.5215 258.914 12.925 261.653 15.732C264.392 18.522 265.762 22.2137 265.762 26.807L265.736 28.1339ZM258.744 22.6475C258.285 21.0994 257.375 19.8405 256.014 18.8708C254.67 17.9011 253.105 17.4162 251.318 17.4162C249.379 17.4162 247.678 17.9606 246.215 19.0494C245.296 19.7299 244.445 20.9292 243.663 22.6475H258.744ZM275.204 32.7273C276.309 32.7273 277.254 33.1185 278.036 33.9011C278.819 34.6667 279.21 35.6023 279.21 36.7081C279.21 37.8139 278.819 38.7581 278.036 39.5407C277.254 40.3232 276.309 40.7145 275.204 40.7145C274.098 40.7145 273.154 40.3232 272.371 39.5407C271.588 38.7581 271.197 37.8139 271.197 36.7081C271.197 35.6023 271.588 34.6667 272.371 33.9011C273.154 33.1185 274.098 32.7273 275.204 32.7273Z" fill="#FFCC01"/>
<path d="M119.541 2.46242H126.38L142.482 27.1642V2.46242H149.627V40H142.763L126.686 15.3747V40H119.541V2.46242Z" fill="white"/>
<path d="M282.961 12.236H289.775L295.363 28.0319L301.385 12.236H305.545L311.44 27.8532L317.028 12.236H323.893L313.762 40H309.347L303.427 24.1786L297.328 40H292.964L282.961 12.236ZM340.888 11.5215C343.508 11.5215 345.966 12.1764 348.263 13.4864C350.576 14.7963 352.38 16.5741 353.673 18.8197C354.966 21.0653 355.612 23.4896 355.612 26.0925C355.612 28.7124 354.957 31.1621 353.647 33.4418C352.354 35.7214 350.585 37.5077 348.339 38.8006C346.094 40.0766 343.618 40.7145 340.913 40.7145C336.933 40.7145 333.53 39.3025 330.706 36.4785C327.899 33.6374 326.496 30.1924 326.496 26.1435C326.496 21.8054 328.086 18.1903 331.267 15.2982C334.057 12.7804 337.264 11.5215 340.888 11.5215ZM340.99 18.0797C338.829 18.0797 337.026 18.8367 335.58 20.3508C334.151 21.8479 333.437 23.7703 333.437 26.118C333.437 28.5337 334.143 30.4901 335.555 31.9872C336.984 33.4843 338.787 34.2328 340.964 34.2328C343.142 34.2328 344.954 33.4758 346.4 31.9617C347.846 30.4476 348.569 28.4997 348.569 26.118C348.569 23.7363 347.854 21.8054 346.425 20.3253C345.013 18.8282 343.202 18.0797 340.99 18.0797ZM359.695 12.236H365.666V15.732C366.313 14.354 367.172 13.3077 368.244 12.5932C369.315 11.8787 370.489 11.5215 371.765 11.5215C372.667 11.5215 373.611 11.7596 374.598 12.236L372.429 18.2328C371.612 17.8245 370.94 17.6204 370.413 17.6204C369.341 17.6204 368.431 18.2838 367.682 19.6108C366.951 20.9378 366.585 23.5406 366.585 27.4194L366.61 28.7719V40H359.695V12.236ZM377.328 1.51824H384.295V40H377.328V1.51824ZM411.14 1.51824H418.081V40H411.14V37.0654C409.779 38.3583 408.41 39.294 407.032 39.8724C405.671 40.4338 404.191 40.7145 402.591 40.7145C399.002 40.7145 395.897 39.328 393.277 36.555C390.657 33.765 389.347 30.303 389.347 26.169C389.347 21.8819 390.615 18.3689 393.15 15.6299C395.684 12.8909 398.764 11.5215 402.387 11.5215C404.054 11.5215 405.62 11.8362 407.083 12.4656C408.546 13.0951 409.898 14.0393 411.14 15.2982V1.51824ZM403.816 17.9521C401.656 17.9521 399.861 18.7176 398.432 20.2488C397.003 21.7628 396.288 23.7108 396.288 26.0925C396.288 28.4912 397.011 30.4646 398.457 32.0127C399.92 33.5609 401.715 34.3349 403.842 34.3349C406.036 34.3349 407.857 33.5779 409.303 32.0638C410.749 30.5327 411.472 28.5337 411.472 26.067C411.472 23.6512 410.749 21.6948 409.303 20.1977C407.857 18.7006 406.028 17.9521 403.816 17.9521Z" fill="#44C7F4"/>
<path d="M107.758 61.818C108.76 61.818 109.701 62.0687 110.58 62.57C111.465 63.0713 112.156 63.7516 112.65 64.611C113.145 65.4704 113.393 66.3981 113.393 67.3942C113.393 68.3968 113.142 69.3343 112.641 70.2067C112.146 71.0791 111.469 71.7627 110.609 72.2575C109.75 72.7458 108.803 72.9899 107.768 72.9899C106.244 72.9899 104.942 72.4495 103.861 71.3688C102.787 70.2816 102.25 68.9632 102.25 67.4137C102.25 65.7536 102.859 64.3701 104.076 63.2633C105.144 62.2998 106.371 61.818 107.758 61.818ZM107.797 64.3278C106.97 64.3278 106.28 64.6175 105.727 65.1969C105.18 65.7698 104.906 66.5055 104.906 67.404C104.906 68.3284 105.176 69.0771 105.717 69.6501C106.264 70.223 106.954 70.5094 107.787 70.5094C108.62 70.5094 109.314 70.2197 109.867 69.6403C110.421 69.0609 110.697 68.3154 110.697 67.404C110.697 66.4925 110.424 65.7536 109.877 65.1872C109.337 64.6142 108.643 64.3278 107.797 64.3278ZM115.58 62.0915H118.236V63.1754C118.842 62.6676 119.389 62.3161 119.877 62.1208C120.372 61.9189 120.876 61.818 121.391 61.818C122.445 61.818 123.34 62.1859 124.076 62.9215C124.695 63.5465 125.004 64.471 125.004 65.695V72.7165H122.367V68.0583C122.367 66.7887 122.309 65.9456 122.191 65.529C122.081 65.1123 121.882 64.7965 121.596 64.5817C121.316 64.3603 120.967 64.2497 120.551 64.2497C120.01 64.2497 119.545 64.432 119.154 64.7965C118.77 65.1546 118.503 65.6527 118.354 66.2907C118.275 66.6227 118.236 67.3421 118.236 68.4489V72.7165H115.58V62.0915ZM127.309 57.9899H129.975V72.7165H127.309V57.9899ZM133.441 57.7165C133.91 57.7165 134.311 57.8857 134.643 58.2243C134.981 58.5628 135.15 58.973 135.15 59.4547C135.15 59.93 134.984 60.3369 134.652 60.6754C134.32 61.0075 133.923 61.1735 133.461 61.1735C132.986 61.1735 132.579 61.0042 132.24 60.6657C131.908 60.3206 131.742 59.904 131.742 59.4157C131.742 58.9469 131.908 58.5465 132.24 58.2145C132.572 57.8825 132.973 57.7165 133.441 57.7165ZM132.104 62.0915H134.779V72.7165H132.104V62.0915ZM137.201 62.0915H139.857V63.1754C140.463 62.6676 141.01 62.3161 141.498 62.1208C141.993 61.9189 142.497 61.818 143.012 61.818C144.066 61.818 144.962 62.1859 145.697 62.9215C146.316 63.5465 146.625 64.471 146.625 65.695V72.7165H143.988V68.0583C143.988 66.7887 143.93 65.9456 143.812 65.529C143.702 65.1123 143.503 64.7965 143.217 64.5817C142.937 64.3603 142.589 64.2497 142.172 64.2497C141.632 64.2497 141.166 64.432 140.775 64.7965C140.391 65.1546 140.124 65.6527 139.975 66.2907C139.896 66.6227 139.857 67.3421 139.857 68.4489V72.7165H137.201V62.0915ZM159.857 68.1754H151.293C151.417 68.9307 151.745 69.5329 152.279 69.9821C152.82 70.4248 153.507 70.6461 154.34 70.6461C155.336 70.6461 156.192 70.2978 156.908 69.6012L159.154 70.6559C158.594 71.4502 157.924 72.0394 157.143 72.4235C156.361 72.8011 155.434 72.9899 154.359 72.9899C152.693 72.9899 151.335 72.4658 150.287 71.4176C149.239 70.3629 148.715 69.0446 148.715 67.4626C148.715 65.8415 149.236 64.4971 150.277 63.4294C151.326 62.3551 152.637 61.818 154.213 61.818C155.886 61.818 157.247 62.3551 158.295 63.4294C159.343 64.4971 159.867 65.9098 159.867 67.6676L159.857 68.1754ZM157.182 66.0758C157.006 65.4834 156.658 65.0016 156.137 64.6305C155.622 64.2594 155.023 64.0739 154.34 64.0739C153.598 64.0739 152.947 64.2822 152.387 64.6989C152.035 64.9593 151.71 65.4183 151.41 66.0758H157.182ZM167.641 57.9899H170.287V63.1657C170.808 62.7165 171.332 62.3812 171.859 62.1598C172.387 61.932 172.921 61.818 173.461 61.818C174.516 61.818 175.404 62.1826 176.127 62.9118C176.745 63.5433 177.055 64.471 177.055 65.695V72.7165H174.428V68.0583C174.428 66.8278 174.369 65.9945 174.252 65.5583C174.135 65.1221 173.933 64.7965 173.646 64.5817C173.367 64.3669 173.018 64.2594 172.602 64.2594C172.061 64.2594 171.596 64.4385 171.205 64.7965C170.821 65.1546 170.554 65.6429 170.404 66.2614C170.326 66.5804 170.287 67.3096 170.287 68.4489V72.7165H167.641V57.9899ZM190.287 68.1754H181.723C181.846 68.9307 182.175 69.5329 182.709 69.9821C183.249 70.4248 183.936 70.6461 184.77 70.6461C185.766 70.6461 186.622 70.2978 187.338 69.6012L189.584 70.6559C189.024 71.4502 188.354 72.0394 187.572 72.4235C186.791 72.8011 185.863 72.9899 184.789 72.9899C183.122 72.9899 181.765 72.4658 180.717 71.4176C179.669 70.3629 179.145 69.0446 179.145 67.4626C179.145 65.8415 179.665 64.4971 180.707 63.4294C181.755 62.3551 183.067 61.818 184.643 61.818C186.316 61.818 187.676 62.3551 188.725 63.4294C189.773 64.4971 190.297 65.9098 190.297 67.6676L190.287 68.1754ZM187.611 66.0758C187.436 65.4834 187.087 65.0016 186.566 64.6305C186.052 64.2594 185.453 64.0739 184.77 64.0739C184.027 64.0739 183.376 64.2822 182.816 64.6989C182.465 64.9593 182.139 65.4183 181.84 66.0758H187.611ZM192.172 57.9899H194.838V72.7165H192.172V57.9899ZM199.906 62.0915V63.2633C200.388 62.7816 200.909 62.4202 201.469 62.1794C202.029 61.9385 202.628 61.818 203.266 61.818C204.652 61.818 205.831 62.3421 206.801 63.3903C207.771 64.4385 208.256 65.7829 208.256 67.4235C208.256 69.0055 207.755 70.3304 206.752 71.3981C205.749 72.4593 204.561 72.9899 203.188 72.9899C202.576 72.9899 202.006 72.8825 201.479 72.6676C200.951 72.4463 200.427 72.0882 199.906 71.5934V76.6032H197.26V62.0915H199.906ZM202.709 64.279C201.869 64.279 201.173 64.5654 200.619 65.1383C200.066 65.7113 199.789 66.46 199.789 67.3844C199.789 68.3284 200.066 69.0934 200.619 69.6794C201.173 70.2588 201.869 70.5485 202.709 70.5485C203.523 70.5485 204.206 70.2523 204.76 69.6598C205.32 69.0674 205.6 68.3122 205.6 67.3942C205.6 66.4827 205.326 65.7373 204.779 65.1579C204.232 64.5719 203.542 64.279 202.709 64.279ZM211.508 57.7165C211.977 57.7165 212.377 57.8857 212.709 58.2243C213.048 58.5628 213.217 58.973 213.217 59.4547C213.217 59.93 213.051 60.3369 212.719 60.6754C212.387 61.0075 211.99 61.1735 211.527 61.1735C211.052 61.1735 210.645 61.0042 210.307 60.6657C209.975 60.3206 209.809 59.904 209.809 59.4157C209.809 58.9469 209.975 58.5465 210.307 58.2145C210.639 57.8825 211.039 57.7165 211.508 57.7165ZM210.17 62.0915H212.846V72.7165H210.17V62.0915ZM215.268 62.0915H217.924V63.1754C218.529 62.6676 219.076 62.3161 219.564 62.1208C220.059 61.9189 220.564 61.818 221.078 61.818C222.133 61.818 223.028 62.1859 223.764 62.9215C224.382 63.5465 224.691 64.471 224.691 65.695V72.7165H222.055V68.0583C222.055 66.7887 221.996 65.9456 221.879 65.529C221.768 65.1123 221.57 64.7965 221.283 64.5817C221.003 64.3603 220.655 64.2497 220.238 64.2497C219.698 64.2497 219.232 64.432 218.842 64.7965C218.458 65.1546 218.191 65.6527 218.041 66.2907C217.963 66.6227 217.924 67.3421 217.924 68.4489V72.7165H215.268V62.0915ZM235.131 62.0915H237.787V71.193C237.787 72.9899 237.426 74.3115 236.703 75.1579C235.733 76.3037 234.271 76.8766 232.318 76.8766C231.277 76.8766 230.401 76.7464 229.691 76.486C228.982 76.2256 228.383 75.8415 227.895 75.3336C227.406 74.8323 227.045 74.2204 226.811 73.4977H229.75C230.01 73.7972 230.346 74.0218 230.756 74.1715C231.166 74.3278 231.651 74.4059 232.211 74.4059C232.927 74.4059 233.503 74.2952 233.939 74.0739C234.376 73.8525 234.682 73.5661 234.857 73.2145C235.04 72.8629 235.131 72.2575 235.131 71.3981C234.662 71.8669 234.171 72.2054 233.656 72.4137C233.142 72.6155 232.559 72.7165 231.908 72.7165C230.482 72.7165 229.278 72.2021 228.295 71.1735C227.312 70.1448 226.82 68.8428 226.82 67.2672C226.82 65.581 227.341 64.2269 228.383 63.2047C229.327 62.2803 230.453 61.818 231.762 61.818C232.374 61.818 232.95 61.932 233.49 62.1598C234.037 62.3812 234.584 62.749 235.131 63.2633V62.0915ZM232.367 64.3083C231.527 64.3083 230.834 64.5915 230.287 65.1579C229.74 65.7178 229.467 66.4241 229.467 67.277C229.467 68.1624 229.747 68.8883 230.307 69.4547C230.867 70.0211 231.57 70.3044 232.416 70.3044C233.243 70.3044 233.923 70.0277 234.457 69.4743C234.997 68.9209 235.268 68.195 235.268 67.2965C235.268 66.4111 234.997 65.6917 234.457 65.1383C233.917 64.585 233.22 64.3083 232.367 64.3083ZM248.734 62.0915V63.2633C249.216 62.7816 249.737 62.4202 250.297 62.1794C250.857 61.9385 251.456 61.818 252.094 61.818C253.48 61.818 254.659 62.3421 255.629 63.3903C256.599 64.4385 257.084 65.7829 257.084 67.4235C257.084 69.0055 256.583 70.3304 255.58 71.3981C254.577 72.4593 253.389 72.9899 252.016 72.9899C251.404 72.9899 250.834 72.8825 250.307 72.6676C249.779 72.4463 249.255 72.0882 248.734 71.5934V76.6032H246.088V62.0915H248.734ZM251.537 64.279C250.697 64.279 250.001 64.5654 249.447 65.1383C248.894 65.7113 248.617 66.46 248.617 67.3844C248.617 68.3284 248.894 69.0934 249.447 69.6794C250.001 70.2588 250.697 70.5485 251.537 70.5485C252.351 70.5485 253.035 70.2523 253.588 69.6598C254.148 69.0674 254.428 68.3122 254.428 67.3942C254.428 66.4827 254.154 65.7373 253.607 65.1579C253.061 64.5719 252.37 64.279 251.537 64.279ZM259.008 57.9899H261.674V72.7165H259.008V57.9899ZM271.947 62.0915H274.604V72.7165H271.947V71.5934C271.426 72.0882 270.902 72.4463 270.375 72.6676C269.854 72.8825 269.288 72.9899 268.676 72.9899C267.302 72.9899 266.114 72.4593 265.111 71.3981C264.109 70.3304 263.607 69.0055 263.607 67.4235C263.607 65.7829 264.092 64.4385 265.062 63.3903C266.033 62.3421 267.211 61.818 268.598 61.818C269.236 61.818 269.835 61.9385 270.395 62.1794C270.954 62.4202 271.472 62.7816 271.947 63.2633V62.0915ZM269.145 64.279C268.318 64.279 267.631 64.5719 267.084 65.1579C266.537 65.7373 266.264 66.4827 266.264 67.3942C266.264 68.3122 266.54 69.0674 267.094 69.6598C267.654 70.2523 268.34 70.5485 269.154 70.5485C269.994 70.5485 270.691 70.2588 271.244 69.6794C271.798 69.0934 272.074 68.3284 272.074 67.3844C272.074 66.46 271.798 65.7113 271.244 65.1383C270.691 64.5654 269.991 64.279 269.145 64.279ZM277.621 58.1754H280.277V62.0915H281.859V64.3864H280.277V72.7165H277.621V64.3864H276.254V62.0915H277.621V58.1754ZM282.025 62.0915H282.973C282.979 60.6982 283.002 59.8747 283.041 59.6208C283.113 59.0348 283.357 58.5726 283.773 58.234C284.197 57.889 284.792 57.7165 285.561 57.7165C286.114 57.7165 286.739 57.8434 287.436 58.0973V60.1286C287.051 60.0179 286.736 59.9626 286.488 59.9626C286.176 59.9626 285.948 60.0277 285.805 60.1579C285.701 60.2555 285.648 60.4573 285.648 60.7633L285.639 62.0915H287.328V64.3571H285.639V72.7165H282.973V64.3571H282.025V62.0915ZM293.891 61.818C294.893 61.818 295.834 62.0687 296.713 62.57C297.598 63.0713 298.288 63.7516 298.783 64.611C299.278 65.4704 299.525 66.3981 299.525 67.3942C299.525 68.3968 299.275 69.3343 298.773 70.2067C298.279 71.0791 297.602 71.7627 296.742 72.2575C295.883 72.7458 294.936 72.9899 293.9 72.9899C292.377 72.9899 291.075 72.4495 289.994 71.3688C288.92 70.2816 288.383 68.9632 288.383 67.4137C288.383 65.7536 288.992 64.3701 290.209 63.2633C291.277 62.2998 292.504 61.818 293.891 61.818ZM293.93 64.3278C293.103 64.3278 292.413 64.6175 291.859 65.1969C291.312 65.7698 291.039 66.5055 291.039 67.404C291.039 68.3284 291.309 69.0771 291.85 69.6501C292.396 70.223 293.087 70.5094 293.92 70.5094C294.753 70.5094 295.447 70.2197 296 69.6403C296.553 69.0609 296.83 68.3154 296.83 67.404C296.83 66.4925 296.557 65.7536 296.01 65.1872C295.469 64.6142 294.776 64.3278 293.93 64.3278ZM301.088 62.0915H303.373V63.4294C303.62 62.902 303.949 62.5016 304.359 62.2282C304.77 61.9547 305.219 61.818 305.707 61.818C306.052 61.818 306.413 61.9092 306.791 62.0915L305.961 64.3864C305.648 64.2301 305.391 64.152 305.189 64.152C304.779 64.152 304.431 64.4059 304.145 64.9137C303.865 65.4215 303.725 66.4176 303.725 67.902L303.734 68.4196V72.7165H301.088V62.0915ZM308.1 62.0915H310.775V63.3122C311.231 62.8109 311.736 62.4365 312.289 62.1891C312.849 61.9417 313.458 61.818 314.115 61.818C314.779 61.818 315.378 61.9808 315.912 62.3063C316.446 62.6318 316.876 63.1071 317.201 63.7321C317.624 63.1071 318.142 62.6318 318.754 62.3063C319.372 61.9808 320.046 61.818 320.775 61.818C321.531 61.818 322.195 61.9938 322.768 62.3454C323.34 62.6969 323.751 63.1559 323.998 63.7223C324.252 64.2887 324.379 65.21 324.379 66.486V72.7165H321.693V67.3258C321.693 66.1214 321.544 65.3076 321.244 64.8844C320.945 64.4547 320.495 64.2399 319.896 64.2399C319.441 64.2399 319.031 64.3701 318.666 64.6305C318.308 64.8909 318.041 65.2523 317.865 65.7145C317.689 66.1702 317.602 66.9059 317.602 67.9215V72.7165H314.916V67.57C314.916 66.6195 314.844 65.9326 314.701 65.5094C314.564 65.0797 314.356 64.7607 314.076 64.5524C313.796 64.3441 313.458 64.2399 313.061 64.2399C312.618 64.2399 312.214 64.3734 311.85 64.6403C311.492 64.9007 311.221 65.2685 311.039 65.7438C310.863 66.2191 310.775 66.9678 310.775 67.9899V72.7165H308.1V62.0915Z" fill="white"/>
<path d="M60.5703 89.7399C60.5703 89.5368 60.5391 89.3545 60.4766 89.193C60.4193 89.0264 60.3099 88.8753 60.1484 88.7399C59.987 88.5993 59.7604 88.4613 59.4688 88.3258C59.1771 88.1904 58.7995 88.0498 58.3359 87.904C57.8203 87.7373 57.3307 87.5498 56.8672 87.3415C56.4089 87.1331 56.0026 86.8909 55.6484 86.6149C55.2995 86.3336 55.0234 86.0081 54.8203 85.6383C54.6224 85.2685 54.5234 84.8389 54.5234 84.3493C54.5234 83.8753 54.6276 83.4456 54.8359 83.0602C55.0443 82.6696 55.3359 82.3363 55.7109 82.0602C56.0859 81.779 56.5286 81.5628 57.0391 81.4118C57.5547 81.2607 58.1198 81.1852 58.7344 81.1852C59.5729 81.1852 60.3047 81.3363 60.9297 81.6383C61.5547 81.9404 62.0391 82.3545 62.3828 82.8805C62.7318 83.4066 62.9062 84.0081 62.9062 84.6852H60.5781C60.5781 84.3519 60.5078 84.0602 60.3672 83.8102C60.2318 83.555 60.0234 83.3545 59.7422 83.2086C59.4661 83.0628 59.1172 82.9899 58.6953 82.9899C58.2891 82.9899 57.9505 83.0524 57.6797 83.1774C57.4089 83.2972 57.2057 83.4613 57.0703 83.6696C56.9349 83.8727 56.8672 84.1019 56.8672 84.3571C56.8672 84.5498 56.9141 84.7243 57.0078 84.8805C57.1068 85.0368 57.2526 85.1826 57.4453 85.318C57.638 85.4534 57.875 85.581 58.1562 85.7008C58.4375 85.8206 58.763 85.9378 59.1328 86.0524C59.7526 86.2399 60.2969 86.4508 60.7656 86.6852C61.2396 86.9196 61.6354 87.1826 61.9531 87.4743C62.2708 87.7659 62.5104 88.0967 62.6719 88.4665C62.8333 88.8363 62.9141 89.2555 62.9141 89.7243C62.9141 90.2191 62.8177 90.6618 62.625 91.0524C62.4323 91.443 62.1536 91.7738 61.7891 92.0446C61.4245 92.3154 60.9896 92.5211 60.4844 92.6618C59.9792 92.8024 59.4141 92.8727 58.7891 92.8727C58.2266 92.8727 57.6719 92.7998 57.125 92.654C56.5781 92.5029 56.0807 92.2764 55.6328 91.9743C55.1901 91.6722 54.8359 91.2868 54.5703 90.818C54.3047 90.3493 54.1719 89.7946 54.1719 89.154H56.5234C56.5234 89.5081 56.5781 89.8076 56.6875 90.0524C56.7969 90.2972 56.9505 90.4951 57.1484 90.6461C57.3516 90.7972 57.5911 90.9066 57.8672 90.9743C58.1484 91.042 58.4557 91.0758 58.7891 91.0758C59.1953 91.0758 59.5286 91.0185 59.7891 90.904C60.0547 90.7894 60.25 90.6305 60.375 90.4274C60.5052 90.2243 60.5703 89.9951 60.5703 89.7399ZM68.9297 90.8102V87.0446C68.9297 86.7738 68.8854 86.542 68.7969 86.3493C68.7083 86.1514 68.5703 85.9977 68.3828 85.8883C68.2005 85.779 67.9635 85.7243 67.6719 85.7243C67.4219 85.7243 67.2057 85.7685 67.0234 85.8571C66.8411 85.9404 66.7005 86.0628 66.6016 86.2243C66.5026 86.3805 66.4531 86.5654 66.4531 86.779H64.2031C64.2031 86.4196 64.2865 86.0784 64.4531 85.7555C64.6198 85.4326 64.862 85.1488 65.1797 84.904C65.4974 84.654 65.875 84.4586 66.3125 84.318C66.7552 84.1774 67.25 84.1071 67.7969 84.1071C68.4531 84.1071 69.0365 84.2165 69.5469 84.4352C70.0573 84.654 70.4583 84.9821 70.75 85.4196C71.0469 85.8571 71.1953 86.404 71.1953 87.0602V90.6774C71.1953 91.1409 71.224 91.5211 71.2812 91.818C71.3385 92.1097 71.4219 92.3649 71.5312 92.5836V92.7165H69.2578C69.1484 92.4873 69.0651 92.2008 69.0078 91.8571C68.9557 91.5081 68.9297 91.1592 68.9297 90.8102ZM69.2266 87.568L69.2422 88.8415H67.9844C67.6875 88.8415 67.4297 88.8753 67.2109 88.943C66.9922 89.0107 66.8125 89.1071 66.6719 89.2321C66.5312 89.3519 66.4271 89.4925 66.3594 89.654C66.2969 89.8154 66.2656 89.9925 66.2656 90.1852C66.2656 90.3779 66.3099 90.5524 66.3984 90.7086C66.487 90.8597 66.6146 90.9795 66.7812 91.068C66.9479 91.1514 67.1432 91.193 67.3672 91.193C67.7057 91.193 68 91.1253 68.25 90.9899C68.5 90.8545 68.6927 90.6878 68.8281 90.4899C68.9688 90.292 69.0417 90.1045 69.0469 89.9274L69.6406 90.8805C69.5573 91.0941 69.4427 91.3154 69.2969 91.5446C69.1562 91.7738 68.9766 91.9899 68.7578 92.193C68.5391 92.3909 68.276 92.555 67.9688 92.6852C67.6615 92.8102 67.2969 92.8727 66.875 92.8727C66.3385 92.8727 65.8516 92.7659 65.4141 92.5524C64.9818 92.3336 64.638 92.0342 64.3828 91.654C64.1328 91.2685 64.0078 90.831 64.0078 90.3415C64.0078 89.8988 64.0911 89.5055 64.2578 89.1618C64.4245 88.818 64.6693 88.529 64.9922 88.2946C65.3203 88.055 65.7292 87.8753 66.2188 87.7555C66.7083 87.6305 67.276 87.568 67.9219 87.568H69.2266ZM75.125 80.7165V92.7165H72.875V80.7165H75.125ZM74.8047 88.193H74.1875C74.1927 87.6045 74.2708 87.0628 74.4219 86.568C74.5729 86.068 74.7891 85.6357 75.0703 85.2711C75.3516 84.9014 75.6875 84.6149 76.0781 84.4118C76.474 84.2086 76.9115 84.1071 77.3906 84.1071C77.8073 84.1071 78.1849 84.167 78.5234 84.2868C78.8672 84.4014 79.1615 84.5889 79.4062 84.8493C79.6562 85.1045 79.849 85.4404 79.9844 85.8571C80.1198 86.2738 80.1875 86.779 80.1875 87.3727V92.7165H77.9219V87.3571C77.9219 86.9821 77.8672 86.6878 77.7578 86.4743C77.6536 86.2555 77.5 86.1019 77.2969 86.0133C77.099 85.9196 76.8542 85.8727 76.5625 85.8727C76.2396 85.8727 75.9635 85.9326 75.7344 86.0524C75.5104 86.1722 75.3307 86.3389 75.1953 86.5524C75.0599 86.7607 74.9609 87.0055 74.8984 87.2868C74.8359 87.568 74.8047 87.8701 74.8047 88.193ZM86.4609 90.8102V87.0446C86.4609 86.7738 86.4167 86.542 86.3281 86.3493C86.2396 86.1514 86.1016 85.9977 85.9141 85.8883C85.7318 85.779 85.4948 85.7243 85.2031 85.7243C84.9531 85.7243 84.737 85.7685 84.5547 85.8571C84.3724 85.9404 84.2318 86.0628 84.1328 86.2243C84.0339 86.3805 83.9844 86.5654 83.9844 86.779H81.7344C81.7344 86.4196 81.8177 86.0784 81.9844 85.7555C82.151 85.4326 82.3932 85.1488 82.7109 84.904C83.0286 84.654 83.4062 84.4586 83.8438 84.318C84.2865 84.1774 84.7812 84.1071 85.3281 84.1071C85.9844 84.1071 86.5677 84.2165 87.0781 84.4352C87.5885 84.654 87.9896 84.9821 88.2812 85.4196C88.5781 85.8571 88.7266 86.404 88.7266 87.0602V90.6774C88.7266 91.1409 88.7552 91.5211 88.8125 91.818C88.8698 92.1097 88.9531 92.3649 89.0625 92.5836V92.7165H86.7891C86.6797 92.4873 86.5964 92.2008 86.5391 91.8571C86.487 91.5081 86.4609 91.1592 86.4609 90.8102ZM86.7578 87.568L86.7734 88.8415H85.5156C85.2188 88.8415 84.9609 88.8753 84.7422 88.943C84.5234 89.0107 84.3438 89.1071 84.2031 89.2321C84.0625 89.3519 83.9583 89.4925 83.8906 89.654C83.8281 89.8154 83.7969 89.9925 83.7969 90.1852C83.7969 90.3779 83.8411 90.5524 83.9297 90.7086C84.0182 90.8597 84.1458 90.9795 84.3125 91.068C84.4792 91.1514 84.6745 91.193 84.8984 91.193C85.237 91.193 85.5312 91.1253 85.7812 90.9899C86.0312 90.8545 86.224 90.6878 86.3594 90.4899C86.5 90.292 86.5729 90.1045 86.5781 89.9274L87.1719 90.8805C87.0885 91.0941 86.974 91.3154 86.8281 91.5446C86.6875 91.7738 86.5078 91.9899 86.2891 92.193C86.0703 92.3909 85.8073 92.555 85.5 92.6852C85.1927 92.8102 84.8281 92.8727 84.4062 92.8727C83.8698 92.8727 83.3828 92.7659 82.9453 92.5524C82.513 92.3336 82.1693 92.0342 81.9141 91.654C81.6641 91.2685 81.5391 90.831 81.5391 90.3415C81.5391 89.8988 81.6224 89.5055 81.7891 89.1618C81.9557 88.818 82.2005 88.529 82.5234 88.2946C82.8516 88.055 83.2604 87.8753 83.75 87.7555C84.2396 87.6305 84.8073 87.568 85.4531 87.568H86.7578ZM92.7109 80.7086V92.7165H90.4609V80.7086H92.7109ZM98.0391 84.2633L94.3672 88.4508L92.3984 90.443L91.5781 88.818L93.1406 86.8336L95.3359 84.2633H98.0391ZM95.7031 92.7165L93.2031 88.8102L94.7578 87.4508L98.2969 92.7165H95.7031ZM103.57 90.8102V87.0446C103.57 86.7738 103.526 86.542 103.438 86.3493C103.349 86.1514 103.211 85.9977 103.023 85.8883C102.841 85.779 102.604 85.7243 102.312 85.7243C102.062 85.7243 101.846 85.7685 101.664 85.8571C101.482 85.9404 101.341 86.0628 101.242 86.2243C101.143 86.3805 101.094 86.5654 101.094 86.779H98.8438C98.8438 86.4196 98.9271 86.0784 99.0938 85.7555C99.2604 85.4326 99.5026 85.1488 99.8203 84.904C100.138 84.654 100.516 84.4586 100.953 84.318C101.396 84.1774 101.891 84.1071 102.438 84.1071C103.094 84.1071 103.677 84.2165 104.188 84.4352C104.698 84.654 105.099 84.9821 105.391 85.4196C105.688 85.8571 105.836 86.404 105.836 87.0602V90.6774C105.836 91.1409 105.865 91.5211 105.922 91.818C105.979 92.1097 106.062 92.3649 106.172 92.5836V92.7165H103.898C103.789 92.4873 103.706 92.2008 103.648 91.8571C103.596 91.5081 103.57 91.1592 103.57 90.8102ZM103.867 87.568L103.883 88.8415H102.625C102.328 88.8415 102.07 88.8753 101.852 88.943C101.633 89.0107 101.453 89.1071 101.312 89.2321C101.172 89.3519 101.068 89.4925 101 89.654C100.938 89.8154 100.906 89.9925 100.906 90.1852C100.906 90.3779 100.951 90.5524 101.039 90.7086C101.128 90.8597 101.255 90.9795 101.422 91.068C101.589 91.1514 101.784 91.193 102.008 91.193C102.346 91.193 102.641 91.1253 102.891 90.9899C103.141 90.8545 103.333 90.6878 103.469 90.4899C103.609 90.292 103.682 90.1045 103.688 89.9274L104.281 90.8805C104.198 91.0941 104.083 91.3154 103.938 91.5446C103.797 91.7738 103.617 91.9899 103.398 92.193C103.18 92.3909 102.917 92.555 102.609 92.6852C102.302 92.8102 101.938 92.8727 101.516 92.8727C100.979 92.8727 100.492 92.7659 100.055 92.5524C99.6224 92.3336 99.2786 92.0342 99.0234 91.654C98.7734 91.2685 98.6484 90.831 98.6484 90.3415C98.6484 89.8988 98.7318 89.5055 98.8984 89.1618C99.0651 88.818 99.3099 88.529 99.6328 88.2946C99.9609 88.055 100.37 87.8753 100.859 87.7555C101.349 87.6305 101.917 87.568 102.562 87.568H103.867ZM109.82 86.1071V92.7165H107.57V84.2633H109.688L109.82 86.1071ZM112.367 84.2086L112.328 86.2946C112.219 86.279 112.086 86.2659 111.93 86.2555C111.779 86.2399 111.641 86.2321 111.516 86.2321C111.198 86.2321 110.922 86.2738 110.688 86.3571C110.458 86.4352 110.266 86.5524 110.109 86.7086C109.958 86.8649 109.844 87.055 109.766 87.279C109.693 87.5029 109.651 87.7581 109.641 88.0446L109.188 87.904C109.188 87.3571 109.242 86.8545 109.352 86.3961C109.461 85.9326 109.62 85.529 109.828 85.1852C110.042 84.8415 110.302 84.5758 110.609 84.3883C110.917 84.2008 111.268 84.1071 111.664 84.1071C111.789 84.1071 111.917 84.1175 112.047 84.1383C112.177 84.154 112.284 84.1774 112.367 84.2086ZM115.805 84.2633V92.7165H113.547V84.2633H115.805ZM113.406 82.0602C113.406 81.7321 113.521 81.4613 113.75 81.2477C113.979 81.0342 114.286 80.9274 114.672 80.9274C115.052 80.9274 115.357 81.0342 115.586 81.2477C115.82 81.4613 115.938 81.7321 115.938 82.0602C115.938 82.3883 115.82 82.6592 115.586 82.8727C115.357 83.0863 115.052 83.193 114.672 83.193C114.286 83.193 113.979 83.0863 113.75 82.8727C113.521 82.6592 113.406 82.3883 113.406 82.0602ZM119.914 80.7086V92.7165H117.664V80.7086H119.914ZM125.242 84.2633L121.57 88.4508L119.602 90.443L118.781 88.818L120.344 86.8336L122.539 84.2633H125.242ZM122.906 92.7165L120.406 88.8102L121.961 87.4508L125.5 92.7165H122.906ZM128.461 80.7086V92.7165H126.211V80.7086H128.461ZM133.789 84.2633L130.117 88.4508L128.148 90.443L127.328 88.818L128.891 86.8336L131.086 84.2633H133.789ZM131.453 92.7165L128.953 88.8102L130.508 87.4508L134.047 92.7165H131.453ZM139.758 90.693V84.2633H142.008V92.7165H139.891L139.758 90.693ZM140.008 88.9586L140.672 88.943C140.672 89.5055 140.607 90.029 140.477 90.5133C140.346 90.9925 140.151 91.4092 139.891 91.7633C139.63 92.1123 139.302 92.3857 138.906 92.5836C138.51 92.7764 138.044 92.8727 137.508 92.8727C137.096 92.8727 136.716 92.8154 136.367 92.7008C136.023 92.581 135.727 92.3961 135.477 92.1461C135.232 91.8909 135.039 91.5654 134.898 91.1696C134.763 90.7685 134.695 90.2868 134.695 89.7243V84.2633H136.945V89.7399C136.945 89.9899 136.974 90.2008 137.031 90.3727C137.094 90.5446 137.18 90.6852 137.289 90.7946C137.398 90.904 137.526 90.9821 137.672 91.029C137.823 91.0758 137.99 91.0993 138.172 91.0993C138.635 91.0993 139 91.0055 139.266 90.818C139.536 90.6305 139.727 90.3753 139.836 90.0524C139.951 89.7243 140.008 89.3597 140.008 88.9586ZM145.977 80.7086V92.7165H143.727V80.7086H145.977ZM151.305 84.2633L147.633 88.4508L145.664 90.443L144.844 88.818L146.406 86.8336L148.602 84.2633H151.305ZM148.969 92.7165L146.469 88.8102L148.023 87.4508L151.562 92.7165H148.969ZM156.836 90.8102V87.0446C156.836 86.7738 156.792 86.542 156.703 86.3493C156.615 86.1514 156.477 85.9977 156.289 85.8883C156.107 85.779 155.87 85.7243 155.578 85.7243C155.328 85.7243 155.112 85.7685 154.93 85.8571C154.747 85.9404 154.607 86.0628 154.508 86.2243C154.409 86.3805 154.359 86.5654 154.359 86.779H152.109C152.109 86.4196 152.193 86.0784 152.359 85.7555C152.526 85.4326 152.768 85.1488 153.086 84.904C153.404 84.654 153.781 84.4586 154.219 84.318C154.661 84.1774 155.156 84.1071 155.703 84.1071C156.359 84.1071 156.943 84.2165 157.453 84.4352C157.964 84.654 158.365 84.9821 158.656 85.4196C158.953 85.8571 159.102 86.404 159.102 87.0602V90.6774C159.102 91.1409 159.13 91.5211 159.188 91.818C159.245 92.1097 159.328 92.3649 159.438 92.5836V92.7165H157.164C157.055 92.4873 156.971 92.2008 156.914 91.8571C156.862 91.5081 156.836 91.1592 156.836 90.8102ZM157.133 87.568L157.148 88.8415H155.891C155.594 88.8415 155.336 88.8753 155.117 88.943C154.898 89.0107 154.719 89.1071 154.578 89.2321C154.438 89.3519 154.333 89.4925 154.266 89.654C154.203 89.8154 154.172 89.9925 154.172 90.1852C154.172 90.3779 154.216 90.5524 154.305 90.7086C154.393 90.8597 154.521 90.9795 154.688 91.068C154.854 91.1514 155.049 91.193 155.273 91.193C155.612 91.193 155.906 91.1253 156.156 90.9899C156.406 90.8545 156.599 90.6878 156.734 90.4899C156.875 90.292 156.948 90.1045 156.953 89.9274L157.547 90.8805C157.464 91.0941 157.349 91.3154 157.203 91.5446C157.062 91.7738 156.883 91.9899 156.664 92.193C156.445 92.3909 156.182 92.555 155.875 92.6852C155.568 92.8102 155.203 92.8727 154.781 92.8727C154.245 92.8727 153.758 92.7659 153.32 92.5524C152.888 92.3336 152.544 92.0342 152.289 91.654C152.039 91.2685 151.914 90.831 151.914 90.3415C151.914 89.8988 151.997 89.5055 152.164 89.1618C152.331 88.818 152.576 88.529 152.898 88.2946C153.227 88.055 153.635 87.8753 154.125 87.7555C154.615 87.6305 155.182 87.568 155.828 87.568H157.133Z" fill="#FFCC01"/>
<path d="M162.969 90.818L162.961 92.3258C162.961 92.904 162.815 93.4873 162.523 94.0758C162.237 94.6644 161.872 95.1461 161.43 95.5211L160.258 94.9196C160.388 94.68 160.516 94.4404 160.641 94.2008C160.766 93.9613 160.87 93.6982 160.953 93.4118C161.036 93.1253 161.078 92.7998 161.078 92.4352V90.818H162.969ZM174.82 89.7399C174.82 89.5368 174.789 89.3545 174.727 89.193C174.669 89.0264 174.56 88.8753 174.398 88.7399C174.237 88.5993 174.01 88.4613 173.719 88.3258C173.427 88.1904 173.049 88.0498 172.586 87.904C172.07 87.7373 171.581 87.5498 171.117 87.3415C170.659 87.1331 170.253 86.8909 169.898 86.6149C169.549 86.3336 169.273 86.0081 169.07 85.6383C168.872 85.2685 168.773 84.8389 168.773 84.3493C168.773 83.8753 168.878 83.4456 169.086 83.0602C169.294 82.6696 169.586 82.3363 169.961 82.0602C170.336 81.779 170.779 81.5628 171.289 81.4118C171.805 81.2607 172.37 81.1852 172.984 81.1852C173.823 81.1852 174.555 81.3363 175.18 81.6383C175.805 81.9404 176.289 82.3545 176.633 82.8805C176.982 83.4066 177.156 84.0081 177.156 84.6852H174.828C174.828 84.3519 174.758 84.0602 174.617 83.8102C174.482 83.555 174.273 83.3545 173.992 83.2086C173.716 83.0628 173.367 82.9899 172.945 82.9899C172.539 82.9899 172.201 83.0524 171.93 83.1774C171.659 83.2972 171.456 83.4613 171.32 83.6696C171.185 83.8727 171.117 84.1019 171.117 84.3571C171.117 84.5498 171.164 84.7243 171.258 84.8805C171.357 85.0368 171.503 85.1826 171.695 85.318C171.888 85.4534 172.125 85.581 172.406 85.7008C172.688 85.8206 173.013 85.9378 173.383 86.0524C174.003 86.2399 174.547 86.4508 175.016 86.6852C175.49 86.9196 175.885 87.1826 176.203 87.4743C176.521 87.7659 176.76 88.0967 176.922 88.4665C177.083 88.8363 177.164 89.2555 177.164 89.7243C177.164 90.2191 177.068 90.6618 176.875 91.0524C176.682 91.443 176.404 91.7738 176.039 92.0446C175.674 92.3154 175.24 92.5211 174.734 92.6618C174.229 92.8024 173.664 92.8727 173.039 92.8727C172.477 92.8727 171.922 92.7998 171.375 92.654C170.828 92.5029 170.331 92.2764 169.883 91.9743C169.44 91.6722 169.086 91.2868 168.82 90.818C168.555 90.3493 168.422 89.7946 168.422 89.154H170.773C170.773 89.5081 170.828 89.8076 170.938 90.0524C171.047 90.2972 171.201 90.4951 171.398 90.6461C171.602 90.7972 171.841 90.9066 172.117 90.9743C172.398 91.042 172.706 91.0758 173.039 91.0758C173.445 91.0758 173.779 91.0185 174.039 90.904C174.305 90.7894 174.5 90.6305 174.625 90.4274C174.755 90.2243 174.82 89.9951 174.82 89.7399ZM183.18 90.8102V87.0446C183.18 86.7738 183.135 86.542 183.047 86.3493C182.958 86.1514 182.82 85.9977 182.633 85.8883C182.451 85.779 182.214 85.7243 181.922 85.7243C181.672 85.7243 181.456 85.7685 181.273 85.8571C181.091 85.9404 180.951 86.0628 180.852 86.2243C180.753 86.3805 180.703 86.5654 180.703 86.779H178.453C178.453 86.4196 178.536 86.0784 178.703 85.7555C178.87 85.4326 179.112 85.1488 179.43 84.904C179.747 84.654 180.125 84.4586 180.562 84.318C181.005 84.1774 181.5 84.1071 182.047 84.1071C182.703 84.1071 183.286 84.2165 183.797 84.4352C184.307 84.654 184.708 84.9821 185 85.4196C185.297 85.8571 185.445 86.404 185.445 87.0602V90.6774C185.445 91.1409 185.474 91.5211 185.531 91.818C185.589 92.1097 185.672 92.3649 185.781 92.5836V92.7165H183.508C183.398 92.4873 183.315 92.2008 183.258 91.8571C183.206 91.5081 183.18 91.1592 183.18 90.8102ZM183.477 87.568L183.492 88.8415H182.234C181.938 88.8415 181.68 88.8753 181.461 88.943C181.242 89.0107 181.062 89.1071 180.922 89.2321C180.781 89.3519 180.677 89.4925 180.609 89.654C180.547 89.8154 180.516 89.9925 180.516 90.1852C180.516 90.3779 180.56 90.5524 180.648 90.7086C180.737 90.8597 180.865 90.9795 181.031 91.068C181.198 91.1514 181.393 91.193 181.617 91.193C181.956 91.193 182.25 91.1253 182.5 90.9899C182.75 90.8545 182.943 90.6878 183.078 90.4899C183.219 90.292 183.292 90.1045 183.297 89.9274L183.891 90.8805C183.807 91.0941 183.693 91.3154 183.547 91.5446C183.406 91.7738 183.227 91.9899 183.008 92.193C182.789 92.3909 182.526 92.555 182.219 92.6852C181.911 92.8102 181.547 92.8727 181.125 92.8727C180.589 92.8727 180.102 92.7659 179.664 92.5524C179.232 92.3336 178.888 92.0342 178.633 91.654C178.383 91.2685 178.258 90.831 178.258 90.3415C178.258 89.8988 178.341 89.5055 178.508 89.1618C178.674 88.818 178.919 88.529 179.242 88.2946C179.57 88.055 179.979 87.8753 180.469 87.7555C180.958 87.6305 181.526 87.568 182.172 87.568H183.477ZM189.375 80.7165V92.7165H187.125V80.7165H189.375ZM189.055 88.193H188.438C188.443 87.6045 188.521 87.0628 188.672 86.568C188.823 86.068 189.039 85.6357 189.32 85.2711C189.602 84.9014 189.938 84.6149 190.328 84.4118C190.724 84.2086 191.161 84.1071 191.641 84.1071C192.057 84.1071 192.435 84.167 192.773 84.2868C193.117 84.4014 193.411 84.5889 193.656 84.8493C193.906 85.1045 194.099 85.4404 194.234 85.8571C194.37 86.2738 194.438 86.779 194.438 87.3727V92.7165H192.172V87.3571C192.172 86.9821 192.117 86.6878 192.008 86.4743C191.904 86.2555 191.75 86.1019 191.547 86.0133C191.349 85.9196 191.104 85.8727 190.812 85.8727C190.49 85.8727 190.214 85.9326 189.984 86.0524C189.76 86.1722 189.581 86.3389 189.445 86.5524C189.31 86.7607 189.211 87.0055 189.148 87.2868C189.086 87.568 189.055 87.8701 189.055 88.193ZM200.711 90.8102V87.0446C200.711 86.7738 200.667 86.542 200.578 86.3493C200.49 86.1514 200.352 85.9977 200.164 85.8883C199.982 85.779 199.745 85.7243 199.453 85.7243C199.203 85.7243 198.987 85.7685 198.805 85.8571C198.622 85.9404 198.482 86.0628 198.383 86.2243C198.284 86.3805 198.234 86.5654 198.234 86.779H195.984C195.984 86.4196 196.068 86.0784 196.234 85.7555C196.401 85.4326 196.643 85.1488 196.961 84.904C197.279 84.654 197.656 84.4586 198.094 84.318C198.536 84.1774 199.031 84.1071 199.578 84.1071C200.234 84.1071 200.818 84.2165 201.328 84.4352C201.839 84.654 202.24 84.9821 202.531 85.4196C202.828 85.8571 202.977 86.404 202.977 87.0602V90.6774C202.977 91.1409 203.005 91.5211 203.062 91.818C203.12 92.1097 203.203 92.3649 203.312 92.5836V92.7165H201.039C200.93 92.4873 200.846 92.2008 200.789 91.8571C200.737 91.5081 200.711 91.1592 200.711 90.8102ZM201.008 87.568L201.023 88.8415H199.766C199.469 88.8415 199.211 88.8753 198.992 88.943C198.773 89.0107 198.594 89.1071 198.453 89.2321C198.312 89.3519 198.208 89.4925 198.141 89.654C198.078 89.8154 198.047 89.9925 198.047 90.1852C198.047 90.3779 198.091 90.5524 198.18 90.7086C198.268 90.8597 198.396 90.9795 198.562 91.068C198.729 91.1514 198.924 91.193 199.148 91.193C199.487 91.193 199.781 91.1253 200.031 90.9899C200.281 90.8545 200.474 90.6878 200.609 90.4899C200.75 90.292 200.823 90.1045 200.828 89.9274L201.422 90.8805C201.339 91.0941 201.224 91.3154 201.078 91.5446C200.938 91.7738 200.758 91.9899 200.539 92.193C200.32 92.3909 200.057 92.555 199.75 92.6852C199.443 92.8102 199.078 92.8727 198.656 92.8727C198.12 92.8727 197.633 92.7659 197.195 92.5524C196.763 92.3336 196.419 92.0342 196.164 91.654C195.914 91.2685 195.789 90.831 195.789 90.3415C195.789 89.8988 195.872 89.5055 196.039 89.1618C196.206 88.818 196.451 88.529 196.773 88.2946C197.102 88.055 197.51 87.8753 198 87.7555C198.49 87.6305 199.057 87.568 199.703 87.568H201.008ZM207.094 91.7633L209.336 84.2633H211.75L208.352 93.9899C208.279 94.2034 208.18 94.4326 208.055 94.6774C207.935 94.9222 207.771 95.154 207.562 95.3727C207.359 95.5967 207.102 95.779 206.789 95.9196C206.482 96.0602 206.104 96.1305 205.656 96.1305C205.443 96.1305 205.268 96.1175 205.133 96.0915C204.997 96.0654 204.836 96.029 204.648 95.9821V94.3336C204.706 94.3336 204.766 94.3336 204.828 94.3336C204.891 94.3389 204.951 94.3415 205.008 94.3415C205.305 94.3415 205.547 94.3076 205.734 94.2399C205.922 94.1722 206.073 94.068 206.188 93.9274C206.302 93.792 206.393 93.6149 206.461 93.3961L207.094 91.7633ZM206.156 84.2633L207.992 90.3883L208.312 92.7711L206.781 92.9352L203.742 84.2633H206.156ZM215.023 84.2633V92.7165H212.766V84.2633H215.023ZM212.625 82.0602C212.625 81.7321 212.74 81.4613 212.969 81.2477C213.198 81.0342 213.505 80.9274 213.891 80.9274C214.271 80.9274 214.576 81.0342 214.805 81.2477C215.039 81.4613 215.156 81.7321 215.156 82.0602C215.156 82.3883 215.039 82.6592 214.805 82.8727C214.576 83.0863 214.271 83.193 213.891 83.193C213.505 83.193 213.198 83.0863 212.969 82.8727C212.74 82.6592 212.625 82.3883 212.625 82.0602ZM219.133 80.7086V92.7165H216.883V80.7086H219.133ZM224.461 84.2633L220.789 88.4508L218.82 90.443L218 88.818L219.562 86.8336L221.758 84.2633H224.461ZM222.125 92.7165L219.625 88.8102L221.18 87.4508L224.719 92.7165H222.125ZM227.68 80.7086V92.7165H225.43V80.7086H227.68ZM233.008 84.2633L229.336 88.4508L227.367 90.443L226.547 88.818L228.109 86.8336L230.305 84.2633H233.008ZM230.672 92.7165L228.172 88.8102L229.727 87.4508L233.266 92.7165H230.672ZM238.977 90.693V84.2633H241.227V92.7165H239.109L238.977 90.693ZM239.227 88.9586L239.891 88.943C239.891 89.5055 239.826 90.029 239.695 90.5133C239.565 90.9925 239.37 91.4092 239.109 91.7633C238.849 92.1123 238.521 92.3857 238.125 92.5836C237.729 92.7764 237.263 92.8727 236.727 92.8727C236.315 92.8727 235.935 92.8154 235.586 92.7008C235.242 92.581 234.945 92.3961 234.695 92.1461C234.451 91.8909 234.258 91.5654 234.117 91.1696C233.982 90.7685 233.914 90.2868 233.914 89.7243V84.2633H236.164V89.7399C236.164 89.9899 236.193 90.2008 236.25 90.3727C236.312 90.5446 236.398 90.6852 236.508 90.7946C236.617 90.904 236.745 90.9821 236.891 91.029C237.042 91.0758 237.208 91.0993 237.391 91.0993C237.854 91.0993 238.219 91.0055 238.484 90.818C238.755 90.6305 238.945 90.3753 239.055 90.0524C239.169 89.7243 239.227 89.3597 239.227 88.9586ZM245.195 80.7086V92.7165H242.945V80.7086H245.195ZM250.523 84.2633L246.852 88.4508L244.883 90.443L244.062 88.818L245.625 86.8336L247.82 84.2633H250.523ZM248.188 92.7165L245.688 88.8102L247.242 87.4508L250.781 92.7165H248.188ZM256.055 90.8102V87.0446C256.055 86.7738 256.01 86.542 255.922 86.3493C255.833 86.1514 255.695 85.9977 255.508 85.8883C255.326 85.779 255.089 85.7243 254.797 85.7243C254.547 85.7243 254.331 85.7685 254.148 85.8571C253.966 85.9404 253.826 86.0628 253.727 86.2243C253.628 86.3805 253.578 86.5654 253.578 86.779H251.328C251.328 86.4196 251.411 86.0784 251.578 85.7555C251.745 85.4326 251.987 85.1488 252.305 84.904C252.622 84.654 253 84.4586 253.438 84.318C253.88 84.1774 254.375 84.1071 254.922 84.1071C255.578 84.1071 256.161 84.2165 256.672 84.4352C257.182 84.654 257.583 84.9821 257.875 85.4196C258.172 85.8571 258.32 86.404 258.32 87.0602V90.6774C258.32 91.1409 258.349 91.5211 258.406 91.818C258.464 92.1097 258.547 92.3649 258.656 92.5836V92.7165H256.383C256.273 92.4873 256.19 92.2008 256.133 91.8571C256.081 91.5081 256.055 91.1592 256.055 90.8102ZM256.352 87.568L256.367 88.8415H255.109C254.812 88.8415 254.555 88.8753 254.336 88.943C254.117 89.0107 253.938 89.1071 253.797 89.2321C253.656 89.3519 253.552 89.4925 253.484 89.654C253.422 89.8154 253.391 89.9925 253.391 90.1852C253.391 90.3779 253.435 90.5524 253.523 90.7086C253.612 90.8597 253.74 90.9795 253.906 91.068C254.073 91.1514 254.268 91.193 254.492 91.193C254.831 91.193 255.125 91.1253 255.375 90.9899C255.625 90.8545 255.818 90.6878 255.953 90.4899C256.094 90.292 256.167 90.1045 256.172 89.9274L256.766 90.8805C256.682 91.0941 256.568 91.3154 256.422 91.5446C256.281 91.7738 256.102 91.9899 255.883 92.193C255.664 92.3909 255.401 92.555 255.094 92.6852C254.786 92.8102 254.422 92.8727 254 92.8727C253.464 92.8727 252.977 92.7659 252.539 92.5524C252.107 92.3336 251.763 92.0342 251.508 91.654C251.258 91.2685 251.133 90.831 251.133 90.3415C251.133 89.8988 251.216 89.5055 251.383 89.1618C251.549 88.818 251.794 88.529 252.117 88.2946C252.445 88.055 252.854 87.8753 253.344 87.7555C253.833 87.6305 254.401 87.568 255.047 87.568H256.352ZM262.188 90.818L262.18 92.3258C262.18 92.904 262.034 93.4873 261.742 94.0758C261.456 94.6644 261.091 95.1461 260.648 95.5211L259.477 94.9196C259.607 94.68 259.734 94.4404 259.859 94.2008C259.984 93.9613 260.089 93.6982 260.172 93.4118C260.255 93.1253 260.297 92.7998 260.297 92.4352V90.818H262.188Z" fill="white"/>
<path d="M274.039 89.7399C274.039 89.5368 274.008 89.3545 273.945 89.193C273.888 89.0264 273.779 88.8753 273.617 88.7399C273.456 88.5993 273.229 88.4613 272.938 88.3258C272.646 88.1904 272.268 88.0498 271.805 87.904C271.289 87.7373 270.799 87.5498 270.336 87.3415C269.878 87.1331 269.471 86.8909 269.117 86.6149C268.768 86.3336 268.492 86.0081 268.289 85.6383C268.091 85.2685 267.992 84.8389 267.992 84.3493C267.992 83.8753 268.096 83.4456 268.305 83.0602C268.513 82.6696 268.805 82.3363 269.18 82.0602C269.555 81.779 269.997 81.5628 270.508 81.4118C271.023 81.2607 271.589 81.1852 272.203 81.1852C273.042 81.1852 273.773 81.3363 274.398 81.6383C275.023 81.9404 275.508 82.3545 275.852 82.8805C276.201 83.4066 276.375 84.0081 276.375 84.6852H274.047C274.047 84.3519 273.977 84.0602 273.836 83.8102C273.701 83.555 273.492 83.3545 273.211 83.2086C272.935 83.0628 272.586 82.9899 272.164 82.9899C271.758 82.9899 271.419 83.0524 271.148 83.1774C270.878 83.2972 270.674 83.4613 270.539 83.6696C270.404 83.8727 270.336 84.1019 270.336 84.3571C270.336 84.5498 270.383 84.7243 270.477 84.8805C270.576 85.0368 270.721 85.1826 270.914 85.318C271.107 85.4534 271.344 85.581 271.625 85.7008C271.906 85.8206 272.232 85.9378 272.602 86.0524C273.221 86.2399 273.766 86.4508 274.234 86.6852C274.708 86.9196 275.104 87.1826 275.422 87.4743C275.74 87.7659 275.979 88.0967 276.141 88.4665C276.302 88.8363 276.383 89.2555 276.383 89.7243C276.383 90.2191 276.286 90.6618 276.094 91.0524C275.901 91.443 275.622 91.7738 275.258 92.0446C274.893 92.3154 274.458 92.5211 273.953 92.6618C273.448 92.8024 272.883 92.8727 272.258 92.8727C271.695 92.8727 271.141 92.7998 270.594 92.654C270.047 92.5029 269.549 92.2764 269.102 91.9743C268.659 91.6722 268.305 91.2868 268.039 90.818C267.773 90.3493 267.641 89.7946 267.641 89.154H269.992C269.992 89.5081 270.047 89.8076 270.156 90.0524C270.266 90.2972 270.419 90.4951 270.617 90.6461C270.82 90.7972 271.06 90.9066 271.336 90.9743C271.617 91.042 271.924 91.0758 272.258 91.0758C272.664 91.0758 272.997 91.0185 273.258 90.904C273.523 90.7894 273.719 90.6305 273.844 90.4274C273.974 90.2243 274.039 89.9951 274.039 89.7399ZM282.398 90.8102V87.0446C282.398 86.7738 282.354 86.542 282.266 86.3493C282.177 86.1514 282.039 85.9977 281.852 85.8883C281.669 85.779 281.432 85.7243 281.141 85.7243C280.891 85.7243 280.674 85.7685 280.492 85.8571C280.31 85.9404 280.169 86.0628 280.07 86.2243C279.971 86.3805 279.922 86.5654 279.922 86.779H277.672C277.672 86.4196 277.755 86.0784 277.922 85.7555C278.089 85.4326 278.331 85.1488 278.648 84.904C278.966 84.654 279.344 84.4586 279.781 84.318C280.224 84.1774 280.719 84.1071 281.266 84.1071C281.922 84.1071 282.505 84.2165 283.016 84.4352C283.526 84.654 283.927 84.9821 284.219 85.4196C284.516 85.8571 284.664 86.404 284.664 87.0602V90.6774C284.664 91.1409 284.693 91.5211 284.75 91.818C284.807 92.1097 284.891 92.3649 285 92.5836V92.7165H282.727C282.617 92.4873 282.534 92.2008 282.477 91.8571C282.424 91.5081 282.398 91.1592 282.398 90.8102ZM282.695 87.568L282.711 88.8415H281.453C281.156 88.8415 280.898 88.8753 280.68 88.943C280.461 89.0107 280.281 89.1071 280.141 89.2321C280 89.3519 279.896 89.4925 279.828 89.654C279.766 89.8154 279.734 89.9925 279.734 90.1852C279.734 90.3779 279.779 90.5524 279.867 90.7086C279.956 90.8597 280.083 90.9795 280.25 91.068C280.417 91.1514 280.612 91.193 280.836 91.193C281.174 91.193 281.469 91.1253 281.719 90.9899C281.969 90.8545 282.161 90.6878 282.297 90.4899C282.438 90.292 282.51 90.1045 282.516 89.9274L283.109 90.8805C283.026 91.0941 282.911 91.3154 282.766 91.5446C282.625 91.7738 282.445 91.9899 282.227 92.193C282.008 92.3909 281.745 92.555 281.438 92.6852C281.13 92.8102 280.766 92.8727 280.344 92.8727C279.807 92.8727 279.32 92.7659 278.883 92.5524C278.451 92.3336 278.107 92.0342 277.852 91.654C277.602 91.2685 277.477 90.831 277.477 90.3415C277.477 89.8988 277.56 89.5055 277.727 89.1618C277.893 88.818 278.138 88.529 278.461 88.2946C278.789 88.055 279.198 87.8753 279.688 87.7555C280.177 87.6305 280.745 87.568 281.391 87.568H282.695ZM288.648 86.0133V92.7165H286.391V84.2633H288.508L288.648 86.0133ZM288.336 88.193H287.711C287.711 87.6045 287.781 87.0628 287.922 86.568C288.068 86.068 288.279 85.6357 288.555 85.2711C288.836 84.9014 289.182 84.6149 289.594 84.4118C290.005 84.2086 290.482 84.1071 291.023 84.1071C291.398 84.1071 291.742 84.1644 292.055 84.279C292.367 84.3883 292.635 84.5628 292.859 84.8024C293.089 85.0368 293.266 85.3441 293.391 85.7243C293.516 86.0993 293.578 86.5498 293.578 87.0758V92.7165H291.328V87.3258C291.328 86.9404 291.276 86.6435 291.172 86.4352C291.068 86.2269 290.919 86.081 290.727 85.9977C290.539 85.9144 290.312 85.8727 290.047 85.8727C289.755 85.8727 289.5 85.9326 289.281 86.0524C289.068 86.1722 288.891 86.3389 288.75 86.5524C288.609 86.7607 288.505 87.0055 288.438 87.2868C288.37 87.568 288.336 87.8701 288.336 88.193ZM293.367 87.9352L292.562 88.0368C292.562 87.4847 292.63 86.9717 292.766 86.4977C292.906 86.0238 293.112 85.6071 293.383 85.2477C293.659 84.8883 294 84.6097 294.406 84.4118C294.812 84.2086 295.281 84.1071 295.812 84.1071C296.219 84.1071 296.589 84.167 296.922 84.2868C297.255 84.4014 297.539 84.5863 297.773 84.8415C298.013 85.0915 298.195 85.4196 298.32 85.8258C298.451 86.2321 298.516 86.7295 298.516 87.318V92.7165H296.258V87.318C296.258 86.9274 296.206 86.6305 296.102 86.4274C296.003 86.2191 295.857 86.0758 295.664 85.9977C295.477 85.9144 295.253 85.8727 294.992 85.8727C294.721 85.8727 294.484 85.9274 294.281 86.0368C294.078 86.1409 293.909 86.2868 293.773 86.4743C293.638 86.6618 293.536 86.8805 293.469 87.1305C293.401 87.3753 293.367 87.6435 293.367 87.9352ZM300.258 80.7165H302.508V90.779L302.281 92.7165H300.258V80.7165ZM307.859 88.404V88.568C307.859 89.1982 307.792 89.7764 307.656 90.3024C307.526 90.8284 307.323 91.2842 307.047 91.6696C306.771 92.0498 306.427 92.3467 306.016 92.5602C305.609 92.7685 305.13 92.8727 304.578 92.8727C304.062 92.8727 303.615 92.7685 303.234 92.5602C302.859 92.3519 302.544 92.0576 302.289 91.6774C302.034 91.2972 301.828 90.8519 301.672 90.3415C301.516 89.831 301.398 89.2738 301.32 88.6696V88.3102C301.398 87.706 301.516 87.1488 301.672 86.6383C301.828 86.1279 302.034 85.6826 302.289 85.3024C302.544 84.9222 302.859 84.6279 303.234 84.4196C303.609 84.2113 304.052 84.1071 304.562 84.1071C305.12 84.1071 305.604 84.2139 306.016 84.4274C306.432 84.6357 306.776 84.9326 307.047 85.318C307.323 85.6982 307.526 86.1514 307.656 86.6774C307.792 87.1982 307.859 87.7738 307.859 88.404ZM305.609 88.568V88.404C305.609 88.0602 305.583 87.7373 305.531 87.4352C305.484 87.1279 305.401 86.8597 305.281 86.6305C305.161 86.3961 304.997 86.2113 304.789 86.0758C304.586 85.9404 304.323 85.8727 304 85.8727C303.693 85.8727 303.432 85.9248 303.219 86.029C303.005 86.1331 302.828 86.279 302.688 86.4665C302.552 86.654 302.451 86.8779 302.383 87.1383C302.315 87.3935 302.273 87.6748 302.258 87.9821V89.0055C302.273 89.417 302.341 89.7816 302.461 90.0993C302.586 90.4118 302.773 90.6592 303.023 90.8415C303.279 91.0185 303.609 91.1071 304.016 91.1071C304.333 91.1071 304.596 91.0446 304.805 90.9196C305.013 90.7946 305.174 90.6175 305.289 90.3883C305.409 90.1592 305.492 89.8909 305.539 89.5836C305.586 89.2711 305.609 88.9326 305.609 88.568ZM313.82 90.8102V87.0446C313.82 86.7738 313.776 86.542 313.688 86.3493C313.599 86.1514 313.461 85.9977 313.273 85.8883C313.091 85.779 312.854 85.7243 312.562 85.7243C312.312 85.7243 312.096 85.7685 311.914 85.8571C311.732 85.9404 311.591 86.0628 311.492 86.2243C311.393 86.3805 311.344 86.5654 311.344 86.779H309.094C309.094 86.4196 309.177 86.0784 309.344 85.7555C309.51 85.4326 309.753 85.1488 310.07 84.904C310.388 84.654 310.766 84.4586 311.203 84.318C311.646 84.1774 312.141 84.1071 312.688 84.1071C313.344 84.1071 313.927 84.2165 314.438 84.4352C314.948 84.654 315.349 84.9821 315.641 85.4196C315.938 85.8571 316.086 86.404 316.086 87.0602V90.6774C316.086 91.1409 316.115 91.5211 316.172 91.818C316.229 92.1097 316.312 92.3649 316.422 92.5836V92.7165H314.148C314.039 92.4873 313.956 92.2008 313.898 91.8571C313.846 91.5081 313.82 91.1592 313.82 90.8102ZM314.117 87.568L314.133 88.8415H312.875C312.578 88.8415 312.32 88.8753 312.102 88.943C311.883 89.0107 311.703 89.1071 311.562 89.2321C311.422 89.3519 311.318 89.4925 311.25 89.654C311.188 89.8154 311.156 89.9925 311.156 90.1852C311.156 90.3779 311.201 90.5524 311.289 90.7086C311.378 90.8597 311.505 90.9795 311.672 91.068C311.839 91.1514 312.034 91.193 312.258 91.193C312.596 91.193 312.891 91.1253 313.141 90.9899C313.391 90.8545 313.583 90.6878 313.719 90.4899C313.859 90.292 313.932 90.1045 313.938 89.9274L314.531 90.8805C314.448 91.0941 314.333 91.3154 314.188 91.5446C314.047 91.7738 313.867 91.9899 313.648 92.193C313.43 92.3909 313.167 92.555 312.859 92.6852C312.552 92.8102 312.188 92.8727 311.766 92.8727C311.229 92.8727 310.742 92.7659 310.305 92.5524C309.872 92.3336 309.529 92.0342 309.273 91.654C309.023 91.2685 308.898 90.831 308.898 90.3415C308.898 89.8988 308.982 89.5055 309.148 89.1618C309.315 88.818 309.56 88.529 309.883 88.2946C310.211 88.055 310.62 87.8753 311.109 87.7555C311.599 87.6305 312.167 87.568 312.812 87.568H314.117ZM322.812 90.8727V80.7165H325.078V92.7165H323.039L322.812 90.8727ZM317.469 88.5915V88.4274C317.469 87.7816 317.542 87.1956 317.688 86.6696C317.833 86.1383 318.047 85.6826 318.328 85.3024C318.609 84.9222 318.956 84.6279 319.367 84.4196C319.779 84.2113 320.247 84.1071 320.773 84.1071C321.268 84.1071 321.701 84.2113 322.07 84.4196C322.445 84.6279 322.763 84.9248 323.023 85.3102C323.289 85.6904 323.503 86.1409 323.664 86.6618C323.826 87.1774 323.943 87.7425 324.016 88.3571V88.7165C323.943 89.305 323.826 89.8519 323.664 90.3571C323.503 90.8623 323.289 91.305 323.023 91.6852C322.763 92.0602 322.445 92.3519 322.07 92.5602C321.695 92.7685 321.258 92.8727 320.758 92.8727C320.232 92.8727 319.763 92.7659 319.352 92.5524C318.945 92.3389 318.602 92.0394 318.32 91.654C318.044 91.2685 317.833 90.8154 317.688 90.2946C317.542 89.7738 317.469 89.206 317.469 88.5915ZM319.719 88.4274V88.5915C319.719 88.9404 319.745 89.2659 319.797 89.568C319.854 89.8701 319.945 90.1383 320.07 90.3727C320.201 90.6019 320.367 90.7816 320.57 90.9118C320.779 91.0368 321.031 91.0993 321.328 91.0993C321.714 91.0993 322.031 91.0133 322.281 90.8415C322.531 90.6644 322.721 90.4222 322.852 90.1149C322.987 89.8076 323.065 89.4534 323.086 89.0524V88.029C323.07 87.7008 323.023 87.4066 322.945 87.1461C322.872 86.8805 322.763 86.654 322.617 86.4665C322.477 86.279 322.299 86.1331 322.086 86.029C321.878 85.9248 321.63 85.8727 321.344 85.8727C321.052 85.8727 320.802 85.9404 320.594 86.0758C320.385 86.206 320.216 86.3857 320.086 86.6149C319.961 86.8441 319.867 87.1149 319.805 87.4274C319.747 87.7347 319.719 88.068 319.719 88.4274ZM329.211 84.2633V92.7165H326.953V84.2633H329.211ZM326.812 82.0602C326.812 81.7321 326.927 81.4613 327.156 81.2477C327.385 81.0342 327.693 80.9274 328.078 80.9274C328.458 80.9274 328.763 81.0342 328.992 81.2477C329.227 81.4613 329.344 81.7321 329.344 82.0602C329.344 82.3883 329.227 82.6592 328.992 82.8727C328.763 83.0863 328.458 83.193 328.078 83.193C327.693 83.193 327.385 83.0863 327.156 82.8727C326.927 82.6592 326.812 82.3883 326.812 82.0602ZM333.32 80.7086V92.7165H331.07V80.7086H333.32ZM338.648 84.2633L334.977 88.4508L333.008 90.443L332.188 88.818L333.75 86.8336L335.945 84.2633H338.648ZM336.312 92.7165L333.812 88.8102L335.367 87.4508L338.906 92.7165H336.312ZM341.867 80.7086V92.7165H339.617V80.7086H341.867ZM347.195 84.2633L343.523 88.4508L341.555 90.443L340.734 88.818L342.297 86.8336L344.492 84.2633H347.195ZM344.859 92.7165L342.359 88.8102L343.914 87.4508L347.453 92.7165H344.859ZM353.164 90.693V84.2633H355.414V92.7165H353.297L353.164 90.693ZM353.414 88.9586L354.078 88.943C354.078 89.5055 354.013 90.029 353.883 90.5133C353.753 90.9925 353.557 91.4092 353.297 91.7633C353.036 92.1123 352.708 92.3857 352.312 92.5836C351.917 92.7764 351.451 92.8727 350.914 92.8727C350.503 92.8727 350.122 92.8154 349.773 92.7008C349.43 92.581 349.133 92.3961 348.883 92.1461C348.638 91.8909 348.445 91.5654 348.305 91.1696C348.169 90.7685 348.102 90.2868 348.102 89.7243V84.2633H350.352V89.7399C350.352 89.9899 350.38 90.2008 350.438 90.3727C350.5 90.5446 350.586 90.6852 350.695 90.7946C350.805 90.904 350.932 90.9821 351.078 91.029C351.229 91.0758 351.396 91.0993 351.578 91.0993C352.042 91.0993 352.406 91.0055 352.672 90.818C352.943 90.6305 353.133 90.3753 353.242 90.0524C353.357 89.7243 353.414 89.3597 353.414 88.9586ZM359.383 80.7086V92.7165H357.133V80.7086H359.383ZM364.711 84.2633L361.039 88.4508L359.07 90.443L358.25 88.818L359.812 86.8336L362.008 84.2633H364.711ZM362.375 92.7165L359.875 88.8102L361.43 87.4508L364.969 92.7165H362.375ZM370.242 90.8102V87.0446C370.242 86.7738 370.198 86.542 370.109 86.3493C370.021 86.1514 369.883 85.9977 369.695 85.8883C369.513 85.779 369.276 85.7243 368.984 85.7243C368.734 85.7243 368.518 85.7685 368.336 85.8571C368.154 85.9404 368.013 86.0628 367.914 86.2243C367.815 86.3805 367.766 86.5654 367.766 86.779H365.516C365.516 86.4196 365.599 86.0784 365.766 85.7555C365.932 85.4326 366.174 85.1488 366.492 84.904C366.81 84.654 367.188 84.4586 367.625 84.318C368.068 84.1774 368.562 84.1071 369.109 84.1071C369.766 84.1071 370.349 84.2165 370.859 84.4352C371.37 84.654 371.771 84.9821 372.062 85.4196C372.359 85.8571 372.508 86.404 372.508 87.0602V90.6774C372.508 91.1409 372.536 91.5211 372.594 91.818C372.651 92.1097 372.734 92.3649 372.844 92.5836V92.7165H370.57C370.461 92.4873 370.378 92.2008 370.32 91.8571C370.268 91.5081 370.242 91.1592 370.242 90.8102ZM370.539 87.568L370.555 88.8415H369.297C369 88.8415 368.742 88.8753 368.523 88.943C368.305 89.0107 368.125 89.1071 367.984 89.2321C367.844 89.3519 367.74 89.4925 367.672 89.654C367.609 89.8154 367.578 89.9925 367.578 90.1852C367.578 90.3779 367.622 90.5524 367.711 90.7086C367.799 90.8597 367.927 90.9795 368.094 91.068C368.26 91.1514 368.456 91.193 368.68 91.193C369.018 91.193 369.312 91.1253 369.562 90.9899C369.812 90.8545 370.005 90.6878 370.141 90.4899C370.281 90.292 370.354 90.1045 370.359 89.9274L370.953 90.8805C370.87 91.0941 370.755 91.3154 370.609 91.5446C370.469 91.7738 370.289 91.9899 370.07 92.193C369.852 92.3909 369.589 92.555 369.281 92.6852C368.974 92.8102 368.609 92.8727 368.188 92.8727C367.651 92.8727 367.164 92.7659 366.727 92.5524C366.294 92.3336 365.951 92.0342 365.695 91.654C365.445 91.2685 365.32 90.831 365.32 90.3415C365.32 89.8988 365.404 89.5055 365.57 89.1618C365.737 88.818 365.982 88.529 366.305 88.2946C366.633 88.055 367.042 87.8753 367.531 87.7555C368.021 87.6305 368.589 87.568 369.234 87.568H370.539Z" fill="#00BE35"/>
</svg>
