<svg width="364" height="252" viewBox="0 0 364 252" fill="none" xmlns="http://www.w3.org/2000/svg">
<g clip-path="url(#clip0_618_6791)">
<path d="M179.626 18.7332C190.618 18.7332 199.52 27.6353 199.52 38.6275C199.52 49.6197 190.618 58.5218 179.626 58.5218C168.633 58.5218 159.731 49.6197 159.731 38.6275C159.731 27.6353 168.633 18.7332 179.626 18.7332ZM179.626 0C158.338 0 140.998 17.3398 140.998 38.6275C140.998 59.9152 158.322 77.255 179.626 77.255C200.929 77.255 218.253 59.9307 218.253 38.6275C218.253 17.3243 200.929 0 179.626 0Z" fill="white"/>
<path d="M95.9447 47.9631C92.291 54.8371 84.7048 59.3114 76.2052 58.4134C66.5754 57.3916 58.9583 49.2481 58.5093 39.5719C57.983 28.1616 67.0863 18.7331 78.3727 18.7331C84.3178 18.7331 89.6591 21.3496 93.2973 25.4833C95.8054 28.3319 99.7378 29.4157 103.283 28.0688C103.593 27.9449 103.902 27.8365 104.197 27.7127C109.863 25.5452 111.798 18.3925 107.897 13.7634C99.9081 4.27297 87.4297 -1.31602 73.7746 0.263139C56.1251 2.32224 41.9436 16.5657 39.9774 34.2306C37.3919 57.469 55.6142 77.2395 78.3572 77.2395C93.127 77.2395 105.993 68.8947 112.479 56.6794C115.7 50.6105 111.133 43.303 104.274 43.2566C104.212 43.2566 104.135 43.2566 104.073 43.2566C100.713 43.2256 97.5239 44.9905 95.9293 47.9631H95.9447Z" fill="#FFCC01"/>
<path d="M153.848 137.062L115.685 98.8833C107.185 90.3837 95.8987 85.7236 83.9002 85.7236C71.9016 85.7236 60.5998 90.3992 52.1157 98.8833L13.9372 137.062C-3.58843 154.587 -3.58843 183.121 13.9372 200.646L37.0053 223.699L52.1157 238.809C60.6153 247.309 71.9016 251.969 83.9002 251.969C84.5195 251.969 85.1078 251.969 85.7116 251.923C97.0444 251.474 107.634 246.86 115.7 238.794L153.863 200.631C155.334 199.175 156.65 197.643 157.873 196.033C171.265 178.43 169.933 153.132 153.863 137.046L153.848 137.062ZM128.628 175.426L90.4645 213.589C90.0155 214.038 89.5046 214.441 88.9783 214.781C88.7925 214.905 88.6067 215.014 88.4209 215.106C88.328 215.184 88.2042 215.23 88.1113 215.277C87.941 215.37 87.7707 215.447 87.6004 215.524C87.461 215.602 87.3217 215.648 87.1514 215.71C87.0895 215.741 87.0275 215.757 86.9656 215.788C86.9656 215.788 86.9037 215.788 86.8263 215.834C86.7798 215.834 86.7334 215.865 86.6869 215.881C86.5476 215.942 86.3928 215.973 86.238 216.004C86.176 216.004 86.1141 216.035 86.0367 216.051C85.9438 216.082 85.8199 216.097 85.7116 216.128C85.4484 216.206 85.2007 216.237 84.9375 216.252C84.7981 216.252 84.6588 216.283 84.504 216.299C84.2872 216.299 84.086 216.33 83.8847 216.33H83.8537C82.6152 216.33 81.3611 216.066 80.2 215.555C79.1472 215.106 78.1564 214.456 77.3048 213.605L55.9862 192.301L39.1263 175.442C35.5035 171.803 35.5035 165.92 39.1263 162.297L77.3048 124.119C79.1162 122.308 81.5005 121.394 83.8692 121.394C86.2379 121.394 88.6067 122.308 90.4336 124.119L128.597 162.297C131.863 165.549 132.188 170.627 129.572 174.25C129.309 174.668 128.968 175.055 128.597 175.426H128.628Z" fill="#FFCC01"/>
<path d="M157.842 196.048C156.635 197.658 155.303 199.191 153.833 200.646L115.669 238.809C107.603 246.876 97.0137 251.489 85.6809 251.938C85.0771 251.969 84.4888 251.985 83.8695 251.985C71.8555 251.985 60.5691 247.309 52.085 238.825L36.9746 223.715C42.0062 214.131 48.4003 203.541 55.9865 192.286L77.3051 213.589C78.1566 214.441 79.1475 215.107 80.2003 215.54C81.3614 216.051 82.6155 216.314 83.854 216.314H83.885C84.1017 216.314 84.303 216.314 84.5043 216.283C84.6436 216.283 84.7829 216.252 84.9377 216.237C85.2009 216.19 85.4641 216.144 85.7118 216.113C85.8202 216.082 85.9441 216.066 86.037 216.035C86.1144 216.035 86.1763 216.004 86.2382 215.989C86.3776 215.958 86.5324 215.912 86.6872 215.865C86.7491 215.865 86.7801 215.834 86.8266 215.819C86.9194 215.788 86.9659 215.772 86.9659 215.772C87.0278 215.741 87.0897 215.726 87.1517 215.695C87.3065 215.633 87.4458 215.586 87.6007 215.509C87.771 215.432 87.9412 215.37 88.1115 215.261C88.2044 215.215 88.3283 215.168 88.4212 215.091C88.607 214.998 88.7928 214.89 88.9785 214.766C89.5049 214.425 90.0004 214.023 90.4648 213.574L128.628 175.411C128.999 175.039 129.325 174.637 129.603 174.234L137.22 175.411L157.858 196.033L157.842 196.048Z" fill="#FFCC01"/>
<path d="M251.928 137.062L213.75 98.8988C205.25 90.3992 193.964 85.7236 181.965 85.7236C169.967 85.7236 158.665 90.3992 150.181 98.8988L132.949 116.146L153.865 137.062C155.336 138.517 156.652 140.05 157.875 141.66L175.416 124.134C177.228 122.323 179.612 121.41 181.981 121.41C184.349 121.41 186.749 122.323 188.56 124.134L226.723 162.297C230.362 165.936 230.362 171.803 226.723 175.442L188.56 213.605C186.749 215.416 184.349 216.33 181.981 216.33C179.612 216.33 177.228 215.416 175.416 213.605L157.891 196.079L137.253 175.457C135.38 173.568 134.466 171.091 134.559 168.63C132.918 166.88 131.231 165.131 129.605 163.428C129.326 163.041 129.001 162.654 128.661 162.313L123.939 157.606C123.768 157.436 123.598 157.25 123.443 157.096C114.82 148.317 108.054 141.691 108.054 141.691C102.125 149.478 98.9043 158.938 98.9043 168.893C98.9043 178.848 102.125 188.307 108.07 196.095C109.277 197.705 110.624 199.237 112.079 200.693L140.613 229.226L150.243 238.871C158.742 247.371 170.028 252.046 182.027 252.046C194.026 252.046 205.327 247.371 213.811 238.871L251.99 200.693C269.516 183.167 269.516 154.634 251.99 137.108L251.928 137.062Z" fill="white"/>
<path d="M350.84 137.062L312.677 98.9143C308.125 94.3626 302.784 90.9101 296.947 88.6962C291.885 86.7455 286.466 85.7391 280.893 85.7391C268.879 85.7391 257.592 90.4302 249.108 98.9143L231.443 116.564L251.941 137.062C253.552 138.672 255.022 140.375 256.323 142.155L274.328 124.15C276.14 122.323 278.524 121.425 280.893 121.425C283.261 121.425 285.63 122.323 287.457 124.15L325.62 162.313C329.243 165.951 329.243 171.819 325.62 175.457L287.457 213.62C285.63 215.432 283.246 216.345 280.893 216.345C278.539 216.345 276.14 215.432 274.328 213.62L258.15 197.457C258.15 197.457 258.15 197.457 258.15 197.426L256.307 195.599L236.165 175.457C234.509 173.785 233.595 171.649 233.471 169.497C231.567 167.484 229.632 165.502 227.759 163.582C227.48 163.133 227.124 162.715 226.721 162.313L217.107 152.714L215.311 150.903L213.624 149.215C210.434 145.995 208.05 143.626 207.075 142.682L206.579 142.171C194.89 157.993 194.906 179.792 206.579 195.615C207.895 197.38 209.35 199.083 210.961 200.677L231.459 221.175L240.036 229.752L249.124 238.84C257.623 247.34 268.91 252.015 280.908 252.015C292.907 252.015 304.209 247.324 312.693 238.84L350.856 200.662C368.381 183.136 368.381 154.618 350.856 137.077L350.84 137.062Z" fill="#FFCC01"/>
<path d="M280.893 121.41C278.509 121.41 276.14 122.308 274.328 124.134L256.323 142.14C255.007 140.375 253.552 138.656 251.941 137.046L231.443 116.548L249.108 98.8988C257.608 90.3992 268.894 85.7236 280.893 85.7236C286.466 85.7236 291.9 86.73 296.948 88.6807C314.38 105.773 280.893 121.394 280.893 121.394V121.41Z" fill="#FFCC01"/>
<path d="M263.305 29.2919C266.959 22.4179 274.545 17.9436 283.044 18.8416C292.674 19.8634 300.291 28.0069 300.74 37.6831C301.267 49.0933 292.163 58.5218 280.877 58.5218C274.932 58.5218 269.591 55.9054 265.952 51.7717C263.444 48.923 259.512 47.8393 255.967 49.1862C255.657 49.3101 255.347 49.4184 255.053 49.5423C249.387 51.7098 247.451 58.8624 251.353 63.4915C259.357 72.982 271.82 78.571 285.475 76.9918C303.125 74.9327 317.306 60.6893 319.272 43.0244C321.842 19.7705 303.635 0 280.877 0C266.107 0 253.242 8.34478 246.755 20.5601C243.534 26.629 248.102 33.9365 254.96 33.9829C255.022 33.9829 255.1 33.9829 255.161 33.9829C258.521 34.0139 261.71 32.2489 263.305 29.2764V29.2919Z" fill="#FFCC01"/>
<path d="M78.1099 18.7332C89.1021 18.7332 98.0043 27.6353 98.0043 38.6275C98.0043 49.6197 89.1021 58.5218 78.1099 58.5218C67.1177 58.5218 58.2156 49.6197 58.2156 38.6275C58.2156 27.6353 67.1177 18.7332 78.1099 18.7332ZM78.1099 0C56.8222 0 39.4824 17.3398 39.4824 38.6275C39.4824 59.9152 56.8067 77.255 78.1099 77.255C99.4131 77.255 116.737 59.9307 116.737 38.6275C116.737 17.3243 99.4131 0 78.1099 0Z" fill="#FFCC01"/>
<path d="M280.924 18.7332C291.917 18.7332 300.819 27.6353 300.819 38.6275C300.819 49.6197 291.917 58.5218 280.924 58.5218C269.932 58.5218 261.03 49.6197 261.03 38.6275C261.03 27.6353 269.932 18.7332 280.924 18.7332ZM280.924 0C259.637 0 242.297 17.3398 242.297 38.6275C242.297 59.9152 259.621 77.255 280.924 77.255C302.228 77.255 319.552 59.9307 319.552 38.6275C319.552 17.3243 302.228 0 280.924 0Z" fill="#FFCC01"/>
</g>
<defs>
<clipPath id="clip0_618_6791">
<rect width="363.222" height="252" fill="white" transform="translate(0.777344)"/>
</clipPath>
</defs>
</svg>
